<?xml version="1.0" encoding="iso-8859-1"?>
<!-- Generator: Adobe Illustrator 19.0.0, SVG Export Plug-In . SVG Version: 6.00 Build 0)  -->
<svg version="1.1" id="Layer_1" xmlns="http://www.w3.org/2000/svg" xmlns:xlink="http://www.w3.org/1999/xlink" x="0px" y="0px"
	 viewBox="0 0 512 512" style="enable-background:new 0 0 512 512;" xml:space="preserve">
<rect x="29.905" y="14.299" style="fill:#4DA081;" width="452.186" height="282.768"/>
<g>
	<path style="fill:#FFDCAA;" d="M255.998,297.06H96.241V88.126h114.316c25.097,0,45.442,20.345,45.442,45.442V297.06z"/>
	<path style="fill:#FFDCAA;" d="M415.756,297.06H255.998V133.568c0-25.097,20.345-45.442,45.442-45.442h114.316V297.06z"/>
</g>
<path d="M375.01,169.346c-0.928,0-1.873-0.1-2.787-0.286c-0.917-0.172-1.817-0.458-2.674-0.815
	c-0.872-0.357-1.702-0.801-2.474-1.316c-0.786-0.515-1.516-1.115-2.173-1.773c-0.658-0.658-1.258-1.387-1.773-2.173
	c-0.515-0.772-0.958-1.602-1.316-2.459c-0.357-0.872-0.629-1.773-0.815-2.688c-0.186-0.915-0.286-1.859-0.286-2.788
	s0.1-1.873,0.286-2.788c0.186-0.915,0.458-1.816,0.815-2.674c0.357-0.872,0.801-1.702,1.316-2.474
	c0.515-0.786,1.115-1.516,1.773-2.173c0.658-0.658,1.387-1.258,2.173-1.773c0.772-0.515,1.602-0.958,2.474-1.316
	c0.858-0.357,1.757-0.643,2.674-0.815c1.843-0.372,3.745-0.372,5.59,0c0.901,0.172,1.803,0.458,2.674,0.815
	c0.859,0.357,1.689,0.801,2.461,1.316c0.786,0.515,1.516,1.115,2.173,1.773c0.658,0.658,1.258,1.387,1.787,2.173
	c0.515,0.772,0.958,1.602,1.316,2.474c0.357,0.858,0.629,1.759,0.815,2.674c0.186,0.915,0.27,1.859,0.27,2.788
	c0,3.761-1.529,7.45-4.19,10.11c-0.658,0.658-1.387,1.258-2.173,1.773c-0.772,0.515-1.602,0.958-2.461,1.316
	c-0.871,0.357-1.773,0.643-2.674,0.815C376.885,169.246,375.941,169.346,375.01,169.346z"/>
<path d="M482.091,0H29.905c-7.896,0-14.299,6.402-14.299,14.299V297.06c0,7.897,6.403,14.299,14.299,14.299h66.337h145.457v72.256
	L134.722,487.44c-5.667,5.5-5.803,14.552-0.302,20.219c5.499,5.667,14.551,5.804,20.221,0.302l87.058-84.493v74.232
	c0,7.898,6.403,14.299,14.299,14.299c7.896,0,14.299-6.402,14.299-14.299v-74.232l87.058,84.493c2.778,2.697,6.37,4.038,9.958,4.038
	c3.731,0,7.458-1.451,10.263-4.341c5.501-5.667,5.365-14.72-0.302-20.219L270.299,383.614v-72.256h145.458h66.337
	c7.896,0,14.299-6.402,14.299-14.299V14.299C496.391,6.402,489.989,0,482.091,0z M241.699,140.748H136.983
	c-7.896,0-14.299,6.402-14.299,14.299s6.403,14.299,14.299,14.299h104.715v2.86v38.118H179.88c-7.896,0-14.299,6.402-14.299,14.299
	c0,7.897,6.403,14.299,14.299,14.299h61.817v43.839H110.54V102.426h100.016c17.172,0,31.141,13.97,31.141,31.141v7.181H241.699z
	 M270.298,282.761v-43.839h104.715c7.896,0,14.299-6.402,14.299-14.299s-6.403-14.299-14.299-14.299H270.298v-38.118v-2.86h61.817
	c7.896,0,14.299-6.402,14.299-14.299s-6.403-14.299-14.299-14.299h-61.817v-7.18c0-17.172,13.97-31.141,31.141-31.141h100.016
	v180.335H270.298V282.761z M467.792,282.761h-37.739V88.126c0-7.897-6.403-14.299-14.299-14.299H301.439
	c-18.179,0-34.474,8.172-45.44,21.023c-10.966-12.851-27.262-21.023-45.44-21.023H96.241c-7.896,0-14.299,6.402-14.299,14.299
	v194.635H44.205V28.599h423.588L467.792,282.761L467.792,282.761z"/>
<path d="M136.984,238.927c-0.928,0-1.873-0.1-2.803-0.286c-0.901-0.186-1.802-0.458-2.674-0.815
	c-0.858-0.357-1.687-0.801-2.459-1.316c-0.786-0.515-1.516-1.115-2.173-1.773s-1.26-1.387-1.787-2.173
	c-0.515-0.772-0.958-1.602-1.301-2.474c-0.357-0.858-0.643-1.759-0.815-2.674c-0.186-0.915-0.286-1.859-0.286-2.788
	s0.1-1.873,0.286-2.803c0.172-0.901,0.458-1.802,0.815-2.674c0.343-0.858,0.786-1.687,1.301-2.459
	c0.528-0.786,1.13-1.516,1.787-2.173s1.387-1.258,2.173-1.787c0.772-0.515,1.602-0.958,2.459-1.316
	c0.872-0.357,1.773-0.629,2.674-0.815c1.845-0.372,3.746-0.372,5.591,0c0.915,0.186,1.817,0.458,2.674,0.815
	c0.872,0.357,1.702,0.801,2.472,1.316c0.788,0.529,1.517,1.13,2.175,1.787s1.258,1.387,1.773,2.173
	c0.513,0.772,0.958,1.602,1.316,2.459c0.357,0.872,0.628,1.773,0.814,2.674c0.187,0.929,0.286,1.873,0.286,2.803
	c0,0.929-0.099,1.873-0.286,2.788c-0.186,0.915-0.456,1.816-0.814,2.674c-0.357,0.872-0.802,1.702-1.316,2.474
	c-0.515,0.786-1.115,1.516-1.773,2.173c-0.658,0.658-1.387,1.258-2.175,1.773c-0.771,0.515-1.6,0.958-2.472,1.316
	c-0.858,0.357-1.759,0.629-2.674,0.815C138.857,238.827,137.915,238.927,136.984,238.927z"/>
<g>
</g>
<g>
</g>
<g>
</g>
<g>
</g>
<g>
</g>
<g>
</g>
<g>
</g>
<g>
</g>
<g>
</g>
<g>
</g>
<g>
</g>
<g>
</g>
<g>
</g>
<g>
</g>
<g>
</g>
</svg>
