<?xml version="1.0" encoding="iso-8859-1"?>
<!-- Generator: Adobe Illustrator 19.0.0, SVG Export Plug-In . SVG Version: 6.00 Build 0)  -->
<svg version="1.1" id="Layer_1" xmlns="http://www.w3.org/2000/svg" xmlns:xlink="http://www.w3.org/1999/xlink" x="0px" y="0px"
	 viewBox="0 0 512.001 512.001" style="enable-background:new 0 0 512.001 512.001;" xml:space="preserve">
<rect x="53.285" y="15.129" style="fill:#FFDC64;" width="405.45" height="404.512"/>
<path d="M110.766,376.236c-8.356,0-15.129-6.775-15.129-15.129v-242.06c0-8.354,6.773-15.129,15.129-15.129
	s15.129,6.775,15.129,15.129v242.06C125.895,369.463,119.122,376.236,110.766,376.236z"/>
<path d="M110.766,88.787c-0.983,0-1.982-0.091-2.95-0.286c-0.968-0.198-1.921-0.484-2.829-0.862c-0.923-0.378-1.8-0.849-2.617-1.392
	c-0.832-0.56-1.604-1.195-2.3-1.891c-2.814-2.814-4.433-6.704-4.433-10.696c0-3.979,1.619-7.882,4.433-10.696
	c0.696-0.696,1.467-1.331,2.3-1.874c0.817-0.545,1.694-1.014,2.602-1.392c0.923-0.378,1.876-0.666,2.829-0.862
	c1.952-0.393,3.964-0.393,5.915,0c0.968,0.197,1.921,0.484,2.844,0.862c0.908,0.378,1.785,0.847,2.602,1.392
	c0.832,0.543,1.604,1.179,2.3,1.874c2.814,2.814,4.433,6.717,4.433,10.696c0,3.994-1.619,7.882-4.433,10.696
	c-0.696,0.696-1.467,1.331-2.3,1.891c-0.817,0.543-1.694,1.014-2.602,1.392c-0.923,0.378-1.876,0.664-2.844,0.862
	C112.748,88.697,111.75,88.787,110.766,88.787z"/>
<polygon style="fill:#7BFFCD;" points="418.503,496.868 377.032,474.883 335.559,496.868 335.559,419.641 418.503,419.641 "/>
<path d="M458.727,0H53.277c-8.356,0-15.129,6.775-15.129,15.129v404.512c0,8.354,6.773,15.129,15.129,15.129h267.154v62.1
	c0,5.307,2.781,10.227,7.328,12.962c4.549,2.74,10.198,2.894,14.885,0.404l34.386-18.229l34.386,18.229
	c2.219,1.177,4.654,1.763,7.085,1.763c2.705,0,5.405-0.725,7.8-2.166c4.548-2.737,7.328-7.657,7.328-12.962v-62.1h25.094
	c8.356,0,15.129-6.775,15.129-15.129V15.129C473.856,6.775,467.083,0,458.727,0z M403.374,471.727l-19.257-10.209
	c-2.216-1.174-4.652-1.763-7.086-1.763s-4.87,0.589-7.086,1.763l-19.257,10.209v-36.958h52.686v36.958H403.374z M443.598,404.512
	h-25.094h-82.943H68.406V30.257h375.192V404.512z"/>
<g>
	<circle style="fill:#7BFFCD;" cx="207.613" cy="327.961" r="43.904"/>
	<circle style="fill:#7BFFCD;" cx="358.839" cy="279.17" r="43.904"/>
</g>
<polygon style="fill:#FF5050;" points="251.521,111.694 251.521,182.425 402.74,133.644 402.74,62.913 "/>
<path d="M411.646,50.683c-3.909-2.847-8.947-3.646-13.549-2.169l-151.221,48.78c-6.25,2.017-10.484,7.834-10.484,14.4v70.733v94.013
	c-8.519-4.776-18.331-7.514-28.775-7.514c-32.551,0-59.032,26.481-59.032,59.032s26.481,59.032,59.032,59.032
	s59.032-26.481,59.032-59.032V193.442l120.963-39.02v73.235c-8.519-4.776-18.331-7.514-28.775-7.514
	c-32.549,0-59.031,26.481-59.031,59.032s26.481,59.032,59.031,59.032c32.551,0,59.032-26.481,59.032-59.032V133.644V62.913
	C417.869,58.076,415.557,53.53,411.646,50.683z M207.617,356.729c-15.866,0-28.775-12.908-28.775-28.775
	c0-15.867,12.908-28.775,28.775-28.775s28.775,12.908,28.775,28.775C236.392,343.822,223.484,356.729,207.617,356.729z
	 M266.65,161.649v-38.941l120.963-39.019v38.938L266.65,161.649z M358.838,307.948c-15.865,0-28.773-12.908-28.773-28.775
	c0-15.867,12.908-28.775,28.773-28.775c15.866,0,28.775,12.908,28.775,28.775C387.613,295.04,374.703,307.948,358.838,307.948z"/>
<g>
</g>
<g>
</g>
<g>
</g>
<g>
</g>
<g>
</g>
<g>
</g>
<g>
</g>
<g>
</g>
<g>
</g>
<g>
</g>
<g>
</g>
<g>
</g>
<g>
</g>
<g>
</g>
<g>
</g>
</svg>
