<?xml version="1.0" encoding="iso-8859-1"?>
<!-- Generator: Adobe Illustrator 19.0.0, SVG Export Plug-In . SVG Version: 6.00 Build 0)  -->
<svg version="1.1" id="Layer_1" xmlns="http://www.w3.org/2000/svg" xmlns:xlink="http://www.w3.org/1999/xlink" x="0px" y="0px"
	 viewBox="0 0 512 512" style="enable-background:new 0 0 512 512;" xml:space="preserve">
<path style="fill:#7DF5A5;" d="M389.893,298.68L240.488,149.274c-52.168,52.168-178.405,71.701-178.405,71.701L318.19,477.083
	C318.192,477.083,338.688,349.884,389.893,298.68z"/>
<path d="M313.58,339.316c-0.945,0-1.905-0.087-2.835-0.276c-0.931-0.189-1.847-0.464-2.719-0.827
	c-0.887-0.364-1.73-0.816-2.515-1.338c-0.8-0.538-1.541-1.134-2.21-1.818c-0.669-0.669-1.28-1.412-1.803-2.212
	c-0.523-0.785-0.974-1.629-1.338-2.501c-0.363-0.887-0.64-1.788-0.829-2.719c-0.189-0.945-0.291-1.905-0.291-2.85
	s0.102-1.905,0.291-2.835c0.189-0.931,0.465-1.847,0.829-2.719c0.364-0.885,0.814-1.729,1.338-2.514
	c0.523-0.8,1.134-1.543,1.803-2.212c0.669-0.669,1.41-1.28,2.21-1.802c0.785-0.523,1.629-0.976,2.515-1.339
	c0.872-0.364,1.788-0.638,2.719-0.827c1.876-0.378,3.81-0.378,5.685,0c0.931,0.189,1.832,0.464,2.719,0.827
	c0.872,0.363,1.716,0.816,2.501,1.339c0.8,0.522,1.541,1.133,2.225,1.802c0.669,0.669,1.265,1.412,1.803,2.212
	c0.523,0.785,0.974,1.629,1.338,2.514c0.364,0.874,0.64,1.788,0.829,2.719c0.189,0.932,0.276,1.89,0.276,2.835
	c0,0.945-0.087,1.905-0.276,2.85c-0.189,0.931-0.465,1.832-0.829,2.719c-0.363,0.872-0.814,1.716-1.338,2.501
	c-0.538,0.8-1.134,1.543-1.803,2.212c-0.683,0.683-1.425,1.28-2.225,1.818c-0.785,0.522-1.629,0.974-2.501,1.338
	c-0.872,0.363-1.788,0.638-2.719,0.827C315.484,339.23,314.539,339.316,313.58,339.316z"/>
<rect x="249.799" y="126.884" transform="matrix(-0.7071 -0.7071 0.7071 -0.7071 476.7832 564.9912)" style="fill:#767B95;" width="211.211" height="113.734"/>
<g>
	<path style="fill:#FFDC64;" d="M133.493,405.675L133.493,405.675c-28.854-28.854-28.854-75.636,0-104.492l4.4-4.4l104.491,104.491
		l-4.4,4.4C209.129,434.529,162.347,434.529,133.493,405.675z"/>
	<path style="fill:#FFDC64;" d="M350.143,163.259L350.143,163.259c-14.053,0-25.446-11.392-25.446-25.446V14.54h50.891v123.273
		C375.589,151.867,364.196,163.259,350.143,163.259z"/>
</g>
<path d="M86.572,432.031l-14.394,14.393c-5.678,5.678-5.678,14.885,0,20.564c2.84,2.838,6.561,4.259,10.282,4.259
	s7.443-1.421,10.281-4.259l14.394-14.393c5.678-5.678,5.678-14.885,0-20.564C101.457,426.354,92.25,426.354,86.572,432.031z"/>
<path d="M193.232,462.563c-8.031,0-14.54,6.511-14.54,14.54v20.357c0,8.029,6.51,14.54,14.54,14.54c8.031,0,14.54-6.511,14.54-14.54
	v-20.357C207.772,469.074,201.262,462.563,193.232,462.563z"/>
<path d="M76.604,345.936c0-8.029-6.51-14.54-14.54-14.54H41.707c-8.031,0-14.54,6.511-14.54,14.54c0,8.029,6.51,14.54,14.54,14.54
	h20.357C70.094,360.476,76.604,353.966,76.604,345.936z"/>
<path d="M480.576,207.946l-90.448-90.448V14.54c0-8.029-6.51-14.54-14.54-14.54h-50.891c-8.031,0-14.54,6.511-14.54,14.54v44.55
	l-79.433,79.433c-0.173,0.157-0.353,0.304-0.518,0.47c-14.558,14.559-35.769,26.472-58.313,36.019
	c-0.048,0.019-0.096,0.041-0.144,0.061c-52.005,21.998-111.043,31.401-111.89,31.532c-5.412,0.838-9.895,4.646-11.597,9.851
	c-1.701,5.207-0.333,10.927,3.539,14.801l65.811,65.811c-28.752,34.704-26.895,86.395,5.597,118.888l0,0
	c17.239,17.238,39.883,25.857,62.527,25.857c20.037,0,40.067-6.763,56.36-20.261l65.811,65.811c2.77,2.77,6.486,4.259,10.284,4.259
	c1.495,0,3.004-0.23,4.473-0.705c5.197-1.679,9.012-6.13,9.88-11.522c0.198-1.226,20.297-123.105,67.627-170.435
	c0.169-0.169,0.317-0.35,0.475-0.526l79.926-79.927C486.254,222.831,486.254,213.624,480.576,207.946z M339.238,29.081h21.811
	v108.733c0,6.014-4.891,10.905-10.905,10.905c-6.014,0-10.905-4.891-10.905-10.905V29.081z M143.773,395.393L143.773,395.393
	c-21.143-21.143-22.967-54.403-5.472-77.635l41.553,41.553l41.553,41.553C198.177,418.359,164.917,416.538,143.773,395.393z
	 M309.213,447.541l-56.549-56.549l-104.49-104.49l-56.438-56.438c21.19-4.64,51.85-12.534,82.095-24.474l97.003,97.005
	c2.84,2.838,6.561,4.259,10.281,4.259s7.443-1.421,10.281-4.259c5.678-5.678,5.678-14.885,0-20.564l-89.117-89.118
	c13.684-6.896,26.581-14.745,37.633-23.648l130.008,130.008C336.652,340.818,317.681,409.533,309.213,447.541z M389.869,278.09
	L261.076,149.299l49.081-49.08v37.594c0,22.048,17.937,39.986,39.986,39.986c15.97,0,29.777-9.415,36.179-22.981l63.409,63.409
	L389.869,278.09z"/>
<g>
</g>
<g>
</g>
<g>
</g>
<g>
</g>
<g>
</g>
<g>
</g>
<g>
</g>
<g>
</g>
<g>
</g>
<g>
</g>
<g>
</g>
<g>
</g>
<g>
</g>
<g>
</g>
<g>
</g>
</svg>
