<?xml version="1.0" encoding="iso-8859-1"?>
<!-- Generator: Adobe Illustrator 19.0.0, SVG Export Plug-In . SVG Version: 6.00 Build 0)  -->
<svg version="1.1" id="Layer_1" xmlns="http://www.w3.org/2000/svg" xmlns:xlink="http://www.w3.org/1999/xlink" x="0px" y="0px"
	 viewBox="0 0 512 512" style="enable-background:new 0 0 512 512;" xml:space="preserve">
<rect x="13.734" y="118.4" style="fill:#4DA081;" width="484.533" height="214.249"/>
<g>
	<rect x="13.734" y="333.172" style="fill:#FFDCAA;" width="68.212" height="60.429"/>
	<rect x="151.911" y="333.172" style="fill:#FFDCAA;" width="68.212" height="60.429"/>
	<rect x="290.075" y="333.172" style="fill:#FFDCAA;" width="68.212" height="60.429"/>
	<rect x="428.252" y="333.172" style="fill:#FFDCAA;" width="68.212" height="60.429"/>
</g>
<g>
	<rect x="81.946" y="333.172" style="fill:#7DF5A5;" width="69.959" height="60.429"/>
	<rect x="220.114" y="333.172" style="fill:#7DF5A5;" width="69.959" height="60.429"/>
	<rect x="496.455" y="333.172" style="fill:#7DF5A5;" width="1.807" height="60.429"/>
	<rect x="358.291" y="333.172" style="fill:#7DF5A5;" width="69.959" height="60.429"/>
</g>
<path d="M512,118.403c0-7.585-6.15-13.734-13.734-13.734H13.734C6.15,104.669,0,110.818,0,118.403v214.25
	c0,0.087,0.011,0.172,0.014,0.258C0.011,332.996,0,333.081,0,333.168v60.429c0,7.585,6.15,13.734,13.734,13.734h68.212h69.958
	h68.212h69.958h68.212h69.958h68.212h1.806c7.584,0,13.734-6.149,13.734-13.734v-60.429c0-0.087-0.011-0.172-0.014-0.258
	c0.001-0.087,0.014-0.17,0.014-0.258V118.403H512z M27.468,132.137h457.064v186.782H27.468V132.137z M68.212,379.863H27.468v-32.961
	h40.744V379.863z M138.17,379.863H95.68v-32.961h42.49L138.17,379.863L138.17,379.863z M206.383,379.863h-40.744v-32.961h40.744
	V379.863z M276.342,379.863h-42.49v-32.961h42.49V379.863z M344.554,379.863H303.81v-32.961h40.744L344.554,379.863L344.554,379.863
	z M414.512,379.863h-42.49v-32.961h42.49V379.863z M482.725,379.863H441.98v-32.961h40.744V379.863z"/>
<polygon style="fill:#FFDC64;" points="413.253,167.159 98.746,167.159 61.803,204.101 61.803,246.954 98.746,283.897 
	413.253,283.897 450.197,246.954 450.197,204.101 "/>
<path d="M459.909,194.39l-36.943-36.943c-2.576-2.575-6.069-4.023-9.711-4.023H98.747c-3.642,0-7.135,1.448-9.711,4.023
	L52.091,194.39c-2.575,2.575-4.023,6.069-4.023,9.711v42.851c0,3.642,1.448,7.136,4.023,9.711l36.943,36.943
	c2.576,2.575,6.069,4.023,9.711,4.023h314.507c3.642,0,7.135-1.448,9.711-4.023l36.943-36.943c2.575-2.575,4.023-6.069,4.023-9.711
	v-42.851C463.931,200.459,462.484,196.967,459.909,194.39z M436.463,241.264l-28.899,28.899H104.436l-28.899-28.899v-2.002h270.968
	c7.584,0,13.734-6.149,13.734-13.734s-6.15-13.734-13.734-13.734H75.537v-2.002l28.899-28.899h303.129l28.899,28.899
	L436.463,241.264L436.463,241.264z"/>
<path d="M387.708,239.258c-0.891,0-1.799-0.082-2.692-0.261c-0.865-0.179-1.73-0.439-2.568-0.783
	c-0.824-0.343-1.621-0.769-2.362-1.264c-0.755-0.508-1.456-1.071-2.088-1.717c-0.632-0.632-1.209-1.332-1.717-2.088
	c-0.494-0.742-0.92-1.538-1.264-2.362c-0.343-0.838-0.604-1.703-0.783-2.568c-0.179-0.893-0.261-1.785-0.261-2.692
	c0-0.893,0.084-1.799,0.261-2.678c0.177-0.879,0.44-1.744,0.783-2.568c0.343-0.838,0.769-1.634,1.264-2.376
	c0.508-0.755,1.085-1.456,1.717-2.088c0.632-0.632,1.332-1.209,2.088-1.703c0.742-0.494,1.538-0.92,2.362-1.264
	c0.838-0.343,1.703-0.604,2.568-0.783c1.772-0.357,3.598-0.357,5.37,0c0.88,0.179,1.746,0.439,2.568,0.783
	c0.838,0.343,1.634,0.769,2.376,1.264c0.755,0.494,1.456,1.071,2.088,1.703s1.209,1.332,1.703,2.088
	c0.493,0.742,0.92,1.538,1.264,2.376c0.343,0.824,0.603,1.689,0.783,2.568c0.179,0.879,0.273,1.785,0.273,2.678
	c0,0.906-0.095,1.799-0.273,2.692c-0.18,0.865-0.439,1.73-0.783,2.568c-0.343,0.824-0.77,1.621-1.264,2.362
	c-0.494,0.755-1.071,1.456-1.703,2.088c-0.632,0.646-1.332,1.209-2.088,1.717c-0.742,0.494-1.538,0.92-2.376,1.264
	c-0.824,0.343-1.688,0.604-2.568,0.783C389.507,239.175,388.601,239.258,387.708,239.258z"/>
<g>
</g>
<g>
</g>
<g>
</g>
<g>
</g>
<g>
</g>
<g>
</g>
<g>
</g>
<g>
</g>
<g>
</g>
<g>
</g>
<g>
</g>
<g>
</g>
<g>
</g>
<g>
</g>
<g>
</g>
</svg>
