<?xml version="1.0" encoding="iso-8859-1"?>
<!-- Generator: Adobe Illustrator 19.0.0, SVG Export Plug-In . SVG Version: 6.00 Build 0)  -->
<svg version="1.1" id="Layer_1" xmlns="http://www.w3.org/2000/svg" xmlns:xlink="http://www.w3.org/1999/xlink" x="0px" y="0px"
	 viewBox="0 0 512.001 512.001" style="enable-background:new 0 0 512.001 512.001;" xml:space="preserve">
<path style="fill:#7DF5A5;" d="M332.91,328.123H223.924c0,70.681-57.387,169.848-57.387,169.848h223.759
	C390.297,497.971,332.91,397.499,332.91,328.123z"/>
<rect x="223.932" y="14.029" style="fill:#A2A8D3;" width="108.992" height="314.096"/>
<path d="M278.42,288.383c-0.912,0-1.838-0.084-2.75-0.265c-0.884-0.184-1.768-0.449-2.623-0.8c-0.842-0.351-1.655-0.787-2.413-1.291
	c-0.772-0.519-1.487-1.094-2.132-1.74c-0.645-0.659-1.235-1.373-1.754-2.132c-0.505-0.773-0.926-1.587-1.277-2.427
	c-0.351-0.84-0.631-1.724-0.8-2.623c-0.182-0.91-0.281-1.824-0.281-2.736c0-0.925,0.098-1.838,0.281-2.75
	c0.168-0.898,0.449-1.782,0.8-2.623c0.351-0.842,0.772-1.655,1.277-2.426c0.519-0.758,1.108-1.487,1.754-2.134
	c0.645-0.645,1.361-1.219,2.132-1.738c0.758-0.505,1.571-0.94,2.413-1.291c0.856-0.351,1.74-0.617,2.623-0.8
	c4.559-0.926,9.413,0.575,12.668,3.829c0.645,0.647,1.235,1.375,1.74,2.134c0.505,0.772,0.94,1.585,1.291,2.426
	c0.351,0.843,0.617,1.726,0.8,2.623c0.182,0.912,0.281,1.825,0.281,2.75c0,0.912-0.098,1.825-0.281,2.736
	c-0.182,0.899-0.449,1.783-0.8,2.623c-0.351,0.84-0.786,1.655-1.291,2.427c-0.505,0.758-1.094,1.473-1.74,2.132
	C285.729,286.895,282.109,288.383,278.42,288.383z"/>
<path d="M402.481,491.015c-0.556-0.972-55.541-98.092-55.541-162.893v-39.72h12.525v8.067c0,7.747,6.281,14.029,14.029,14.029
	s14.029-6.282,14.029-14.029v-44.192c0-7.747-6.281-14.029-14.029-14.029s-14.029,6.282-14.029,14.029v8.067H346.94v-58.221h12.525
	v8.067c0,7.747,6.281,14.029,14.029,14.029s14.029-6.282,14.029-14.029v-44.191c0-7.747-6.281-14.029-14.029-14.029
	s-14.029,6.282-14.029,14.029v8.067H346.94v-58.221h12.525v8.067c0,7.747,6.281,14.029,14.029,14.029s14.029-6.282,14.029-14.029
	V79.72c0-7.747-6.281-14.029-14.029-14.029s-14.029,6.282-14.029,14.029v8.067H346.94V14.029C346.94,6.282,340.659,0,332.911,0
	H223.925c-7.748,0-14.029,6.282-14.029,14.029v73.756c-10.637-7.781-23.734-12.39-37.892-12.39
	c-35.47,0-64.327,28.856-64.327,64.327v93.004c0,35.471,28.856,64.329,64.327,64.329c14.158,0,27.256-4.609,37.892-12.39v43.458
	c0,66.042-54.948,161.864-55.5,162.823c-2.511,4.341-2.515,9.691-0.01,14.036c2.506,4.343,7.138,7.02,12.153,7.02h223.759
	c4.999,0,9.62-2.661,12.131-6.985C404.938,500.691,404.959,495.359,402.481,491.015z M208.272,232.727
	c0,20-16.271,36.271-36.269,36.271l0,0c-19.998,0-36.269-16.271-36.269-36.271v-93.004c0-19.998,16.271-36.269,36.269-36.269
	s36.269,16.271,36.269,36.269V232.727z M237.954,28.058h26.435v204.214c0,7.747,6.281,14.029,14.029,14.029
	c7.748,0,14.029-6.282,14.029-14.029V28.058h26.435v286.035h-80.928V28.058z M189.989,483.942
	c15.776-30.957,42.852-90.445,47.328-141.79h82.219c4.547,50.763,31.7,110.686,47.421,141.79H189.989z"/>
<g>
</g>
<g>
</g>
<g>
</g>
<g>
</g>
<g>
</g>
<g>
</g>
<g>
</g>
<g>
</g>
<g>
</g>
<g>
</g>
<g>
</g>
<g>
</g>
<g>
</g>
<g>
</g>
<g>
</g>
</svg>
