<?xml version="1.0" encoding="iso-8859-1"?>
<!-- Generator: Adobe Illustrator 19.0.0, SVG Export Plug-In . SVG Version: 6.00 Build 0)  -->
<svg version="1.1" id="Layer_1" xmlns="http://www.w3.org/2000/svg" xmlns:xlink="http://www.w3.org/1999/xlink" x="0px" y="0px"
	 viewBox="0 0 512 512" style="enable-background:new 0 0 512 512;" xml:space="preserve">
<rect x="13.671" y="71.444" style="fill:#7BFFCD;" width="120.769" height="369.114"/>
<rect x="134.959" y="71.444" style="fill:#FFDCAA;" width="120.769" height="369.114"/>
<rect x="256.261" y="71.444" style="fill:#7BFFCD;" width="120.769" height="369.114"/>
<rect x="377.549" y="71.444" style="fill:#FFDCAA;" width="120.769" height="369.114"/>
<path d="M321.935,372.203c-0.889,0-1.791-0.096-2.666-0.273c-0.875-0.164-1.736-0.438-2.556-0.779
	c-0.834-0.342-1.627-0.766-2.365-1.258c-0.752-0.492-1.449-1.066-2.078-1.695s-1.203-1.326-1.695-2.078
	c-0.492-0.738-0.916-1.531-1.258-2.351c-0.342-0.834-0.602-1.695-0.779-2.57c-0.178-0.875-0.273-1.777-0.273-2.666
	c0-0.889,0.096-1.791,0.273-2.666c0.178-0.875,0.438-1.736,0.779-2.556c0.342-0.834,0.766-1.627,1.258-2.365
	c0.492-0.752,1.066-1.449,1.695-2.078c0.629-0.629,1.326-1.203,2.078-1.695c0.738-0.492,1.531-0.916,2.365-1.258
	c0.82-0.342,1.682-0.615,2.556-0.779c1.764-0.355,3.582-0.355,5.345,0c0.861,0.164,1.723,0.437,2.556,0.779
	c0.82,0.342,1.613,0.766,2.351,1.258c0.752,0.492,1.449,1.066,2.078,1.695c0.629,0.629,1.203,1.326,1.709,2.078
	c0.492,0.738,0.916,1.531,1.258,2.365c0.342,0.82,0.602,1.682,0.779,2.556c0.178,0.875,0.26,1.777,0.26,2.666
	c0,0.889-0.082,1.791-0.26,2.666c-0.178,0.875-0.438,1.736-0.779,2.57c-0.342,0.82-0.766,1.613-1.258,2.351
	c-0.506,0.752-1.08,1.449-1.709,2.078s-1.326,1.203-2.078,1.695c-0.738,0.492-1.531,0.916-2.351,1.258
	c-0.834,0.342-1.695,0.615-2.556,0.779C323.726,372.106,322.823,372.203,321.935,372.203z"/>
<rect id="SVGCleanerId_0" x="95.136" y="71.444" style="fill:#767B95;" width="75.641" height="216.684"/>
<g>
	<rect id="SVGCleanerId_0_1_" x="95.136" y="71.444" style="fill:#767B95;" width="75.641" height="216.684"/>
</g>
<g>
	<rect x="218.434" y="71.444" style="fill:#767B95;" width="75.641" height="216.684"/>
	<rect x="339.736" y="71.444" style="fill:#767B95;" width="75.641" height="216.684"/>
</g>
<path d="M498.329,57.772h-82.952h-37.823h-0.52H339.73h-45.648h-37.823h-0.519h-37.304h-47.653h-35.816h-0.519H95.139H13.671
	C6.12,57.772,0,63.892,0,71.443v369.114c0,7.55,6.12,13.671,13.671,13.671h120.776c0.087,0,0.172-0.011,0.26-0.014
	c0.087,0.001,0.172,0.014,0.26,0.014H255.74c0.087,0,0.172-0.011,0.26-0.014c0.087,0.001,0.172,0.014,0.26,0.014h120.774
	c0.087,0,0.172-0.011,0.26-0.014c0.087,0.001,0.172,0.014,0.26,0.014h120.776c7.55,0,13.671-6.12,13.671-13.671V71.443
	C512,63.892,505.88,57.772,498.329,57.772z M353.401,274.456V85.114h48.303v189.342H353.401z M232.107,274.456V85.114h48.303
	v189.342H232.107z M108.809,274.456V85.114h48.303v189.342H108.809z M27.342,426.886V85.114h54.126v203.013
	c0,7.55,6.12,13.671,13.671,13.671h25.636v125.089H27.342z M242.069,426.886h-93.432v-54.684h93.432V426.886z M148.637,344.861
	v-43.063h22.148c7.55,0,13.671-6.12,13.671-13.671V85.114h20.311v203.013c0,7.55,6.12,13.671,13.671,13.671h23.633v43.063H148.637z
	 M269.931,426.886v-54.684h10.994c7.55,0,13.671-6.12,13.671-13.671c0-7.55-6.12-13.671-13.671-13.671h-10.994v-43.063h24.152
	c7.55,0,13.671-6.12,13.671-13.671V85.114h18.307v203.013c0,7.55,6.12,13.671,13.671,13.671h23.633v125.089H269.931z
	 M484.658,426.886h-93.434V301.798h24.152c7.55,0,13.671-6.12,13.671-13.671V85.114h55.611V426.886z"/>
<g>
</g>
<g>
</g>
<g>
</g>
<g>
</g>
<g>
</g>
<g>
</g>
<g>
</g>
<g>
</g>
<g>
</g>
<g>
</g>
<g>
</g>
<g>
</g>
<g>
</g>
<g>
</g>
<g>
</g>
</svg>
