<?xml version="1.0" encoding="iso-8859-1"?>
<!-- Generator: Adobe Illustrator 19.0.0, SVG Export Plug-In . SVG Version: 6.00 Build 0)  -->
<svg version="1.1" id="Layer_1" xmlns="http://www.w3.org/2000/svg" xmlns:xlink="http://www.w3.org/1999/xlink" x="0px" y="0px"
	 viewBox="0 0 511.999 511.999" style="enable-background:new 0 0 511.999 511.999;" xml:space="preserve">
<circle style="fill:#F96232;" cx="255.994" cy="255.994" r="241.826"/>
<circle style="fill:#FFDC64;" cx="255.994" cy="255.994" r="121.104"/>
<path d="M255.999,391.27c-74.588,0-135.27-60.682-135.27-135.27s60.681-135.27,135.27-135.27s135.27,60.681,135.27,135.27
	S330.589,391.27,255.999,391.27z M255.999,149.064c-58.964,0-106.935,47.97-106.935,106.935s47.97,106.935,106.935,106.935
	s106.935-47.971,106.935-106.935S314.963,149.064,255.999,149.064z"/>
<polygon style="fill:#7BFFCD;" points="324.869,255.999 219.304,195.052 219.304,316.948 "/>
<path d="M219.304,331.114c-2.447,0-4.892-0.632-7.084-1.898c-4.383-2.53-7.084-7.208-7.084-12.269V195.052
	c0-5.061,2.7-9.739,7.084-12.269c4.383-2.532,9.784-2.532,14.168,0l105.565,60.947c4.383,2.53,7.084,7.208,7.084,12.269
	c0,5.061-2.7,9.739-7.084,12.269l-105.565,60.949C224.196,330.482,221.751,331.114,219.304,331.114z M233.471,219.592v72.817
	l63.063-36.409L233.471,219.592z"/>
<path d="M255.999,106.532c-0.921,0-1.857-0.085-2.777-0.268c-0.893-0.186-1.785-0.453-2.649-0.808
	c-0.851-0.354-1.672-0.795-2.437-1.303c-0.781-0.524-1.503-1.119-2.155-1.771c-0.652-0.652-1.247-1.374-1.757-2.155
	c-0.509-0.765-0.949-1.587-1.303-2.437c-0.354-0.864-0.638-1.757-0.806-2.663c-0.186-0.907-0.283-1.842-0.283-2.763
	c0-0.919,0.098-1.856,0.283-2.763c0.169-0.907,0.452-1.799,0.806-2.649c0.354-0.863,0.795-1.685,1.303-2.45
	c0.51-0.779,1.105-1.502,1.757-2.155c0.652-0.652,1.374-1.247,2.155-1.755c0.765-0.51,1.585-0.949,2.437-1.303
	c0.864-0.354,1.757-0.638,2.649-0.822c4.604-0.921,9.506,0.595,12.792,3.88c0.653,0.653,1.248,1.376,1.757,2.155
	c0.51,0.765,0.949,1.587,1.303,2.45c0.354,0.851,0.623,1.743,0.808,2.649c0.184,0.908,0.283,1.843,0.283,2.763
	c0,0.921-0.099,1.857-0.283,2.763c-0.184,0.905-0.453,1.799-0.808,2.663c-0.354,0.85-0.793,1.672-1.303,2.437
	c-0.509,0.781-1.104,1.503-1.757,2.155C263.381,105.016,259.725,106.532,255.999,106.532z"/>
<path d="M255.999,433.802c-0.921,0-1.857-0.099-2.763-0.283c-0.907-0.17-1.799-0.452-2.649-0.806
	c-0.864-0.354-1.685-0.795-2.45-1.303c-0.781-0.51-1.503-1.105-2.155-1.757c-2.635-2.635-4.151-6.29-4.151-10.016
	c0-0.919,0.098-1.856,0.283-2.763c0.169-0.907,0.452-1.799,0.806-2.649c0.354-0.863,0.779-1.685,1.289-2.45
	c0.524-0.779,1.119-1.503,1.771-2.155s1.374-1.247,2.155-1.755c0.765-0.51,1.585-0.949,2.45-1.303
	c0.851-0.354,1.743-0.638,2.649-0.822c4.604-0.921,9.492,0.595,12.779,3.881c0.653,0.652,1.248,1.376,1.757,2.155
	c0.524,0.765,0.949,1.587,1.303,2.45c0.354,0.852,0.638,1.743,0.808,2.649c0.184,0.908,0.283,1.843,0.283,2.763
	c0,3.726-1.516,7.381-4.152,10.016c-0.652,0.652-1.374,1.247-2.153,1.757c-0.765,0.509-1.587,0.949-2.451,1.303
	c-0.85,0.354-1.741,0.636-2.648,0.806C257.855,433.703,256.92,433.802,255.999,433.802z"/>
<path d="M419.635,270.167c-0.921,0-1.857-0.099-2.763-0.283c-0.907-0.17-1.799-0.452-2.649-0.806
	c-0.864-0.354-1.685-0.781-2.45-1.303c-0.781-0.51-1.503-1.105-2.155-1.757c-0.652-0.652-1.247-1.374-1.757-2.155
	c-0.524-0.765-0.949-1.587-1.303-2.45c-0.354-0.851-0.638-1.743-0.806-2.649c-0.186-0.907-0.283-1.842-0.283-2.763
	c0-0.919,0.098-1.856,0.283-2.763c0.169-0.907,0.452-1.799,0.806-2.664c0.354-0.85,0.779-1.672,1.303-2.437
	c0.51-0.779,1.105-1.503,1.757-2.155c0.652-0.652,1.374-1.247,2.155-1.755c0.765-0.51,1.585-0.949,2.45-1.303
	c0.851-0.354,1.743-0.638,2.649-0.808c1.828-0.368,3.698-0.368,5.525,0c0.907,0.17,1.799,0.453,2.648,0.808
	c0.864,0.354,1.686,0.793,2.451,1.303c0.779,0.509,1.502,1.104,2.153,1.755c0.653,0.652,1.248,1.376,1.757,2.155
	c0.51,0.765,0.949,1.587,1.303,2.437c0.354,0.864,0.638,1.757,0.808,2.664c0.184,0.908,0.283,1.843,0.283,2.763
	c0,0.921-0.099,1.857-0.283,2.763c-0.17,0.907-0.453,1.799-0.808,2.649c-0.354,0.863-0.793,1.685-1.303,2.45
	c-0.509,0.781-1.104,1.503-1.757,2.155c-0.652,0.652-1.374,1.247-2.153,1.757c-0.765,0.523-1.587,0.949-2.451,1.303
	c-0.85,0.354-1.741,0.636-2.648,0.806C421.491,270.068,420.555,270.167,419.635,270.167z"/>
<path d="M255.999,0C114.842,0,0,114.841,0,255.999s114.842,255.999,255.999,255.999s255.999-114.842,255.999-255.999
	S397.158,0,255.999,0z M270.167,483.21v-21.073c0-7.823-6.344-14.168-14.168-14.168s-14.168,6.344-14.168,14.168v21.073
	C127.56,476.158,35.841,384.438,28.788,270.167h21.073c7.823,0,14.168-6.344,14.168-14.168s-6.344-14.168-14.168-14.168H28.788
	C35.841,127.562,127.56,35.841,241.832,28.79v21.073c0,7.823,6.344,14.168,14.168,14.168s14.168-6.344,14.168-14.168V28.79
	c114.273,7.053,205.991,98.772,213.043,213.042h-21.073c-7.823,0-14.168,6.344-14.168,14.168s6.344,14.168,14.168,14.168h21.073
	C476.159,384.438,384.44,476.158,270.167,483.21z"/>
<path d="M92.364,270.167c-0.921,0-1.857-0.099-2.763-0.283c-0.907-0.17-1.799-0.452-2.649-0.806
	c-0.864-0.354-1.685-0.781-2.45-1.303c-0.781-0.51-1.503-1.105-2.155-1.757c-0.652-0.652-1.247-1.374-1.757-2.155
	c-0.524-0.765-0.949-1.587-1.303-2.45c-0.354-0.851-0.638-1.743-0.822-2.649c-0.184-0.907-0.268-1.842-0.268-2.763
	c0-0.919,0.085-1.856,0.268-2.763c0.184-0.907,0.468-1.799,0.822-2.664c0.354-0.85,0.779-1.672,1.303-2.437
	c0.51-0.779,1.105-1.503,1.757-2.155c0.652-0.652,1.374-1.247,2.155-1.755c0.765-0.51,1.585-0.949,2.45-1.303
	c0.851-0.354,1.743-0.638,2.649-0.808c4.59-0.935,9.478,0.581,12.779,3.866c0.653,0.652,1.248,1.376,1.757,2.155
	c0.51,0.765,0.949,1.587,1.303,2.437c0.354,0.864,0.638,1.757,0.822,2.664c0.184,0.908,0.269,1.843,0.269,2.763
	c0,0.921-0.086,1.857-0.269,2.763s-0.468,1.799-0.822,2.649c-0.354,0.863-0.793,1.685-1.303,2.45
	c-0.509,0.781-1.104,1.503-1.757,2.155c-0.652,0.652-1.374,1.247-2.153,1.757c-0.765,0.523-1.587,0.949-2.451,1.303
	c-0.85,0.354-1.741,0.636-2.648,0.806C94.22,270.068,93.285,270.167,92.364,270.167z"/>
<g>
</g>
<g>
</g>
<g>
</g>
<g>
</g>
<g>
</g>
<g>
</g>
<g>
</g>
<g>
</g>
<g>
</g>
<g>
</g>
<g>
</g>
<g>
</g>
<g>
</g>
<g>
</g>
<g>
</g>
</svg>
