<?xml version="1.0" encoding="iso-8859-1"?>
<!-- Generator: Adobe Illustrator 19.0.0, SVG Export Plug-In . SVG Version: 6.00 Build 0)  -->
<svg version="1.1" id="Layer_1" xmlns="http://www.w3.org/2000/svg" xmlns:xlink="http://www.w3.org/1999/xlink" x="0px" y="0px"
	 viewBox="0 0 511.999 511.999" style="enable-background:new 0 0 511.999 511.999;" xml:space="preserve">
<path style="fill:#F96232;" d="M441.681,451.216L284.512,187.979v97.807c-8.132-5.519-17.944-8.743-28.512-8.743
	c-10.568,0-20.381,3.225-28.512,8.743v-97.807L70.318,451.216c-12.242,20.502,2.53,46.526,26.41,46.526H415.27
	C439.149,497.742,453.921,471.719,441.681,451.216z"/>
<circle style="fill:#46AFA7;" cx="255.997" cy="327.892" r="50.847"/>
<path style="fill:#FFDC64;" d="M256,277.044c10.568,0,20.381,3.226,28.512,8.743V14.256h-57.025v271.531
	C235.619,280.269,245.432,277.044,256,277.044z"/>
<path d="M330.786,442.416c-0.927,0-1.869-0.098-2.78-0.284c-0.911-0.185-1.811-0.456-2.666-0.813
	c-0.855-0.356-1.695-0.798-2.465-1.312c-0.786-0.513-1.513-1.112-2.168-1.768c-2.65-2.65-4.177-6.328-4.177-10.079
	c0-3.749,1.525-7.427,4.177-10.078c0.656-0.656,1.383-1.255,2.168-1.782c0.77-0.513,1.611-0.941,2.465-1.297
	c0.857-0.356,1.753-0.642,2.666-0.813c1.839-0.385,3.735-0.385,5.574,0c0.912,0.171,1.811,0.456,2.666,0.813
	c0.855,0.356,1.682,0.798,2.452,1.297c0.784,0.527,1.511,1.126,2.168,1.782c0.67,0.656,1.255,1.383,1.782,2.167
	c0.512,0.77,0.955,1.597,1.312,2.453c0.356,0.868,0.626,1.766,0.811,2.68c0.185,0.912,0.271,1.853,0.271,2.779
	c0,3.751-1.513,7.429-4.177,10.079C338.214,440.892,334.55,442.416,330.786,442.416z"/>
<path d="M453.921,443.908l-155.153-259.86V64.153h5.941c7.872,0,14.256-6.384,14.256-14.256s-6.384-14.256-14.256-14.256h-5.941
	V14.256C298.768,6.384,292.384,0,284.512,0h-57.025c-7.872,0-14.256,6.384-14.256,14.256V35.64h-5.941
	c-7.872,0-14.256,6.384-14.256,14.256s6.384,14.256,14.256,14.256h5.941v119.896L58.079,443.908
	c-8.413,14.091-8.599,31.024-0.499,45.296c8.1,14.272,22.736,22.794,39.149,22.794H415.27c16.412,0,31.046-8.521,39.147-22.793
	C462.519,474.934,462.333,458.001,453.921,443.908z M236.36,297.04c0.298-0.191,0.596-0.381,0.898-0.563
	c0.364-0.217,0.73-0.429,1.102-0.633c0.332-0.184,0.669-0.356,1.006-0.53c0.543-0.278,1.095-0.543,1.654-0.796
	c0.369-0.165,0.738-0.329,1.112-0.482c0.345-0.141,0.69-0.279,1.041-0.411c0.545-0.204,1.092-0.395,1.645-0.572
	c0.339-0.11,0.681-0.208,1.024-0.308c0.52-0.15,1.042-0.291,1.57-0.418c0.275-0.067,0.552-0.131,0.83-0.192
	c0.737-0.158,1.477-0.304,2.224-0.416c0.123-0.019,0.249-0.03,0.372-0.047c0.686-0.097,1.374-0.173,2.067-0.231
	c0.22-0.019,0.441-0.036,0.661-0.051c0.807-0.053,1.618-0.09,2.432-0.09c0.814,0,1.625,0.037,2.432,0.09
	c0.221,0.014,0.442,0.031,0.661,0.051c0.693,0.058,1.383,0.134,2.067,0.231c0.124,0.017,0.249,0.029,0.372,0.047
	c0.747,0.114,1.487,0.258,2.224,0.416c0.278,0.06,0.555,0.125,0.83,0.192c0.526,0.127,1.049,0.268,1.57,0.418
	c0.342,0.1,0.684,0.2,1.024,0.308c0.553,0.178,1.102,0.368,1.645,0.572c0.349,0.131,0.696,0.269,1.041,0.411
	c0.374,0.153,0.743,0.316,1.112,0.482c0.559,0.252,1.111,0.518,1.654,0.796c0.338,0.173,0.674,0.346,1.006,0.53
	c0.371,0.205,0.738,0.416,1.102,0.633c0.302,0.181,0.6,0.372,0.898,0.563c10.182,6.505,16.953,17.899,16.953,30.852
	c0,20.175-16.415,36.59-36.591,36.59s-36.59-16.415-36.59-36.59C219.408,314.939,226.179,303.545,236.36,297.04z M241.744,28.512
	h28.512v7.128h-28.512V28.512z M270.256,64.153v123.826v76.375c-0.228-0.051-0.46-0.086-0.69-0.134
	c-0.515-0.11-1.035-0.205-1.555-0.302c-0.579-0.108-1.156-0.218-1.738-0.311c-0.603-0.096-1.212-0.172-1.819-0.251
	c-0.515-0.067-1.028-0.143-1.545-0.197c-0.728-0.077-1.466-0.128-2.201-0.181c-0.409-0.03-0.817-0.071-1.227-0.093
	c-1.153-0.061-2.312-0.096-3.48-0.096s-2.328,0.034-3.48,0.096c-0.411,0.021-0.817,0.064-1.226,0.093
	c-0.736,0.053-1.473,0.104-2.203,0.181c-0.518,0.054-1.031,0.13-1.545,0.197c-0.609,0.08-1.217,0.155-1.821,0.251
	c-0.582,0.093-1.159,0.204-1.736,0.311c-0.52,0.097-1.041,0.192-1.555,0.302c-0.23,0.048-0.462,0.084-0.69,0.134v-76.375V64.153
	H270.256z M429.621,475.131c-1.426,2.513-5.678,8.356-14.35,8.356H96.729c-8.672,0-12.926-5.845-14.352-8.356
	c-1.426-2.513-4.263-9.161,0.182-16.607l9.617-16.108h195.848c7.872,0,14.256-6.384,14.256-14.256s-6.384-14.256-14.256-14.256
	H109.2l104.031-174.237v39.203c-13.672,11.944-22.335,29.485-22.335,49.023c0,35.898,29.205,65.102,65.104,65.102
	s65.104-29.204,65.104-65.102c0-19.538-8.663-37.079-22.335-49.023v-39.203L429.44,458.524
	C433.885,465.97,431.048,472.619,429.621,475.131z"/>
<g>
</g>
<g>
</g>
<g>
</g>
<g>
</g>
<g>
</g>
<g>
</g>
<g>
</g>
<g>
</g>
<g>
</g>
<g>
</g>
<g>
</g>
<g>
</g>
<g>
</g>
<g>
</g>
<g>
</g>
</svg>
