<?xml version="1.0" encoding="iso-8859-1"?>
<!-- Generator: Adobe Illustrator 19.0.0, SVG Export Plug-In . SVG Version: 6.00 Build 0)  -->
<svg version="1.1" id="Layer_1" xmlns="http://www.w3.org/2000/svg" xmlns:xlink="http://www.w3.org/1999/xlink" x="0px" y="0px"
	 viewBox="0 0 512 512" style="enable-background:new 0 0 512 512;" xml:space="preserve">
<rect x="70.824" y="102.566" style="fill:#4DA081;" width="123.935" height="209.121"/>
<polygon style="fill:#FFDC64;" points="71.64,311.694 98.303,492.279 189.938,478.75 165.273,311.694 "/>
<path style="fill:#4DA081;" d="M180.192,314.04c-4.985,0-9.767,0.865-14.212,2.441l12.197,82.612c0.668,0.031,1.339,0.05,2.016,0.05
	c23.501,0,42.551-19.051,42.551-42.551S203.693,314.04,180.192,314.04z"/>
<path style="fill:#7DF5A5;" d="M427.042,23.867c-28.157,18.813-57.494,35.231-87.885,48.693
	c-41.474,18.371-93.18,28.444-144.395,29.859v209.425c51.216,1.414,102.921,11.488,144.395,29.859
	c30.392,13.461,59.727,29.88,87.885,48.693l6.207,4.147V19.72L427.042,23.867z"/>
<path style="fill:#FFDC64;" d="M435.219,154.525c-0.661,0-1.314,0.029-1.97,0.05v125.563c0.656,0.021,1.308,0.05,1.97,0.05
	c34.701,0,62.831-28.131,62.831-62.831S469.921,154.525,435.219,154.525z"/>
<rect x="13.949" y="130.519" style="fill:#7DF5A5;" width="56.256" height="150.787"/>
<path d="M367.688,163.003c-3.669,0-7.267-1.479-9.862-4.073c-0.642-0.656-1.228-1.367-1.744-2.134
	c-0.488-0.753-0.921-1.562-1.269-2.399c-0.349-0.851-0.628-1.716-0.795-2.608c-0.181-0.907-0.279-1.827-0.279-2.734
	s0.098-1.827,0.279-2.72c0.167-0.893,0.446-1.771,0.795-2.608c0.349-0.837,0.781-1.66,1.269-2.413
	c0.516-0.767,1.102-1.479,1.744-2.12c0.642-0.642,1.353-1.227,2.12-1.73c0.753-0.502,1.562-0.935,2.399-1.283
	c0.851-0.349,1.73-0.614,2.622-0.795c1.785-0.363,3.641-0.363,5.44,0c0.893,0.181,1.771,0.446,2.608,0.795
	c0.851,0.349,1.66,0.781,2.413,1.283c0.767,0.502,1.479,1.088,2.12,1.73c0.642,0.642,1.228,1.353,1.73,2.12
	c0.502,0.753,0.935,1.576,1.283,2.413c0.349,0.837,0.614,1.716,0.795,2.608c0.181,0.893,0.279,1.813,0.279,2.72
	c0,0.907-0.098,1.827-0.279,2.734c-0.181,0.893-0.446,1.758-0.795,2.608c-0.349,0.837-0.781,1.646-1.283,2.399
	c-0.502,0.767-1.088,1.479-1.73,2.134c-0.642,0.642-1.353,1.214-2.12,1.73c-0.753,0.502-1.562,0.935-2.413,1.283
	c-0.837,0.349-1.716,0.614-2.608,0.795S368.595,163.003,367.688,163.003z"/>
<path d="M512,217.356c0-38.262-28.135-70.069-64.801-75.84V19.72c0-5.147-2.834-9.876-7.373-12.301
	c-4.538-2.424-10.045-2.155-14.325,0.703l-6.207,4.147l0,0c-28.108,18.781-56.97,34.774-85.784,47.536
	C294.96,76.879,245.55,87.06,194.378,88.473c-0.543,0.015-1.075,0.07-1.601,0.145H70.824c-7.704,0-13.949,6.245-13.949,13.949
	v13.998H13.949C6.245,116.565,0,122.81,0,130.514v150.784c0,7.704,6.245,13.949,13.949,13.949h42.926v16.447
	c0,2.364,0.593,4.588,1.631,6.539l25.999,176.084c0.54,3.66,2.512,6.955,5.482,9.16c2.419,1.798,5.34,2.751,8.316,2.751
	c0.678,0,1.359-0.05,2.037-0.149l91.635-13.53c7.622-1.126,12.887-8.216,11.762-15.836l-9.65-65.354
	c24.458-6.209,42.605-28.405,42.605-54.767c0-10.379-2.826-20.106-7.729-28.472c38.528,4.101,74.78,13.154,104.545,26.337
	c28.814,12.763,57.676,28.757,85.785,47.538l6.207,4.147c2.336,1.561,5.038,2.35,7.75,2.35c2.254,0,4.514-0.545,6.575-1.647
	c4.539-2.427,7.373-7.154,7.373-12.301V293.196C483.865,287.427,512,255.618,512,217.356z M56.26,267.349H27.898V144.463H56.26
	V267.349z M84.773,116.516h96.042v181.229h-15.542h-18.531v-90.566c0-7.704-6.245-13.949-13.949-13.949s-13.949,6.245-13.949,13.949
	v90.566H84.773V116.516z M110.065,476.443L87.799,325.642h65.433l20.869,141.346L110.065,476.443z M189.97,383.471l-8.187-55.44
	c15.034,0.829,27.01,13.321,27.01,28.559C208.796,368.93,200.943,379.47,189.97,383.471z M419.302,368.761
	c-24.516-15.387-49.507-28.746-74.494-39.813c-38.329-16.976-86.214-27.658-136.096-30.478V163.008h117.13
	c7.704,0,13.949-6.245,13.949-13.949c0-7.704-6.245-13.949-13.949-13.949h-117.13v-19.319
	c49.882-2.819,97.767-13.501,136.096-30.478c24.988-11.068,49.977-24.427,74.494-39.813V368.761z M447.199,264.754V169.96
	c21.183,5.355,36.903,24.575,36.903,47.397S468.382,259.399,447.199,264.754z"/>
<path d="M132.79,179.282c-0.907,0-1.827-0.098-2.72-0.279c-0.893-0.167-1.771-0.446-2.608-0.795
	c-0.851-0.349-1.66-0.781-2.413-1.283c-0.767-0.502-1.479-1.088-2.12-1.73c-2.594-2.594-4.087-6.193-4.087-9.862
	c0-0.907,0.098-1.827,0.279-2.72c0.181-0.893,0.446-1.771,0.795-2.608c0.349-0.851,0.781-1.66,1.283-2.413
	c0.502-0.767,1.088-1.479,1.73-2.12c0.642-0.642,1.353-1.227,2.12-1.744c0.753-0.502,1.562-0.921,2.413-1.269
	c0.837-0.349,1.716-0.628,2.608-0.795c1.799-0.363,3.655-0.363,5.454,0c0.879,0.167,1.758,0.446,2.608,0.795
	c0.837,0.349,1.646,0.767,2.399,1.269c0.767,0.516,1.479,1.102,2.12,1.744c0.642,0.642,1.227,1.353,1.744,2.12
	c0.502,0.753,0.935,1.562,1.283,2.413c0.349,0.837,0.614,1.716,0.795,2.608c0.181,0.893,0.265,1.813,0.265,2.72
	c0,3.669-1.479,7.267-4.087,9.862c-0.642,0.642-1.353,1.227-2.12,1.73c-0.753,0.502-1.562,0.935-2.399,1.283
	c-0.851,0.349-1.73,0.628-2.608,0.795C134.617,179.183,133.697,179.282,132.79,179.282z"/>
<g>
</g>
<g>
</g>
<g>
</g>
<g>
</g>
<g>
</g>
<g>
</g>
<g>
</g>
<g>
</g>
<g>
</g>
<g>
</g>
<g>
</g>
<g>
</g>
<g>
</g>
<g>
</g>
<g>
</g>
</svg>
