<?xml version="1.0" encoding="iso-8859-1"?>
<!-- Generator: Adobe Illustrator 19.0.0, SVG Export Plug-In . SVG Version: 6.00 Build 0)  -->
<svg version="1.1" id="Layer_1" xmlns="http://www.w3.org/2000/svg" xmlns:xlink="http://www.w3.org/1999/xlink" x="0px" y="0px"
	 viewBox="0 0 512 512" style="enable-background:new 0 0 512 512;" xml:space="preserve">
<path d="M208.357,362.533c-0.826,0-1.664-0.089-2.477-0.254c-0.813-0.152-1.613-0.395-2.376-0.713
	c-0.775-0.318-1.512-0.711-2.198-1.169c-0.699-0.47-1.347-1.004-1.931-1.588c-0.584-0.584-1.118-1.232-1.575-1.931
	c-0.457-0.686-0.851-1.423-1.169-2.185c-0.318-0.775-0.572-1.575-0.737-2.376c-0.165-0.826-0.241-1.666-0.241-2.49
	c0-3.341,1.359-6.619,3.722-8.982c0.584-0.584,1.232-1.118,1.931-1.575c0.686-0.456,1.423-0.851,2.185-1.169
	c0.775-0.318,1.575-0.558,2.388-0.724c1.639-0.33,3.329-0.33,4.955,0c0.813,0.166,1.614,0.407,2.376,0.724
	c0.775,0.318,1.512,0.713,2.198,1.169c0.699,0.457,1.347,0.991,1.931,1.575s1.118,1.232,1.575,1.931
	c0.457,0.686,0.851,1.423,1.169,2.198c0.318,0.762,0.572,1.561,0.724,2.376c0.165,0.813,0.254,1.652,0.254,2.477
	c0,3.341-1.359,6.619-3.722,8.981c-0.584,0.584-1.232,1.118-1.931,1.588c-0.686,0.457-1.423,0.851-2.198,1.169
	c-0.762,0.318-1.563,0.559-2.376,0.713C210.022,362.444,209.183,362.533,208.357,362.533z"/>
<g>
	<path style="fill:#FF5050;" d="M499.295,314.714c0-19.434-15.754-35.188-35.188-35.188c-19.434,0-35.188,15.755-35.188,35.188
		H378.35v35.188h85.757C483.541,349.902,499.295,334.149,499.295,314.714z"/>
	<path style="fill:#FF5050;" d="M450.772,424.722c0,19.434-15.754,35.188-35.188,35.188c-19.434,0-35.188-15.755-35.188-35.188
		h-50.569v-35.188h85.757C435.018,389.534,450.772,405.287,450.772,424.722z"/>
</g>
<path d="M464.107,266.821c-22.011,0-40.602,14.927-46.183,35.188H378.35c-7.017,0-12.705,5.689-12.705,12.705v22.412H252.189
	c-7.017,0-12.705,5.689-12.705,12.705c0,7.016,5.688,12.705,12.705,12.705h11.74c-0.042,0.418-0.064,0.842-0.064,1.27
	c0,21.016,17.098,38.114,38.114,38.114h15.143v22.8c0,7.016,5.688,12.705,12.705,12.705h39.574
	c5.581,20.261,24.172,35.188,46.183,35.188c26.408,0,47.893-21.485,47.893-47.893s-21.485-47.892-47.893-47.892l-113.604-0.318
	c-7.005,0-12.705-5.699-12.705-12.705c0-0.428-0.023-0.852-0.064-1.27l174.896,0.072c26.408,0,47.893-21.485,47.893-47.893
	S490.515,266.821,464.107,266.821z M438.067,424.72c0,12.397-10.086,22.484-22.484,22.484c-12.397,0-22.484-10.086-22.484-22.484
	c0-7.016-5.688-12.705-12.705-12.705h-37.864v-9.778h73.052C427.981,402.238,438.067,412.323,438.067,424.72z M464.107,337.199
	h-73.052v-9.779h37.864c7.017,0,12.705-5.689,12.705-12.705c0-12.399,10.086-22.484,22.484-22.484
	c12.397,0,22.484,10.085,22.484,22.482S476.504,337.199,464.107,337.199z"/>
<path style="fill:#FFDC64;" d="M376.685,254.116H113.717c-55.788,0-101.013-45.225-101.013-101.013l0,0
	c0-55.788,45.225-101.013,101.013-101.013h262.967c55.788,0,101.013,45.225,101.013,101.013l0,0
	C477.697,208.892,432.472,254.116,376.685,254.116z"/>
<circle style="fill:#FF5050;" cx="138.481" cy="153.105" r="88.514"/>
<path d="M376.685,39.386H113.717C51.013,39.386,0,90.401,0,153.104c0,47.508,29.288,88.298,70.754,105.281v66.037
	c0,21.016,17.098,38.114,38.114,38.114h55.658c7.017,0,12.705-5.689,12.705-12.705c0-7.016-5.688-12.705-12.705-12.705h-55.658
	c-7.005,0-12.705-5.699-12.705-12.705v-58.956c5.723,0.891,11.585,1.356,17.554,1.356h262.967
	c62.704,0,113.717-51.013,113.717-113.717S439.389,39.386,376.685,39.386z M62.676,153.104c0-41.799,34.005-75.805,75.805-75.805
	s75.805,34.007,75.805,75.805s-34.007,75.805-75.805,75.805S62.676,194.904,62.676,153.104z M25.409,153.104
	c0-35.545,21.12-66.23,51.46-80.223c-24.058,18.521-39.602,47.583-39.602,80.223s15.544,61.7,39.602,80.223
	C46.53,219.335,25.409,188.649,25.409,153.104z M376.685,241.412H187.856c30.902-17.346,51.84-50.42,51.84-88.308
	s-20.939-70.961-51.84-88.308h188.829c48.693,0,88.308,39.615,88.308,88.308S425.378,241.412,376.685,241.412z"/>
<path style="fill:#7BFFCD;" d="M183.661,149.76l-61.819-36.666c-2.592-1.537-5.872,0.33-5.872,3.345v73.33
	c0,3.014,3.28,4.882,5.872,3.345l61.819-36.665C186.202,154.942,186.202,151.265,183.661,149.76z"/>
<path d="M119.859,206.357c-2.834,0-5.67-0.722-8.211-2.169c-5.17-2.945-8.381-8.47-8.381-14.42v-73.329
	c0-5.95,3.212-11.474,8.381-14.42c5.17-2.942,11.559-2.887,16.676,0.147l61.819,36.665v-0.001c5.015,2.974,8.128,8.444,8.128,14.272
	s-3.115,11.3-8.128,14.272l-61.819,36.663C125.722,205.584,122.79,206.357,119.859,206.357z M128.675,131.917v42.373l35.721-21.186
	L128.675,131.917z M177.174,160.682c0.003,0.001,0.005,0.003,0.008,0.005v-0.001L177.174,160.682z"/>
<rect x="271.03" y="122.195" style="fill:#7BFFCD;" width="156.687" height="61.83"/>
<path d="M427.726,196.723H271.033c-7.017,0-12.705-5.689-12.705-12.705v-61.829c0-7.016,5.688-12.705,12.705-12.705h156.691
	c7.017,0,12.705,5.689,12.705,12.705v61.829C440.431,191.035,434.741,196.723,427.726,196.723z M283.738,171.314H415.02v-36.419
	H283.738V171.314z"/>
<g>
</g>
<g>
</g>
<g>
</g>
<g>
</g>
<g>
</g>
<g>
</g>
<g>
</g>
<g>
</g>
<g>
</g>
<g>
</g>
<g>
</g>
<g>
</g>
<g>
</g>
<g>
</g>
<g>
</g>
</svg>
