<?xml version="1.0" encoding="iso-8859-1"?>
<!-- Generator: Adobe Illustrator 19.0.0, SVG Export Plug-In . SVG Version: 6.00 Build 0)  -->
<svg version="1.1" id="Layer_1" xmlns="http://www.w3.org/2000/svg" xmlns:xlink="http://www.w3.org/1999/xlink" x="0px" y="0px"
	 viewBox="0 0 511.999 511.999" style="enable-background:new 0 0 511.999 511.999;" xml:space="preserve">
<path d="M358.816,317.104c-0.956,0-1.931-0.103-2.874-0.295c-0.943-0.192-1.872-0.472-2.754-0.84
	c-0.899-0.368-1.754-0.825-2.549-1.356c-0.811-0.529-1.562-1.148-2.24-1.826c-0.678-0.678-1.298-1.431-1.827-2.241
	c-0.531-0.796-0.987-1.65-1.356-2.548c-0.368-0.886-0.663-1.813-0.84-2.756c-0.192-0.945-0.295-1.917-0.295-2.874
	c0-0.958,0.103-1.932,0.295-2.888c0.177-0.928,0.472-1.857,0.84-2.756c0.368-0.884,0.825-1.739,1.356-2.535
	c0.529-0.812,1.149-1.564,1.827-2.241c0.678-0.678,1.429-1.297,2.24-1.842c0.796-0.529,1.651-0.987,2.549-1.356
	c0.884-0.368,1.811-0.647,2.754-0.84c1.901-0.383,3.846-0.383,5.762,0c0.928,0.193,1.858,0.472,2.756,0.84
	c0.886,0.368,1.74,0.827,2.535,1.356c0.812,0.545,1.564,1.164,2.241,1.842c0.678,0.678,1.297,1.429,1.842,2.241
	c0.531,0.796,0.987,1.65,1.356,2.535c0.368,0.899,0.648,1.827,0.84,2.756c0.192,0.956,0.279,1.93,0.279,2.888
	c0,0.956-0.088,1.931-0.279,2.874c-0.192,0.943-0.486,1.872-0.855,2.756c-0.368,0.897-0.827,1.752-1.356,2.548
	c-0.531,0.811-1.149,1.564-1.827,2.241c-0.678,0.678-1.429,1.297-2.241,1.826c-0.794,0.531-1.649,0.987-2.535,1.356
	c-0.897,0.368-1.827,0.648-2.756,0.84C360.748,317,359.776,317.104,358.816,317.104z"/>
<path style="fill:#FFDC64;" d="M199.938,497.262c-59.947,0-108.717-48.77-108.717-108.714V200.521h57.595v188.027
	c0,28.187,22.935,51.119,51.122,51.119s51.119-22.932,51.119-51.119V123.451c0-59.946,48.771-108.714,108.717-108.714
	S468.49,63.506,468.49,123.451v232.237h-57.595V123.451c0-28.187-22.933-51.119-51.12-51.119s-51.122,22.932-51.122,51.119v265.097
	C308.653,448.494,259.883,497.262,199.938,497.262z"/>
<path style="fill:#7DF5A5;" d="M91.22,200.521h57.595v3.286h0.097c8.587-26.281,50.252-144.035,62.54-165.11H27.297
	C42.533,59.774,82.598,177.305,91.22,203.809V200.521z"/>
<path d="M484.702,347.568h-1.474V123.451C483.228,55.381,427.847,0,359.776,0S236.322,55.381,236.322,123.451v139.624h-72.768
	v-56.608c11.179-33.819,49.872-141.892,60.631-160.347c2.659-4.558,2.675-10.189,0.047-14.765
	c-2.628-4.576-7.502-7.396-12.778-7.396H27.298c-5.535,0-10.603,3.101-13.122,8.03c-2.52,4.929-2.063,10.854,1.179,15.339
	c12.03,16.645,47.423,116.995,61.128,158.828v182.392c0,68.07,55.382,123.451,123.454,123.451
	c68.07,0,123.451-55.38,123.451-123.451V123.451c0-14.445,8.465-26.949,20.693-32.82v167.522c0,8.138,6.599,14.737,14.737,14.737
	s14.737-6.599,14.737-14.737V89.789c13.248,5.442,22.603,18.478,22.603,33.663v224.116h-1.972c-8.138,0-14.737,6.599-14.737,14.737
	c0,8.138,6.599,14.737,14.737,14.737H484.7c8.138,0,14.737-6.599,14.737-14.737C499.437,354.167,492.841,347.568,484.702,347.568z
	 M163.552,362.305h72.768v26.245c0,20.06-16.321,36.382-36.382,36.382c-20.063,0-36.385-16.321-36.385-36.382v-26.245H163.552z
	 M236.32,292.55v40.281h-72.768V292.55H236.32z M188.454,53.435c-15.188,36.385-38.408,101.559-49.001,132.35h-38.707
	c-9.541-28.342-32.329-94.615-49.229-132.35C51.516,53.435,188.454,53.435,188.454,53.435z M359.776,57.597
	c-36.316,0-65.858,29.543-65.858,65.855v265.096c0,51.82-42.157,93.977-93.977,93.977c-51.822,0-93.98-42.157-93.98-93.977v-173.29
	h28.122v173.29c0,36.313,29.544,65.855,65.858,65.855s65.855-29.543,65.855-65.855V123.451c0-51.82,42.159-93.977,93.98-93.977
	c51.82,0,93.979,42.157,93.979,93.977v217.5h-28.122v-217.5C425.632,87.14,396.088,57.597,359.776,57.597z"/>
<g>
</g>
<g>
</g>
<g>
</g>
<g>
</g>
<g>
</g>
<g>
</g>
<g>
</g>
<g>
</g>
<g>
</g>
<g>
</g>
<g>
</g>
<g>
</g>
<g>
</g>
<g>
</g>
<g>
</g>
</svg>
