<?xml version="1.0" encoding="iso-8859-1"?>
<!-- Generator: Adobe Illustrator 19.0.0, SVG Export Plug-In . SVG Version: 6.00 Build 0)  -->
<svg version="1.1" id="Layer_1" xmlns="http://www.w3.org/2000/svg" xmlns:xlink="http://www.w3.org/1999/xlink" x="0px" y="0px"
	 viewBox="0 0 512 512" style="enable-background:new 0 0 512 512;" xml:space="preserve">
<rect x="69.353" y="15.579" style="fill:#7BFFCD;" width="373.297" height="480.836"/>
<path d="M442.647,512H69.353c-8.604,0-15.579-6.976-15.579-15.579V15.579C53.775,6.976,60.749,0,69.353,0h373.294
	c8.603,0,15.579,6.976,15.579,15.579v480.843C458.225,505.025,451.249,512,442.647,512z M84.932,480.843h342.136V31.157H84.932
	V480.843z"/>
<circle style="fill:#A2A8D3;" cx="256.005" cy="330.829" r="110.765"/>
<path d="M256,457.18c-69.669,0-126.349-56.68-126.349-126.349S186.331,204.481,256,204.481s126.349,56.68,126.349,126.349
	S325.669,457.18,256,457.18z M256,235.64c-52.488,0-95.192,42.703-95.192,95.192s42.703,95.192,95.192,95.192
	s95.192-42.703,95.192-95.192S308.489,235.64,256,235.64z"/>
<path d="M256,403.818c-8.604,0-15.579-6.976-15.579-15.579c0-8.603,6.975-15.579,15.579-15.579c23.066,0,41.83-18.765,41.83-41.83
	c0-9.67-3.393-19.107-9.554-26.571c-5.477-6.637-4.538-16.456,2.097-21.932c6.638-5.477,16.454-4.538,21.932,2.097
	c10.759,13.035,16.683,29.514,16.683,46.406C328.988,371.077,296.246,403.818,256,403.818z"/>
<rect x="129.038" y="72.176" style="fill:#FFDC64;" width="253.933" height="100.483"/>
<path d="M382.966,56.593H129.034c-8.604,0-15.579,6.976-15.579,15.579v100.483c0,8.603,6.975,15.579,15.579,15.579h253.933
	c8.603,0,15.579-6.976,15.579-15.579V72.171C398.545,63.569,391.57,56.593,382.966,56.593z M367.388,157.075H144.612V139.16h131.735
	c8.603,0,15.579-6.976,15.579-15.579s-6.976-15.579-15.579-15.579H144.612V87.75h222.775V157.075z"/>
<path d="M323.082,139.16c-4.097,0-8.116-1.667-11.013-4.566c-0.717-0.717-1.372-1.511-1.932-2.368
	c-0.561-0.841-1.044-1.745-1.433-2.68c-0.389-0.95-0.685-1.932-0.888-2.929c-0.203-0.999-0.312-2.027-0.312-3.038
	c0-1.013,0.109-2.042,0.312-3.038c0.203-0.995,0.499-1.98,0.888-2.913c0.389-0.95,0.872-1.852,1.433-2.694
	c0.559-0.858,1.215-1.653,1.932-2.37c3.613-3.614,8.989-5.281,14.066-4.251c0.981,0.185,1.964,0.497,2.913,0.886
	c0.936,0.389,1.838,0.874,2.68,1.433c0.858,0.561,1.653,1.215,2.37,1.932c0.717,0.717,1.371,1.511,1.932,2.37
	c0.559,0.841,1.044,1.743,1.433,2.694c0.389,0.935,0.701,1.916,0.886,2.913c0.204,0.997,0.312,2.025,0.312,3.038
	c0,1.011-0.107,2.041-0.312,3.038c-0.185,0.997-0.497,1.978-0.886,2.929c-0.389,0.935-0.874,1.838-1.433,2.68
	c-0.561,0.857-1.215,1.651-1.932,2.368c-0.717,0.717-1.511,1.372-2.37,1.932c-0.841,0.561-1.743,1.044-2.68,1.433
	c-0.949,0.389-1.932,0.701-2.913,0.904C325.124,139.066,324.094,139.16,323.082,139.16z"/>
<g>
</g>
<g>
</g>
<g>
</g>
<g>
</g>
<g>
</g>
<g>
</g>
<g>
</g>
<g>
</g>
<g>
</g>
<g>
</g>
<g>
</g>
<g>
</g>
<g>
</g>
<g>
</g>
<g>
</g>
</svg>
