<?xml version="1.0" encoding="iso-8859-1"?>
<!-- Generator: Adobe Illustrator 19.0.0, SVG Export Plug-In . SVG Version: 6.00 Build 0)  -->
<svg version="1.1" id="Layer_1" xmlns="http://www.w3.org/2000/svg" xmlns:xlink="http://www.w3.org/1999/xlink" x="0px" y="0px"
	 viewBox="0 0 512 512" style="enable-background:new 0 0 512 512;" xml:space="preserve">
<polygon style="fill:#FFDC64;" points="255.998,26.112 349.321,151.821 497.717,201.731 406.999,329.332 405.388,485.887 
	255.998,439.039 106.609,485.887 104.999,329.332 14.281,201.731 162.676,151.821 "/>
<path d="M405.388,500.169c-1.432,0-2.874-0.214-4.273-0.654l-145.117-45.507l-145.117,45.507c-4.312,1.354-9.012,0.584-12.668-2.074
	c-3.658-2.656-5.84-6.887-5.887-11.407l-1.564-152.078L2.641,210.006c-2.618-3.683-3.339-8.389-1.942-12.688
	c1.397-4.299,4.746-7.684,9.031-9.125l144.15-48.48l90.654-122.114c2.694-3.629,6.947-5.769,11.467-5.769s8.773,2.139,11.467,5.769
	l90.654,122.114l144.15,48.48c4.285,1.441,7.634,4.826,9.031,9.125c1.397,4.299,0.676,9.005-1.942,12.688l-88.123,123.951
	l-1.564,152.076c-0.047,4.52-2.229,8.751-5.887,11.407C411.314,499.235,408.369,500.169,405.388,500.169z M255.998,424.757
	c1.441,0,2.882,0.217,4.273,0.654l131.033,41.091l1.413-137.317c0.03-2.916,0.953-5.753,2.641-8.128l79.569-111.921L344.768,165.36
	c-2.764-0.93-5.177-2.684-6.914-5.024L255.999,50.073l-81.856,110.263c-1.738,2.341-4.15,4.093-6.914,5.024L37.07,209.136
	l79.569,111.921c1.69,2.375,2.611,5.212,2.641,8.128l1.412,137.317l131.033-41.091C253.116,424.974,254.557,424.757,255.998,424.757
	z"/>
<polyline style="fill:#FFDC64;" points="406.567,231.347 350.058,310.829 349.056,408.35 297.168,393.539 "/>
<path d="M349.054,422.632c-1.311,0-2.629-0.18-3.919-0.548l-51.887-14.81c-7.585-2.167-11.978-10.069-9.813-17.654
	c2.165-7.585,10.072-11.977,17.653-9.813l33.878,9.67l0.81-78.792c0.03-2.916,0.953-5.753,2.641-8.128l56.508-79.482
	c4.573-6.431,13.488-7.937,19.916-3.365c6.428,4.57,7.935,13.486,3.363,19.915l-53.913,75.833l-0.957,93.042
	c-0.046,4.455-2.168,8.633-5.739,11.298C355.103,421.656,352.099,422.632,349.054,422.632z"/>
<path d="M255.998,399.261c-0.928,0-1.871-0.086-2.785-0.27s-1.814-0.457-2.671-0.814c-0.871-0.357-1.7-0.8-2.471-1.314
	c-0.786-0.514-1.514-1.114-2.171-1.771c-0.657-0.657-1.257-1.398-1.771-2.171c-0.514-0.787-0.957-1.614-1.314-2.471
	c-0.357-0.857-0.643-1.755-0.814-2.671c-0.186-0.927-0.286-1.857-0.286-2.799c0-0.927,0.1-1.857,0.286-2.785
	c0.171-0.914,0.457-1.814,0.814-2.669c0.357-0.858,0.8-1.687,1.314-2.458c0.514-0.785,1.114-1.514,1.771-2.184
	c0.657-0.658,1.385-1.243,2.171-1.771c0.771-0.514,1.6-0.957,2.471-1.314c0.857-0.357,1.757-0.628,2.671-0.814
	c1.842-0.371,3.728-0.371,5.57,0c0.914,0.186,1.814,0.457,2.685,0.814c0.857,0.357,1.685,0.8,2.457,1.314
	c0.786,0.528,1.514,1.113,2.171,1.771c0.657,0.671,1.257,1.398,1.771,2.184c0.514,0.771,0.957,1.6,1.314,2.458
	c0.357,0.857,0.628,1.755,0.814,2.669c0.186,0.928,0.286,1.858,0.286,2.785c0,0.943-0.1,1.872-0.286,2.799
	c-0.186,0.915-0.457,1.815-0.814,2.671c-0.357,0.858-0.8,1.685-1.314,2.471c-0.514,0.771-1.114,1.514-1.771,2.171
	c-0.657,0.657-1.385,1.257-2.171,1.771c-0.771,0.514-1.6,0.957-2.471,1.314c-0.857,0.357-1.757,0.628-2.671,0.814
	S256.927,399.261,255.998,399.261z"/>
<path style="fill:#FF5050;" d="M281.903,314.384h-51.808c-15.907,0-28.803-12.895-28.803-28.803v-79.162
	c0-15.907,12.895-28.803,28.803-28.803h51.808c15.907,0,28.802,12.895,28.802,28.803v79.162
	C310.706,301.489,297.81,314.384,281.903,314.384z"/>
<path d="M281.903,163.336h-51.808c-23.757,0-43.085,19.328-43.085,43.085v79.162c0,23.757,19.328,43.085,43.085,43.085h11.623
	v13.477c0,7.887,6.394,14.282,14.282,14.282s14.282-6.395,14.282-14.282v-13.477h11.623c23.757,0,43.085-19.328,43.085-43.085
	v-79.162C324.986,182.664,305.66,163.336,281.903,163.336z M281.903,300.104h-51.808c-7.929,0-14.383-6.39-14.508-14.291h11.6
	c7.888,0,14.282-6.395,14.282-14.282s-6.394-14.282-14.282-14.282h-11.611v-22.494h11.611c7.888,0,14.282-6.395,14.282-14.282
	c0-7.887-6.394-14.282-14.282-14.282h-11.6c0.124-7.901,6.58-14.291,14.508-14.291h51.808c7.929,0,14.383,6.39,14.508,14.291h-11.6
	c-7.888,0-14.282,6.395-14.282,14.282c0,7.887,6.394,14.282,14.282,14.282h11.611v22.494h-11.611
	c-7.888,0-14.282,6.395-14.282,14.282s6.394,14.282,14.282,14.282h11.6C296.287,293.714,289.833,300.104,281.903,300.104z"/>
<g>
</g>
<g>
</g>
<g>
</g>
<g>
</g>
<g>
</g>
<g>
</g>
<g>
</g>
<g>
</g>
<g>
</g>
<g>
</g>
<g>
</g>
<g>
</g>
<g>
</g>
<g>
</g>
<g>
</g>
</svg>
