<?xml version="1.0" encoding="iso-8859-1"?>
<!-- Generator: Adobe Illustrator 19.0.0, SVG Export Plug-In . SVG Version: 6.00 Build 0)  -->
<svg version="1.1" id="Layer_1" xmlns="http://www.w3.org/2000/svg" xmlns:xlink="http://www.w3.org/1999/xlink" x="0px" y="0px"
	 viewBox="0 0 512.003 512.003" style="enable-background:new 0 0 512.003 512.003;" xml:space="preserve">
<path style="fill:#767B95;" d="M189.983,392.072l-62.21-62.21c-40.7,40.7-106.884,40.25-106.884,40.25l128.844,128.844
	C149.733,498.956,150.035,432.02,189.983,392.072z"/>
<rect x="96.565" y="166.158" transform="matrix(-0.7071 0.7071 -0.7071 -0.7071 676.8808 140.692)" style="fill:#A2A8D3;" width="425.475" height="88.749"/>
<g>
	<circle style="fill:#FFDC64;" cx="351.714" cy="69.931" r="23.922"/>
	<circle style="fill:#FFDC64;" cx="291.611" cy="130.033" r="23.922"/>
	<circle style="fill:#FFDC64;" cx="231.509" cy="190.123" r="23.922"/>
	<circle style="fill:#FFDC64;" cx="171.42" cy="250.225" r="23.922"/>
</g>
<path d="M500.344,82.257L437.589,19.5c-2.448-2.447-5.767-3.823-9.229-3.823s-6.782,1.376-9.229,3.823l-34.208,34.208
	c-1.746-3.585-4.097-6.947-7.07-9.922c-11.169-11.168-27.761-13.677-41.373-7.541l-3.908-3.908L342.63,22.28
	c5.097-5.097,5.097-13.361,0-18.459c-5.098-5.095-13.36-5.095-18.459,0L105.305,222.689c-5.097,5.097-5.097,13.361,0,18.459
	c2.549,2.548,5.889,3.823,9.229,3.823c3.34,0,6.68-1.275,9.229-3.823l10.057-10.057l3.896,3.896
	c-2.14,4.727-3.276,9.896-3.276,15.24c0,9.876,3.845,19.161,10.829,26.143c2.937,2.937,6.284,5.311,9.907,7.086l-36.907,36.906
	c-0.692,0.692-1.288,1.46-1.801,2.275c-36.281,34.097-94.471,34.425-95.482,34.425c-0.004,0-0.008,0-0.009,0
	c-5.277-0.086-10.088,3.13-12.13,8.016s-0.932,10.521,2.811,14.265l128.844,128.844c2.494,2.493,5.827,3.816,9.221,3.816
	c1.668,0,3.352-0.32,4.957-0.979c4.868-1.994,8.063-6.727,8.102-11.989c0.004-0.604,0.843-59.828,34.419-95.649
	c0.808-0.509,1.578-1.107,2.283-1.81l300.859-300.859C505.441,95.618,505.441,87.354,500.344,82.257z M344.02,62.245
	c2.12-2.12,4.903-3.181,7.687-3.181c2.784,0,5.568,1.061,7.687,3.179c4.238,4.239,4.238,11.136,0,15.375
	c-2.053,2.052-4.783,3.182-7.687,3.182s-5.633-1.13-7.687-3.183C339.781,73.379,339.781,66.483,344.02,62.245z M318.008,54.691
	c-2.14,4.729-3.276,9.896-3.276,15.24c0,9.875,3.846,19.161,10.83,26.143c2.937,2.937,6.284,5.311,9.907,7.084l-10.632,10.632
	c-1.775-3.623-4.149-6.971-7.086-9.907c-11.167-11.168-27.759-13.677-41.372-7.541l-3.906-3.908l41.639-41.64L318.008,54.691z
	 M223.825,182.44c2.053-2.053,4.783-3.183,7.686-3.183c2.904,0,5.633,1.13,7.687,3.183c2.054,2.053,3.185,4.783,3.185,7.687
	s-1.132,5.633-3.183,7.687c-4.239,4.237-11.137,4.237-15.373,0c-2.053-2.053-3.183-4.783-3.183-7.687
	S221.772,184.493,223.825,182.44z M231.511,153.153c-5.345,0-10.512,1.135-15.239,3.276l-3.896-3.896l41.641-41.641l3.908,3.908
	c-6.136,13.613-3.627,30.205,7.54,41.375c2.937,2.937,6.284,5.311,9.907,7.084l-10.63,10.63c-1.775-3.623-4.148-6.971-7.084-9.907
	C250.673,156.999,241.387,153.153,231.511,153.153z M283.92,122.342c2.12-2.12,4.905-3.179,7.689-3.179s5.569,1.06,7.687,3.179
	c2.053,2.053,3.185,4.783,3.185,7.687c0,2.904-1.132,5.633-3.185,7.687c-2.053,2.054-4.783,3.183-7.687,3.183
	s-5.633-1.13-7.687-3.182C279.684,133.478,279.684,126.58,283.92,122.342z M193.918,170.992l3.906,3.908
	c-6.136,13.613-3.626,30.205,7.544,41.373c2.973,2.973,6.335,5.324,9.919,7.07l-10.659,10.659c-1.746-3.585-4.097-6.947-7.07-9.922
	c-11.169-11.168-27.761-13.677-41.373-7.541l-3.908-3.908L193.918,170.992z M163.728,242.539c2.053-2.053,4.783-3.183,7.687-3.183
	c2.904,0,5.633,1.13,7.687,3.182c4.238,4.239,4.238,11.136,0,15.373c-2.053,2.053-4.783,3.185-7.687,3.185
	c-2.904,0-5.633-1.132-7.689-3.185c-2.052-2.053-3.182-4.782-3.182-7.686C160.544,247.321,161.673,244.592,163.728,242.539z
	 M139.555,470.32l-89.874-89.873c21.91-3.678,52.411-12.325,77.591-32.626l44.767,44.765
	C151.998,417.597,143.316,448.324,139.555,470.32z M190.256,373.888l-44.298-44.298L428.359,47.188l12.92,12.92L228.145,273.242
	c-5.097,5.097-5.097,13.361,0,18.459c2.549,2.548,5.889,3.823,9.229,3.823s6.68-1.275,9.229-3.823L459.737,78.565l12.921,12.921
	L190.256,373.888z"/>
<path d="M209.694,323.206c-0.861,0-1.71-0.091-2.558-0.261c-0.835-0.157-1.658-0.406-2.441-0.732
	c-0.783-0.326-1.552-0.731-2.257-1.201c-0.718-0.483-1.385-1.031-1.985-1.631s-1.149-1.266-1.617-1.984
	c-0.47-0.705-0.874-1.462-1.201-2.246c-0.326-0.795-0.574-1.617-0.744-2.439c-0.17-0.848-0.261-1.711-0.261-2.558
	c0-0.848,0.091-1.711,0.261-2.545c0.17-0.837,0.418-1.659,0.744-2.441c0.326-0.796,0.731-1.553,1.201-2.258
	c0.469-0.718,1.017-1.383,1.617-1.984c2.441-2.428,5.795-3.824,9.24-3.824c3.433,0,6.787,1.395,9.216,3.824
	c0.6,0.6,1.149,1.266,1.631,1.984c0.469,0.705,0.874,1.462,1.201,2.258c0.326,0.783,0.573,1.604,0.743,2.441
	c0.171,0.835,0.248,1.697,0.248,2.545c0,0.847-0.078,1.71-0.248,2.558c-0.17,0.822-0.416,1.644-0.743,2.439
	c-0.326,0.784-0.732,1.541-1.201,2.246c-0.483,0.718-1.031,1.383-1.631,1.984c-0.6,0.6-1.267,1.149-1.985,1.631
	c-0.705,0.47-1.462,0.874-2.245,1.201c-0.796,0.326-1.605,0.574-2.441,0.732C211.39,323.115,210.543,323.206,209.694,323.206z"/>
<g>
</g>
<g>
</g>
<g>
</g>
<g>
</g>
<g>
</g>
<g>
</g>
<g>
</g>
<g>
</g>
<g>
</g>
<g>
</g>
<g>
</g>
<g>
</g>
<g>
</g>
<g>
</g>
<g>
</g>
</svg>
