<?xml version="1.0" encoding="iso-8859-1"?>
<!-- Generator: Adobe Illustrator 19.0.0, SVG Export Plug-In . SVG Version: 6.00 Build 0)  -->
<svg version="1.1" id="Layer_1" xmlns="http://www.w3.org/2000/svg" xmlns:xlink="http://www.w3.org/1999/xlink" x="0px" y="0px"
	 viewBox="0 0 511.999 511.999" style="enable-background:new 0 0 511.999 511.999;" xml:space="preserve">
<path d="M364.459,119.876c-0.943,0-1.904-0.102-2.833-0.291c-0.932-0.174-1.848-0.465-2.718-0.829
	c-0.887-0.363-1.73-0.814-2.515-1.323c-0.8-0.538-1.541-1.148-2.21-1.817s-1.279-1.41-1.803-2.21
	c-0.523-0.785-0.974-1.628-1.337-2.515c-0.363-0.872-0.64-1.788-0.829-2.718c-0.189-0.93-0.291-1.89-0.291-2.835
	c0-0.945,0.102-1.904,0.291-2.835c0.189-0.93,0.465-1.846,0.829-2.733c0.363-0.872,0.814-1.715,1.337-2.5
	c0.523-0.8,1.134-1.541,1.803-2.21s1.41-1.279,2.21-1.803c0.785-0.523,1.628-0.974,2.515-1.337c0.872-0.363,1.787-0.654,2.718-0.829
	c1.875-0.378,3.809-0.378,5.668,0c0.932,0.174,1.848,0.465,2.733,0.829c0.874,0.363,1.717,0.814,2.502,1.337
	c0.8,0.523,1.541,1.134,2.21,1.803s1.279,1.41,1.817,2.21c0.523,0.785,0.974,1.628,1.337,2.5c0.349,0.887,0.64,1.803,0.816,2.733
	c0.189,0.93,0.289,1.89,0.289,2.835c0,0.945-0.1,1.904-0.289,2.835c-0.174,0.93-0.465,1.846-0.816,2.718
	c-0.363,0.887-0.814,1.73-1.337,2.515c-0.538,0.8-1.148,1.541-1.817,2.21s-1.41,1.279-2.21,1.817
	c-0.785,0.509-1.628,0.959-2.502,1.323c-0.885,0.363-1.801,0.654-2.733,0.829C366.363,119.774,365.404,119.876,364.459,119.876z"/>
<path style="fill:#FFDC64;" d="M200.822,455.803l-35.72,15.918c-10.089,4.496-21.911-0.038-26.408-10.126L82.699,335.94
	c-4.496-10.089,0.038-21.911,10.126-26.408l35.72-15.918c10.089-4.496,21.911,0.038,26.408,10.126l55.996,125.655
	C215.445,439.484,210.911,451.307,200.822,455.803z"/>
<path style="fill:#FF5050;" d="M81.408,333.046l-24.213,10.791c-36.297,16.175-52.609,58.711-36.434,95.008l0,0
	c16.175,36.297,58.713,52.609,95.008,36.434l24.213-10.791L81.408,333.046z"/>
<path style="fill:#FFDC64;" d="M311.178,455.803l35.72,15.918c10.089,4.496,21.911-0.038,26.408-10.126l55.996-125.655
	c4.496-10.089-0.038-21.911-10.126-26.408l-35.72-15.918c-10.089-4.496-21.911,0.038-26.408,10.126l-55.996,125.655
	C296.556,439.484,301.088,451.307,311.178,455.803z"/>
<path style="fill:#FF5050;" d="M430.591,333.046l24.213,10.791c36.297,16.175,52.609,58.711,36.434,95.008l0,0
	c-16.175,36.297-58.713,52.609-95.008,36.434l-24.213-10.791L430.591,333.046z"/>
<path d="M474.732,338.453c9.196-26.208,13.858-53.719,13.858-81.963c0-132.659-104.338-240.584-232.589-240.584
	S23.412,123.832,23.412,256.49c0,28.223,4.668,55.741,13.864,81.957C3.742,361.637-9.703,406.196,7.484,444.761
	c9.404,21.102,26.461,37.278,48.031,45.55c10.061,3.858,20.539,5.781,30.998,5.781c11.968,0,23.913-2.518,35.173-7.536l15.426-6.874
	c5.803,4.066,12.76,6.306,19.898,6.306c4.691,0,9.455-0.961,14.008-2.989l35.72-15.918c17.395-7.751,25.239-28.209,17.486-45.603
	l-55.996-125.655c-3.755-8.426-10.567-14.884-19.178-18.188c-8.617-3.303-17.998-3.054-26.424,0.701l-35.723,15.919
	c-11.486,5.118-18.802,15.778-20.218,27.437l-3.233,1.441c-4.938-14.941-8.222-30.353-9.821-46.096
	c4.828-47.534,25.346-92.415,57.884-126.504C150.02,112.191,201.332,89.972,256,89.972c19.353,0,38.492,2.817,56.885,8.37
	c7.681,2.32,15.797-2.028,18.119-9.714s-2.029-15.799-9.715-18.119c-21.119-6.379-43.087-9.612-65.289-9.612
	c-61.38,0-119.003,24.375-162.724,68.705C130.442,78.253,189.55,44.981,256,44.981c112.218,0,203.516,94.883,203.516,211.511
	c0,23.618-3.688,46.641-10.964,68.643l-3.24-1.443c-1.417-11.659-8.734-22.318-20.219-27.438l-35.721-15.918
	c-8.424-3.756-17.808-4.005-26.424-0.701c-8.613,3.303-15.424,9.763-19.178,18.188l-55.996,125.655
	c-7.752,17.395,0.092,37.852,17.486,45.603l35.72,15.918c4.553,2.029,9.317,2.989,14.008,2.989c7.138,0,14.095-2.242,19.898-6.306
	l15.426,6.874c11.262,5.02,23.204,7.537,35.173,7.537c10.458,0,20.939-1.923,30.998-5.781c21.57-8.271,38.627-24.448,48.031-45.55
	C521.702,406.199,508.26,361.642,474.732,338.453z M109.854,462c-14.009,6.244-29.609,6.656-43.929,1.166
	c-14.32-5.492-25.643-16.23-31.887-30.238C21.153,404.01,34.194,370,63.11,357.114l10.935-4.873l46.74,104.886L109.854,462z
	 M98.742,322.81l35.721-15.919c0.794-0.353,1.545-0.475,2.208-0.475c0.839,0,1.531,0.195,1.971,0.365
	c0.788,0.302,2.231,1.079,3.034,2.877l55.996,125.655c0.801,1.798,0.413,3.391,0.11,4.179c-0.302,0.789-1.079,2.233-2.877,3.032
	l-35.72,15.918c-2.746,1.225-5.985-0.013-7.213-2.765L95.975,330.022C94.751,327.272,95.991,324.036,98.742,322.81z
	 M352.815,458.443l-35.72-15.918c-1.797-0.801-2.574-2.243-2.877-3.032c-0.302-0.788-0.691-2.381,0.11-4.179l55.996-125.653
	c0.802-1.798,2.246-2.574,3.034-2.877c0.442-0.17,1.132-0.365,1.97-0.365c0.663,0,1.416,0.122,2.21,0.475l35.72,15.918
	c2.752,1.227,3.992,4.463,2.766,7.213L360.028,455.68C358.8,458.429,355.562,459.667,352.815,458.443z M477.961,432.928
	c-6.244,14.008-17.566,24.746-31.887,30.238c-14.32,5.488-29.92,5.078-43.929-1.166l-10.933-4.873l46.74-104.886l10.935,4.873
	C477.804,370,490.846,404.01,477.961,432.928z"/>
<g>
</g>
<g>
</g>
<g>
</g>
<g>
</g>
<g>
</g>
<g>
</g>
<g>
</g>
<g>
</g>
<g>
</g>
<g>
</g>
<g>
</g>
<g>
</g>
<g>
</g>
<g>
</g>
<g>
</g>
</svg>
