<?xml version="1.0" encoding="iso-8859-1"?>
<!-- Generator: Adobe Illustrator 19.0.0, SVG Export Plug-In . SVG Version: 6.00 Build 0)  -->
<svg version="1.1" id="Layer_1" xmlns="http://www.w3.org/2000/svg" xmlns:xlink="http://www.w3.org/1999/xlink" x="0px" y="0px"
	 viewBox="0 0 512.002 512.002" style="enable-background:new 0 0 512.002 512.002;" xml:space="preserve">
<path style="fill:#FFDC64;" d="M299.167,350.704c0,23.581-19.115,42.696-42.696,42.696s-42.696-19.115-42.696-42.696H50.499v145.481
	h411.004V350.704H299.167z"/>
<path style="fill:#7DF5A5;" d="M454.327,20.511c-31.92,21.329-65.177,39.941-99.631,55.201
	c-46.546,20.617-104.46,32.001-161.949,33.783v142.671c57.489,1.782,115.403,13.166,161.949,33.783
	c34.452,15.26,67.71,33.873,99.631,55.201l7.037,4.701V15.81L454.327,20.511z"/>
<path d="M360.144,457.616c-1.042,0-2.072-0.111-3.099-0.316c-1.012-0.19-2.008-0.506-2.955-0.901
	c-0.95-0.395-1.868-0.886-2.736-1.455c-0.854-0.569-1.676-1.233-2.404-1.961c-0.729-0.727-1.393-1.534-1.961-2.404
	c-0.569-0.854-1.059-1.771-1.455-2.736c-0.395-0.949-0.696-1.945-0.901-2.957c-0.206-1.012-0.316-2.056-0.316-3.084
	s0.111-2.072,0.316-3.084c0.206-1.012,0.506-2.008,0.901-2.973c0.395-0.949,0.886-1.866,1.455-2.72
	c0.568-0.87,1.232-1.676,1.961-2.404c0.727-0.727,1.548-1.392,2.404-1.961c0.87-0.569,1.787-1.06,2.736-1.455
	s1.943-0.696,2.955-0.901c2.04-0.411,4.143-0.411,6.183,0c1.014,0.206,2.01,0.506,2.957,0.901c0.95,0.395,1.866,0.886,2.736,1.455
	c0.854,0.569,1.66,1.233,2.388,1.961c0.743,0.727,1.392,1.534,1.977,2.404c0.569,0.854,1.059,1.771,1.455,2.72
	c0.395,0.965,0.696,1.961,0.901,2.973c0.206,1.012,0.315,2.056,0.315,3.084s-0.109,2.072-0.315,3.084
	c-0.206,1.012-0.506,2.008-0.901,2.957c-0.395,0.965-0.886,1.882-1.455,2.736c-0.585,0.87-1.233,1.676-1.977,2.404
	c-0.727,0.727-1.534,1.392-2.388,1.961c-0.871,0.569-1.787,1.059-2.736,1.455c-0.949,0.395-1.943,0.712-2.957,0.901
	C362.201,457.505,361.173,457.616,360.144,457.616z"/>
<circle style="fill:#4DA081;" cx="256.475" cy="350.703" r="42.696"/>
<path d="M398.255,218.821c-1.044,0-2.073-0.095-3.099-0.3c-1.014-0.206-2.01-0.506-2.957-0.901
	c-0.947-0.395-1.866-0.886-2.736-1.455c-0.854-0.585-1.66-1.249-2.404-1.977c-0.727-0.727-1.376-1.534-1.961-2.404
	c-0.568-0.854-1.059-1.771-1.455-2.72c-0.395-0.965-0.694-1.961-0.901-2.957c-0.206-1.028-0.299-2.072-0.299-3.099
	s0.095-2.072,0.299-3.084c0.207-1.012,0.506-2.008,0.901-2.957c0.395-0.965,0.887-1.882,1.455-2.736
	c0.585-0.87,1.233-1.676,1.961-2.404c0.743-0.727,1.548-1.392,2.404-1.961c0.871-0.569,1.788-1.059,2.736-1.455
	c0.947-0.395,1.943-0.696,2.957-0.901c2.04-0.411,4.143-0.411,6.183,0c1.012,0.206,2.008,0.506,2.957,0.901
	c0.949,0.395,1.866,0.886,2.734,1.455c0.854,0.569,1.676,1.233,2.405,1.961c0.727,0.727,1.392,1.534,1.959,2.404
	c0.569,0.854,1.059,1.771,1.455,2.736c0.395,0.949,0.696,1.945,0.901,2.957c0.206,1.012,0.316,2.056,0.316,3.084
	s-0.111,2.072-0.316,3.099c-0.206,0.996-0.506,1.992-0.901,2.957c-0.395,0.949-0.886,1.866-1.455,2.72
	c-0.568,0.87-1.232,1.676-1.959,2.404c-0.729,0.727-1.55,1.392-2.405,1.977c-0.87,0.569-1.787,1.059-2.734,1.455
	c-0.95,0.395-1.945,0.696-2.957,0.901C400.325,218.726,399.282,218.821,398.255,218.821z"/>
<path style="fill:#4DA081;" d="M191.002,109.562v0.169h-69.406c-39.267,0-71.099,31.832-71.099,71.099l0,0
	c0,39.267,31.832,71.099,71.099,71.099h69.406v0.169c0.582,0.016,1.164,0.049,1.746,0.066V109.495
	C192.166,109.514,191.584,109.546,191.002,109.562z"/>
<path d="M477.043,347.825c0.082-0.65,0.134-1.308,0.134-1.975V15.812c0-5.835-3.213-11.196-8.359-13.946
	c-5.146-2.748-11.384-2.443-16.24,0.797l-7.037,4.701c-31.865,21.291-64.586,39.422-97.249,53.891
	c-43.205,19.137-98.62,30.655-156.035,32.436c-0.002,0-0.005,0-0.006,0l-1.69,0.065c-0.636,0.017-1.265,0.073-1.879,0.164h-67.084
	c-47.923,0-86.912,38.989-86.912,86.912c0,0.895,0.041,1.779,0.068,2.668c-0.036,0.443-0.068,0.887-0.068,1.341v165.866v145.481
	c0,8.734,7.081,15.813,15.813,15.813h411.004c8.732,0,15.813-7.08,15.813-15.813V350.708
	C477.316,349.719,477.214,348.759,477.043,347.825z M312.79,334.891c-6.917-24.601-29.537-42.696-56.32-42.696
	s-49.402,18.095-56.32,42.696H66.312v-87.048c15.035,12.426,34.303,19.901,55.286,19.901h67.084c0.615,0.09,1.243,0.145,1.879,0.164
	l1.69,0.065c0.002,0,0.005,0,0.006,0c57.418,1.781,112.832,13.3,156.035,32.436c22.214,9.841,44.449,21.413,66.431,34.484H312.79
	V334.891z M283.354,350.704c0,14.823-12.059,26.882-26.882,26.882c-14.823,0-26.882-12.059-26.882-26.882
	s12.059-26.882,26.882-26.882C271.295,323.822,283.354,335.881,283.354,350.704z M361.101,90.17
	c7.114-3.152,14.229-6.468,21.335-9.942v75.343c0,8.734,7.081,15.813,15.813,15.813s15.813-7.08,15.813-15.813V63.686
	c10.552-5.882,21.058-12.105,31.489-18.65v271.589c-27.796-17.445-56.124-32.588-84.45-45.134
	c-42.939-19.019-96.606-31.087-152.54-34.435V124.605C264.493,121.259,318.16,109.19,361.101,90.17z M121.598,125.546h55.337
	v110.572h-55.337c-30.485,0-55.286-24.801-55.286-55.286S91.112,125.546,121.598,125.546z M445.69,480.372H66.312v-22.757H312.7
	c8.732,0,15.813-7.08,15.813-15.813c0-8.734-7.081-15.813-15.813-15.813H66.312v-59.472h133.822
	c0.089,0.318,0.191,0.628,0.286,0.944c0.095,0.318,0.188,0.637,0.289,0.954c0.193,0.606,0.398,1.207,0.612,1.803
	c0.084,0.236,0.161,0.474,0.247,0.708c0.302,0.818,0.621,1.626,0.958,2.426c0.092,0.218,0.193,0.43,0.286,0.647
	c0.256,0.59,0.519,1.177,0.794,1.755c0.141,0.296,0.288,0.587,0.433,0.881c0.247,0.497,0.498,0.99,0.757,1.479
	c0.161,0.304,0.326,0.607,0.493,0.908c0.267,0.481,0.542,0.955,0.822,1.428c0.168,0.283,0.334,0.568,0.506,0.849
	c0.33,0.538,0.674,1.066,1.022,1.591c0.131,0.199,0.258,0.403,0.392,0.601c0.479,0.707,0.976,1.401,1.485,2.086
	c0.157,0.21,0.321,0.413,0.479,0.62c0.368,0.482,0.742,0.961,1.126,1.431c0.21,0.258,0.425,0.511,0.64,0.764
	c0.349,0.414,0.704,0.824,1.064,1.229c0.229,0.258,0.46,0.512,0.694,0.765c0.372,0.402,0.75,0.795,1.131,1.186
	c0.228,0.232,0.452,0.468,0.683,0.696c0.462,0.457,0.935,0.905,1.412,1.347c0.158,0.145,0.31,0.297,0.47,0.443
	c0.631,0.572,1.276,1.129,1.931,1.673c0.212,0.176,0.43,0.343,0.644,0.517c0.462,0.373,0.927,0.742,1.399,1.101
	c0.267,0.202,0.538,0.398,0.808,0.596c0.438,0.321,0.879,0.636,1.327,0.944c0.281,0.194,0.563,0.387,0.849,0.576
	c0.465,0.308,0.936,0.609,1.411,0.905c0.269,0.168,0.534,0.338,0.806,0.501c0.601,0.362,1.211,0.71,1.825,1.05
	c0.147,0.082,0.291,0.169,0.44,0.25c0.759,0.411,1.529,0.805,2.307,1.183c0.248,0.12,0.501,0.232,0.751,0.349
	c0.546,0.256,1.094,0.508,1.649,0.746c0.304,0.131,0.61,0.256,0.917,0.383c0.519,0.214,1.042,0.421,1.569,0.62
	c0.313,0.119,0.628,0.236,0.944,0.349c0.553,0.198,1.112,0.384,1.671,0.566c0.286,0.093,0.571,0.19,0.86,0.278
	c0.757,0.232,1.521,0.449,2.29,0.651c0.092,0.024,0.183,0.054,0.275,0.077c0.86,0.221,1.73,0.421,2.606,0.603
	c0.274,0.057,0.549,0.104,0.824,0.158c0.614,0.119,1.229,0.231,1.849,0.331c0.329,0.052,0.658,0.1,0.988,0.147
	c0.584,0.084,1.169,0.158,1.758,0.225c0.335,0.038,0.669,0.074,1.006,0.106c0.623,0.058,1.251,0.104,1.88,0.144
	c0.296,0.019,0.59,0.043,0.887,0.057c0.922,0.043,1.847,0.071,2.78,0.071c0.933,0,1.858-0.027,2.78-0.071
	c0.297-0.014,0.591-0.038,0.887-0.057c0.629-0.04,1.257-0.085,1.88-0.144c0.337-0.032,0.67-0.068,1.006-0.106
	c0.588-0.066,1.175-0.141,1.758-0.225c0.331-0.047,0.659-0.093,0.988-0.147c0.62-0.1,1.235-0.212,1.849-0.331
	c0.275-0.054,0.55-0.101,0.824-0.158c0.876-0.183,1.746-0.381,2.606-0.603c0.093-0.024,0.183-0.052,0.275-0.077
	c0.77-0.202,1.534-0.419,2.29-0.651c0.288-0.089,0.572-0.185,0.859-0.278c0.561-0.182,1.12-0.368,1.673-0.568
	c0.316-0.114,0.629-0.231,0.944-0.349c0.527-0.199,1.048-0.406,1.569-0.62c0.307-0.126,0.614-0.251,0.917-0.383
	c0.555-0.239,1.104-0.49,1.649-0.746c0.25-0.117,0.503-0.229,0.751-0.349c0.778-0.378,1.548-0.772,2.307-1.183
	c0.149-0.081,0.291-0.168,0.44-0.25c0.615-0.34,1.224-0.689,1.825-1.05c0.272-0.163,0.538-0.334,0.806-0.501
	c0.474-0.296,0.946-0.596,1.411-0.905c0.285-0.19,0.568-0.383,0.849-0.576c0.448-0.308,0.889-0.623,1.327-0.944
	c0.27-0.198,0.541-0.394,0.808-0.596c0.473-0.359,0.938-0.727,1.399-1.101c0.213-0.172,0.432-0.34,0.644-0.517
	c0.656-0.544,1.3-1.101,1.931-1.673c0.16-0.144,0.312-0.296,0.47-0.443c0.478-0.443,0.95-0.889,1.412-1.347
	c0.231-0.229,0.457-0.463,0.683-0.696c0.383-0.391,0.761-0.784,1.131-1.186c0.234-0.253,0.465-0.508,0.694-0.765
	c0.361-0.405,0.715-0.814,1.064-1.229c0.215-0.255,0.43-0.506,0.64-0.764c0.384-0.47,0.756-0.949,1.126-1.431
	c0.158-0.207,0.323-0.411,0.479-0.62c0.509-0.685,1.006-1.38,1.485-2.087c0.133-0.196,0.258-0.397,0.387-0.595
	c0.349-0.528,0.693-1.058,1.025-1.597c0.172-0.28,0.338-0.565,0.506-0.849c0.28-0.473,0.555-0.947,0.822-1.428
	c0.168-0.3,0.332-0.604,0.493-0.908c0.259-0.489,0.511-0.982,0.757-1.479c0.145-0.293,0.293-0.585,0.433-0.881
	c0.275-0.579,0.538-1.165,0.794-1.755c0.095-0.217,0.195-0.43,0.286-0.647c0.337-0.8,0.656-1.608,0.958-2.426
	c0.087-0.234,0.163-0.473,0.247-0.708c0.212-0.598,0.419-1.197,0.612-1.803c0.101-0.316,0.195-0.634,0.289-0.954
	c0.095-0.315,0.198-0.626,0.286-0.944h132.881v113.858H445.69z"/>
<g>
</g>
<g>
</g>
<g>
</g>
<g>
</g>
<g>
</g>
<g>
</g>
<g>
</g>
<g>
</g>
<g>
</g>
<g>
</g>
<g>
</g>
<g>
</g>
<g>
</g>
<g>
</g>
<g>
</g>
</svg>
