<?xml version="1.0" encoding="iso-8859-1"?>
<!-- Generator: Adobe Illustrator 19.0.0, SVG Export Plug-In . SVG Version: 6.00 Build 0)  -->
<svg version="1.1" id="Layer_1" xmlns="http://www.w3.org/2000/svg" xmlns:xlink="http://www.w3.org/1999/xlink" x="0px" y="0px"
	 viewBox="0 0 512 512" style="enable-background:new 0 0 512 512;" xml:space="preserve">
<path d="M256,512c-0.924,0-1.863-0.1-2.773-0.284c-0.91-0.185-1.806-0.455-2.659-0.81c-0.867-0.355-1.692-0.796-2.46-1.308
	c-0.782-0.51-1.507-1.108-2.161-1.763c-0.654-0.654-1.251-1.379-1.763-2.161c-0.512-0.768-0.953-1.607-1.308-2.46
	c-0.355-0.853-0.64-1.747-0.81-2.657c-0.185-0.911-0.284-1.85-0.284-2.773c0-0.924,0.1-1.864,0.284-2.787
	c0.171-0.896,0.455-1.792,0.81-2.659c0.355-0.855,0.796-1.678,1.308-2.446c0.512-0.783,1.109-1.509,1.763-2.163
	c0.654-0.654,1.379-1.251,2.161-1.777c0.768-0.512,1.593-0.953,2.46-1.308c0.853-0.355,1.749-0.626,2.659-0.81
	c1.834-0.37,3.711-0.37,5.545,0c0.91,0.185,1.806,0.455,2.658,0.81c0.867,0.355,1.692,0.796,2.46,1.308
	c0.782,0.526,1.507,1.123,2.161,1.777c0.655,0.654,1.253,1.379,1.763,2.163c0.512,0.768,0.953,1.591,1.308,2.446
	c0.355,0.867,0.64,1.763,0.81,2.659c0.185,0.923,0.284,1.863,0.284,2.787c0,0.923-0.1,1.863-0.284,2.773
	c-0.171,0.91-0.455,1.806-0.81,2.657c-0.355,0.855-0.796,1.692-1.308,2.46c-0.51,0.782-1.108,1.507-1.763,2.161
	c-0.654,0.655-1.379,1.253-2.161,1.763c-0.768,0.512-1.592,0.953-2.46,1.308c-0.853,0.355-1.747,0.626-2.658,0.81
	C257.863,511.9,256.924,512,256,512z"/>
<path d="M96.378,482.138c-3.631,0-7.263-1.383-10.038-4.149l-0.228-0.226c-5.562-5.544-5.575-14.547-0.031-20.11
	c5.544-5.561,14.547-5.575,20.108-0.03l0.228,0.226c5.562,5.544,5.575,14.547,0.031,20.11
	C103.671,480.744,100.024,482.138,96.378,482.138z"/>
<path d="M415.622,482.138c-3.64,0-7.277-1.389-10.054-4.165c-5.552-5.552-5.552-14.556,0-20.11l0.226-0.226
	c5.554-5.551,14.554-5.551,20.11,0c5.552,5.552,5.552,14.556,0,20.11l-0.226,0.226C422.899,480.748,419.261,482.138,415.622,482.138
	z"/>
<polygon style="fill:#FF5050;" points="294.9,146.832 216.873,204.711 138.843,146.832 63.523,202.701 63.523,265.874 
	448.477,265.874 448.477,148.675 372.93,204.711 "/>
<polygon style="fill:#FFDC64;" points="63.523,85.668 63.523,202.701 138.843,146.832 216.873,204.711 294.9,146.832 
	372.93,204.711 448.477,148.675 448.477,85.668 "/>
<path style="fill:#7DF5A5;" d="M438.639,85.668H73.362c-19.73,0-35.725-15.995-35.725-35.725l0,0
	c-0.001-19.73,15.993-35.725,35.723-35.725h365.277c19.73,0,35.725,15.995,35.725,35.725l0,0
	C474.364,69.674,458.369,85.668,438.639,85.668z"/>
<path d="M488.583,49.944C488.583,22.405,466.177,0,438.638,0H73.361C45.822,0,23.417,22.405,23.417,49.944
	c0,18.821,10.469,35.24,25.887,43.751v172.18c0,7.852,6.366,14.219,14.219,14.219h111.103l59.315,50.01l-107.021,90.23
	c-6.005,5.063-6.767,14.033-1.706,20.036c2.814,3.337,6.832,5.055,10.877,5.055c3.236,0,6.491-1.098,9.158-3.347l96.532-81.384
	v94.431c0,7.852,6.366,14.219,14.219,14.219c7.852,0,14.219-6.367,14.219-14.219v-94.436l96.53,81.386
	c2.669,2.249,5.922,3.347,9.158,3.347c4.047,0,8.065-1.718,10.877-5.053c5.062-6.005,4.297-14.974-1.705-20.037l-107.021-90.23
	l59.317-50.01h111.1c7.852,0,14.219-6.367,14.219-14.219V93.695C478.114,85.182,488.583,68.765,488.583,49.944z M73.361,28.438
	h365.277c11.86,0,21.507,9.647,21.507,21.506s-9.647,21.506-21.507,21.506H73.361c-11.858,0-21.506-9.647-21.506-21.506
	S61.502,28.438,73.361,28.438z M434.259,141.519l-61.329,45.489l-69.561-51.596c-0.628-0.466-1.287-0.874-1.965-1.224
	c-0.34-0.175-0.684-0.336-1.034-0.481c-1.049-0.439-2.138-0.744-3.243-0.919c-0.737-0.117-1.482-0.175-2.227-0.175l0,0
	c-0.744,0-1.489,0.058-2.225,0.175c-1.843,0.291-3.641,0.947-5.281,1.969c-0.328,0.203-0.65,0.422-0.964,0.655l-69.554,51.594
	l-69.559-51.594c-5.031-3.732-11.91-3.732-16.942,0l-52.631,39.038V99.887h356.517v41.631H434.259z M256,311.505l-37.258-31.412
	h74.514L256,311.505z M434.259,251.655h-97.224c-2.68-0.809-5.562-0.823-8.268,0h-145.52c-2.714-0.83-5.609-0.813-8.298,0H77.741
	v-41.798l61.103-45.323l69.558,51.596c2.515,1.867,5.493,2.8,8.472,2.8c2.979,0,5.955-0.933,8.472-2.8l69.556-51.594l69.561,51.596
	c1.257,0.931,2.629,1.629,4.059,2.097c3.934,1.283,8.308,0.802,11.917-1.442c0.328-0.205,0.65-0.422,0.964-0.655l52.858-39.206
	v74.728H434.259z"/>
<g>
</g>
<g>
</g>
<g>
</g>
<g>
</g>
<g>
</g>
<g>
</g>
<g>
</g>
<g>
</g>
<g>
</g>
<g>
</g>
<g>
</g>
<g>
</g>
<g>
</g>
<g>
</g>
<g>
</g>
</svg>
