<?xml version="1.0" encoding="iso-8859-1"?>
<!-- Generator: Adobe Illustrator 19.0.0, SVG Export Plug-In . SVG Version: 6.00 Build 0)  -->
<svg version="1.1" id="Layer_1" xmlns="http://www.w3.org/2000/svg" xmlns:xlink="http://www.w3.org/1999/xlink" x="0px" y="0px"
	 viewBox="0 0 512 512" style="enable-background:new 0 0 512 512;" xml:space="preserve">
<g>
	<polygon style="fill:#FFDC64;" points="196.063,42.569 162.624,69.83 162.624,133.666 162.624,378.332 162.624,442.167 
		196.063,469.428 229.503,442.167 229.503,378.332 229.503,133.666 229.503,69.83 	"/>
	<polygon style="fill:#FFDC64;" points="262.58,42.569 229.14,69.83 229.14,133.666 229.14,378.332 229.14,442.167 262.58,469.428 
		296.019,442.167 296.019,378.332 296.019,133.666 296.019,69.83 	"/>
	<polygon style="fill:#FFDC64;" points="329.096,42.569 295.657,69.83 295.657,133.666 295.657,378.332 295.657,442.167 
		329.096,469.428 362.535,442.167 362.535,378.332 362.535,133.666 362.535,69.83 	"/>
</g>
<g>
	<rect x="14.5" y="159.083" style="fill:#7DF5A5;" width="78.302" height="63.506"/>
	<rect x="14.5" y="287.731" style="fill:#7DF5A5;" width="78.302" height="63.506"/>
</g>
<g>
	<polygon style="fill:#FFDC64;" points="14.5,416.361 18.458,416.361 92.803,416.361 92.803,351.229 14.5,351.229 	"/>
	<polygon style="fill:#FFDC64;" points="18.458,95.635 14.5,95.635 14.5,159.084 92.803,159.084 92.803,95.635 	"/>
	<rect x="14.5" y="222.595" style="fill:#FFDC64;" width="78.302" height="65.132"/>
</g>
<g>
	<polygon style="fill:#4DA081;" points="14.5,95.635 93.347,95.635 93.347,416.361 14.5,416.361 14.5,481.551 93.347,481.551 
		114.172,481.551 162.113,481.551 162.113,30.447 114.172,30.447 93.347,30.447 14.5,30.447 	"/>
	<path style="fill:#4DA081;" d="M362.937,30.447v451.104h79.509c30.406,0,55.054-24.648,55.054-55.054V85.5
		c0-30.406-24.648-55.054-55.054-55.054C442.446,30.447,362.937,30.447,362.937,30.447z"/>
</g>
<path d="M418.056,168.995c-0.943,0-1.9-0.102-2.828-0.29s-1.842-0.464-2.712-0.827c-0.884-0.363-1.726-0.812-2.509-1.334
	c-0.798-0.521-1.537-1.131-2.204-1.798c-0.667-0.667-1.276-1.407-1.798-2.204c-0.522-0.783-0.972-1.624-1.334-2.494
	c-0.363-0.885-0.638-1.798-0.827-2.726c-0.189-0.929-0.29-1.887-0.29-2.828c0-0.943,0.102-1.901,0.29-2.828
	c0.189-0.928,0.464-1.843,0.827-2.712c0.363-0.885,0.812-1.724,1.334-2.507c0.522-0.799,1.131-1.538,1.798-2.206
	c0.667-0.667,1.407-1.276,2.204-1.798c0.783-0.521,1.624-0.972,2.509-1.334c0.87-0.377,1.784-0.653,2.712-0.841
	c4.713-0.941,9.715,0.609,13.094,3.973c0.667,0.667,1.262,1.407,1.798,2.206c0.522,0.783,0.972,1.623,1.334,2.507
	c0.363,0.87,0.638,1.784,0.827,2.712c0.189,0.928,0.276,1.885,0.276,2.828c0,0.941-0.087,1.9-0.276,2.828s-0.464,1.842-0.827,2.726
	c-0.363,0.87-0.812,1.711-1.334,2.494c-0.537,0.798-1.146,1.537-1.813,2.204C425.611,167.444,421.884,168.995,418.056,168.995z"/>
<path d="M418.056,270.498c-0.943,0-1.9-0.088-2.828-0.276c-0.928-0.189-1.842-0.463-2.712-0.825
	c-0.884-0.363-1.726-0.813-2.509-1.336c-0.783-0.535-1.537-1.146-2.204-1.813c-0.667-0.667-1.276-1.407-1.798-2.204
	c-0.522-0.783-0.972-1.624-1.334-2.494c-0.363-0.885-0.638-1.798-0.827-2.726c-0.189-0.929-0.29-1.887-0.29-2.828
	c0-3.814,1.552-7.555,4.249-10.252c0.667-0.667,1.407-1.276,2.204-1.798c0.783-0.521,1.624-0.972,2.509-1.334
	c0.87-0.363,1.784-0.637,2.712-0.825c1.871-0.378,3.799-0.378,5.67,0c0.914,0.189,1.827,0.463,2.712,0.825
	c0.87,0.363,1.711,0.813,2.494,1.334c0.798,0.522,1.537,1.131,2.204,1.798c2.712,2.697,4.249,6.438,4.249,10.252
	c0,0.941-0.087,1.9-0.276,2.828s-0.464,1.842-0.827,2.726c-0.363,0.87-0.812,1.711-1.334,2.494
	c-0.537,0.798-1.131,1.537-1.813,2.204c-0.667,0.667-1.407,1.277-2.204,1.813c-0.783,0.522-1.624,0.973-2.494,1.336
	c-0.885,0.362-1.798,0.637-2.712,0.825C419.956,270.411,419.013,270.498,418.056,270.498z"/>
<path d="M442.446,15.946h-79.509c-8.009,0-14.5,6.493-14.5,14.5v9.182l-10.179-8.297c-5.335-4.347-12.989-4.347-18.324,0
	l-24.095,19.642L271.741,31.33c-5.335-4.347-12.99-4.347-18.324,0l-24.095,19.644L205.225,31.33c-5.335-4.347-12.99-4.347-18.324,0
	l-10.287,8.387v-9.27c0-8.007-6.492-14.5-14.5-14.5H14.5c-8.009,0-14.5,6.493-14.5,14.5v451.105c0,8.007,6.492,14.5,14.5,14.5
	h147.613c8.009,0,14.5-6.493,14.5-14.5v-9.27l10.287,8.387c2.668,2.174,5.915,3.261,9.163,3.261c3.247,0,6.495-1.088,9.161-3.261
	l24.097-19.644l24.095,19.644c2.668,2.174,5.915,3.261,9.163,3.261c3.247,0,6.495-1.088,9.161-3.261l24.097-19.644l24.097,19.644
	c2.667,2.174,5.915,3.261,9.161,3.261s6.495-1.088,9.161-3.261l10.179-8.297v9.182c0,8.007,6.492,14.5,14.5,14.5h79.509
	c38.352,0,69.554-31.202,69.554-69.554V85.499C512,47.147,480.798,15.946,442.446,15.946z M29.001,336.728v-34.504h49.301v34.504
	H29.001z M29.001,237.091h49.301v36.132H29.001V237.091z M78.302,208.09H29.001v-34.505h49.301V208.09z M29.001,365.73h49.301
	v36.131H29.001V365.73z M78.302,144.584H29.001v-34.447h49.301V144.584z M147.613,467.05H29.001v-36.189h63.802h0.544
	c8.009,0,14.5-6.493,14.5-14.5V95.636c0-8.007-6.492-14.5-14.5-14.5h-0.544H29.001V44.947h118.612V467.05z M196.063,450.72
	l-18.939-15.44V76.717l18.939-15.44l18.577,15.144v359.155L196.063,450.72z M262.58,450.72l-18.577-15.144V76.422l18.577-15.144
	l18.577,15.144v359.155L262.58,450.72z M348.036,435.28l-18.94,15.44l-18.577-15.144V76.42l18.577-15.144l18.94,15.44V435.28z
	 M442.446,467.05h-65.008V44.947h65.008c22.361,0,40.553,18.192,40.553,40.553v54.496h-21.437c-8.009,0-14.5,6.493-14.5,14.5
	s6.492,14.5,14.5,14.5h21.437v72.502h-21.437c-8.009,0-14.5,6.493-14.5,14.5c0,8.007,6.492,14.5,14.5,14.5h21.437v72.502h-21.437
	c-8.009,0-14.5,6.493-14.5,14.5s6.492,14.5,14.5,14.5h21.437v54.496C482.999,448.858,464.807,467.05,442.446,467.05z"/>
<path d="M418.056,372.001c-0.943,0-1.9-0.102-2.828-0.29s-1.842-0.464-2.712-0.827c-0.884-0.363-1.726-0.812-2.509-1.334
	c-0.798-0.521-1.537-1.131-2.204-1.798c-0.667-0.667-1.276-1.407-1.798-2.204c-0.522-0.783-0.972-1.624-1.334-2.494
	c-0.363-0.885-0.638-1.798-0.827-2.726c-0.189-0.929-0.29-1.887-0.29-2.828c0-0.943,0.102-1.901,0.29-2.828
	c0.189-0.928,0.464-1.843,0.827-2.726c0.363-0.871,0.812-1.711,1.334-2.494c0.522-0.799,1.131-1.539,1.798-2.206
	c0.667-0.667,1.407-1.276,2.204-1.798c0.783-0.521,1.624-0.972,2.509-1.334c0.87-0.363,1.784-0.637,2.712-0.825
	c1.871-0.378,3.799-0.378,5.67,0c0.928,0.189,1.827,0.463,2.712,0.825c0.87,0.363,1.711,0.813,2.494,1.334
	c0.797,0.522,1.537,1.131,2.219,1.798c0.667,0.667,1.262,1.407,1.798,2.206c0.522,0.783,0.972,1.623,1.334,2.494
	c0.363,0.883,0.638,1.798,0.827,2.726c0.189,0.928,0.276,1.885,0.276,2.828c0,0.941-0.087,1.9-0.276,2.828
	c-0.189,0.928-0.464,1.842-0.827,2.726c-0.363,0.87-0.812,1.711-1.334,2.494c-0.537,0.798-1.146,1.537-1.813,2.204
	C425.625,370.45,421.884,372.001,418.056,372.001z"/>
<g>
</g>
<g>
</g>
<g>
</g>
<g>
</g>
<g>
</g>
<g>
</g>
<g>
</g>
<g>
</g>
<g>
</g>
<g>
</g>
<g>
</g>
<g>
</g>
<g>
</g>
<g>
</g>
<g>
</g>
</svg>
