<?xml version="1.0" encoding="iso-8859-1"?>
<!-- Generator: Adobe Illustrator 19.0.0, SVG Export Plug-In . SVG Version: 6.00 Build 0)  -->
<svg version="1.1" id="Layer_1" xmlns="http://www.w3.org/2000/svg" xmlns:xlink="http://www.w3.org/1999/xlink" x="0px" y="0px"
	 viewBox="0 0 512 512" style="enable-background:new 0 0 512 512;" xml:space="preserve">
<path d="M436.418,179.854c-0.977,0-1.973-0.09-2.935-0.286c-0.965-0.196-1.914-0.482-2.816-0.858
	c-0.918-0.376-1.792-0.843-2.605-1.385c-0.828-0.557-1.596-1.19-2.289-1.882c-2.801-2.786-4.413-6.671-4.413-10.646
	c0-0.979,0.105-1.957,0.301-2.936c0.196-0.964,0.482-1.912,0.858-2.816c0.376-0.903,0.843-1.792,1.385-2.605
	c0.542-0.828,1.174-1.596,1.867-2.289c0.693-0.693,1.461-1.325,2.289-1.867c0.813-0.542,1.686-1.009,2.605-1.385
	c0.903-0.376,1.851-0.663,2.816-0.858c1.942-0.391,3.929-0.391,5.888,0c0.949,0.196,1.897,0.482,2.814,0.858
	c0.905,0.376,1.778,0.843,2.591,1.385c0.828,0.542,1.596,1.174,2.289,1.867c0.693,0.693,1.325,1.461,1.882,2.289
	c0.542,0.813,1.009,1.702,1.385,2.605c0.376,0.903,0.663,1.852,0.858,2.816c0.196,0.979,0.285,1.957,0.285,2.936
	c0,3.975-1.61,7.845-4.412,10.646c-0.693,0.693-1.461,1.325-2.289,1.882c-0.813,0.542-1.686,1.009-2.591,1.385
	c-0.917,0.376-1.866,0.663-2.814,0.858C438.392,179.763,437.399,179.854,436.418,179.854z"/>
<path style="fill:#FFDC64;" d="M156.825,418.548L156.825,418.548c-20.526,0-37.168-16.64-37.168-37.168V242.183
	c0-20.527,16.64-37.168,37.168-37.168l0,0c20.526,0,37.168,16.64,37.168,37.168V381.38
	C193.993,401.908,177.353,418.548,156.825,418.548z"/>
<path style="fill:#7BFFCD;" d="M119.658,381.38V242.183c0-0.58,0.018-1.155,0.044-1.727H92.74
	c-39.392,0-71.326,31.934-71.326,71.326l0,0c0,39.392,31.934,71.326,71.326,71.326H119.7
	C119.675,382.535,119.658,381.96,119.658,381.38z"/>
<path style="fill:#FFDC64;" d="M355.175,205.017L355.175,205.017c20.527,0,37.168,16.64,37.168,37.168v139.197
	c0,20.526-16.64,37.168-37.168,37.168l0,0c-20.526,0-37.168-16.64-37.168-37.168V242.185
	C318.007,221.657,334.647,205.017,355.175,205.017z"/>
<path style="fill:#7BFFCD;" d="M419.26,240.456H392.3c0.026,0.572,0.044,1.149,0.044,1.727V381.38c0,0.58-0.018,1.155-0.044,1.727
	h26.961c39.392,0,71.326-31.934,71.326-71.326l0,0C490.585,272.39,458.652,240.456,419.26,240.456z"/>
<path style="fill:#FF5050;" d="M269.562,496.942h-25.62c-16.315,0-29.54-13.225-29.54-29.54l0,0c0-16.315,13.225-29.54,29.54-29.54
	h25.62c16.315,0,29.54,13.225,29.54,29.54l0,0C299.102,483.717,285.877,496.942,269.562,496.942z"/>
<path d="M209.05,242.185c0-28.798-23.428-52.226-52.226-52.226c-22.925,0-42.434,14.856-49.442,35.441H92.74
	c-1.75,0-3.484,0.068-5.208,0.172v-26.986c0-92.896,75.576-168.47,168.469-168.47c59.565,0,113.525,30.486,144.347,81.549
	c2.102,3.484,4.106,7.094,5.952,10.73c3.767,7.414,12.832,10.369,20.243,6.606c7.416-3.766,10.373-12.831,6.607-20.245
	c-2.177-4.287-4.541-8.545-7.021-12.654c-17.364-28.768-41.922-52.848-71.018-69.635C325.104,9.152,290.833,0,256,0
	C146.501,0,57.416,89.085,57.416,198.584v34.399c-30.064,13.531-51.06,43.75-51.06,78.801c0,47.632,38.751,86.384,86.384,86.384
	h14.644c7.008,20.585,26.516,35.441,49.442,35.441c28.798,0,52.226-23.428,52.226-52.226V242.185z M36.471,311.782
	c0-31.026,25.243-56.269,56.269-56.269h11.859v112.536H92.74C61.713,368.051,36.471,342.808,36.471,311.782z M178.935,381.381
	c0,12.192-9.918,22.111-22.111,22.111c-12.191,0-22.109-9.918-22.111-22.109c0,0,0,0,0-0.002V242.186
	c0-12.192,9.918-22.111,22.111-22.111s22.111,9.918,22.111,22.111V381.381z"/>
<path d="M505.644,311.782c0-35.051-20.996-65.27-51.06-78.801v-19.34c0-8.316-6.743-15.058-15.058-15.058
	c-8.315,0-15.058,6.741-15.058,15.058v11.929c-1.724-0.102-3.459-0.172-5.208-0.172h-14.643
	c-7.008-20.585-26.516-35.441-49.442-35.441c-28.798,0-52.226,23.428-52.226,52.226V381.38c0,28.798,23.428,52.226,52.226,52.226
	c22.927,0,42.434-14.856,49.442-35.441h14.643c4.216,0,8.357-0.318,12.412-0.905v55.305h-120.06
	c-6.128-17.316-22.66-29.76-42.05-29.76h-25.619c-24.591,0-44.598,20.007-44.598,44.598c0,24.591,20.007,44.598,44.598,44.598
	h25.619c19.227,0,35.65-12.231,41.901-29.32H446.73c8.315,0,15.058-6.741,15.058-15.058v-80.697
	C487.947,372.064,505.644,343.959,505.644,311.782z M269.562,481.885h-25.109c-7.706,0-14.445-5.802-14.96-13.49
	c-0.565-8.432,6.134-15.473,14.449-15.473h25.619c5.987,0,11.137,3.651,13.34,8.845c0.759,1.787,1.03,3.743,1.012,5.686
	c0,0.065-0.002,0.129-0.002,0.194c-0.009,1.64-0.215,3.289-0.79,4.824C281.065,477.962,275.766,481.885,269.562,481.885z
	 M355.174,403.491c-12.192,0-22.111-9.918-22.111-22.111V242.183c0-12.192,9.918-22.111,22.111-22.111
	c12.192,0,22.111,9.918,22.111,22.111v139.195v0.001C377.284,393.574,367.366,403.491,355.174,403.491z M419.26,368.051h-11.861
	V255.515h11.861c31.026,0,56.269,25.243,56.269,56.269S450.286,368.051,419.26,368.051z"/>
<g>
</g>
<g>
</g>
<g>
</g>
<g>
</g>
<g>
</g>
<g>
</g>
<g>
</g>
<g>
</g>
<g>
</g>
<g>
</g>
<g>
</g>
<g>
</g>
<g>
</g>
<g>
</g>
<g>
</g>
</svg>
