<?xml version="1.0" encoding="iso-8859-1"?>
<!-- Generator: Adobe Illustrator 19.0.0, SVG Export Plug-In . SVG Version: 6.00 Build 0)  -->
<svg version="1.1" id="Layer_1" xmlns="http://www.w3.org/2000/svg" xmlns:xlink="http://www.w3.org/1999/xlink" x="0px" y="0px"
	 viewBox="0 0 512 512" style="enable-background:new 0 0 512 512;" xml:space="preserve">
<path style="fill:#7BFFCD;" d="M246.802,95.327L246.802,95.327c0-44.682-36.221-80.903-80.903-80.903h-33.698
	c-44.682,0-80.903,36.221-80.903,80.903v203.459h185.873h9.632h214.069v-75.736c0-43.717-35.441-79.158-79.158-79.158h-86.348
	C268.546,143.891,246.802,122.149,246.802,95.327z"/>
<rect x="51.056" y="298.788" style="fill:#4DA081;" width="68.311" height="67.704"/>
<rect x="119.371" y="298.788" style="fill:#FFDCAA;" width="68.311" height="67.704"/>
<rect x="187.682" y="298.788" style="fill:#4DA081;" width="68.311" height="67.704"/>
<rect x="256.007" y="298.788" style="fill:#FFDCAA;" width="68.311" height="67.704"/>
<rect x="324.318" y="298.788" style="fill:#4DA081;" width="68.311" height="67.704"/>
<rect x="392.629" y="298.788" style="fill:#FFDCAA;" width="68.311" height="67.704"/>
<circle style="fill:#FFDC64;" cx="256.007" cy="455.271" r="42.309"/>
<path d="M256,512c-31.282,0-56.733-25.452-56.733-56.734s25.451-56.733,56.733-56.733s56.733,25.451,56.733,56.733
	S287.282,512,256,512z M256,427.38c-15.377,0-27.885,12.51-27.885,27.885c0,15.377,12.51,27.887,27.885,27.887
	c15.376,0,27.885-12.51,27.885-27.887C283.885,439.89,271.376,427.38,256,427.38z"/>
<path d="M475.296,297.363v-74.314c0-51.6-41.98-93.581-93.581-93.581h-86.348c-18.826,0-34.14-15.315-34.14-34.141
	C261.227,42.764,218.464,0,165.901,0h-33.7C79.638,0,36.874,42.762,36.874,95.327L36.632,366.49c0,7.965,6.458,14.424,14.424,14.424
	h409.888c7.965,0,14.424-6.459,14.424-14.424v-67.704C475.368,298.305,475.342,297.832,475.296,297.363z M132.201,28.847h33.7
	c36.657,0,66.479,29.823,66.479,66.479c0,34.732,28.256,62.989,62.987,62.989h86.348c35.694,0,64.734,29.039,64.734,64.734v61.314
	h-53.819h-68.315H256h-68.315H119.37H65.722V257.66h276.273c7.965,0,14.424-6.459,14.424-14.424c0-7.965-6.459-14.424-14.424-14.424
	H65.722V95.327C65.722,58.67,95.544,28.847,132.201,28.847z M65.48,313.209h39.466v38.856H65.48V313.209z M133.793,313.209h39.468
	v38.856h-39.468V313.209z M202.109,313.209h39.468v38.856h-39.468V313.209z M270.424,313.209h39.466v38.856h-39.466V313.209z
	 M338.738,313.209h39.468v38.856h-39.468L338.738,313.209L338.738,313.209z M446.52,352.067h-39.468V313.21h39.466v38.856H446.52z"
	/>
<path d="M385.266,257.667c-0.938,0-1.891-0.101-2.813-0.288c-0.922-0.188-1.833-0.46-2.697-0.821
	c-0.88-0.361-1.716-0.809-2.495-1.327c-0.793-0.519-1.529-1.125-2.192-1.789c-0.663-0.664-1.269-1.414-1.789-2.194
	c-0.534-0.793-0.966-1.63-1.327-2.494c-0.361-0.867-0.649-1.774-0.822-2.697c-0.188-0.938-0.287-1.875-0.287-2.827
	c0-0.938,0.1-1.875,0.287-2.813c0.173-0.923,0.462-1.832,0.822-2.697c0.361-0.865,0.793-1.702,1.327-2.494
	c0.519-0.779,1.125-1.53,1.789-2.194s1.399-1.269,2.192-1.789c0.779-0.518,1.615-0.966,2.495-1.327
	c0.865-0.361,1.774-0.633,2.697-0.821c1.861-0.376,3.765-0.376,5.624,0c0.925,0.188,1.833,0.46,2.697,0.821
	c0.88,0.361,1.716,0.809,2.495,1.327c0.793,0.519,1.529,1.125,2.192,1.789c0.663,0.663,1.269,1.414,1.789,2.194
	c0.519,0.793,0.966,1.63,1.327,2.494c0.361,0.867,0.649,1.774,0.822,2.697c0.188,0.938,0.288,1.875,0.288,2.813
	c0,0.952-0.101,1.889-0.288,2.827c-0.173,0.923-0.462,1.832-0.822,2.697c-0.361,0.865-0.808,1.702-1.327,2.494
	c-0.519,0.779-1.125,1.53-1.789,2.194c-0.663,0.663-1.399,1.269-2.192,1.789c-0.779,0.518-1.615,0.966-2.495,1.327
	c-0.865,0.361-1.773,0.633-2.697,0.821C387.155,257.565,386.202,257.667,385.266,257.667z"/>
<g>
</g>
<g>
</g>
<g>
</g>
<g>
</g>
<g>
</g>
<g>
</g>
<g>
</g>
<g>
</g>
<g>
</g>
<g>
</g>
<g>
</g>
<g>
</g>
<g>
</g>
<g>
</g>
<g>
</g>
</svg>
