<?xml version="1.0" encoding="iso-8859-1"?>
<!-- Generator: Adobe Illustrator 19.0.0, SVG Export Plug-In . SVG Version: 6.00 Build 0)  -->
<svg version="1.1" id="Layer_1" xmlns="http://www.w3.org/2000/svg" xmlns:xlink="http://www.w3.org/1999/xlink" x="0px" y="0px"
	 viewBox="0 0 512 512" style="enable-background:new 0 0 512 512;" xml:space="preserve">
<path d="M249.635,328.204c-0.915,0-1.845-0.099-2.746-0.282c-0.901-0.183-1.788-0.451-2.647-0.803
	c-0.845-0.352-1.661-0.789-2.422-1.295c-0.774-0.507-1.493-1.098-2.14-1.746c-0.648-0.648-1.239-1.378-1.746-2.14
	c-0.521-0.774-0.943-1.591-1.295-2.436c-0.352-0.845-0.634-1.73-0.803-2.633c-0.183-0.914-0.282-1.83-0.282-2.744
	c0-0.929,0.099-1.846,0.282-2.761c0.169-0.901,0.451-1.788,0.803-2.632c0.352-0.846,0.774-1.663,1.295-2.436
	c0.507-0.76,1.098-1.493,1.746-2.14c0.648-0.648,1.366-1.24,2.14-1.746c0.76-0.507,1.577-0.943,2.422-1.295
	c0.859-0.352,1.746-0.62,2.633-0.803c1.816-0.366,3.689-0.366,5.505,0c0.901,0.183,1.788,0.451,2.633,0.803
	c0.859,0.352,1.676,0.788,2.436,1.295c0.774,0.505,1.493,1.098,2.14,1.746s1.239,1.378,1.746,2.14
	c0.505,0.774,0.943,1.591,1.295,2.436c0.352,0.845,0.618,1.73,0.803,2.632c0.183,0.915,0.28,1.832,0.28,2.761
	c0,0.914-0.097,1.83-0.28,2.744c-0.184,0.903-0.451,1.79-0.803,2.633c-0.352,0.846-0.79,1.663-1.295,2.436
	c-0.507,0.76-1.098,1.493-1.746,2.14c-0.648,0.648-1.366,1.239-2.14,1.746c-0.762,0.507-1.578,0.943-2.436,1.295
	c-0.845,0.352-1.732,0.62-2.633,0.803C251.479,328.105,250.55,328.204,249.635,328.204z"/>
<path style="fill:#7DF5A5;" d="M196.916,239.439v-79.043c-76.272,0-182.836-78.004-182.836-78.004v235.052
	C14.08,317.444,122.052,239.439,196.916,239.439z"/>
<path style="fill:#FFDC64;" d="M354.63,160.679h-0.964h-150.64v-0.466H190.56c2.139,0.115,4.261,0.183,6.356,0.183v79.043
	c-18.154,0-38.252,4.593-58.287,11.542V357.89c0,39.607,32.108,71.716,71.716,71.716h0.965H354.63
	c39.607,0,71.716-32.108,71.716-71.716v-82.703v-42.793C426.346,192.787,394.238,160.679,354.63,160.679z M361.949,340.707
	c0,13.531-10.97,24.501-24.501,24.501H227.529c-13.533,0-24.501-10.97-24.501-24.501V239.156H361.95v101.551H361.949z"/>
<path style="fill:#FFDCAA;" d="M354.919,160.686c34.563,0.137,63.359,24.718,69.988,57.357h72.482v-57.357H354.919z"/>
<path d="M497.92,125.403c-7.775,0-14.08,6.305-14.08,14.08v7.123H354.955c-0.108,0-0.215-0.008-0.325-0.008h-24.268v-16.619h12.672
	c7.775,0,14.08-6.305,14.08-14.08s-6.305-14.08-14.08-14.08H221.239c-7.777,0-14.08,6.305-14.08,14.08s6.304,14.08,14.08,14.08
	h14.316v16.619h-28.921c-1.152-0.304-2.36-0.466-3.607-0.466h-12.177C120.454,142.159,23.395,71.76,22.398,71.03
	c-4.28-3.131-9.956-3.593-14.687-1.195C2.981,72.234,0,77.088,0,82.392v235.052c0,5.287,2.963,10.127,7.67,12.534
	c2.023,1.034,4.221,1.545,6.411,1.545c2.906,0,5.798-0.9,8.243-2.664c0.712-0.514,49.349-35.34,102.225-57.458v86.489
	c0,47.309,38.487,85.798,85.796,85.798H354.63c47.309,0,85.796-38.489,85.796-85.798V232.395c0-0.092-0.007-0.18-0.007-0.272h43.42
	v5.22c0,7.775,6.305,14.08,14.08,14.08c7.775,0,14.08-6.305,14.08-14.08v-97.859C512,131.707,505.695,125.403,497.92,125.403z
	 M263.714,129.979h38.487v16.619h-38.487V129.979z M28.161,108.97c33.51,21.605,98.545,59.036,154.675,64.762v10.182h-58.713
	c-7.777,0-14.08,6.305-14.08,14.08s6.304,14.08,14.08,14.08h58.711v14.049c-1.019,0.107-2.066,0.252-3.102,0.38
	c-0.729,0.092-1.453,0.166-2.185,0.268c-1.156,0.161-2.335,0.353-3.509,0.541c-0.636,0.101-1.271,0.191-1.909,0.3
	c-1.248,0.213-2.515,0.456-3.782,0.698c-0.559,0.107-1.117,0.206-1.677,0.32c-1.34,0.268-2.699,0.563-4.061,0.866
	c-0.469,0.104-0.936,0.204-1.407,0.311c-1.439,0.328-2.894,0.68-4.355,1.045c-0.359,0.09-0.718,0.179-1.079,0.27
	c-1.553,0.396-3.119,0.811-4.697,1.246c-0.193,0.053-0.386,0.108-0.579,0.162c-5.355,1.493-10.839,3.191-16.478,5.146
	c-0.191,0.066-0.376,0.146-0.563,0.22c-41.16,14.334-81.305,37.785-105.291,53.121V108.97z M412.264,357.89
	c0,31.781-25.855,57.637-57.635,57.637H210.343c-31.78,0-57.635-25.854-57.635-57.637v-96.695c13.248-4.044,25.319-6.5,36.071-7.343
	c0.055-0.004,0.11-0.008,0.165-0.013v86.866c0,21.273,17.308,38.58,38.582,38.58h109.918c21.274,0,38.583-17.308,38.583-38.58
	v-101.55c0-7.775-6.305-14.08-14.08-14.08H210.997v-50.316H354.63c0.052,0,0.103,0.004,0.153,0.004c0.027,0,0.053,0.004,0.08,0.004
	c1.629,0.007,3.246,0.086,4.846,0.228c0.079,0.007,0.159,0.011,0.238,0.018c0.759,0.07,1.512,0.159,2.263,0.259
	c0.09,0.013,0.18,0.023,0.27,0.035c0.796,0.11,1.587,0.235,2.373,0.377c0.006,0,0.013,0.001,0.018,0.003
	c12.129,2.205,23.092,8.257,31.412,16.936c0.114,0.12,0.228,0.238,0.341,0.358c0.411,0.435,0.812,0.879,1.21,1.326
	c0.22,0.249,0.436,0.5,0.652,0.753c0.308,0.359,0.612,0.721,0.911,1.088c0.327,0.401,0.645,0.81,0.96,1.221
	c0.19,0.246,0.382,0.49,0.567,0.739c3.258,4.389,5.912,9.254,7.829,14.47c0.003,0.01,0.007,0.02,0.011,0.03
	c2.263,6.173,3.499,12.837,3.499,19.784L412.264,357.89L412.264,357.89z M249.634,285.956c7.777,0,14.08-6.305,14.08-14.08v-18.638
	h38.487v97.89h-74.673c-5.746,0-10.421-4.673-10.421-10.42v-87.471h18.447v18.638C235.553,279.652,241.857,285.956,249.634,285.956z
	 M347.869,253.237v87.471c0,5.746-4.675,10.42-10.422,10.42h-7.084v-97.89H347.869z M483.31,203.962h-47.717
	c-0.084-0.241-0.184-0.473-0.272-0.712c-0.158-0.435-0.329-0.863-0.493-1.294c-0.342-0.9-0.687-1.797-1.059-2.681
	c-0.165-0.393-0.344-0.777-0.514-1.167c-0.393-0.898-0.788-1.795-1.212-2.677c-0.193-0.403-0.401-0.794-0.6-1.193
	c-0.421-0.843-0.842-1.688-1.29-2.515c-0.272-0.501-0.562-0.99-0.843-1.485c-0.398-0.701-0.789-1.407-1.207-2.095
	c-0.467-0.773-0.962-1.526-1.452-2.284c-0.252-0.387-0.491-0.784-0.748-1.166c-2.349-3.498-4.942-6.816-7.765-9.924h65.173v29.193
	H483.31z"/>
<path d="M81.881,212.068c-0.915,0-1.845-0.084-2.746-0.268c-0.901-0.183-1.788-0.449-2.633-0.801
	c-0.859-0.352-1.676-0.79-2.436-1.295c-0.774-0.507-1.493-1.098-2.14-1.746c-0.648-0.662-1.239-1.38-1.746-2.154
	c-0.507-0.76-0.943-1.577-1.295-2.422c-0.352-0.859-0.62-1.732-0.803-2.633c-0.183-0.915-0.282-1.845-0.282-2.76
	c0-0.915,0.099-1.845,0.282-2.746c0.183-0.901,0.451-1.788,0.803-2.633c0.352-0.845,0.789-1.674,1.295-2.435
	c0.507-0.76,1.098-1.494,1.746-2.142s1.366-1.239,2.14-1.745c0.76-0.507,1.577-0.945,2.436-1.297
	c0.845-0.352,1.732-0.618,2.633-0.801c4.576-0.915,9.434,0.577,12.701,3.843c0.648,0.648,1.239,1.38,1.76,2.142
	c0.507,0.76,0.943,1.591,1.295,2.435c0.352,0.846,0.62,1.732,0.803,2.633c0.183,0.903,0.268,1.83,0.268,2.746
	c0,0.915-0.084,1.845-0.268,2.76c-0.183,0.901-0.451,1.774-0.803,2.633c-0.352,0.845-0.789,1.661-1.295,2.422
	c-0.521,0.774-1.112,1.494-1.76,2.154C89.216,210.576,85.584,212.068,81.881,212.068z"/>
<g>
</g>
<g>
</g>
<g>
</g>
<g>
</g>
<g>
</g>
<g>
</g>
<g>
</g>
<g>
</g>
<g>
</g>
<g>
</g>
<g>
</g>
<g>
</g>
<g>
</g>
<g>
</g>
<g>
</g>
</svg>
