<?xml version="1.0" encoding="iso-8859-1"?>
<!-- Generator: Adobe Illustrator 19.0.0, SVG Export Plug-In . SVG Version: 6.00 Build 0)  -->
<svg version="1.1" id="Layer_1" xmlns="http://www.w3.org/2000/svg" xmlns:xlink="http://www.w3.org/1999/xlink" x="0px" y="0px"
	 viewBox="0 0 511.999 511.999" style="enable-background:new 0 0 511.999 511.999;" xml:space="preserve">
<path d="M462.763,138.269c-0.896,0-1.807-0.096-2.688-0.276c-0.881-0.179-1.751-0.441-2.578-0.786
	c-0.841-0.345-1.639-0.772-2.383-1.268c-0.76-0.495-1.463-1.074-2.097-1.708c-0.634-0.635-1.213-1.338-1.709-2.097
	c-0.495-0.744-0.924-1.544-1.268-2.383c-0.345-0.828-0.62-1.695-0.784-2.578c-0.181-0.884-0.276-1.793-0.276-2.688
	c0-0.896,0.095-1.807,0.276-2.702c0.164-0.868,0.44-1.737,0.784-2.578c0.345-0.827,0.773-1.627,1.268-2.371
	c0.496-0.76,1.075-1.463,1.709-2.097s1.337-1.213,2.097-1.723c0.744-0.495,1.542-0.924,2.383-1.268
	c0.828-0.345,1.695-0.605,2.578-0.786c4.48-0.895,9.235,0.565,12.433,3.777c0.635,0.634,1.214,1.337,1.709,2.097
	c0.496,0.744,0.924,1.544,1.268,2.371c0.345,0.841,0.62,1.709,0.786,2.578c0.179,0.895,0.276,1.806,0.276,2.702
	c0,0.895-0.096,1.806-0.276,2.688s-0.441,1.751-0.786,2.578c-0.345,0.839-0.772,1.639-1.268,2.383
	c-0.495,0.758-1.074,1.461-1.709,2.097c-0.634,0.634-1.337,1.213-2.095,1.708c-0.744,0.496-1.544,0.924-2.385,1.268
	c-0.827,0.345-1.694,0.607-2.576,0.786C464.569,138.171,463.658,138.269,462.763,138.269z"/>
<path d="M49.235,138.269c-0.896,0-1.806-0.096-2.688-0.276c-0.882-0.179-1.751-0.441-2.591-0.786
	c-0.827-0.345-1.627-0.772-2.371-1.268c-0.758-0.495-1.461-1.074-2.095-1.708c-2.564-2.578-4.039-6.12-4.039-9.745
	c0-0.896,0.096-1.807,0.276-2.702c0.165-0.868,0.441-1.737,0.786-2.578c0.345-0.827,0.758-1.627,1.254-2.371
	c0.51-0.76,1.089-1.463,1.723-2.097s1.337-1.213,2.095-1.723c0.744-0.495,1.544-0.924,2.371-1.268
	c0.841-0.345,1.709-0.605,2.591-0.786c1.778-0.358,3.611-0.358,5.376,0c0.882,0.181,1.751,0.441,2.578,0.786
	c0.841,0.345,1.64,0.773,2.385,1.268c0.758,0.51,1.461,1.089,2.095,1.723c0.634,0.634,1.213,1.337,1.723,2.097
	c0.496,0.744,0.924,1.544,1.268,2.371c0.331,0.841,0.607,1.709,0.786,2.578c0.179,0.895,0.262,1.806,0.262,2.702
	c0,3.625-1.475,7.168-4.039,9.745c-0.634,0.634-1.337,1.213-2.095,1.708c-0.744,0.496-1.544,0.924-2.385,1.268
	c-0.827,0.345-1.695,0.607-2.578,0.786C51.041,138.171,50.131,138.269,49.235,138.269z"/>
<circle style="fill:#767B95;" cx="256.001" cy="275.52" r="146.099"/>
<circle style="fill:#FFDC64;" cx="256.001" cy="275.52" r="56.276"/>
<path d="M255.999,345.585c-38.63,0-70.06-31.43-70.06-70.06s31.428-70.059,70.06-70.059s70.06,31.428,70.06,70.059
	S294.63,345.585,255.999,345.585z M255.999,233.035c-23.43,0-42.491,19.061-42.491,42.49c0,23.43,19.061,42.491,42.491,42.491
	s42.491-19.061,42.491-42.491C298.491,252.096,279.43,233.035,255.999,233.035z"/>
<rect x="49.235" y="422.309" style="fill:#7BFFCD;" width="413.528" height="59.369"/>
<path d="M460.107,93.419c25.756,0,46.709-20.953,46.709-46.711C506.816,20.953,485.863,0,460.107,0h-9.386
	c-7.612,0-13.784,6.173-13.784,13.784s6.173,13.784,13.784,13.784h9.386c10.553,0,19.141,8.586,19.141,19.141
	s-8.586,19.142-19.141,19.142H305.392h-98.786H51.892c-10.555,0-19.142-8.586-19.142-19.142
	c0.001-10.555,8.588-19.141,19.142-19.141h9.384c7.613,0,13.784-6.173,13.784-13.784S68.889,0,61.276,0h-9.384
	C26.136,0,5.182,20.953,5.182,46.709c0,25.757,20.955,46.711,46.711,46.711h140.93v35.245
	c-56.83,24.542-96.706,81.127-96.706,146.86c0,55.398,28.327,104.301,71.251,133H63.021V165.834c0-7.612-6.171-13.784-13.784-13.784
	s-13.784,6.173-13.784,13.784V422.31v59.363v16.541c0,7.612,6.171,13.784,13.784,13.784s13.784-6.173,13.784-13.784v-2.757H448.98
	v2.757c0,7.612,6.173,13.784,13.784,13.784c7.612,0,13.784-6.173,13.784-13.784v-16.541V422.31V165.834
	c0-7.612-6.173-13.784-13.784-13.784c-7.612,0-13.784,6.173-13.784,13.784v242.691H344.634c42.924-28.699,71.251-77.603,71.251-133
	c0-65.733-39.878-122.319-96.706-146.86V93.419H460.107z M448.979,467.89H63.02v-31.795h385.959V467.89z M388.315,275.525
	c0,72.96-59.356,132.315-132.315,132.315s-132.315-59.356-132.315-132.315c0-57.935,37.43-107.287,89.374-125.158
	c0.521-0.179,1.045-0.353,1.567-0.525c1.274-0.42,2.556-0.822,3.846-1.203c0.74-0.218,1.482-0.433,2.225-0.64
	c0.74-0.205,1.48-0.411,2.226-0.604c1.253-0.321,2.51-0.623,3.771-0.908c0.653-0.147,1.31-0.291,1.967-0.43
	c1.355-0.285,2.714-0.555,4.077-0.798c0.507-0.09,1.017-0.17,1.526-0.255c1.267-0.208,2.536-0.402,3.81-0.576
	c0.357-0.048,0.711-0.103,1.07-0.149c1.563-0.2,3.132-0.363,4.703-0.505c0.405-0.037,0.809-0.076,1.216-0.109
	c1.6-0.131,3.203-0.236,4.811-0.309c0.324-0.015,0.649-0.025,0.975-0.037c1.713-0.065,3.43-0.109,5.15-0.109s3.436,0.044,5.15,0.109
	c0.325,0.014,0.651,0.023,0.976,0.037c1.607,0.073,3.21,0.178,4.809,0.309c0.407,0.033,0.813,0.072,1.219,0.109
	c1.571,0.143,3.139,0.306,4.7,0.505c0.361,0.045,0.718,0.102,1.078,0.15c1.27,0.172,2.535,0.367,3.796,0.575
	c0.511,0.085,1.026,0.164,1.534,0.255c1.362,0.243,2.718,0.513,4.07,0.797c0.66,0.141,1.318,0.283,1.974,0.431
	c1.26,0.285,2.516,0.587,3.766,0.908c0.747,0.193,1.487,0.398,2.229,0.604c0.744,0.205,1.486,0.422,2.228,0.641
	c1.283,0.379,2.558,0.777,3.825,1.196c0.533,0.175,1.067,0.353,1.598,0.535C350.892,168.247,388.315,217.594,388.315,275.525z
	 M291.608,119.627c-1.039-0.237-2.084-0.451-3.128-0.666c-0.125-0.026-0.25-0.054-0.374-0.08c-1.024-0.21-2.05-0.403-3.078-0.593
	c-0.374-0.069-0.747-0.141-1.122-0.205c-0.914-0.16-1.831-0.312-2.747-0.456c-0.499-0.08-0.998-0.157-1.498-0.232
	c-0.842-0.125-1.686-0.244-2.531-0.356c-0.587-0.079-1.177-0.152-1.766-0.223c-0.783-0.094-1.566-0.186-2.352-0.269
	c-0.67-0.072-1.343-0.135-2.014-0.197c-0.722-0.068-1.445-0.136-2.168-0.194c-0.758-0.061-1.519-0.109-2.28-0.159
	c-0.652-0.043-1.304-0.09-1.957-0.124c-0.897-0.048-1.799-0.081-2.699-0.113c-0.525-0.019-1.049-0.045-1.576-0.061
	c-1.435-0.037-2.873-0.059-4.316-0.059c-1.443,0-2.882,0.022-4.317,0.059c-0.522,0.015-1.043,0.041-1.564,0.061
	c-0.906,0.032-1.811,0.065-2.714,0.113c-0.648,0.033-1.294,0.081-1.942,0.124c-0.765,0.05-1.531,0.098-2.294,0.159
	c-0.72,0.058-1.438,0.125-2.157,0.193c-0.678,0.063-1.358,0.127-2.033,0.2c-0.775,0.083-1.548,0.172-2.32,0.265
	c-0.604,0.074-1.208,0.149-1.81,0.229c-0.827,0.11-1.654,0.226-2.48,0.349c-0.525,0.079-1.05,0.16-1.574,0.244
	c-0.889,0.142-1.777,0.287-2.663,0.441c-0.419,0.076-0.837,0.153-1.254,0.232c-0.98,0.181-1.959,0.365-2.936,0.564
	c-0.211,0.043-0.42,0.09-0.63,0.135c-0.975,0.201-1.949,0.401-2.919,0.622V93.419h71.218v26.208H291.608z"/>
<g>
</g>
<g>
</g>
<g>
</g>
<g>
</g>
<g>
</g>
<g>
</g>
<g>
</g>
<g>
</g>
<g>
</g>
<g>
</g>
<g>
</g>
<g>
</g>
<g>
</g>
<g>
</g>
<g>
</g>
</svg>
