<?xml version="1.0" encoding="iso-8859-1"?>
<!-- Generator: Adobe Illustrator 19.0.0, SVG Export Plug-In . SVG Version: 6.00 Build 0)  -->
<svg version="1.1" id="Layer_1" xmlns="http://www.w3.org/2000/svg" xmlns:xlink="http://www.w3.org/1999/xlink" x="0px" y="0px"
	 viewBox="0 0 512.002 512.002" style="enable-background:new 0 0 512.002 512.002;" xml:space="preserve">
<path style="fill:#FF5050;" d="M458.06,247.807c0,27.284-2.743,53.504-7.148,77.997c-6.325,35.175-16.07,66.815-26.026,93.003
	c-8.708,22.907-17.572,41.651-24.442,54.96c-7.143,13.84-21.434,22.504-37.009,22.504H148.569c-15.576,0-29.867-8.666-37.01-22.509
	c-6.869-13.314-15.735-32.063-24.443-54.973c-9.956-26.188-19.701-57.828-26.026-93.003c-4.405-24.494-7.148-50.696-7.148-77.98
	c0-131.501,62.119-172.63,62.119-172.63h279.88C395.941,75.177,458.06,116.306,458.06,247.807z"/>
<path style="fill:#767B95;" d="M413.117,75.172H98.885c-16.003,0-28.975-12.973-28.975-28.975v-1.491
	c0-16.003,12.973-28.975,28.975-28.975h314.231c16.003,0,28.975,12.973,28.975,28.975v1.491
	C442.092,62.199,429.119,75.172,413.117,75.172z"/>
<path style="fill:#FFDC64;" d="M450.913,325.803c-6.325,35.175-16.07,66.815-26.026,93.003l-39.014,17.846l-64.944-29.705
	l-64.927,29.705l-64.927-29.705l-64.927,29.705L87.116,418.79c-9.956-26.188-19.701-57.828-26.026-93.003l0.129,0.064l64.927-29.705
	l64.927,29.705L256,296.146l64.927,29.705l64.944-29.705l64.944,29.705L450.913,325.803z"/>
<path d="M473.792,247.807c0-83.747-24.303-133.469-44.117-160.096c16.476-6.594,28.15-22.712,28.15-41.514v-1.491
	C457.824,20.055,437.769,0,413.118,0H98.885C74.234,0,54.179,20.055,54.179,44.706v1.491c0,18.803,11.674,34.92,28.15,41.514
	C62.515,114.338,38.21,164.06,38.21,247.807c0,26.298,2.489,53.472,7.396,80.764c1.433,7.964,3.071,15.954,4.909,23.951
	c5.518,23.994,12.853,48.072,21.895,71.858c0,0.002,0.002,0.005,0.003,0.006c7.497,19.721,15.963,38.761,25.165,56.588
	c9.872,19.138,29.411,31.027,50.988,31.027h214.867c21.576,0,41.113-11.886,50.987-31.019c9.209-17.838,17.675-36.877,25.167-56.585
	c4.521-11.892,8.616-23.858,12.268-35.851c6.089-19.987,10.955-40.045,14.536-59.958v-0.002
	C471.303,301.293,473.792,274.116,473.792,247.807z M430.282,347.731c-0.591,2.52-1.2,5.042-1.834,7.563
	c-0.299,1.188-0.607,2.375-0.915,3.563c-0.617,2.375-1.252,4.749-1.907,7.124c-0.311,1.134-0.621,2.267-0.941,3.401
	c-0.805,2.849-1.639,5.698-2.498,8.545c-0.181,0.602-0.352,1.205-0.536,1.807c-1.055,3.458-2.155,6.912-3.288,10.363
	c-0.291,0.884-0.596,1.767-0.892,2.651c-0.864,2.581-1.743,5.16-2.649,7.736c-0.403,1.147-0.815,2.292-1.225,3.437
	c-0.396,1.103-0.81,2.204-1.214,3.307l-26.51,12.127l-58.401-26.712c-2.076-0.95-4.309-1.425-6.542-1.425s-4.467,0.475-6.544,1.427
	l-58.383,26.71l-58.383-26.71c-4.154-1.902-8.935-1.902-13.088,0l-58.382,26.71l-26.528-12.141c-0.396-1.081-0.802-2.158-1.191-3.24
	c-0.426-1.184-0.851-2.371-1.268-3.557c-0.887-2.526-1.751-5.056-2.597-7.585c-0.31-0.927-0.631-1.85-0.934-2.776
	c-1.128-3.436-2.221-6.874-3.272-10.314c-0.195-0.639-0.376-1.277-0.568-1.916c-0.849-2.817-1.675-5.635-2.471-8.453
	c-0.319-1.131-0.628-2.26-0.938-3.391c-0.658-2.389-1.298-4.777-1.918-7.165c-0.302-1.166-0.604-2.331-0.898-3.497
	c-0.65-2.577-1.271-5.153-1.875-7.73c-0.209-0.892-0.429-1.784-0.634-2.676c-0.752-3.288-1.466-6.574-2.146-9.857l47.235-21.609
	l58.383,26.71c4.154,1.9,8.932,1.9,13.088,0l58.383-26.71l58.383,26.71c4.156,1.899,8.932,1.9,13.086,0l58.401-26.71l47.224,21.599
	c-0.676,3.275-1.391,6.553-2.139,9.833C430.739,345.829,430.505,346.779,430.282,347.731z M392.414,281.843
	c-4.154-1.9-8.932-1.9-13.085,0l-58.401,26.71l-58.383-26.71c-4.158-1.9-8.932-1.9-13.088,0l-58.383,26.71l-58.383-26.71
	c-4.158-1.9-8.935-1.9-13.088,0l-46.164,21.12c-2.234-16.701-3.462-33.245-3.698-49.444h259.773c8.686,0,15.73-7.042,15.73-15.73
	s-7.044-15.73-15.73-15.73H70.564c0.684-9.723,1.733-18.801,3.071-27.24l52.511-24.023l58.383,26.71
	c4.154,1.902,8.935,1.902,13.088,0L256,170.794l58.383,26.71c4.153,1.9,8.932,1.9,13.086,0l58.401-26.712l52.499,24.011
	c2.459,15.516,3.961,33.122,3.961,53.003c0,18.01-1.269,36.487-3.763,55.146L392.414,281.843z M121.556,90.907h268.892
	c4.658,4.131,13.764,13.368,22.952,29.177c5.245,9.023,10.885,20.881,15.785,35.923l-36.77-16.819c-4.158-1.902-8.935-1.9-13.085,0
	L320.932,165.9l-58.385-26.71c-4.154-1.902-8.935-1.902-13.088,0l-58.383,26.71l-58.383-26.71c-4.154-1.902-8.935-1.902-13.088,0
	l-36.789,16.828c4.582-14.082,9.789-25.301,14.64-33.934C107.044,105.029,116.711,95.203,121.556,90.907z M85.64,44.706
	c0-7.304,5.941-13.245,13.245-13.245h314.233c7.304,0,13.245,5.941,13.245,13.245v1.491c0,7.304-5.941,13.245-13.245,13.245H98.885
	c-7.304,0-13.245-5.941-13.245-13.245V44.706z M363.437,480.539H148.569c-9.753,0-18.579-5.361-23.031-13.992
	c-2.795-5.416-5.512-10.966-8.158-16.608l2.22,1.016c4.158,1.903,8.936,1.902,13.089,0.002l58.383-26.71l58.383,26.71
	c2.076,0.95,4.31,1.425,6.544,1.425s4.467-0.475,6.544-1.425l58.383-26.712l58.401,26.712c4.154,1.9,8.93,1.9,13.086,0l2.209-1.01
	c-2.646,5.641-5.362,11.189-8.158,16.607C382.014,475.18,373.19,480.539,363.437,480.539z"/>
<path d="M376.699,253.515c-4.137,0-8.196-1.683-11.12-4.609c-0.724-0.724-1.384-1.526-1.951-2.391
	c-0.566-0.849-1.054-1.762-1.447-2.706c-0.393-0.96-0.692-1.951-0.897-2.957s-0.315-2.045-0.315-3.067
	c0-1.022,0.11-2.061,0.315-3.067c0.204-1.007,0.503-1.998,0.897-2.942c0.393-0.96,0.881-1.872,1.447-2.721
	c0.566-0.865,1.227-1.667,1.951-2.391c3.648-3.649,9.076-5.333,14.203-4.294c0.991,0.204,1.984,0.503,2.942,0.897
	c0.945,0.393,1.858,0.881,2.707,1.447c0.865,0.566,1.667,1.227,2.391,1.951c0.724,0.724,1.384,1.526,1.966,2.391
	c0.566,0.849,1.054,1.762,1.447,2.721c0.393,0.944,0.692,1.935,0.897,2.942c0.204,1.007,0.297,2.045,0.297,3.067
	s-0.094,2.061-0.297,3.067c-0.204,1.007-0.503,1.998-0.897,2.957c-0.393,0.944-0.881,1.856-1.447,2.706
	c-0.582,0.865-1.243,1.667-1.966,2.391c-0.724,0.724-1.526,1.384-2.391,1.966c-0.849,0.566-1.762,1.054-2.707,1.447
	c-0.958,0.393-1.951,0.692-2.942,0.897C378.761,253.421,377.723,253.515,376.699,253.515z"/>
<g>
</g>
<g>
</g>
<g>
</g>
<g>
</g>
<g>
</g>
<g>
</g>
<g>
</g>
<g>
</g>
<g>
</g>
<g>
</g>
<g>
</g>
<g>
</g>
<g>
</g>
<g>
</g>
<g>
</g>
</svg>
