<?xml version="1.0" encoding="iso-8859-1"?>
<!-- Generator: Adobe Illustrator 19.0.0, SVG Export Plug-In . SVG Version: 6.00 Build 0)  -->
<svg version="1.1" id="Layer_1" xmlns="http://www.w3.org/2000/svg" xmlns:xlink="http://www.w3.org/1999/xlink" x="0px" y="0px"
	 viewBox="0 0 512.001 512.001" style="enable-background:new 0 0 512.001 512.001;" xml:space="preserve">
<path d="M305.725,292.531c-0.893,0-1.774-0.095-2.652-0.271c-0.867-0.176-1.72-0.433-2.53-0.771
	c-0.813-0.338-1.597-0.758-2.327-1.245c-0.746-0.487-1.436-1.055-2.058-1.678c-0.622-0.622-1.191-1.312-1.691-2.057
	c-0.487-0.731-0.907-1.515-1.245-2.341c-0.338-0.812-0.595-1.663-0.771-2.53c-0.176-0.866-0.256-1.759-0.256-2.637
	c0-0.879,0.081-1.774,0.256-2.638c0.175-0.865,0.433-1.72,0.771-2.544c0.338-0.813,0.758-1.598,1.245-2.329
	c0.501-0.744,1.069-1.434,1.691-2.057s1.312-1.191,2.058-1.691c0.731-0.474,1.514-0.893,2.327-1.231
	c0.812-0.338,1.663-0.609,2.53-0.771c4.397-0.892,9.079,0.555,12.217,3.694c0.624,0.622,1.192,1.312,1.678,2.057
	c0.487,0.731,0.907,1.515,1.245,2.329c0.338,0.824,0.595,1.678,0.771,2.544c0.176,0.866,0.271,1.759,0.271,2.638
	c0,0.878-0.095,1.772-0.271,2.637c-0.176,0.867-0.433,1.72-0.771,2.53c-0.338,0.825-0.758,1.61-1.245,2.341
	c-0.486,0.744-1.054,1.434-1.678,2.057C312.774,291.084,309.283,292.531,305.725,292.531z"/>
<path d="M349.018,349.359H239.054c-7.472,0-13.53-6.059-13.53-13.53s6.059-13.53,13.53-13.53h109.965
	c7.471,0,13.53,6.059,13.53,13.53S356.491,349.359,349.018,349.359z"/>
<path d="M198.469,349.359c-0.893,0-1.772-0.095-2.652-0.271c-0.866-0.176-1.718-0.433-2.53-0.771
	c-0.812-0.338-1.597-0.758-2.339-1.245c-0.731-0.487-1.436-1.055-2.058-1.678c-0.622-0.622-1.191-1.312-1.676-2.057
	c-0.487-0.731-0.907-1.515-1.245-2.341c-0.338-0.812-0.595-1.663-0.771-2.53c-0.176-0.866-0.257-1.759-0.257-2.637
	c0-0.879,0.083-1.774,0.257-2.638c0.175-0.865,0.433-1.72,0.771-2.544c0.338-0.813,0.758-1.598,1.245-2.329
	c0.486-0.744,1.054-1.434,1.676-2.057c0.622-0.622,1.326-1.191,2.058-1.678c0.744-0.486,1.529-0.907,2.339-1.245
	c0.813-0.338,1.664-0.609,2.53-0.785c4.397-0.878,9.065,0.555,12.206,3.707c0.636,0.622,1.191,1.312,1.691,2.057
	c0.486,0.731,0.907,1.515,1.245,2.329c0.338,0.824,0.594,1.678,0.771,2.544c0.176,0.866,0.256,1.759,0.256,2.638
	c0,0.878-0.081,1.772-0.256,2.637c-0.177,0.867-0.433,1.72-0.771,2.53c-0.338,0.825-0.759,1.61-1.245,2.341
	c-0.501,0.744-1.055,1.434-1.691,2.057c-0.622,0.622-1.314,1.191-2.058,1.678c-0.731,0.487-1.515,0.907-2.327,1.245
	c-0.812,0.338-1.664,0.595-2.53,0.771C200.228,349.265,199.348,349.359,198.469,349.359z"/>
<path style="fill:#FFDC64;" d="M253.61,147.589c-91.052,0-164.863,73.811-164.863,164.863s73.811,164.863,164.863,164.863
	s164.863-73.811,164.863-164.863S344.661,147.589,253.61,147.589z M253.61,415.56c-56.944,0-103.107-46.163-103.107-103.107
	s46.163-103.107,103.107-103.107s103.107,46.163,103.107,103.107S310.554,415.56,253.61,415.56z"/>
<g>
	<path style="fill:#7DF5A5;" d="M418.473,312.452c0,26.493-6.259,51.52-17.364,73.7l97.36-108.449l-35.581-35.581l-46.841,42.051
		C417.636,293.362,418.473,302.809,418.473,312.452z"/>
	<path style="fill:#7DF5A5;" d="M88.786,315.583c-0.019-1.042-0.039-2.084-0.039-3.131c0-56.573,28.501-106.486,71.922-136.178
		c17.688-80.161,69.019-141.592,69.019-141.592H125.805h-2.709H13.531c0,0,74.926,71.006,74.926,199.712h0.137v81.188h0.192V315.583
		z"/>
</g>
<path d="M253.61,195.816c-64.313,0-116.636,52.324-116.636,116.636c0,64.314,52.324,116.638,116.636,116.638
	c64.314,0,116.638-52.324,116.638-116.638C370.247,248.139,317.924,195.816,253.61,195.816z M253.61,402.029
	c-49.393,0-89.576-40.184-89.576-89.577c0-6.848,0.798-13.509,2.261-19.921h98.836c7.472,0,13.53-6.059,13.53-13.53
	s-6.059-13.53-13.53-13.53h-87.746c15.798-25.539,44.052-42.594,76.225-42.594c49.393,0,89.577,40.183,89.577,89.576
	S303.002,402.029,253.61,402.029z"/>
<path d="M508.039,268.135l-35.581-35.581c-5.086-5.086-13.257-5.304-18.607-0.501l-30.028,26.957
	c-22.762-72.339-90.458-124.951-170.214-124.951c-25.291,0-49.364,5.301-71.182,14.835c20.764-60.769,57.226-105.033,57.645-105.535
	c3.368-4.031,4.098-9.649,1.874-14.406c-2.226-4.76-7.003-7.8-12.257-7.8H13.531c-5.539,0-10.517,3.376-12.568,8.521
	S0.203,40.695,4.223,44.505c0.706,0.67,70.703,68.41,70.703,189.89c0,0.656,0.046,1.303,0.138,1.936c0,0,0.091,81,0.253,81.836
	c3.028,95.732,81.838,172.681,178.292,172.681c68.997,0,128.968-39.378,158.631-96.836l96.3-107.269
	C513.343,281.392,513.121,273.219,508.039,268.135z M42.765,48.214h160.196c-16.716,24.754-41.892,68.133-54.318,119.991
	c-19.083,13.904-34.952,31.227-46.997,50.815C97.939,136.015,64.901,78.093,42.765,48.214z M253.61,463.785
	c-82.48,0-149.751-66.329-151.296-148.448v-0.011c-0.019-0.957-0.037-1.913-0.037-2.874c0-1.459,0.026-2.913,0.068-4.365
	c0.011-0.396,0.031-0.793,0.045-1.189c0.041-1.088,0.088-2.174,0.15-3.259c0.023-0.398,0.05-0.794,0.076-1.191
	c0.076-1.151,0.164-2.299,0.265-3.445c0.024-0.281,0.049-0.563,0.074-0.844c1.155-12.191,3.772-24.094,7.738-35.474
	c0.007-0.02,0.014-0.041,0.022-0.061c0.461-1.322,0.943-2.633,1.44-3.94c0.07-0.183,0.138-0.365,0.208-0.548
	c0.451-1.17,0.919-2.334,1.398-3.492c0.092-0.223,0.181-0.448,0.275-0.67c0.53-1.265,1.078-2.521,1.641-3.77
	c0.308-0.681,0.631-1.354,0.95-2.03c0.233-0.494,0.461-0.989,0.7-1.482c0.442-0.913,0.894-1.82,1.354-2.724
	c0.096-0.189,0.192-0.379,0.29-0.568c25.138-48.818,76.053-82.284,134.639-82.284c74.864,0,137.193,54.644,149.225,126.14
	c0.302,1.802,0.58,3.61,0.817,5.426c0.014,0.104,0.03,0.207,0.043,0.31c0.253,1.975,0.46,3.958,0.637,5.944
	c0.024,0.275,0.05,0.548,0.073,0.823c0.161,1.936,0.285,3.875,0.373,5.815c0.014,0.304,0.023,0.609,0.035,0.913
	c0.078,1.989,0.129,3.977,0.129,5.962c0,1.38-0.022,2.756-0.058,4.129c-0.018,0.671-0.05,1.337-0.077,2.005
	c-0.026,0.664-0.05,1.327-0.085,1.99c-0.049,0.92-0.11,1.839-0.176,2.755c-0.024,0.357-0.049,0.714-0.076,1.072
	c-0.088,1.127-0.187,2.253-0.3,3.373c-0.007,0.076-0.015,0.152-0.023,0.226C396.338,404.171,331.806,463.785,253.61,463.785z
	 M430.876,332.742c0.076-0.674,0.13-1.35,0.199-2.025c0.005-0.049,0.009-0.097,0.014-0.147c0.138-1.384,0.265-2.771,0.371-4.162
	c0.027-0.352,0.049-0.705,0.073-1.057c0.081-1.145,0.16-2.288,0.218-3.438c0.038-0.72,0.061-1.444,0.091-2.165
	c0.032-0.831,0.073-1.66,0.095-2.494c0.042-1.597,0.066-3.197,0.066-4.803c0-1.782-0.034-3.556-0.087-5.326
	c-0.014-0.472-0.037-0.944-0.054-1.417c-0.051-1.361-0.116-2.72-0.198-4.073c-0.028-0.468-0.057-0.936-0.089-1.406
	c-0.101-1.502-0.223-3-0.363-4.492c-0.026-0.279-0.047-0.557-0.074-0.835c-0.18-1.829-0.383-3.649-0.618-5.462
	c-0.003-0.024-0.005-0.049-0.008-0.072l31.874-28.614l17.449,17.449L430.876,332.742z"/>
<g>
</g>
<g>
</g>
<g>
</g>
<g>
</g>
<g>
</g>
<g>
</g>
<g>
</g>
<g>
</g>
<g>
</g>
<g>
</g>
<g>
</g>
<g>
</g>
<g>
</g>
<g>
</g>
<g>
</g>
</svg>
