<?xml version="1.0" encoding="iso-8859-1"?>
<!-- Generator: Adobe Illustrator 19.0.0, SVG Export Plug-In . SVG Version: 6.00 Build 0)  -->
<svg version="1.1" id="Layer_1" xmlns="http://www.w3.org/2000/svg" xmlns:xlink="http://www.w3.org/1999/xlink" x="0px" y="0px"
	 viewBox="0 0 512 512" style="enable-background:new 0 0 512 512;" xml:space="preserve">
<polygon style="fill:#FFDC64;" points="427.517,444.936 84.483,444.936 55.163,168.912 456.837,168.912 "/>
<path style="fill:#7BFFCD;" d="M112.246,14.66h287.508c16.954,0,32.389,9.768,39.648,25.09l17.435,36.805H55.163L72.598,39.75
	C79.856,24.429,95.292,14.66,112.246,14.66z"/>
<g>
	<rect x="34.637" y="76.554" style="fill:#FF5050;" width="442.727" height="92.357"/>
	<rect x="59.558" y="444.94" style="fill:#FF5050;" width="392.883" height="52.404"/>
</g>
<path d="M179.96,290.348c-0.968,0-1.922-0.088-2.873-0.279c-0.938-0.191-1.863-0.468-2.741-0.834
	c-0.878-0.366-1.73-0.822-2.536-1.349c-0.79-0.542-1.539-1.143-2.228-1.832c-2.727-2.727-4.281-6.496-4.281-10.365
	c0-0.953,0.088-1.92,0.277-2.859c0.192-0.938,0.469-1.862,0.836-2.741c0.367-0.893,0.822-1.743,1.349-2.535
	c0.528-0.806,1.143-1.555,1.818-2.23c0.689-0.674,1.437-1.29,2.228-1.816c0.808-0.528,1.658-0.984,2.536-1.35
	c0.878-0.366,1.803-0.644,2.741-0.834c1.891-0.381,3.841-0.381,5.732,0c0.938,0.191,1.862,0.468,2.741,0.834
	c0.88,0.366,1.73,0.822,2.521,1.35c0.806,0.526,1.554,1.142,2.228,1.816c0.69,0.674,1.29,1.423,1.832,2.23
	c0.528,0.792,0.982,1.642,1.349,2.535c0.366,0.881,0.645,1.803,0.836,2.741c0.191,0.94,0.279,1.906,0.279,2.859
	c0,3.87-1.555,7.638-4.297,10.365c-0.674,0.689-1.422,1.29-2.228,1.832c-0.792,0.526-1.642,0.982-2.521,1.349
	c-0.881,0.366-1.803,0.644-2.741,0.834C181.865,290.26,180.912,290.348,179.96,290.348z"/>
<rect x="153.195" y="328.571" style="fill:#7BFFCD;" width="53.508" height="55.266"/>
<path d="M206.706,398.492h-53.508c-8.095,0-14.66-6.565-14.66-14.66v-55.266c0-8.095,6.565-14.66,14.66-14.66h53.508
	c8.095,0,14.66,6.565,14.66,14.66v55.266C221.366,391.929,214.802,398.492,206.706,398.492z M167.858,369.172h24.189v-25.946
	h-24.189V369.172z"/>
<path d="M477.363,61.897h-11.25L452.65,33.474C443.017,13.14,422.254,0,399.754,0H112.246c-22.5,0-43.263,13.14-52.897,33.474
	L45.885,61.897h-11.25c-8.095,0-14.66,6.565-14.66,14.66v92.357c0,8.095,6.565,14.66,14.66,14.66h7.342l26.206,246.703h-8.624
	c-8.095,0-14.66,6.565-14.66,14.66v52.404c0,8.095,6.565,14.66,14.66,14.66h392.883c8.095,0,14.66-6.565,14.66-14.66v-52.404
	c0-8.095-6.565-14.66-14.66-14.66h-8.624l26.206-246.703h7.342c8.095,0,14.66-6.565,14.66-14.66V76.556
	C492.023,68.46,485.458,61.897,477.363,61.897z M55.163,154.254h-5.867V91.216h5.867h401.673h5.867v63.037h-5.867H55.163z
	 M85.846,46.026c4.808-10.148,15.17-16.706,26.399-16.706h287.507c11.229,0,21.592,6.559,26.401,16.706l7.518,15.869H78.329
	L85.846,46.026z M437.782,482.68H74.218v-23.085h363.564V482.68z M414.332,430.276H97.668L71.462,183.573h93.83v48.14
	c0,8.095,6.565,14.66,14.66,14.66s14.66-6.565,14.66-14.66v-48.14h122.776v48.14c0,8.095,6.565,14.66,14.66,14.66
	s14.66-6.565,14.66-14.66v-48.14h93.83L414.332,430.276z"/>
<path d="M332.055,290.348c-0.968,0-1.922-0.088-2.873-0.279c-0.938-0.191-1.863-0.468-2.741-0.834
	c-0.878-0.366-1.73-0.822-2.536-1.349c-0.79-0.542-1.554-1.143-2.228-1.832c-2.727-2.727-4.295-6.496-4.295-10.365
	c0-0.953,0.101-1.92,0.292-2.859c0.192-0.938,0.469-1.862,0.836-2.741c0.366-0.893,0.822-1.743,1.349-2.535
	c0.528-0.806,1.143-1.555,1.818-2.23c0.674-0.674,1.437-1.29,2.228-1.816c0.808-0.528,1.658-0.984,2.536-1.35
	s1.803-0.644,2.741-0.834c4.764-0.953,9.822,0.601,13.238,4.001c0.674,0.674,1.274,1.423,1.816,2.23
	c0.528,0.792,0.982,1.642,1.349,2.535c0.367,0.881,0.645,1.803,0.836,2.741c0.191,0.94,0.279,1.906,0.279,2.859
	c0,3.87-1.555,7.638-4.281,10.365C339.678,288.778,335.911,290.348,332.055,290.348z"/>
<rect x="305.291" y="328.571" style="fill:#7BFFCD;" width="53.508" height="55.266"/>
<path d="M358.802,398.492h-53.508c-8.095,0-14.66-6.565-14.66-14.66v-55.266c0-8.095,6.565-14.66,14.66-14.66h53.508
	c8.095,0,14.66,6.565,14.66,14.66v55.266C373.462,391.929,366.897,398.492,358.802,398.492z M319.953,369.172h24.189v-25.946
	h-24.189V369.172z"/>
<g>
</g>
<g>
</g>
<g>
</g>
<g>
</g>
<g>
</g>
<g>
</g>
<g>
</g>
<g>
</g>
<g>
</g>
<g>
</g>
<g>
</g>
<g>
</g>
<g>
</g>
<g>
</g>
<g>
</g>
</svg>
