<?xml version="1.0" encoding="iso-8859-1"?>
<!-- Generator: Adobe Illustrator 19.0.0, SVG Export Plug-In . SVG Version: 6.00 Build 0)  -->
<svg version="1.1" id="Layer_1" xmlns="http://www.w3.org/2000/svg" xmlns:xlink="http://www.w3.org/1999/xlink" x="0px" y="0px"
	 viewBox="0 0 512 512" style="enable-background:new 0 0 512 512;" xml:space="preserve">
<rect x="30.844" y="16.339" style="fill:#FFDC64;" width="450.305" height="479.323"/>
<path d="M481.156,512H30.844c-9.024,0-16.339-7.315-16.339-16.339V16.339C14.505,7.315,21.82,0,30.844,0h450.312
	c9.022,0,16.339,7.315,16.339,16.339v479.322C497.495,504.685,490.178,512,481.156,512z M47.183,479.322h417.634V32.678H47.183
	V479.322z"/>
<path d="M416.497,223.323c-1.06,0-2.14-0.098-3.184-0.31c-1.047-0.212-2.077-0.539-3.055-0.948
	c-0.997-0.408-1.944-0.915-2.827-1.503c-0.899-0.588-1.732-1.274-2.484-2.026c-0.752-0.752-1.438-1.585-2.026-2.484
	c-0.588-0.882-1.095-1.83-1.503-2.827c-0.408-0.98-0.719-2.01-0.931-3.055c-0.212-1.046-0.327-2.124-0.327-3.186
	c0-1.062,0.114-2.14,0.327-3.186c0.212-1.046,0.523-2.075,0.931-3.055c0.408-0.997,0.915-1.944,1.503-2.827
	c0.588-0.899,1.274-1.732,2.026-2.484c0.752-0.752,1.585-1.438,2.484-2.026c0.882-0.588,1.83-1.095,2.827-1.503
	c0.98-0.408,2.008-0.719,3.055-0.931c2.106-0.425,4.279-0.425,6.387,0c1.029,0.212,2.06,0.523,3.055,0.931
	c0.982,0.408,1.93,0.915,2.812,1.503c0.899,0.588,1.732,1.274,2.484,2.026c0.752,0.752,1.438,1.585,2.026,2.484
	c0.587,0.882,1.095,1.83,1.503,2.827c0.408,0.98,0.735,2.01,0.931,3.055c0.212,1.046,0.325,2.124,0.325,3.186
	c0,1.062-0.113,2.14-0.325,3.186c-0.196,1.046-0.523,2.075-0.931,3.055c-0.408,0.997-0.917,1.944-1.503,2.827
	c-0.588,0.899-1.274,1.732-2.026,2.484c-0.752,0.752-1.585,1.438-2.484,2.026c-0.882,0.588-1.83,1.095-2.812,1.503
	c-0.995,0.408-2.026,0.735-3.055,0.948C418.639,223.225,417.561,223.323,416.497,223.323z"/>
<path d="M95.501,321.357c-1.062,0-2.14-0.114-3.202-0.327c-1.029-0.196-2.059-0.523-3.055-0.931c-0.98-0.408-1.928-0.915-2.81-1.503
	c-0.899-0.588-1.732-1.274-2.484-2.026c-0.752-0.752-1.438-1.585-2.042-2.484c-0.588-0.882-1.095-1.83-1.503-2.827
	c-0.408-0.98-0.719-2.01-0.931-3.055c-0.212-1.046-0.31-2.124-0.31-3.186c0-1.062,0.098-2.14,0.31-3.186
	c0.212-1.046,0.523-2.075,0.931-3.055c0.408-0.997,0.915-1.944,1.503-2.827c0.605-0.899,1.291-1.732,2.042-2.484
	c0.752-0.752,1.585-1.438,2.484-2.026c0.882-0.588,1.83-1.095,2.81-1.503c0.997-0.408,2.026-0.735,3.055-0.931
	c2.108-0.425,4.281-0.425,6.389,0c1.046,0.196,2.075,0.523,3.055,0.931c0.997,0.408,1.944,0.915,2.827,1.503
	c0.899,0.588,1.732,1.274,2.484,2.026c0.752,0.752,1.438,1.585,2.026,2.484c0.588,0.882,1.095,1.83,1.503,2.827
	c0.408,0.98,0.719,2.01,0.931,3.055c0.212,1.046,0.327,2.124,0.327,3.186c0,1.062-0.114,2.14-0.327,3.186
	c-0.212,1.046-0.523,2.075-0.931,3.055c-0.408,0.997-0.915,1.944-1.503,2.827c-0.588,0.899-1.274,1.732-2.026,2.484
	c-0.752,0.752-1.585,1.438-2.484,2.026c-0.882,0.588-1.83,1.095-2.827,1.503c-0.98,0.408-2.01,0.735-3.055,0.931
	C97.642,321.241,96.563,321.357,95.501,321.357z"/>
<g>
	<circle style="fill:#7BFFCD;" cx="180.023" cy="367.107" r="44.116"/>
	<circle style="fill:#7BFFCD;" cx="331.977" cy="318.089" r="44.116"/>
</g>
<polygon style="fill:#FF5050;" points="224.139,149.797 224.139,220.872 376.092,171.855 376.092,100.779 "/>
<path d="M416.5,288.679h-24.069V171.854v-71.075c0-5.224-2.498-10.133-6.72-13.209c-4.225-3.075-9.66-3.944-14.635-2.341
	l-151.954,49.017c-6.75,2.178-11.323,8.459-11.323,15.55v40.848H95.498c-9.024,0-16.339,7.315-16.339,16.339
	c0,9.024,7.315,16.339,16.339,16.339H207.8v65.356h-63.285c-9.024,0-16.339,7.315-16.339,16.339c0,7.822,5.5,14.351,12.839,15.954
	c-13.106,11.097-21.447,27.657-21.447,46.135c0,33.335,27.12,60.455,60.455,60.455s60.455-27.12,60.455-60.455v-45.749h31.136
	c1.704,31.82,28.124,57.187,60.363,57.187s58.659-25.366,60.363-57.187H416.5c9.022,0,16.339-7.315,16.339-16.339
	C432.84,295.994,425.525,288.679,416.5,288.679z M240.478,161.693l119.275-38.475v36.738l-119.275,38.475V161.693z M180.023,394.883
	c-15.316,0-27.776-12.46-27.776-27.776c0-15.316,12.46-27.776,27.776-27.776s27.776,12.46,27.776,27.776
	C207.8,382.423,195.34,394.883,180.023,394.883z M240.478,232.768l29.285-9.446h89.991v41.098
	c-8.323-4.325-17.765-6.786-27.776-6.786c-22.664,0-42.444,12.544-52.792,31.044h-38.707V232.768z M331.977,345.866
	c-15.316,0-27.776-12.46-27.776-27.776s12.46-27.776,27.776-27.776s27.776,12.46,27.776,27.776S347.293,345.866,331.977,345.866z"/>
<g>
</g>
<g>
</g>
<g>
</g>
<g>
</g>
<g>
</g>
<g>
</g>
<g>
</g>
<g>
</g>
<g>
</g>
<g>
</g>
<g>
</g>
<g>
</g>
<g>
</g>
<g>
</g>
<g>
</g>
</svg>
