<?xml version="1.0" encoding="iso-8859-1"?>
<!-- Generator: Adobe Illustrator 19.0.0, SVG Export Plug-In . SVG Version: 6.00 Build 0)  -->
<svg version="1.1" id="Layer_1" xmlns="http://www.w3.org/2000/svg" xmlns:xlink="http://www.w3.org/1999/xlink" x="0px" y="0px"
	 viewBox="0 0 512 512" style="enable-background:new 0 0 512 512;" xml:space="preserve">
<g>
	<rect x="291.887" y="43.914" style="fill:#767B95;" width="68.212" height="60.429"/>
	<rect x="153.71" y="43.914" style="fill:#767B95;" width="68.212" height="60.429"/>
</g>
<polygon style="fill:#FFDCAA;" points="360.094,43.914 360.094,104.344 291.883,104.344 291.883,43.914 221.924,43.914 
	221.924,104.344 153.712,104.344 153.712,43.914 83.754,43.914 83.754,47.662 83.754,104.344 428.246,104.344 428.246,47.662 
	428.246,43.914 "/>
<polygon style="fill:#4DA081;" points="428.246,43.914 428.246,104.859 83.754,104.859 83.754,43.914 13.734,43.914 13.734,104.859 
	13.734,124.582 13.734,169.991 498.266,169.991 498.266,124.582 498.266,104.859 498.266,43.914 "/>
<path d="M101.822,481.82c-3.521,0-7.043-1.346-9.726-4.036l-0.22-0.22c-5.355-5.371-5.342-14.068,0.03-19.424
	c5.37-5.355,14.066-5.343,19.423,0.029l0.22,0.22c5.355,5.371,5.343,14.068-0.03,19.424
	C108.839,480.485,105.33,481.82,101.822,481.82z"/>
<path d="M410.178,481.82c-3.502,0-7.003-1.331-9.682-3.992c-5.38-5.348-5.407-14.043-0.059-19.424l0.218-0.22
	c5.348-5.378,14.044-5.404,19.424-0.059c5.38,5.348,5.407,14.043,0.059,19.424l-0.218,0.22
	C417.236,480.468,413.706,481.82,410.178,481.82z"/>
<path d="M498.266,30.18H13.734C6.149,30.18,0,36.33,0,43.914v126.076c0,7.584,6.149,13.734,13.734,13.734h68.683l153.353,141.8
	l-104.92,97.017c-5.569,5.149-5.91,13.838-0.759,19.407c2.707,2.928,6.392,4.41,10.088,4.41c3.335,0,6.679-1.207,9.321-3.65
	l106.501-98.478l106.501,98.478c2.642,2.443,5.985,3.65,9.32,3.65c3.696,0,7.381-1.482,10.088-4.41
	c5.15-5.569,4.81-14.259-0.759-19.407l-104.92-97.017l153.353-141.8h68.683c7.584,0,13.734-6.15,13.734-13.734V43.914
	C512,36.329,505.85,30.18,498.266,30.18z M414.512,90.61h-40.684V57.648h40.684V90.61z M346.36,90.61h-40.744V57.648h40.744V90.61z
	 M235.658,57.648h42.49V90.61h-42.49V57.648z M208.19,90.61h-40.744V57.648h40.744V90.61z M139.978,90.61h-42.49V57.648h42.49
	L139.978,90.61L139.978,90.61z M255.999,306.819L122.875,183.723h266.249L255.999,306.819z M484.532,156.255H27.468V57.648H70.02
	v46.695v0.515c0,7.584,6.149,13.734,13.734,13.734h344.493c7.584,0,13.734-6.15,13.734-13.734v-0.515V57.648h42.55v98.607H484.532z"
	/>
<g>
</g>
<g>
</g>
<g>
</g>
<g>
</g>
<g>
</g>
<g>
</g>
<g>
</g>
<g>
</g>
<g>
</g>
<g>
</g>
<g>
</g>
<g>
</g>
<g>
</g>
<g>
</g>
<g>
</g>
</svg>
