<?xml version="1.0" encoding="iso-8859-1"?>
<!-- Generator: Adobe Illustrator 19.0.0, SVG Export Plug-In . SVG Version: 6.00 Build 0)  -->
<svg version="1.1" id="Layer_1" xmlns="http://www.w3.org/2000/svg" xmlns:xlink="http://www.w3.org/1999/xlink" x="0px" y="0px"
	 viewBox="0 0 512 512" style="enable-background:new 0 0 512 512;" xml:space="preserve">
<rect x="13.853" y="80.943" style="fill:#46AFA7;" width="484.297" height="350.118"/>
<circle style="fill:#FFDC64;" cx="136.34" cy="300.484" r="58.736"/>
<path d="M136.342,373.06c-40.022,0-72.582-32.56-72.582-72.582s32.56-72.582,72.582-72.582s72.584,32.56,72.584,72.582
	S176.364,373.06,136.342,373.06z M136.342,255.602c-24.744,0-44.876,20.131-44.876,44.876s20.131,44.876,44.876,44.876
	s44.878-20.131,44.878-44.876S161.087,255.602,136.342,255.602z"/>
<circle style="fill:#FFDC64;" cx="349.869" cy="300.484" r="84.516"/>
<path d="M349.869,398.85c-54.242,0-98.374-44.13-98.374-98.372s44.13-98.372,98.374-98.372s98.372,44.13,98.372,98.372
	S404.111,398.85,349.869,398.85z M349.869,229.812c-38.967,0-70.668,31.701-70.668,70.666s31.701,70.666,70.668,70.666
	c38.965,0,70.666-31.701,70.666-70.666S388.834,229.812,349.869,229.812z"/>
<path style="fill:#7BFFCD;" d="M349.867,268.022c17.897,0,32.456,14.559,32.456,32.456"/>
<path d="M382.323,314.331c-7.65,0-13.853-6.202-13.853-13.853c0-10.258-8.345-18.603-18.603-18.603
	c-7.65,0-13.853-6.202-13.853-13.853s6.203-13.853,13.853-13.853c25.535,0,46.309,20.774,46.309,46.309
	C396.176,308.129,389.974,314.331,382.323,314.331z"/>
<polygon style="fill:#7BFFCD;" points="91.68,80.939 105.928,178.372 406.073,178.372 420.319,80.939 "/>
<path d="M498.147,67.086h-77.828H91.681H13.853C6.203,67.086,0,73.288,0,80.939v350.122c0,7.651,6.203,13.853,13.853,13.853h484.294
	c7.65,0,13.853-6.202,13.853-13.853V80.939C512,73.288,505.797,67.086,498.147,67.086z M404.294,94.792l-10.196,69.726H117.902
	l-3.275-22.396h197.17c7.65,0,13.853-6.202,13.853-13.853s-6.203-13.853-13.853-13.853h-201.22l-2.87-19.624H404.294z
	 M484.294,417.208H27.706V94.792h52.001l12.513,85.583c0.995,6.805,6.831,11.848,13.707,11.848h300.145
	c6.877,0,12.713-5.045,13.707-11.848l12.513-85.583h52.001V417.208z"/>
<path d="M353.358,142.13c-0.9,0-1.816-0.097-2.717-0.277c-0.873-0.18-1.745-0.443-2.589-0.79c-0.833-0.346-1.636-0.776-2.384-1.274
	c-0.762-0.513-1.468-1.081-2.106-1.718c-0.637-0.651-1.219-1.358-1.732-2.106c-0.499-0.762-0.928-1.565-1.274-2.397
	c-0.346-0.831-0.61-1.704-0.79-2.59c-0.18-0.9-0.262-1.801-0.262-2.715c0-0.9,0.083-1.801,0.262-2.701
	c0.18-0.887,0.443-1.759,0.79-2.59c0.346-0.831,0.776-1.635,1.274-2.397c0.513-0.748,1.094-1.455,1.732-2.106
	c0.637-0.637,1.344-1.205,2.106-1.718c0.748-0.499,1.552-0.928,2.384-1.274c0.844-0.346,1.716-0.61,2.589-0.79
	c1.787-0.36,3.629-0.36,5.416,0c0.888,0.18,1.761,0.443,2.59,0.79c0.845,0.346,1.648,0.776,2.397,1.274
	c0.762,0.513,1.468,1.081,2.106,1.718c0.637,0.651,1.219,1.358,1.718,2.106c0.499,0.762,0.928,1.565,1.275,2.397
	c0.346,0.831,0.61,1.704,0.79,2.59c0.18,0.9,0.277,1.801,0.277,2.701c0,0.914-0.097,1.815-0.277,2.715
	c-0.18,0.887-0.443,1.759-0.79,2.59c-0.346,0.831-0.776,1.635-1.275,2.397c-0.499,0.748-1.081,1.455-1.718,2.106
	c-0.637,0.637-1.344,1.205-2.106,1.718c-0.748,0.499-1.552,0.928-2.397,1.274c-0.831,0.346-1.703,0.61-2.59,0.79
	C355.173,142.033,354.259,142.13,353.358,142.13z"/>
<g>
</g>
<g>
</g>
<g>
</g>
<g>
</g>
<g>
</g>
<g>
</g>
<g>
</g>
<g>
</g>
<g>
</g>
<g>
</g>
<g>
</g>
<g>
</g>
<g>
</g>
<g>
</g>
<g>
</g>
</svg>
