<?xml version="1.0" encoding="iso-8859-1"?>
<!-- Generator: Adobe Illustrator 19.0.0, SVG Export Plug-In . SVG Version: 6.00 Build 0)  -->
<svg version="1.1" id="Layer_1" xmlns="http://www.w3.org/2000/svg" xmlns:xlink="http://www.w3.org/1999/xlink" x="0px" y="0px"
	 viewBox="0 0 512 512" style="enable-background:new 0 0 512 512;" xml:space="preserve">
<path style="fill:#767B95;" d="M256,78.222c-76.302,0-138.382,62.08-138.382,138.382v252.729h276.764V216.604
	C394.382,140.302,332.302,78.222,256,78.222z"/>
<path style="fill:#FFDC64;" d="M256,416.542L256,416.542c41.832,0,75.743-33.911,75.743-75.743v-94.583H180.257v94.583
	C180.257,382.629,214.168,416.542,256,416.542z"/>
<path style="fill:#7BFFCD;" d="M458.382,216.604v281.173h-64V216.604c0-76.302-62.08-138.382-138.382-138.382
	s-138.382,62.08-138.382,138.382v281.173h-64V216.604c0-111.772,90.61-202.382,202.382-202.382S458.382,104.832,458.382,216.604z"/>
<g>
	<path style="fill:#FF5050;" d="M256,78.222c-66.571,0-122.311,47.258-135.447,109.985h270.894
		C378.311,125.48,322.571,78.222,256,78.222z"/>
	<rect x="53.618" y="241.778" style="fill:#FF5050;" width="64" height="71.111"/>
	<rect x="394.382" y="241.778" style="fill:#FF5050;" width="64" height="71.111"/>
</g>
<path d="M256,381.255c-0.924,0-1.863-0.1-2.773-0.284s-1.806-0.455-2.66-0.811c-0.868-0.356-1.692-0.796-2.46-1.308
	c-0.782-0.526-1.508-1.109-2.162-1.764c-2.645-2.66-4.167-6.315-4.167-10.055c0-3.755,1.522-7.424,4.167-10.069
	c0.654-0.654,1.38-1.252,2.162-1.764c0.768-0.512,1.593-0.953,2.46-1.308c0.853-0.356,1.749-0.626,2.66-0.811
	c1.835-0.37,3.712-0.37,5.547,0c0.91,0.185,1.806,0.455,2.66,0.811c0.868,0.356,1.692,0.796,2.46,1.308
	c0.782,0.526,1.508,1.109,2.162,1.764s1.252,1.394,1.764,2.162c0.512,0.782,0.953,1.607,1.308,2.46
	c0.356,0.853,0.64,1.749,0.811,2.66c0.185,0.924,0.284,1.849,0.284,2.788c0,0.924-0.1,1.849-0.284,2.773
	c-0.171,0.91-0.455,1.806-0.811,2.66c-0.356,0.853-0.796,1.678-1.308,2.46c-0.512,0.768-1.109,1.493-1.764,2.162
	C263.41,379.733,259.74,381.255,256,381.255z"/>
<path d="M256,0C136.563,0,39.396,97.169,39.396,216.604v25.173v71.111v184.889c0,7.855,6.367,14.222,14.222,14.222h64
	c7.855,0,14.222-6.367,14.222-14.222v-14.222h248.32v14.222c0,7.855,6.367,14.222,14.222,14.222h64
	c7.855,0,14.222-6.367,14.222-14.222V312.889v-71.111v-25.173C472.604,97.169,375.437,0,256,0z M256,28.444
	c103.751,0,188.16,84.409,188.16,188.16v10.951h-35.556v-10.951c0-15.351-2.288-30.177-6.524-44.163
	c-0.016-0.051-0.03-0.101-0.046-0.152c-0.629-2.066-1.301-4.114-2.014-6.143c-0.021-0.06-0.041-0.118-0.063-0.178
	c-19.507-55.299-70.022-96.084-130.563-101.375c-0.027-0.003-0.054-0.004-0.081-0.007c-2.105-0.183-4.221-0.326-6.35-0.422
	c-0.236-0.011-0.474-0.017-0.71-0.027C260.178,64.054,258.095,64,256,64c-2.095,0-4.178,0.054-6.253,0.138
	c-0.236,0.01-0.474,0.016-0.71,0.027c-2.129,0.097-4.245,0.239-6.35,0.422c-0.027,0.003-0.054,0.004-0.081,0.007
	c-60.54,5.291-111.056,46.076-130.563,101.375c-0.021,0.06-0.041,0.118-0.063,0.178c-0.713,2.03-1.385,4.076-2.014,6.143
	c-0.016,0.05-0.03,0.101-0.046,0.152c-4.237,13.986-6.524,28.811-6.524,44.163v10.951H67.841v-10.951
	C67.84,112.853,152.249,28.444,256,28.444z M444.16,298.667h-35.556V256h35.556V298.667z M370.908,169.596
	c0.596,1.449,1.166,2.913,1.71,4.39H139.382c0.542-1.478,1.114-2.941,1.71-4.39c0.02-0.047,0.038-0.095,0.058-0.142
	c18.2-44.109,60.972-74.806,109.575-76.89c0.274-0.011,0.549-0.021,0.823-0.031c1.479-0.053,2.963-0.088,4.452-0.088
	c1.489,0,2.972,0.036,4.453,0.088c0.275,0.01,0.549,0.02,0.823,0.031c48.602,2.082,91.374,32.779,109.575,76.89
	C370.87,169.5,370.889,169.547,370.908,169.596z M67.84,256h35.556v42.667H67.84C67.84,298.667,67.84,256,67.84,256z
	 M103.396,483.556H67.84V327.111h35.556v142.222V483.556z M131.84,455.111V312.889v-71.111v-25.173
	c0-4.793,0.283-9.522,0.814-14.175h109.124v29.562h-61.521c-7.855,0-14.222,6.367-14.222,14.222v94.582
	c0,49.607,40.358,89.966,89.965,89.966s89.966-40.358,89.966-89.966v-94.581c0-7.855-6.367-14.222-14.222-14.222h-61.521v-29.562
	h109.123c0.532,4.654,0.814,9.381,0.814,14.175v25.172v71.111v142.222H131.84z M256,338.581c7.855,0,14.222-6.367,14.222-14.222
	v-63.922h47.299v80.36c0,33.923-27.598,61.521-61.521,61.521s-61.521-27.598-61.521-61.521v-80.36h47.299v63.922
	C241.778,332.214,248.145,338.581,256,338.581z M408.604,483.556v-14.222V327.111h35.556v156.444H408.604z"/>
<g>
</g>
<g>
</g>
<g>
</g>
<g>
</g>
<g>
</g>
<g>
</g>
<g>
</g>
<g>
</g>
<g>
</g>
<g>
</g>
<g>
</g>
<g>
</g>
<g>
</g>
<g>
</g>
<g>
</g>
</svg>
