<?xml version="1.0" encoding="iso-8859-1"?>
<!-- Generator: Adobe Illustrator 19.0.0, SVG Export Plug-In . SVG Version: 6.00 Build 0)  -->
<svg version="1.1" id="Layer_1" xmlns="http://www.w3.org/2000/svg" xmlns:xlink="http://www.w3.org/1999/xlink" x="0px" y="0px"
	 viewBox="0 0 512 512" style="enable-background:new 0 0 512 512;" xml:space="preserve">
<rect x="13.333" y="118.347" style="fill:#767B95;" width="485.333" height="275.307"/>
<path d="M498.667,406.987H13.333C5.969,406.987,0,401.017,0,393.653V118.347c0-7.364,5.969-13.333,13.333-13.333h485.333
	c7.363,0,13.333,5.969,13.333,13.333v275.307C512,401.017,506.029,406.987,498.667,406.987z M26.667,380.32h458.667V131.68H26.667
	V380.32z"/>
<rect x="60.253" y="165.88" style="fill:#A2A8D3;" width="272.773" height="79.107"/>
<rect x="58.349" y="295.68" style="fill:#FF5050;" width="57.333" height="47.556"/>
<path d="M115.685,356.568H58.349c-7.364,0-13.333-5.969-13.333-13.333v-47.556c0-7.364,5.969-13.333,13.333-13.333h57.336
	c7.364,0,13.333,5.969,13.333,13.333v47.556C129.019,350.599,123.049,356.568,115.685,356.568z M71.683,329.901h30.669v-20.889
	H71.683V329.901z"/>
<rect x="277.6" y="295.68" style="fill:#FF5050;" width="57.333" height="47.556"/>
<path d="M334.936,356.568H277.6c-7.363,0-13.333-5.969-13.333-13.333v-47.556c0-7.364,5.971-13.333,13.333-13.333h57.336
	c7.363,0,13.333,5.969,13.333,13.333v47.556C348.269,350.599,342.3,356.568,334.936,356.568z M290.933,329.901h30.669v-20.889
	h-30.669V329.901z"/>
<rect x="167.973" y="295.68" style="fill:#FF5050;" width="57.333" height="47.556"/>
<path d="M225.311,356.568h-57.336c-7.364,0-13.333-5.969-13.333-13.333v-47.556c0-7.364,5.969-13.333,13.333-13.333h57.336
	c7.364,0,13.333,5.969,13.333,13.333v47.556C238.644,350.599,232.675,356.568,225.311,356.568z M181.308,329.901h30.669v-20.889
	h-30.669V329.901z"/>
<circle style="fill:#7DF5A5;" cx="414.987" cy="205.427" r="38.667"/>
<path d="M414.984,257.432c-28.673,0-52-23.327-52-52s23.327-52,52-52s52,23.327,52,52S443.657,257.432,414.984,257.432z
	 M414.984,180.099c-13.969,0-25.333,11.364-25.333,25.333c0,13.969,11.364,25.333,25.333,25.333
	c13.969,0,25.333-11.364,25.333-25.333C440.317,191.463,428.953,180.099,414.984,180.099z"/>
<circle style="fill:#7DF5A5;" cx="414.987" cy="319.453" r="26.667"/>
<path d="M414.984,359.457c-22.056,0-40-17.944-40-40s17.944-40,40-40c22.056,0,40,17.944,40,40S437.04,359.457,414.984,359.457z
	 M414.984,306.124c-7.352,0-13.333,5.981-13.333,13.333s5.981,13.333,13.333,13.333c7.352,0,13.333-5.981,13.333-13.333
	S422.336,306.124,414.984,306.124z"/>
<path d="M333.031,152.543H60.253c-7.364,0-13.333,5.969-13.333,13.333v79.111c0,7.364,5.969,13.333,13.333,13.333h272.777
	c7.363,0,13.333-5.969,13.333-13.333v-79.111C346.364,158.512,340.395,152.543,333.031,152.543z M319.697,231.655H73.587v-12.925
	h144.552c7.364,0,13.333-5.969,13.333-13.333c0-7.364-5.969-13.333-13.333-13.333H73.587v-12.852h246.111V231.655z"/>
<path d="M258.133,218.733c-0.867,0-1.747-0.093-2.6-0.267c-0.853-0.173-1.693-0.427-2.493-0.76c-0.8-0.333-1.573-0.747-2.307-1.227
	c-0.72-0.48-1.413-1.04-2.027-1.653c-2.48-2.48-3.907-5.92-3.907-9.427c0-0.88,0.093-1.747,0.267-2.613
	c0.173-0.853,0.427-1.693,0.76-2.493c0.333-0.8,0.747-1.573,1.227-2.293c0.48-0.733,1.04-1.413,1.653-2.027
	c0.613-0.627,1.307-1.173,2.027-1.667c0.733-0.48,1.507-0.893,2.307-1.227s1.64-0.587,2.493-0.76c1.72-0.347,3.493-0.347,5.213,0
	c0.855,0.173,1.68,0.427,2.493,0.76c0.801,0.333,1.573,0.747,2.293,1.227c0.735,0.493,1.415,1.04,2.04,1.667
	c0.613,0.613,1.173,1.293,1.653,2.027c0.48,0.72,0.893,1.493,1.227,2.293c0.333,0.8,0.587,1.64,0.76,2.493
	c0.173,0.867,0.252,1.733,0.252,2.613c0,3.507-1.413,6.947-3.893,9.427c-0.627,0.613-1.305,1.173-2.04,1.653
	c-0.72,0.48-1.492,0.893-2.293,1.227c-0.813,0.333-1.639,0.587-2.493,0.76C259.88,218.64,259.013,218.733,258.133,218.733z"/>
<g>
</g>
<g>
</g>
<g>
</g>
<g>
</g>
<g>
</g>
<g>
</g>
<g>
</g>
<g>
</g>
<g>
</g>
<g>
</g>
<g>
</g>
<g>
</g>
<g>
</g>
<g>
</g>
<g>
</g>
</svg>
