<?xml version="1.0" encoding="iso-8859-1"?>
<!-- Generator: Adobe Illustrator 19.0.0, SVG Export Plug-In . SVG Version: 6.00 Build 0)  -->
<svg version="1.1" id="Layer_1" xmlns="http://www.w3.org/2000/svg" xmlns:xlink="http://www.w3.org/1999/xlink" x="0px" y="0px"
	 viewBox="0 0 512.001 512.001" style="enable-background:new 0 0 512.001 512.001;" xml:space="preserve">
<path style="fill:#767B95;" d="M461.407,440.471H50.593c-19.625,0-35.534-15.91-35.534-35.534v-38.254h481.882v38.254
	C496.941,424.562,481.032,440.471,461.407,440.471z"/>
<rect x="39.153" y="71.53" style="fill:#A2A8D3;" width="433.694" height="295.153"/>
<rect x="87.341" y="119.718" style="fill:#7BFFCD;" width="337.318" height="246.965"/>
<path d="M496.941,351.624h-9.035V71.53c0-8.315-6.743-15.059-15.059-15.059H39.153c-8.315,0-15.059,6.743-15.059,15.059v280.094
	h-9.035C6.743,351.624,0,358.368,0,366.683v38.254c0,27.896,22.695,50.593,50.593,50.593h410.815
	c27.896,0,50.593-22.695,50.593-50.593v-38.254C512,358.366,505.257,351.624,496.941,351.624z M54.212,86.589h403.576v265.035
	h-18.071V119.718c0-8.315-6.743-15.059-15.059-15.059H87.341c-8.315,0-15.059,6.743-15.059,15.059v231.906H54.212V86.589z
	 M102.4,334.767h215.338c8.315,0,15.059-6.743,15.059-15.059c0-8.315-6.743-15.059-15.059-15.059H102.4V134.777h307.2v216.847H102.4
	V334.767z M481.882,404.937c0,11.29-9.186,20.475-20.475,20.475H50.593c-11.29,0-20.475-9.186-20.475-20.475v-23.195h9.035h48.188
	h337.318h48.188h9.035V404.937z"/>
<path d="M362.918,334.767c-0.979,0-1.974-0.105-2.952-0.301c-0.949-0.196-1.897-0.482-2.816-0.858
	c-0.905-0.376-1.777-0.843-2.59-1.385c-0.83-0.541-1.598-1.175-2.29-1.867c-0.708-0.693-1.325-1.461-1.882-2.289
	c-0.542-0.813-1.009-1.687-1.385-2.59c-0.376-0.919-0.663-1.867-0.858-2.831c-0.196-0.965-0.285-1.959-0.285-2.936
	c0-0.979,0.09-1.974,0.285-2.936c0.194-0.962,0.482-1.914,0.858-2.816c0.376-0.919,0.843-1.792,1.385-2.604
	c0.557-0.83,1.175-1.598,1.882-2.29c3.494-3.494,8.69-5.105,13.585-4.11c0.964,0.179,1.912,0.48,2.814,0.857
	c0.919,0.376,1.792,0.845,2.605,1.385c0.828,0.542,1.596,1.175,2.289,1.867c0.694,0.693,1.327,1.461,1.867,2.29
	c0.542,0.812,1.009,1.685,1.385,2.604c0.376,0.904,0.663,1.852,0.858,2.816c0.196,0.964,0.301,1.958,0.301,2.936
	c0,0.977-0.105,1.973-0.301,2.936c-0.196,0.964-0.482,1.912-0.858,2.831c-0.376,0.904-0.843,1.777-1.385,2.59
	c-0.541,0.828-1.173,1.596-1.867,2.289c-0.693,0.693-1.461,1.327-2.289,1.867c-0.813,0.542-1.687,1.009-2.605,1.385
	c-0.904,0.376-1.851,0.663-2.814,0.858C364.89,334.662,363.895,334.767,362.918,334.767z"/>
<rect x="134.4" y="221.531" style="fill:#FF5050;" width="49.087" height="51.2"/>
<path d="M183.48,287.793h-49.089c-8.315,0-15.059-6.743-15.059-15.059v-51.2c0-8.315,6.743-15.059,15.059-15.059h49.089
	c8.315,0,15.059,6.743,15.059,15.059v51.2C198.539,281.05,191.795,287.793,183.48,287.793z M149.45,257.675h18.971v-21.082H149.45
	V257.675z"/>
<rect x="231.454" y="170.331" style="fill:#FFDC64;" width="49.087" height="102.4"/>
<path d="M280.544,287.793h-49.089c-8.315,0-15.059-6.743-15.059-15.059v-102.4c0-8.315,6.743-15.059,15.059-15.059h49.089
	c8.315,0,15.059,6.743,15.059,15.059v102.4C295.603,281.05,288.86,287.793,280.544,287.793z M246.514,257.675h18.971v-72.282
	h-18.971L246.514,257.675L246.514,257.675z"/>
<rect x="328.523" y="170.331" style="fill:#FF5050;" width="49.087" height="102.4"/>
<path d="M377.609,287.793H328.52c-8.315,0-15.059-6.743-15.059-15.059v-102.4c0-8.315,6.743-15.059,15.059-15.059h49.089
	c8.315,0,15.059,6.743,15.059,15.059v102.4C392.668,281.05,385.925,287.793,377.609,287.793z M343.579,257.675h18.971v-72.282
	h-18.971V257.675L343.579,257.675z"/>
<g>
</g>
<g>
</g>
<g>
</g>
<g>
</g>
<g>
</g>
<g>
</g>
<g>
</g>
<g>
</g>
<g>
</g>
<g>
</g>
<g>
</g>
<g>
</g>
<g>
</g>
<g>
</g>
<g>
</g>
</svg>
