<?xml version="1.0" encoding="iso-8859-1"?>
<!-- Generator: Adobe Illustrator 19.0.0, SVG Export Plug-In . SVG Version: 6.00 Build 0)  -->
<svg version="1.1" id="Layer_1" xmlns="http://www.w3.org/2000/svg" xmlns:xlink="http://www.w3.org/1999/xlink" x="0px" y="0px"
	 viewBox="0 0 512 512" style="enable-background:new 0 0 512 512;" xml:space="preserve">
<g>
	<path style="fill:#FFDC64;" d="M88.955,204.474c18.558-39.142,50.464-70.719,89.843-88.856c-1.281-1.551-2.639-3.06-4.09-4.511
		c-11.985-11.984-27.917-18.583-44.864-18.583c-16.949,0-32.882,6.6-44.864,18.583c-24.738,24.738-24.738,64.99,0,89.728
		C86.258,202.115,87.59,203.318,88.955,204.474z"/>
	<path style="fill:#FFDC64;" d="M71.227,283.526c0-22.731,4.114-44.499,11.623-64.613c-1.737-0.143-3.487-0.236-5.261-0.236
		c-34.986,0-63.447,28.463-63.447,63.447c0,34.986,28.463,63.447,63.447,63.447c1.44,0,2.865-0.065,4.281-0.161
		C74.991,326.064,71.227,305.238,71.227,283.526z"/>
	<path style="fill:#FFDC64;" d="M171.06,447.653c-36.468-18.911-65.815-49.628-83.025-87.078c-1.041,0.915-2.067,1.854-3.056,2.842
		c-24.738,24.739-24.738,64.99,0,89.728c11.984,11.984,27.915,18.583,44.864,18.583c16.947,0,32.88-6.6,44.864-18.583
		c1.755-1.754,3.37-3.595,4.876-5.494h-8.523V447.653z"/>
	<path style="fill:#FFDC64;" d="M427.018,363.418c-0.989-0.989-2.015-1.928-3.056-2.842c-17.21,37.45-46.557,68.166-83.025,87.078
		h-8.525c1.506,1.899,3.121,3.74,4.876,5.494c11.985,11.984,27.917,18.583,44.864,18.583c16.949,0,32.882-6.6,44.864-18.583
		C451.756,428.408,451.756,388.157,427.018,363.418z"/>
	<path style="fill:#FFDC64;" d="M434.41,218.679c-1.773,0-3.524,0.092-5.261,0.236c7.509,20.113,11.623,41.88,11.623,64.613
		c0,21.711-3.764,42.538-10.643,61.888c1.416,0.095,2.841,0.161,4.281,0.161c34.986,0,63.447-28.463,63.447-63.447
		C497.857,247.142,469.394,218.679,434.41,218.679z"/>
	<path style="fill:#FFDC64;" d="M423.043,204.474c1.365-1.154,2.697-2.357,3.975-3.637c24.738-24.739,24.738-64.99,0-89.728
		c-11.984-11.984-27.915-18.583-44.864-18.583c-16.947,0-32.88,6.6-44.864,18.583c-1.451,1.451-2.809,2.958-4.09,4.51
		C372.58,133.755,404.486,165.33,423.043,204.474z"/>
	<path style="fill:#FFDC64;" d="M255.999,98.755c22.18,0,43.444,3.912,63.148,11.077c0.194-2.012,0.3-4.052,0.3-6.113
		c0-34.986-28.463-63.447-63.447-63.447s-63.447,28.461-63.447,63.446c0,2.063,0.107,4.101,0.3,6.113
		C212.554,102.666,233.819,98.755,255.999,98.755z"/>
</g>
<path style="fill:#A2A8D3;" d="M381.377,283.528c0-69.134-56.244-125.379-125.379-125.379S130.62,214.394,130.62,283.528
	c0,42.606,21.311,81.642,56.404,104.731h137.949C360.066,365.17,381.377,326.134,381.377,283.528z"/>
<path d="M324.974,402.4H187.025c-2.762,0-5.464-0.809-7.772-2.328c-39.308-25.862-62.774-69.431-62.774-116.546
	c0-76.931,62.589-139.52,139.52-139.52s139.52,62.589,139.52,139.52c0,47.115-23.466,90.684-62.774,116.546
	C330.438,401.591,327.736,402.4,324.974,402.4z M191.397,374.117h129.204c29.277-20.842,46.636-54.402,46.636-90.591
	c0-61.337-49.901-111.237-111.237-111.237S144.763,222.19,144.763,283.526C144.761,319.716,162.12,353.275,191.397,374.117z"/>
<path d="M324.813,297.669c-7.809,0-14.149-6.331-14.149-14.142s6.326-14.142,14.134-14.142h0.014
	c7.809,0,14.142,6.331,14.142,14.142S332.622,297.669,324.813,297.669z"/>
<path style="fill:#A2A8D3;" d="M187.186,283.528c0-37.943,30.87-68.813,68.813-68.813c17.796,0,34.034,6.789,46.263,17.914
	c3.145,2.861,6.024,6.009,8.597,9.401"/>
<path d="M187.186,297.669c-7.809,0-14.142-6.331-14.142-14.142c0-45.741,37.212-82.954,82.954-82.954
	c20.664,0,40.473,7.67,55.778,21.597c3.781,3.438,7.263,7.248,10.35,11.317c4.719,6.224,3.499,15.093-2.725,19.812
	c-6.224,4.719-15.093,3.499-19.814-2.724c-2.039-2.691-4.343-5.21-6.844-7.485c-10.09-9.179-23.138-14.235-36.747-14.235
	c-30.146,0-54.671,24.526-54.671,54.671C201.327,291.338,194.996,297.669,187.186,297.669z"/>
<path style="fill:#7BFFCD;" d="M255.999,98.755c-102.047,0-184.773,82.725-184.773,184.773c0,71.422,40.527,133.37,99.835,164.125
	h169.877c59.308-30.755,99.835-92.705,99.835-164.125C440.772,181.48,358.047,98.755,255.999,98.755z M324.974,388.259H187.025
	c-35.092-23.089-56.404-62.125-56.404-104.731c0-69.134,56.244-125.379,125.379-125.379s125.379,56.245,125.379,125.379
	C381.377,326.134,360.066,365.17,324.974,388.259z"/>
<path d="M512,282.128c0-40.105-30.585-73.201-69.657-77.187c24.807-30.445,23.032-75.475-5.324-103.831
	c-14.652-14.656-34.138-22.727-54.865-22.727c-18.059,0-35.171,6.132-48.969,17.401c-3.987-39.07-37.082-69.656-77.186-69.656
	s-73.199,30.585-77.186,69.656c-13.801-11.269-30.912-17.4-48.969-17.4c-20.724,0-40.21,8.072-54.864,22.725
	c-28.358,28.359-30.133,73.39-5.327,103.833C30.585,208.928,0,242.024,0,282.128c0,40.105,30.585,73.199,69.656,77.186
	c-24.807,30.445-23.032,75.475,5.326,103.833c14.653,14.655,34.138,22.725,54.864,22.725c20.724,0,40.21-8.071,54.862-22.723
	c0.44-0.44,0.878-0.895,1.314-1.355h139.997c0.426,0.448,0.844,0.923,1.274,1.353c14.655,14.653,34.139,22.724,54.863,22.724
	c20.727,0,40.213-8.071,54.863-22.725c28.357-28.358,30.133-73.387,5.326-103.833C481.413,355.327,512,322.233,512,282.128z
	 M343.276,430.164c-1.93,1.153-3.883,2.27-5.86,3.347H174.582c-1.971-1.073-3.917-2.186-5.84-3.336
	c-0.161-0.096-0.32-0.198-0.481-0.294c-29.337-17.653-53.042-44.024-67.376-75.212c-0.1-0.219-0.226-0.42-0.337-0.632
	c-1.905-4.209-3.646-8.495-5.207-12.859c-0.052-0.167-0.088-0.337-0.146-0.501c-2.421-6.809-4.395-13.743-5.925-20.771
	c-0.023-0.107-0.049-0.215-0.072-0.324c-0.98-4.544-1.766-9.128-2.372-13.744c-0.069-0.535-0.127-1.072-0.191-1.608
	c-0.202-1.667-0.382-3.339-0.535-5.015c-0.066-0.727-0.129-1.455-0.185-2.183c-0.124-1.578-0.222-3.161-0.303-4.744
	c-0.035-0.684-0.078-1.367-0.105-2.055c-0.086-2.23-0.141-4.466-0.141-6.706c0-1.392,0.02-2.777,0.052-4.16
	c0.01-0.397,0.027-0.795,0.04-1.192c0.031-1.003,0.066-2.002,0.115-3.001c0.02-0.424,0.047-0.847,0.071-1.271
	c0.055-0.993,0.116-1.984,0.189-2.971c0.028-0.379,0.058-0.757,0.088-1.134c0.086-1.076,0.181-2.15,0.287-3.22
	c0.027-0.274,0.054-0.549,0.082-0.822c0.13-1.249,0.272-2.495,0.428-3.735c0.011-0.093,0.023-0.188,0.034-0.281
	c9.995-78.08,72.969-139.824,151.614-147.936c0.214-0.023,0.426-0.041,0.639-0.062c1.113-0.11,2.229-0.209,3.347-0.298
	c0.376-0.03,0.754-0.058,1.13-0.085c0.969-0.071,1.942-0.132,2.915-0.185c0.447-0.025,0.895-0.051,1.342-0.072
	c0.943-0.045,1.888-0.078,2.835-0.107c0.444-0.014,0.887-0.033,1.331-0.042c1.243-0.03,2.489-0.045,3.738-0.048
	c0.117,0,0.235-0.004,0.354-0.004s0.235,0.003,0.354,0.004c1.249,0.003,2.496,0.018,3.738,0.048c0.444,0.01,0.888,0.03,1.331,0.042
	c0.947,0.03,1.892,0.062,2.835,0.107c0.448,0.021,0.895,0.048,1.342,0.072c0.973,0.054,1.946,0.115,2.915,0.185
	c0.376,0.027,0.754,0.055,1.13,0.085c1.119,0.089,2.236,0.188,3.349,0.298c0.214,0.021,0.426,0.041,0.639,0.062
	c78.645,8.11,141.618,69.856,151.613,147.936c0.013,0.093,0.023,0.188,0.034,0.281c0.157,1.24,0.298,2.486,0.428,3.735
	c0.028,0.274,0.055,0.547,0.082,0.822c0.106,1.071,0.201,2.144,0.287,3.22c0.03,0.378,0.061,0.757,0.088,1.134
	c0.072,0.988,0.133,1.978,0.19,2.971c0.024,0.424,0.049,0.847,0.071,1.271c0.048,0.997,0.083,1.998,0.115,3.001
	c0.013,0.397,0.03,0.795,0.04,1.192c0.034,1.383,0.052,2.77,0.052,4.16c0,2.24-0.055,4.476-0.141,6.706
	c-0.027,0.687-0.069,1.37-0.105,2.056c-0.081,1.582-0.178,3.163-0.301,4.74c-0.057,0.731-0.119,1.461-0.185,2.191
	c-0.153,1.674-0.332,3.344-0.535,5.01c-0.065,0.536-0.122,1.075-0.191,1.609c-0.604,4.616-1.39,9.201-2.372,13.744
	c-0.023,0.109-0.048,0.215-0.072,0.324c-1.53,7.027-3.504,13.961-5.925,20.77c-0.059,0.165-0.093,0.335-0.146,0.501
	c-1.56,4.364-3.302,8.652-5.207,12.859c-0.11,0.212-0.236,0.414-0.337,0.632c-14.344,31.206-38.068,57.591-67.43,75.244
	C343.547,429.996,343.413,430.082,343.276,430.164z M382.154,106.665c13.17,0,25.552,5.128,34.863,14.443
	c15.766,15.765,18.602,39.642,8.506,58.328c-16.763-27.246-39.902-50.128-67.328-66.584
	C365.44,108.813,373.632,106.665,382.154,106.665z M255.999,54.411c22.542,0,41.602,15.206,47.455,35.901
	c-0.752-0.184-1.51-0.344-2.265-0.519c-0.26-0.061-0.52-0.119-0.781-0.178c-1.401-0.32-2.806-0.631-4.214-0.921
	c-0.25-0.051-0.503-0.098-0.755-0.148c-4.097-0.826-8.222-1.519-12.37-2.084c-0.728-0.099-1.454-0.205-2.183-0.296
	c-0.953-0.119-1.909-0.223-2.864-0.328c-0.918-0.102-1.837-0.201-2.759-0.29c-0.868-0.083-1.738-0.16-2.608-0.232
	c-1.048-0.088-2.097-0.164-3.149-0.235c-0.775-0.052-1.548-0.105-2.325-0.148c-1.24-0.069-2.483-0.12-3.729-0.167
	c-0.607-0.023-1.212-0.052-1.819-0.069c-1.871-0.052-3.747-0.085-5.631-0.085c-1.884,0-3.76,0.033-5.631,0.085
	c-0.607,0.017-1.212,0.047-1.819,0.069c-1.246,0.047-2.489,0.098-3.729,0.167c-0.775,0.042-1.55,0.096-2.323,0.148
	c-1.052,0.071-2.103,0.148-3.151,0.235c-0.87,0.072-1.739,0.148-2.608,0.232c-0.922,0.089-1.841,0.188-2.759,0.29
	c-0.956,0.105-1.911,0.209-2.864,0.328c-0.73,0.092-1.457,0.197-2.183,0.296c-4.148,0.564-8.271,1.259-12.37,2.083
	c-0.252,0.051-0.505,0.098-0.755,0.148c-1.408,0.29-2.813,0.6-4.214,0.921c-0.26,0.059-0.52,0.117-0.781,0.178
	c-0.755,0.175-1.513,0.335-2.265,0.519C214.397,69.617,233.457,54.411,255.999,54.411z M94.98,121.108
	c9.312-9.312,21.693-14.441,34.863-14.441c8.522,0,16.714,2.148,23.959,6.187c-27.428,16.457-50.566,39.339-67.328,66.584
	C76.377,160.752,79.214,136.876,94.98,121.108z M28.283,282.128c0-22.13,14.655-40.902,34.77-47.12
	c-0.231,0.919-0.433,1.845-0.649,2.768c-0.112,0.469-0.223,0.939-0.331,1.41c-0.273,1.196-0.535,2.397-0.786,3.599
	c-0.124,0.598-0.245,1.198-0.363,1.797c-0.229,1.151-0.457,2.304-0.665,3.46c-0.117,0.652-0.223,1.308-0.334,1.961
	c-0.317,1.858-0.605,3.722-0.868,5.59c-0.132,0.935-0.27,1.867-0.389,2.804c-0.112,0.882-0.205,1.769-0.304,2.654
	c-0.113,1.001-0.225,2.004-0.324,3.009c-0.082,0.846-0.154,1.693-0.226,2.54c-0.092,1.079-0.174,2.161-0.249,3.245
	c-0.054,0.782-0.105,1.565-0.15,2.349c-0.069,1.233-0.123,2.471-0.17,3.709c-0.024,0.645-0.055,1.288-0.074,1.933
	c-0.054,1.889-0.086,3.786-0.086,5.688c0,2.148,0.042,4.291,0.11,6.43c0.023,0.711,0.061,1.418,0.092,2.127
	c0.061,1.424,0.13,2.847,0.221,4.267c0.054,0.853,0.117,1.703,0.182,2.553c0.096,1.26,0.205,2.517,0.325,3.773
	c0.089,0.929,0.178,1.857,0.28,2.782c0.124,1.126,0.266,2.249,0.409,3.371c0.13,1.027,0.255,2.055,0.4,3.077
	c0.106,0.744,0.232,1.485,0.348,2.227c0.774,5.015,1.731,9.977,2.875,14.881C42.587,322.575,28.283,303.991,28.283,282.128z
	 M129.843,457.589c-13.17,0-25.551-5.128-34.863-14.44c-15.32-15.32-18.425-38.294-9.331-56.723
	c16.062,26.592,38.393,49.394,65.666,66.255c0.006,0.003,0.01,0.007,0.016,0.01C144.717,455.895,137.41,457.589,129.843,457.589z
	 M417.018,443.149c-9.311,9.311-21.692,14.44-34.863,14.44c-7.567,0-14.874-1.693-21.487-4.9c0.006-0.003,0.01-0.007,0.016-0.01
	c27.273-16.861,49.603-39.661,65.666-66.255C435.443,404.854,432.338,427.828,417.018,443.149z M449.671,329.017
	c1.144-4.903,2.101-9.867,2.875-14.881c0.116-0.742,0.24-1.483,0.348-2.227c0.146-1.022,0.27-2.051,0.4-3.077
	c0.143-1.123,0.284-2.246,0.409-3.371c0.102-0.926,0.191-1.854,0.28-2.782c0.12-1.256,0.229-2.514,0.325-3.773
	c0.065-0.85,0.129-1.7,0.182-2.553c0.091-1.42,0.16-2.842,0.221-4.267c0.03-0.71,0.069-1.417,0.092-2.127
	c0.068-2.14,0.11-4.284,0.11-6.43c0-1.902-0.033-3.798-0.086-5.688c-0.018-0.646-0.049-1.288-0.074-1.933
	c-0.047-1.239-0.1-2.475-0.17-3.708c-0.044-0.785-0.096-1.568-0.15-2.35c-0.074-1.083-0.157-2.164-0.247-3.243
	c-0.072-0.849-0.144-1.697-0.226-2.543c-0.098-1.004-0.209-2.004-0.322-3.004c-0.1-0.887-0.194-1.775-0.305-2.66
	c-0.117-0.929-0.255-1.851-0.385-2.776c-0.264-1.882-0.557-3.759-0.875-5.631c-0.11-0.649-0.215-1.3-0.331-1.946
	c-0.209-1.158-0.437-2.314-0.666-3.467c-0.119-0.597-0.238-1.194-0.362-1.789c-0.25-1.203-0.513-2.404-0.786-3.603
	c-0.107-0.469-0.219-0.938-0.329-1.407c-0.218-0.923-0.42-1.85-0.651-2.77c20.116,6.218,34.771,24.99,34.771,47.12
	C483.717,303.992,469.414,322.577,449.671,329.017z"/>
<path d="M255.999,144.007c-76.931,0-139.52,62.589-139.52,139.52c0,47.115,23.466,90.684,62.774,116.546
	c2.308,1.519,5.01,2.328,7.772,2.328h137.949c2.762,0,5.464-0.809,7.772-2.328c39.308-25.862,62.774-69.431,62.774-116.546
	C395.52,206.595,332.931,144.007,255.999,144.007z M320.601,374.117H191.397c-29.277-20.842-46.636-54.402-46.636-90.591
	c0-61.337,49.901-111.237,111.237-111.237s111.237,49.901,111.237,111.237C367.237,319.716,349.879,353.275,320.601,374.117z"/>
<g>
</g>
<g>
</g>
<g>
</g>
<g>
</g>
<g>
</g>
<g>
</g>
<g>
</g>
<g>
</g>
<g>
</g>
<g>
</g>
<g>
</g>
<g>
</g>
<g>
</g>
<g>
</g>
<g>
</g>
</svg>
