<?xml version="1.0" encoding="iso-8859-1"?>
<!-- Generator: Adobe Illustrator 19.0.0, SVG Export Plug-In . SVG Version: 6.00 Build 0)  -->
<svg version="1.1" id="Layer_1" xmlns="http://www.w3.org/2000/svg" xmlns:xlink="http://www.w3.org/1999/xlink" x="0px" y="0px"
	 viewBox="0 0 512 512" style="enable-background:new 0 0 512 512;" xml:space="preserve">
<circle style="fill:#7BFFCD;" cx="400.142" cy="163.701" r="96.953"/>
<circle style="fill:#A2A8D3;" cx="400.142" cy="163.701" r="42.464"/>
<path d="M400.142,221.075c-31.635,0-57.373-25.737-57.373-57.373s25.737-57.371,57.373-57.371s57.373,25.737,57.373,57.371
	C457.515,195.339,431.778,221.075,400.142,221.075z M400.142,136.149c-15.194,0-27.555,12.361-27.555,27.553
	c0,15.194,12.361,27.555,27.555,27.555s27.555-12.361,27.555-27.555C427.697,148.51,415.336,136.149,400.142,136.149z"/>
<path d="M14.909,178.607c-0.969,0-1.953-0.091-2.907-0.283s-1.893-0.476-2.788-0.848c-0.895-0.373-1.759-0.836-2.579-1.372
	c-0.805-0.552-1.58-1.163-2.266-1.864c-0.686-0.687-1.312-1.448-1.849-2.268c-0.537-0.805-0.999-1.67-1.372-2.564
	c-0.373-0.909-0.656-1.849-0.85-2.788C0.104,165.651,0,164.682,0,163.698c0-0.969,0.104-1.955,0.298-2.907s0.477-1.893,0.85-2.788
	c0.373-0.908,0.835-1.773,1.372-2.578c0.537-0.821,1.163-1.582,1.849-2.268c0.686-0.686,1.461-1.312,2.266-1.849
	c0.82-0.535,1.685-0.999,2.579-1.372c0.895-0.373,1.834-0.655,2.788-0.848c1.923-0.389,3.906-0.389,5.829,0
	c0.939,0.194,1.879,0.476,2.788,0.848c0.895,0.373,1.759,0.836,2.564,1.372c0.82,0.537,1.58,1.163,2.281,1.849
	c0.686,0.686,1.297,1.446,1.849,2.268c0.537,0.805,0.999,1.67,1.372,2.578c0.373,0.896,0.656,1.834,0.85,2.788
	c0.194,0.954,0.283,1.938,0.283,2.907c0,0.968-0.089,1.953-0.283,2.922c-0.194,0.939-0.477,1.879-0.85,2.788
	c-0.373,0.895-0.835,1.759-1.372,2.564c-0.552,0.82-1.163,1.58-1.849,2.268c-0.701,0.701-1.461,1.312-2.281,1.864
	c-0.805,0.535-1.67,0.999-2.564,1.372c-0.909,0.373-1.849,0.655-2.788,0.848C16.862,178.517,15.878,178.607,14.909,178.607z"/>
<circle style="fill:#7BFFCD;" cx="302.22" cy="348.304" r="96.953"/>
<circle style="fill:#A2A8D3;" cx="302.22" cy="348.304" r="42.464"/>
<path d="M302.22,405.669c-15.325,0-29.732-5.967-40.569-16.804c-10.836-10.837-16.804-25.245-16.804-40.569
	s5.968-29.732,16.804-40.569c10.837-10.837,25.244-16.804,40.569-16.804c15.325,0,29.733,5.968,40.569,16.804
	c10.836,10.837,16.804,25.245,16.804,40.569s-5.968,29.732-16.804,40.569C331.953,399.701,317.547,405.669,302.22,405.669z
	 M302.22,320.743c-7.361,0-14.28,2.865-19.483,8.07c-10.743,10.743-10.743,28.224,0,38.968c5.205,5.205,12.124,8.07,19.483,8.07
	c7.359,0,14.28-2.866,19.483-8.07c10.743-10.743,10.743-28.224,0-38.968C316.5,323.609,309.581,320.743,302.22,320.743z"/>
<path d="M512,163.702c0-61.678-50.179-111.856-111.856-111.856c-56.62,0-103.518,42.297-110.833,96.947H123.803l-51.81-51.81
	c-5.823-5.819-15.262-5.819-21.084,0c-5.822,5.822-5.822,15.262,0,21.086l30.724,30.724H59.642c-8.234,0-14.909,6.676-14.909,14.909
	c0,8.233,6.675,14.909,14.909,14.909h51.809l101.857,101.857c-33.469,43.818-30.216,106.886,9.819,146.924
	c21.128,21.128,49.218,32.763,79.095,32.763c29.879,0,57.968-11.635,79.095-32.763c41.835-41.836,43.513-108.819,5.09-152.707
	c4.505,0.555,9.084,0.874,13.737,0.874C461.821,275.558,512,225.381,512,163.702z M289.291,178.611
	c2.991,22.307,12.582,42.547,26.735,58.701c-4.549-0.556-9.151-0.872-13.806-0.872c-24.847,0-48.442,8.07-67.84,22.932l-80.76-80.76
	H289.291z M360.231,406.307c-15.495,15.496-36.096,24.029-58.009,24.029c-21.913,0-42.514-8.534-58.009-24.029
	c-31.987-31.986-31.987-84.033,0-116.019c15.495-15.496,36.096-24.029,58.009-24.029c21.913,0,42.516,8.534,58.009,24.029
	C392.218,322.273,392.218,374.321,360.231,406.307z M318.104,163.702c0-45.237,36.803-82.038,82.038-82.038
	c45.237,0,82.038,36.803,82.038,82.038s-36.803,82.038-82.038,82.038S318.104,208.939,318.104,163.702z"/>
<path d="M29.818,90.806c-0.969,0-1.953-0.089-2.907-0.282s-1.893-0.477-2.788-0.85c-0.909-0.373-1.774-0.835-2.579-1.372
	c-0.82-0.552-1.58-1.178-2.266-1.864c-0.686-0.686-1.312-1.446-1.849-2.266c-0.537-0.805-0.999-1.67-1.372-2.566
	c-0.373-0.908-0.656-1.847-0.85-2.786c-0.194-0.969-0.298-1.955-0.298-2.924c0-0.968,0.104-1.953,0.298-2.906
	c0.194-0.956,0.477-1.895,0.85-2.803c0.373-0.896,0.835-1.761,1.372-2.566c0.537-0.82,1.163-1.58,1.849-2.266
	s1.446-1.312,2.266-1.849c0.805-0.537,1.67-0.999,2.579-1.372c0.895-0.373,1.834-0.671,2.788-0.85c1.923-0.403,3.906-0.403,5.829,0
	c0.954,0.179,1.893,0.477,2.788,0.85c0.895,0.373,1.759,0.835,2.579,1.372c0.805,0.537,1.565,1.163,2.266,1.849
	c0.686,0.686,1.297,1.446,1.849,2.266c0.537,0.805,0.999,1.67,1.372,2.566c0.373,0.908,0.656,1.847,0.85,2.803
	c0.194,0.954,0.283,1.938,0.283,2.906c0,0.969-0.089,1.955-0.283,2.924c-0.194,0.939-0.477,1.879-0.85,2.786
	c-0.373,0.896-0.835,1.761-1.372,2.566c-0.552,0.82-1.163,1.58-1.849,2.266c-0.701,0.686-1.461,1.312-2.266,1.864
	c-0.82,0.537-1.685,0.999-2.579,1.372s-1.834,0.656-2.788,0.85C31.771,90.718,30.787,90.806,29.818,90.806z"/>
<g>
</g>
<g>
</g>
<g>
</g>
<g>
</g>
<g>
</g>
<g>
</g>
<g>
</g>
<g>
</g>
<g>
</g>
<g>
</g>
<g>
</g>
<g>
</g>
<g>
</g>
<g>
</g>
<g>
</g>
</svg>
