<?xml version="1.0" encoding="iso-8859-1"?>
<!-- Generator: Adobe Illustrator 19.0.0, SVG Export Plug-In . SVG Version: 6.00 Build 0)  -->
<svg version="1.1" id="Layer_1" xmlns="http://www.w3.org/2000/svg" xmlns:xlink="http://www.w3.org/1999/xlink" x="0px" y="0px"
	 viewBox="0 0 512 512" style="enable-background:new 0 0 512 512;" xml:space="preserve">
<polygon style="fill:#F96232;" points="64.768,349.659 35.072,496.39 426.605,496.39 396.909,349.659 "/>
<polygon style="fill:#FFDC64;" points="332.947,15.61 128.73,15.61 64.768,349.659 396.909,349.659 "/>
<path d="M230.837,78.049c-1.015,0-2.046-0.109-3.044-0.312c-0.999-0.187-1.982-0.5-2.919-0.89c-0.951-0.39-1.856-0.874-2.699-1.436
	c-0.859-0.56-1.656-1.216-2.374-1.936c-0.718-0.718-1.374-1.514-1.936-2.373c-0.56-0.843-1.046-1.748-1.436-2.7
	c-0.39-0.937-0.701-1.918-0.888-2.917c-0.203-1.001-0.312-2.031-0.312-3.044c0-1.015,0.109-2.046,0.312-3.06
	c0.187-0.983,0.498-1.967,0.888-2.919c0.39-0.938,0.876-1.842,1.436-2.685c0.562-0.86,1.218-1.656,1.936-2.374
	c0.718-0.718,1.516-1.374,2.374-1.936c0.843-0.578,1.748-1.046,2.699-1.436c0.938-0.39,1.92-0.702,2.919-0.888
	c2.014-0.407,4.09-0.407,6.088,0c0.999,0.186,1.982,0.498,2.919,0.888c0.951,0.39,1.856,0.859,2.699,1.436
	c0.859,0.562,1.656,1.218,2.374,1.936c0.718,0.718,1.374,1.514,1.934,2.374c0.578,0.843,1.046,1.747,1.436,2.685
	c0.39,0.952,0.702,1.936,0.905,2.919c0.187,1.013,0.297,2.045,0.297,3.06c0,1.013-0.109,2.045-0.297,3.044
	c-0.203,0.999-0.515,1.982-0.905,2.917c-0.39,0.952-0.859,1.858-1.436,2.7c-0.56,0.859-1.216,1.655-1.934,2.373
	c-0.718,0.72-1.516,1.375-2.374,1.936c-0.843,0.562-1.748,1.046-2.699,1.436c-0.938,0.39-1.92,0.702-2.919,0.89
	C232.882,77.94,231.851,78.049,230.837,78.049z"/>
<circle style="fill:#7BFFCD;" cx="437.9" cy="95.703" r="39.024"/>
<path d="M416.919,146.146c6.466,2.701,13.552,4.197,20.984,4.197c30.125,0,54.634-24.509,54.634-54.634
	c0-11.372-3.497-21.941-9.464-30.695l3.689-4.524c5.448-6.681,4.449-16.514-2.234-21.961s-16.514-4.449-21.961,2.234l-3.678,4.511
	c-6.466-2.699-13.552-4.197-20.984-4.197c-30.125,0-54.634,24.509-54.634,54.634c0,11.372,3.497,21.941,9.464,30.695l-18.368,22.526
	l-26.09-136.258C346.869,5.318,340.436,0,332.947,0H128.73c-7.49,0-13.922,5.318-15.33,12.674L49.469,346.56c0,0,0,0.002,0,0.003
	L19.773,493.295c-0.929,4.589,0.253,9.353,3.219,12.978C25.954,509.897,30.39,512,35.073,512h391.533
	c4.683,0,9.119-2.103,12.082-5.727c2.964-3.625,4.146-8.389,3.219-12.978l-29.696-146.732v-0.002l-30.18-157.623L416.919,146.146z
	 M437.903,72.295c12.911,0,23.415,10.504,23.415,23.415s-10.504,23.415-23.415,23.415s-23.415-10.504-23.415-23.415
	S424.992,72.295,437.903,72.295z M141.635,31.22h178.409l28.583,149.282L246.448,305.814V109.268c0-8.62-6.99-15.61-15.61-15.61
	c-8.62,0-15.61,6.99-15.61,15.61v224.78H83.651L141.635,31.22z M54.156,480.78l23.379-115.512h306.607l23.379,115.512H54.156z
	 M378.026,334.049H263.708l92.578-113.541L378.026,334.049z"/>
<g>
</g>
<g>
</g>
<g>
</g>
<g>
</g>
<g>
</g>
<g>
</g>
<g>
</g>
<g>
</g>
<g>
</g>
<g>
</g>
<g>
</g>
<g>
</g>
<g>
</g>
<g>
</g>
<g>
</g>
</svg>
