<?xml version="1.0" encoding="iso-8859-1"?>
<!-- Generator: Adobe Illustrator 19.0.0, SVG Export Plug-In . SVG Version: 6.00 Build 0)  -->
<svg version="1.1" id="Layer_1" xmlns="http://www.w3.org/2000/svg" xmlns:xlink="http://www.w3.org/1999/xlink" x="0px" y="0px"
	 viewBox="0 0 512 512" style="enable-background:new 0 0 512 512;" xml:space="preserve">
<path style="fill:#7BFFCD;" d="M444.263,322.114c-15.128,15.128-32.26,26.992-50.565,35.583
	c-66.684,31.403-148.676,19.537-203.796-35.583s-66.986-137.112-35.583-203.796c8.591-18.305,20.456-35.438,35.583-50.565
	c14.45-14.45,30.739-25.929,48.125-34.424c67.12-32.852,150.441-21.373,206.238,34.424c55.785,55.785,67.276,139.07,34.448,206.19
	C470.206,291.34,458.727,307.651,444.263,322.114z"/>
<path style="fill:#FFDC64;" d="M189.901,322.114c-11.001-11.001-20.248-23.084-27.803-35.89L27.552,420.77
	c-16.713,16.714-16.713,43.811,0,60.524l3.169,3.168c16.713,16.713,43.811,16.713,60.524,0l134.546-134.546
	C212.985,342.362,200.901,333.115,189.901,322.114z"/>
<path style="fill:#FF5050;" d="M444.263,322.114c-15.128,15.128-32.26,26.992-50.565,35.583l-1.909-12.59l-65.113-9.848
	l-9.848-65.113l-65.113-9.848l-9.848-65.114l-65.126-9.86l-9.848-65.113l-12.578-1.897c8.591-18.305,20.456-35.438,35.583-50.565
	c14.45-14.45,30.739-25.929,48.125-34.424c1.849,1.825,3.045,2.996,3.057,2.985l1.281,8.433l65.113,9.848l9.86,65.125l65.113,9.848
	l9.848,65.113l65.113,9.848l9.848,65.113l8.493,1.293c-0.012,0.012,1.147,1.197,2.96,3.009
	C470.206,291.34,458.727,307.651,444.263,322.114z"/>
<path d="M454.881,57.134C395.985-1.763,306.186-16.751,231.434,19.836c-19.272,9.417-36.821,21.965-52.151,37.298
	c-2.326,2.326-4.568,4.717-6.763,7.14c-12.958,14.309-23.644,30.29-31.787,47.645c-0.002,0.005-0.005,0.009-0.006,0.014
	c-0.001,0.001-0.001,0.003-0.003,0.006l-0.002,0.006c-26.052,55.344-23.997,118.832,2.844,171.575L16.934,410.152
	C6.014,421.07,0,435.59,0,451.033c0,15.442,6.014,29.961,16.934,40.883l3.167,3.165c11.271,11.271,26.073,16.906,40.881,16.906
	c14.803,0,29.611-5.637,40.881-16.906l126.633-126.632c27.587,14.041,58.108,21.309,88.873,21.309
	c28.057,0,56.314-6.038,82.707-18.467c20.31-9.533,38.75-22.504,54.805-38.558c0.002,0,0.002,0,0.002,0
	c3.831-3.832,7.487-7.801,10.967-11.904c10.437-12.308,19.271-25.806,26.353-40.291C528.76,205.794,513.761,116.014,454.881,57.134z
	 M433.643,78.37c41.425,41.423,57.146,100.919,43.488,156.144l-4.874-32.233c-0.984-6.51-6.094-11.618-12.603-12.603l-54.165-8.192
	l-8.192-54.165c-0.984-6.51-6.094-11.618-12.603-12.603l-54.168-8.192l-8.202-54.181c-0.985-6.508-6.095-11.615-12.603-12.6
	l-32.23-4.874c13.022-3.221,26.279-4.823,39.485-4.823C359.768,30.048,401.987,46.712,433.643,78.37z M202.155,352.317
	L80.627,473.845c-10.833,10.834-28.456,10.833-39.289-0.001l-3.167-3.166c-5.248-5.247-8.137-12.224-8.137-19.645
	c0-7.42,2.889-14.396,8.136-19.643l121.528-121.528c2.631,3.599,5.403,7.094,8.273,10.504c0.333,0.396,0.652,0.805,0.988,1.2
	c1.111,1.299,2.262,2.565,3.406,3.834c0.556,0.617,1.09,1.248,1.655,1.859c1.41,1.524,2.859,3.012,4.317,4.491
	c0.32,0.324,0.623,0.661,0.945,0.984c1.584,1.584,3.199,3.123,4.828,4.645c0.395,0.369,0.791,0.737,1.191,1.102
	c1.617,1.484,3.248,2.946,4.907,4.37c0.216,0.185,0.437,0.363,0.655,0.548c1.454,1.234,2.925,2.442,4.409,3.63
	c0.539,0.432,1.077,0.862,1.619,1.287c1.563,1.222,3.137,2.428,4.732,3.598C201.801,352.045,201.973,352.185,202.155,352.317z
	 M215.314,324.598c-0.366-0.288-0.728-0.583-1.092-0.874c-1.165-0.93-2.32-1.877-3.463-2.841c-0.487-0.411-0.972-0.824-1.454-1.24
	c-1.065-0.921-2.119-1.859-3.164-2.811c-0.445-0.405-0.895-0.805-1.335-1.215c-1.448-1.347-2.882-2.717-4.287-4.122
	c-1.406-1.406-2.774-2.838-4.119-4.284c-0.413-0.443-0.815-0.898-1.224-1.345c-0.948-1.042-1.885-2.092-2.801-3.154
	c-0.419-0.485-0.835-0.972-1.248-1.463c-0.96-1.137-1.901-2.284-2.826-3.443c-0.297-0.372-0.598-0.74-0.892-1.114
	c-31.34-39.979-42.387-92.349-30.377-141.261l4.861,32.143c0.985,6.508,6.092,11.617,12.6,12.603l54.18,8.202l8.192,54.168
	c0.985,6.51,6.094,11.618,12.603,12.603l54.166,8.19l8.192,54.166c0.984,6.51,6.094,11.618,12.603,12.603l32.188,4.867
	C307.699,367,255.305,355.951,215.314,324.598z M429.038,315.913c-0.408,0.378-0.818,0.752-1.23,1.126
	c-1.44,1.308-2.895,2.595-4.376,3.847c-0.146,0.125-0.288,0.252-0.435,0.375c-1.608,1.353-3.248,2.662-4.903,3.949
	c-0.425,0.33-0.853,0.656-1.281,0.982c-1.472,1.122-2.958,2.219-4.464,3.289c-0.236,0.167-0.467,0.342-0.704,0.508
	c-1.715,1.204-3.457,2.368-5.215,3.503c-0.42,0.272-0.845,0.536-1.267,0.805c-0.62,0.393-1.255,0.763-1.882,1.147
	c-2.295-2.73-5.544-4.628-9.249-5.187l-54.166-8.192l-8.192-54.166c-0.984-6.51-6.094-11.618-12.603-12.603l-54.166-8.19
	l-8.192-54.166c-0.985-6.508-6.092-11.617-12.6-12.603l-54.18-8.202l-8.192-54.168c-0.56-3.699-2.452-6.944-5.175-9.238
	c0.378-0.616,0.743-1.24,1.129-1.85c0.279-0.44,0.554-0.881,0.838-1.318c1.129-1.749,2.287-3.481,3.484-5.187
	c0.173-0.246,0.353-0.487,0.527-0.731c1.065-1.5,2.158-2.979,3.275-4.445c0.324-0.426,0.649-0.853,0.979-1.276
	c1.167-1.502,2.362-2.984,3.584-4.446l169.29,169.288c2.933,2.931,6.775,4.398,10.618,4.398c3.843,0,7.685-1.467,10.618-4.398
	c5.864-5.864,5.864-15.372,0-21.238L211.629,68.242c1.296-1.081,2.598-2.153,3.924-3.191c0.369-0.29,0.746-0.571,1.119-0.857
	c1.278-0.985,2.569-1.949,3.873-2.894c0.448-0.324,0.893-0.65,1.344-0.97c1.643-1.165,3.299-2.308,4.981-3.41
	c0.126-0.083,0.257-0.161,0.384-0.243c1.192-0.776,2.407-1.518,3.62-2.263c2.295,2.727,5.543,4.622,9.244,5.182l54.168,8.192
	l8.202,54.181c0.985,6.508,6.095,11.615,12.603,12.6l54.166,8.192l8.192,54.165c0.984,6.51,6.094,11.618,12.603,12.603l54.165,8.192
	l8.192,54.165c0.56,3.706,2.46,6.957,5.191,9.253c-0.748,1.218-1.493,2.437-2.272,3.634c-0.078,0.119-0.15,0.242-0.228,0.36
	c-1.104,1.686-2.249,3.346-3.415,4.99c-0.321,0.454-0.649,0.902-0.975,1.352c-0.942,1.3-1.903,2.587-2.883,3.859
	c-0.291,0.378-0.577,0.761-0.872,1.138c-1.236,1.577-2.5,3.134-3.796,4.667c-0.285,0.338-0.58,0.668-0.868,1.003
	c-1.065,1.24-2.149,2.467-3.251,3.678c-0.384,0.422-0.767,0.844-1.156,1.261c-1.386,1.491-2.792,2.969-4.238,4.413
	C432.139,313.005,430.595,314.469,429.038,315.913z"/>
<path d="M401.014,293.875c-0.976,0-1.969-0.092-2.943-0.285c-0.963-0.195-1.909-0.481-2.808-0.856
	c-0.903-0.375-1.773-0.841-2.598-1.382c-0.811-0.556-1.577-1.186-2.283-1.877c-0.691-0.691-1.306-1.457-1.862-2.283
	c-0.541-0.811-1.006-1.682-1.382-2.584c-0.375-0.914-0.661-1.861-0.856-2.807c-0.195-0.976-0.284-1.969-0.284-2.943
	c0-0.976,0.09-1.969,0.284-2.928c0.195-0.963,0.481-1.909,0.856-2.808c0.375-0.916,0.841-1.787,1.382-2.598
	c0.541-0.826,1.171-1.592,1.862-2.283c0.706-0.691,1.47-1.321,2.283-1.862c0.826-0.541,1.697-1.006,2.598-1.382
	c0.901-0.375,1.846-0.661,2.808-0.856c1.937-0.39,3.934-0.39,5.871,0c0.961,0.195,1.907,0.481,2.807,0.856
	c0.903,0.375,1.787,0.841,2.598,1.382c0.826,0.541,1.592,1.171,2.283,1.862c0.691,0.691,1.323,1.457,1.862,2.283
	c0.541,0.811,1.006,1.682,1.382,2.598c0.375,0.901,0.661,1.846,0.856,2.808c0.195,0.961,0.3,1.952,0.3,2.928
	c0,0.975-0.105,1.967-0.3,2.943c-0.195,0.946-0.481,1.892-0.856,2.807c-0.375,0.902-0.841,1.773-1.382,2.584
	c-0.539,0.826-1.171,1.592-1.862,2.283c-0.691,0.691-1.457,1.321-2.283,1.877c-0.811,0.541-1.697,1.006-2.598,1.382
	c-0.901,0.375-1.846,0.661-2.807,0.856C402.979,293.785,401.988,293.875,401.014,293.875z"/>
<g>
</g>
<g>
</g>
<g>
</g>
<g>
</g>
<g>
</g>
<g>
</g>
<g>
</g>
<g>
</g>
<g>
</g>
<g>
</g>
<g>
</g>
<g>
</g>
<g>
</g>
<g>
</g>
<g>
</g>
</svg>
