<?xml version="1.0" encoding="iso-8859-1"?>
<!-- Generator: Adobe Illustrator 19.0.0, SVG Export Plug-In . SVG Version: 6.00 Build 0)  -->
<svg version="1.1" id="Layer_1" xmlns="http://www.w3.org/2000/svg" xmlns:xlink="http://www.w3.org/1999/xlink" x="0px" y="0px"
	 viewBox="0 0 512 512" style="enable-background:new 0 0 512 512;" xml:space="preserve">
<polygon style="fill:#FFDC64;" points="14.282,231.561 14.282,473.827 97.467,473.827 97.467,384.994 414.533,384.994 
	414.533,473.827 497.718,473.827 497.718,231.561 "/>
<path d="M345.593,346.449c-3.771,0-7.455-1.515-10.112-4.17c-0.657-0.673-1.241-1.4-1.77-2.185c-0.514-0.771-0.957-1.6-1.314-2.457
	c-0.357-0.871-0.628-1.757-0.814-2.671c-0.186-0.928-0.286-1.858-0.286-2.785c0-0.943,0.1-1.872,0.286-2.799
	c0.186-0.915,0.457-1.815,0.814-2.671c0.357-0.856,0.8-1.685,1.314-2.471c0.513-0.771,1.113-1.514,1.77-2.171
	c3.328-3.314,8.255-4.827,12.897-3.899c0.914,0.187,1.815,0.457,2.671,0.814c0.856,0.357,1.685,0.801,2.471,1.314
	c0.77,0.514,1.5,1.114,2.157,1.771c0.671,0.657,1.271,1.398,1.785,2.171c0.513,0.787,0.957,1.615,1.314,2.471
	c0.357,0.856,0.627,1.755,0.814,2.671c0.186,0.927,0.284,1.857,0.284,2.799c0,0.927-0.099,1.857-0.284,2.785
	c-0.187,0.914-0.457,1.8-0.814,2.671c-0.357,0.857-0.801,1.685-1.314,2.457c-0.528,0.786-1.114,1.514-1.785,2.185
	c-0.657,0.657-1.387,1.241-2.157,1.77c-0.787,0.514-1.615,0.957-2.471,1.314c-0.855,0.357-1.757,0.628-2.671,0.814
	C347.449,346.363,346.521,346.449,345.593,346.449z"/>
<rect x="57.952" y="231.558" style="fill:#4DA081;" width="79.024" height="52.369"/>
<rect x="137.224" y="231.558" style="fill:#7DF5A5;" width="79.024" height="52.369"/>
<rect x="216.491" y="231.558" style="fill:#4DA081;" width="79.024" height="52.369"/>
<rect x="295.758" y="231.558" style="fill:#7DF5A5;" width="79.024" height="52.369"/>
<rect x="375.024" y="231.558" style="fill:#4DA081;" width="79.024" height="52.369"/>
<polygon style="fill:#FF5050;" points="57.952,38.173 57.952,231.561 121.985,231.561 136.981,231.561 201.966,231.561 
	231.482,231.561 295.752,231.561 310.034,231.561 375.019,231.561 393.824,231.561 454.048,231.561 454.048,38.173 "/>
<g>
	<path style="fill:#FFDCAA;" d="M256,230.428H131.8V107.571h78.813c25.067,0,45.388,20.321,45.388,45.388L256,230.428L256,230.428z"
		/>
	<path style="fill:#FFDCAA;" d="M380.2,230.428H256v-77.47c0-25.067,20.321-45.388,45.388-45.388H380.2V230.428z"/>
</g>
<path d="M497.718,217.279H468.33V38.173c0-7.887-6.396-14.282-14.282-14.282H57.952c-7.887,0-14.282,6.396-14.282,14.282v179.106
	H14.282C6.396,217.279,0,223.674,0,231.561v242.266c0,7.887,6.396,14.282,14.282,14.282h83.184c7.887,0,14.282-6.396,14.282-14.282
	v-74.551h288.502v74.551c0,7.887,6.396,14.282,14.282,14.282h83.184c7.887,0,14.282-6.396,14.282-14.282V231.561
	C512,223.673,505.606,217.279,497.718,217.279z M270.282,216.146v-63.188c0-17.152,13.954-31.104,31.104-31.104h64.532v94.293
	h-95.636V216.146z M360.499,245.843v23.803h-50.465v-23.803H360.499z M146.082,216.146v-94.293h64.532
	c17.152,0,31.104,13.954,31.104,31.104v63.188h-95.636V216.146z M201.966,245.843v23.803h-50.465v-23.803H201.966z M230.767,245.843
	h50.465v23.803h-50.465V245.843z M389.301,245.843h50.465v23.803h-50.465V245.843z M72.234,52.455h367.532v164.823h-45.283V107.571
	c0-7.887-6.396-14.282-14.282-14.282h-78.814c-18.157,0-34.433,8.162-45.386,20.996c-10.953-12.834-27.229-20.996-45.386-20.996
	H131.8c-7.887,0-14.282,6.396-14.282,14.282v109.707H72.234V52.455z M72.234,245.843h50.465v23.803H72.234V245.843z
	 M483.435,459.545h-54.62v-74.551c0-7.887-6.396-14.282-14.282-14.282H97.467c-7.887,0-14.282,6.396-14.282,14.282v74.551h-54.62
	v-113.09H302.74c7.887,0,14.282-6.396,14.282-14.282s-6.396-14.282-14.282-14.282H28.565v-72.047H43.67v38.085
	c0,7.887,6.396,14.282,14.282,14.282h79.03c0.04,0,0.079-0.006,0.119-0.006c0.04,0,0.079,0.006,0.119,0.006h79.03
	c0.04,0,0.079-0.006,0.119-0.006s0.079,0.006,0.119,0.006h79.03c0.04,0,0.079-0.006,0.119-0.006c0.04,0,0.079,0.006,0.119,0.006
	h79.03c0.04,0,0.079-0.006,0.119-0.006s0.079,0.006,0.119,0.006h79.03c7.887,0,14.282-6.396,14.282-14.282v-38.085h15.105
	L483.435,459.545L483.435,459.545z"/>
<g>
</g>
<g>
</g>
<g>
</g>
<g>
</g>
<g>
</g>
<g>
</g>
<g>
</g>
<g>
</g>
<g>
</g>
<g>
</g>
<g>
</g>
<g>
</g>
<g>
</g>
<g>
</g>
<g>
</g>
</svg>
