<?xml version="1.0" encoding="iso-8859-1"?>
<!-- Generator: Adobe Illustrator 19.0.0, SVG Export Plug-In . SVG Version: 6.00 Build 0)  -->
<svg version="1.1" id="Layer_1" xmlns="http://www.w3.org/2000/svg" xmlns:xlink="http://www.w3.org/1999/xlink" x="0px" y="0px"
	 viewBox="0 0 512 512" style="enable-background:new 0 0 512 512;" xml:space="preserve">
<rect x="14.373" y="68.437" style="fill:#767B95;" width="483.252" height="375.126"/>
<rect x="66.402" y="124.036" style="fill:#FFDC64;" width="81.446" height="57.519"/>
<path d="M147.846,195.915H66.4c-7.937,0-14.373-6.435-14.373-14.373v-57.514c0-7.938,6.436-14.373,14.373-14.373h81.446
	c7.937,0,14.373,6.435,14.373,14.373v57.514C162.218,189.48,155.784,195.915,147.846,195.915z M80.773,167.17h52.7v-28.768h-52.7
	V167.17z"/>
<rect x="202.942" y="124.036" style="fill:#7BFFCD;" width="81.446" height="57.519"/>
<path d="M284.386,195.915H202.94c-7.937,0-14.373-6.435-14.373-14.373v-57.514c0-7.938,6.436-14.373,14.373-14.373h81.446
	c7.937,0,14.373,6.435,14.373,14.373v57.514C298.759,189.48,292.324,195.915,284.386,195.915z M217.313,167.17h52.7v-28.768h-52.7
	V167.17z"/>
<rect x="66.402" y="330.456" style="fill:#FFDC64;" width="81.446" height="57.519"/>
<path d="M147.846,402.344H66.4c-7.937,0-14.373-6.435-14.373-14.373v-57.514c0-7.938,6.436-14.373,14.373-14.373h81.446
	c7.937,0,14.373,6.435,14.373,14.373v57.514C162.218,395.909,155.784,402.344,147.846,402.344z M80.773,373.599h52.7V344.83h-52.7
	V373.599z"/>
<rect x="202.942" y="330.456" style="fill:#7BFFCD;" width="81.446" height="57.519"/>
<path d="M284.386,402.344H202.94c-7.937,0-14.373-6.435-14.373-14.373v-57.514c0-7.938,6.436-14.373,14.373-14.373h81.446
	c7.937,0,14.373,6.435,14.373,14.373v57.514C298.759,395.909,292.324,402.344,284.386,402.344z M217.313,373.599h52.7V344.83h-52.7
	V373.599z"/>
<rect x="66.402" y="227.246" style="fill:#7BFFCD;" width="81.446" height="57.519"/>
<path d="M147.846,299.129H66.4c-7.937,0-14.373-6.435-14.373-14.373v-57.514c0-7.938,6.436-14.373,14.373-14.373h81.446
	c7.937,0,14.373,6.435,14.373,14.373v57.514C162.218,292.695,155.784,299.129,147.846,299.129z M80.773,270.384h52.7v-28.768h-52.7
	V270.384z"/>
<rect x="202.942" y="227.246" style="fill:#FFDC64;" width="81.446" height="57.519"/>
<path d="M284.386,299.129H202.94c-7.937,0-14.373-6.435-14.373-14.373v-57.514c0-7.938,6.436-14.373,14.373-14.373h81.446
	c7.937,0,14.373,6.435,14.373,14.373v57.514C298.759,292.695,292.324,299.129,284.386,299.129z M217.313,270.384h52.7v-28.768h-52.7
	V270.384z"/>
<circle style="fill:#FF5050;" cx="416.132" cy="152.781" r="29.464"/>
<path d="M416.136,196.622c-24.17,0-43.837-19.665-43.837-43.837s19.666-43.837,43.837-43.837c24.171,0,43.837,19.665,43.837,43.837
	S440.308,196.622,416.136,196.622z M416.136,137.694c-8.322,0-15.091,6.77-15.091,15.091c0,8.322,6.77,15.091,15.091,15.091
	c8.322,0,15.091-6.77,15.091-15.091C431.227,144.464,424.458,137.694,416.136,137.694z"/>
<circle style="fill:#FF5050;" cx="416.132" cy="359.216" r="29.464"/>
<path d="M416.136,403.051c-24.17,0-43.837-19.665-43.837-43.837c0-24.172,19.666-43.837,43.837-43.837
	c24.171,0,43.837,19.665,43.837,43.837C459.972,383.386,440.308,403.051,416.136,403.051z M416.136,344.123
	c-8.322,0-15.091,6.77-15.091,15.091c0,8.322,6.77,15.091,15.091,15.091c8.322,0,15.091-6.77,15.091-15.091
	S424.458,344.123,416.136,344.123z"/>
<circle style="fill:#FF5050;" cx="416.132" cy="256.006" r="29.464"/>
<path d="M416.136,299.837c-24.17,0-43.837-19.665-43.837-43.837s19.666-43.837,43.837-43.837c24.171,0,43.837,19.665,43.837,43.837
	S440.308,299.837,416.136,299.837z M416.136,240.909c-8.322,0-15.091,6.77-15.091,15.091c0,8.322,6.77,15.091,15.091,15.091
	c8.322,0,15.091-6.77,15.091-15.091C431.227,247.678,424.458,240.909,416.136,240.909z"/>
<path d="M497.627,54.064H14.373C6.436,54.064,0,60.499,0,68.437v375.126c0,7.938,6.436,14.373,14.373,14.373h483.255
	c7.937,0,14.373-6.435,14.373-14.373V68.437C512,60.499,505.565,54.064,497.627,54.064z M483.255,429.191H28.745V82.809h294.806
	v228.975c0,7.938,6.436,14.373,14.373,14.373s14.373-6.435,14.373-14.373V82.809h130.958V429.191z"/>
<path d="M337.924,369.271c-0.934,0-1.884-0.086-2.803-0.273c-0.92-0.187-1.825-0.46-2.702-0.819
	c-0.864-0.359-1.696-0.805-2.472-1.322c-0.792-0.532-1.525-1.135-2.186-1.797c-2.673-2.673-4.211-6.367-4.211-10.161
	c0-3.78,1.536-7.488,4.211-10.161c0.661-0.661,1.394-1.265,2.186-1.782c0.776-0.517,1.608-0.963,2.472-1.322
	c0.877-0.359,1.782-0.632,2.702-0.819c1.854-0.374,3.751-0.374,5.605,0c0.92,0.187,1.825,0.46,2.686,0.819
	c0.877,0.359,1.71,0.805,2.486,1.322c0.79,0.517,1.523,1.121,2.185,1.782c2.673,2.673,4.213,6.381,4.213,10.161
	c0,3.794-1.538,7.488-4.213,10.161c-0.661,0.661-1.394,1.265-2.185,1.797c-0.776,0.517-1.61,0.963-2.486,1.322
	c-0.862,0.359-1.766,0.632-2.686,0.819C339.807,369.185,338.858,369.271,337.924,369.271z"/>
<g>
</g>
<g>
</g>
<g>
</g>
<g>
</g>
<g>
</g>
<g>
</g>
<g>
</g>
<g>
</g>
<g>
</g>
<g>
</g>
<g>
</g>
<g>
</g>
<g>
</g>
<g>
</g>
<g>
</g>
</svg>
