<?xml version="1.0" encoding="iso-8859-1"?>
<!-- Generator: Adobe Illustrator 19.0.0, SVG Export Plug-In . SVG Version: 6.00 Build 0)  -->
<svg version="1.1" id="Layer_1" xmlns="http://www.w3.org/2000/svg" xmlns:xlink="http://www.w3.org/1999/xlink" x="0px" y="0px"
	 viewBox="0 0 512 512" style="enable-background:new 0 0 512 512;" xml:space="preserve">
<polygon style="fill:#FF5050;" points="299.012,285.24 212.736,349.24 126.454,285.24 43.169,347.016 43.169,416.869 
	468.831,416.869 468.831,287.278 385.295,349.24 "/>
<polygon style="fill:#FFDC64;" points="43.169,217.609 43.169,347.016 126.454,285.24 212.736,349.24 299.012,285.24 
	385.295,349.24 468.831,287.278 468.831,217.609 "/>
<g>
	<path style="fill:#7DF5A5;" d="M473.674,217.609H38.326c-13.133,0-23.78-10.647-23.78-23.78l0,0c0-13.133,10.647-23.78,23.78-23.78
		h435.348c13.133,0,23.78,10.647,23.78,23.78l0,0C497.455,206.962,486.807,217.609,473.674,217.609z"/>
	<path style="fill:#7DF5A5;" d="M473.674,464.431H38.326c-13.133,0-23.78-10.647-23.78-23.78l0,0c0-13.133,10.647-23.78,23.78-23.78
		h435.348c13.133,0,23.78,10.647,23.78,23.78l0,0C497.455,453.784,486.807,464.431,473.674,464.431z"/>
</g>
<path d="M478.458,62.12c-0.96,0-1.905-0.1-2.851-0.289c-0.931-0.191-1.847-0.465-2.72-0.829c-0.873-0.364-1.716-0.816-2.516-1.338
	c-0.785-0.524-1.542-1.135-2.211-1.804c-0.669-0.669-1.28-1.411-1.804-2.211c-0.524-0.785-0.975-1.629-1.338-2.516
	c-0.364-0.873-0.64-1.788-0.829-2.72c-0.189-0.931-0.291-1.891-0.291-2.836c0-0.944,0.102-1.905,0.291-2.835
	c0.189-0.932,0.465-1.849,0.829-2.736c0.364-0.873,0.815-1.716,1.338-2.502c0.524-0.8,1.135-1.542,1.804-2.211
	c0.669-0.669,1.425-1.28,2.211-1.804c0.8-0.524,1.644-0.975,2.516-1.338c0.873-0.378,1.789-0.655,2.72-0.844
	c1.876-0.378,3.811-0.378,5.687,0c0.931,0.189,1.847,0.465,2.72,0.844c0.873,0.364,1.716,0.815,2.516,1.338
	c0.785,0.524,1.527,1.135,2.211,1.804c0.669,0.669,1.265,1.411,1.804,2.211c0.524,0.785,0.975,1.629,1.338,2.502
	c0.364,0.887,0.64,1.804,0.829,2.736c0.189,0.931,0.276,1.891,0.276,2.835c0,0.945-0.087,1.907-0.276,2.836
	c-0.189,0.932-0.465,1.849-0.829,2.72c-0.364,0.887-0.815,1.731-1.338,2.516c-0.538,0.8-1.135,1.542-1.804,2.211
	c-0.684,0.669-1.425,1.28-2.211,1.804c-0.8,0.522-1.644,0.975-2.516,1.338c-0.873,0.364-1.789,0.639-2.72,0.829
	C480.349,62.018,479.404,62.12,478.458,62.12z"/>
<circle style="fill:#7DF5A5;" cx="178.676" cy="129.556" r="39.03"/>
<path d="M483.376,403.572V287.279v-56.371C499.825,226.6,512,211.611,512,193.829c0-21.132-17.193-38.326-38.326-38.326H225.536
	c4.412-7.961,6.678-16.72,6.723-25.593l207.949-56.711c7.75-2.113,12.319-10.109,10.205-17.859
	c-2.113-7.753-10.108-12.317-17.86-10.207l-208.004,56.727c-4.684-7.786-11.299-14.284-19.415-18.893
	c-12.445-7.068-26.897-8.865-40.691-5.063c-13.796,3.801-25.287,12.749-32.355,25.191c-7.068,12.445-8.865,26.896-5.063,40.692
	c1.149,4.172,2.774,8.087,4.784,11.716H38.324C17.193,155.503,0,172.696,0,193.831c0,17.782,12.175,32.771,28.624,37.078v116.109
	v56.554C12.175,407.879,0,422.868,0,440.651c0,21.132,17.193,38.326,38.326,38.326h435.348c21.133,0,38.326-17.193,38.326-38.327
	C512,422.868,499.825,407.879,483.376,403.572z M157.386,117.463c3.231-5.686,8.481-9.776,14.785-11.513l0,0
	c2.163-0.596,4.359-0.89,6.544-0.89c4.183,0,8.316,1.082,12.052,3.204c5.21,2.96,9.057,7.629,11.005,13.238
	c0.083,0.519,0.189,1.039,0.33,1.558c0.144,0.527,0.323,1.031,0.519,1.527c2.605,12.527-4.935,25.127-17.44,28.575
	c-13.02,3.591-26.524-4.084-30.111-17.101C153.334,129.755,154.156,123.15,157.386,117.463z M57.715,318.119v-85.964h396.57v47.802
	l-68.991,51.174l-77.616-57.572c-2.573-1.91-5.619-2.864-8.666-2.864s-6.092,0.954-8.666,2.864l-77.612,57.571l-77.615-57.571
	c-5.146-3.818-12.183-3.818-17.331,0L57.715,318.119z M57.715,354.338l68.739-50.988l77.615,57.571
	c5.146,3.818,12.185,3.818,17.331,0l77.612-57.571l77.616,57.571c2.573,1.91,5.619,2.864,8.666,2.864s6.092-0.954,8.666-2.864
	l60.324-44.745v86.147H57.715V354.338z M38.326,184.594h435.348c5.092,0,9.235,4.144,9.235,9.236c0,5.092-4.143,9.235-9.235,9.235
	h-4.844H43.169h-4.844c-5.092,0-9.235-4.144-9.235-9.236C29.091,188.737,33.233,184.594,38.326,184.594z M473.674,449.886H38.326
	c-5.092,0-9.235-4.144-9.235-9.236s4.143-9.235,9.235-9.235h4.844h425.661h4.844c5.092,0,9.235,4.144,9.235,9.236
	S478.767,449.886,473.674,449.886z"/>
<g>
</g>
<g>
</g>
<g>
</g>
<g>
</g>
<g>
</g>
<g>
</g>
<g>
</g>
<g>
</g>
<g>
</g>
<g>
</g>
<g>
</g>
<g>
</g>
<g>
</g>
<g>
</g>
<g>
</g>
</svg>
