<?xml version="1.0" encoding="iso-8859-1"?>
<!-- Generator: Adobe Illustrator 19.0.0, SVG Export Plug-In . SVG Version: 6.00 Build 0)  -->
<svg version="1.1" id="Layer_1" xmlns="http://www.w3.org/2000/svg" xmlns:xlink="http://www.w3.org/1999/xlink" x="0px" y="0px"
	 viewBox="0 0 512 512" style="enable-background:new 0 0 512 512;" xml:space="preserve">
<rect x="13.736" y="28.337" style="fill:#A2A8D3;" width="484.525" height="455.322"/>
<path d="M498.264,497.4H13.736C6.151,497.4,0,491.25,0,483.664V28.336C0,20.75,6.151,14.6,13.736,14.6h484.528
	c7.585,0,13.736,6.15,13.736,13.736v455.326C512,491.25,505.85,497.4,498.264,497.4z M27.472,469.928h457.056V42.072H27.472V469.928
	z"/>
<circle style="fill:#7BFFCD;" cx="283.471" cy="217.538" r="142.347"/>
<path d="M283.472,373.62c-86.063,0-156.081-70.018-156.081-156.081s70.018-156.08,156.081-156.08s156.081,70.017,156.081,156.08
	S369.535,373.62,283.472,373.62z M283.472,88.931c-70.915,0-128.609,57.693-128.609,128.608s57.694,128.609,128.609,128.609
	s128.609-57.694,128.609-128.609S354.387,88.931,283.472,88.931z"/>
<circle style="fill:#FFDC64;" cx="283.471" cy="217.538" r="38.461"/>
<path d="M283.472,269.736c-28.781,0-52.197-23.416-52.197-52.197s23.416-52.197,52.197-52.197s52.197,23.416,52.197,52.197
	S312.253,269.736,283.472,269.736z M283.472,192.814c-13.633,0-24.725,11.092-24.725,24.725s11.092,24.725,24.725,24.725
	s24.725-11.092,24.725-24.725S297.105,192.814,283.472,192.814z"/>
<path d="M334.896,306.098c-4.391,0-8.707-2.102-11.365-6.007c-4.269-6.271-2.648-14.816,3.624-19.085
	c21.039-14.327,33.603-38.053,33.603-63.467c0-31.347-18.755-59.248-47.784-71.079c-7.025-2.863-10.398-10.879-7.536-17.905
	c2.864-7.025,10.876-10.401,17.905-7.536c39.417,16.064,64.886,53.951,64.886,96.518c0,34.513-17.052,66.728-45.613,86.174
	C340.247,305.325,337.558,306.098,334.896,306.098z"/>
<path d="M273.843,141.386c-0.893,0-1.801-0.082-2.692-0.261c-0.867-0.179-1.732-0.44-2.569-0.783
	c-0.826-0.343-1.622-0.769-2.364-1.264c-0.755-0.508-1.456-1.085-2.088-1.717c-0.646-0.632-1.209-1.332-1.717-2.088
	c-0.495-0.742-0.92-1.538-1.264-2.363c-0.343-0.838-0.604-1.703-0.783-2.569c-0.179-0.893-0.26-1.799-0.26-2.692
	c0-0.893,0.082-1.799,0.26-2.679c0.177-0.879,0.44-1.744,0.783-2.569c0.343-0.838,0.769-1.635,1.264-2.376
	c0.508-0.755,1.071-1.456,1.717-2.088c0.632-0.632,1.332-1.209,2.088-1.703c0.742-0.494,1.538-0.92,2.364-1.264
	c0.837-0.343,1.702-0.604,2.569-0.783c1.771-0.357,3.597-0.357,5.369,0c0.88,0.179,1.746,0.44,2.569,0.783
	c0.838,0.343,1.635,0.769,2.376,1.264c0.755,0.494,1.456,1.071,2.088,1.703c0.632,0.632,1.209,1.332,1.703,2.088
	c0.495,0.742,0.92,1.538,1.264,2.376c0.343,0.824,0.604,1.69,0.783,2.569c0.179,0.879,0.275,1.786,0.275,2.679
	s-0.096,1.799-0.275,2.692c-0.179,0.865-0.44,1.731-0.783,2.569c-0.343,0.824-0.769,1.621-1.264,2.363
	c-0.495,0.755-1.071,1.456-1.703,2.088s-1.332,1.209-2.088,1.717c-0.742,0.494-1.538,0.92-2.376,1.264
	c-0.824,0.343-1.688,0.604-2.569,0.783C275.643,141.304,274.736,141.386,273.843,141.386z"/>
<path d="M77.431,428.582c-7.585,0-13.736-6.15-13.736-13.736V138.362c0-7.586,6.151-13.736,13.736-13.736
	c7.585,0,13.736,6.15,13.736,13.736v276.485C91.167,422.433,85.018,428.582,77.431,428.582z"/>
<path d="M77.431,110.892c-0.893,0-1.801-0.096-2.679-0.275c-0.879-0.179-1.744-0.44-2.582-0.783
	c-0.826-0.343-1.621-0.769-2.363-1.264c-0.757-0.494-1.457-1.071-2.089-1.703c-0.632-0.632-1.209-1.332-1.717-2.088
	c-0.494-0.742-0.907-1.538-1.25-2.376c-0.343-0.824-0.618-1.69-0.797-2.569c-0.179-0.879-0.26-1.786-0.26-2.679
	c0-3.626,1.468-7.156,4.025-9.711c0.632-0.632,1.332-1.209,2.089-1.717c0.742-0.494,1.537-0.92,2.363-1.264
	c0.838-0.33,1.703-0.604,2.582-0.783c1.758-0.357,3.585-0.343,5.357,0c0.879,0.179,1.744,0.453,2.567,0.783
	c0.838,0.343,1.635,0.769,2.376,1.264c0.755,0.508,1.456,1.085,2.088,1.717c2.555,2.555,4.026,6.099,4.026,9.711
	c0,0.893-0.096,1.799-0.275,2.679c-0.165,0.879-0.44,1.744-0.783,2.569c-0.343,0.838-0.769,1.635-1.264,2.376
	c-0.493,0.755-1.07,1.456-1.703,2.088c-0.632,0.632-1.332,1.209-2.088,1.703c-0.742,0.494-1.538,0.92-2.376,1.264
	c-0.824,0.343-1.688,0.604-2.567,0.783C79.231,110.796,78.324,110.892,77.431,110.892z"/>
<path d="M159.39,426.602h-27.015c-7.585,0-13.736-6.15-13.736-13.736s6.151-13.736,13.736-13.736h27.015
	c7.585,0,13.736,6.15,13.736,13.736S166.977,426.602,159.39,426.602z"/>
<path d="M244.172,426.602h-27.013c-7.585,0-13.736-6.15-13.736-13.736s6.151-13.736,13.736-13.736h27.013
	c7.585,0,13.736,6.15,13.736,13.736S251.757,426.602,244.172,426.602z"/>
<path d="M328.953,426.602h-27.015c-7.585,0-13.736-6.15-13.736-13.736s6.151-13.736,13.736-13.736h27.015
	c7.585,0,13.736,6.15,13.736,13.736S336.54,426.602,328.953,426.602z"/>
<path d="M413.735,426.602h-27.013c-7.585,0-13.736-6.15-13.736-13.736s6.151-13.736,13.736-13.736h27.013
	c7.585,0,13.736,6.15,13.736,13.736S421.322,426.602,413.735,426.602z"/>
<g>
</g>
<g>
</g>
<g>
</g>
<g>
</g>
<g>
</g>
<g>
</g>
<g>
</g>
<g>
</g>
<g>
</g>
<g>
</g>
<g>
</g>
<g>
</g>
<g>
</g>
<g>
</g>
<g>
</g>
</svg>
