<?xml version="1.0" encoding="iso-8859-1"?>
<!-- Generator: Adobe Illustrator 19.0.0, SVG Export Plug-In . SVG Version: 6.00 Build 0)  -->
<svg version="1.1" id="Layer_1" xmlns="http://www.w3.org/2000/svg" xmlns:xlink="http://www.w3.org/1999/xlink" x="0px" y="0px"
	 viewBox="0 0 512 512" style="enable-background:new 0 0 512 512;" xml:space="preserve">
<g>
	<path style="fill:#767B95;" d="M464.035,222.439c0,175.1-179.231,275.158-208.036,275.158S47.962,397.541,47.962,222.439
		c0-114.896,93.141-208.036,208.036-208.036S464.035,107.543,464.035,222.439z"/>
</g>
<path d="M406.424,236.842h-0.006c-7.953,0-14.403-6.448-14.403-14.403s6.449-14.403,14.403-14.403s14.406,6.448,14.406,14.403
	S414.379,236.842,406.424,236.842z"/>
<g>
	<path style="fill:#FFDCAA;" d="M281.29,281.884h-0.367c-13.704,0-24.814-11.11-24.814-24.814v-72.347
		c0-13.704,11.11-24.814,24.814-24.814h0.367c13.704,0,24.814,11.11,24.814,24.814v72.347
		C306.103,270.776,294.994,281.884,281.29,281.884z"/>
	<path style="fill:#FFDCAA;" d="M231.106,281.884h-0.367c-13.704,0-24.814-11.11-24.814-24.814v-72.347
		c0-13.704,11.11-24.814,24.814-24.814h0.367c13.704,0,24.814,11.11,24.814,24.814v72.347
		C255.919,270.776,244.811,281.884,231.106,281.884z"/>
	<path style="fill:#FFDCAA;" d="M331.288,89.517c-13.806,0-24.997,11.192-24.997,24.997v125.077h-0.187v17.48
		c0,13.704-11.11,24.814-24.814,24.814h-0.367c-13.704,0-24.814-11.11-24.814-24.814v-17.48h-0.187v17.48
		c0,13.704-11.11,24.814-24.814,24.814h-0.367c-13.704,0-24.814-11.11-24.814-24.814v-17.48h-0.187V114.514
		c0-13.806-11.192-24.997-24.999-24.997c-13.806,0-24.997,11.192-24.997,24.997v125.077v4.147v9.437l-31.759-31.759
		c-11.192-11.192-29.34-11.192-40.532,0c-11.192,11.192-11.192,29.338,0,40.531l83.151,83.151
		c9.395,12.032,24.025,19.776,40.471,19.776h97.879c28.35,0,51.333-22.982,51.333-51.333v-69.804v-4.147V114.514
		C356.286,100.708,345.093,89.517,331.288,89.517z"/>
</g>
<path d="M255.999,0C133.346,0,33.56,99.786,33.56,222.439c0,98.376,53.074,170.448,97.598,213.586
	C177.369,480.798,234.04,512,256,512s78.631-31.202,124.842-75.975c44.524-43.137,97.598-115.21,97.598-213.586
	C478.437,99.786,378.652,0,255.999,0z M361.459,414.696c-48.36,47.095-96.735,68.225-105.427,68.5
	c-8.757-0.274-57.132-21.405-105.492-68.5c-33.961-33.074-73.429-84.67-84.895-152.855c1.988,3.742,4.541,7.21,7.623,10.291
	l82.565,82.565c12.559,15.634,31.182,24.581,51.243,24.581h96.636c-20.857,17.78-41.177,31.385-55.224,40.008
	c-6.778,4.162-8.899,13.032-4.737,19.809c2.719,4.427,7.446,6.869,12.287,6.869c2.569,0,5.172-0.688,7.523-2.13
	c16.886-10.367,42.305-27.498,67.523-50.238c42.882-38.673,70.74-79.711,82.795-121.976c2.183-7.649-2.251-15.62-9.899-17.8
	c-7.652-2.185-15.62,2.251-17.8,9.899c-3.54,12.409-8.716,24.762-15.489,37.022V114.514c0-21.725-17.673-39.4-39.398-39.4
	c-21.726,0-39.401,17.675-39.401,39.4v32.461c-3.373-0.949-6.925-1.468-10.597-1.468h-0.369c-9.45,0-18.129,3.36-24.906,8.948
	c-6.778-5.588-15.457-8.948-24.907-8.948h-0.369c-3.673,0-7.224,0.518-10.597,1.468v-32.461c0-21.725-17.675-39.4-39.4-39.4
	s-39.406,17.675-39.406,39.4v103.889l-7.171-7.173c-8.133-8.133-18.948-12.612-30.452-12.612s-22.317,4.479-30.45,12.612
	c-5.103,5.101-8.764,11.26-10.788,17.98c-0.063-2.245-0.115-4.495-0.115-6.771c0.001-106.771,86.864-193.635,193.635-193.635
	s193.634,86.864,193.634,193.634C449.632,310.369,401.683,375.522,361.459,414.696z M191.522,241.919v15.153
	c0,21.624,17.593,39.217,39.217,39.217h0.369c1.08,0,2.146-0.056,3.205-0.143c0.156-0.013,0.314-0.022,0.468-0.036
	c1.002-0.094,1.993-0.229,2.973-0.397c0.187-0.032,0.373-0.065,0.559-0.099c0.975-0.181,1.937-0.395,2.885-0.648
	c0.147-0.039,0.291-0.084,0.438-0.125c0.979-0.274,1.947-0.575,2.895-0.92c0.013-0.004,0.027-0.009,0.042-0.014
	c0.952-0.349,1.882-0.745,2.798-1.164c0.143-0.065,0.288-0.127,0.429-0.194c0.867-0.41,1.715-0.854,2.548-1.324
	c0.164-0.092,0.326-0.186,0.488-0.281c0.824-0.482,1.632-0.989,2.417-1.528c0.125-0.086,0.248-0.177,0.373-0.265
	c0.799-0.563,1.583-1.149,2.339-1.769c0.017-0.014,0.035-0.026,0.052-0.039c0.004,0.004,0.01,0.007,0.014,0.012
	c0.773,0.637,1.577,1.237,2.398,1.815c0.114,0.079,0.225,0.163,0.338,0.241c0.794,0.546,1.61,1.059,2.444,1.545
	c0.153,0.089,0.305,0.177,0.459,0.264c0.84,0.475,1.695,0.923,2.571,1.337c0.134,0.063,0.269,0.121,0.403,0.183
	c0.923,0.423,1.861,0.821,2.821,1.174c0.004,0.001,0.009,0.003,0.013,0.004c0.958,0.351,1.939,0.655,2.93,0.932
	c0.14,0.039,0.278,0.082,0.419,0.12c0.952,0.253,1.918,0.468,2.898,0.651c0.183,0.035,0.364,0.066,0.547,0.098
	c0.982,0.168,1.975,0.304,2.98,0.397c0.154,0.014,0.31,0.023,0.464,0.036c1.059,0.086,2.126,0.143,3.206,0.143h0.001h0.367
	c21.624,0,39.217-17.593,39.217-39.217v-15.153c0.122-0.758,0.187-1.535,0.187-2.327v-125.08c0-5.842,4.754-10.595,10.596-10.595
	c5.842,0,10.593,4.753,10.593,10.595v199.027c0,20.364-16.566,36.93-36.93,36.93h-97.879c-11.441,0-22.055-5.189-29.121-14.237
	c-0.362-0.464-0.752-0.905-1.168-1.321l-83.151-83.151c-2.693-2.693-4.175-6.272-4.175-10.082s1.482-7.389,4.175-10.082
	c2.692-2.693,6.272-4.175,10.08-4.175c3.809,0,7.39,1.483,10.082,4.175l31.759,31.759c4.118,4.118,10.314,5.349,15.696,3.121
	c5.381-2.23,8.891-7.481,8.891-13.307V114.514c0-5.842,4.753-10.595,10.595-10.595c5.842,0,10.595,4.753,10.595,10.595v125.077
	C191.335,240.383,191.398,241.161,191.522,241.919z M291.7,239.591v17.48c0,5.741-4.671,10.412-10.412,10.412h-0.367
	c-3.948,0-7.389-2.208-9.154-5.453c-0.802-1.475-1.259-3.164-1.259-4.959v-17.48v-54.867c0-5.741,4.671-10.412,10.412-10.412h0.369
	c5.739,0,10.412,4.671,10.412,10.412V239.591z M241.517,239.591v17.48c0,5.741-4.671,10.412-10.412,10.412h-0.369
	c-5.739,0-10.412-4.671-10.412-10.412v-17.48v-54.867c0-5.741,4.671-10.412,10.412-10.412h0.369c5.739,0,10.412,4.671,10.412,10.412
	V239.591z"/>
<g>
</g>
<g>
</g>
<g>
</g>
<g>
</g>
<g>
</g>
<g>
</g>
<g>
</g>
<g>
</g>
<g>
</g>
<g>
</g>
<g>
</g>
<g>
</g>
<g>
</g>
<g>
</g>
<g>
</g>
</svg>
