<?xml version="1.0" encoding="iso-8859-1"?>
<!-- Generator: Adobe Illustrator 19.0.0, SVG Export Plug-In . SVG Version: 6.00 Build 0)  -->
<svg version="1.1" id="Layer_1" xmlns="http://www.w3.org/2000/svg" xmlns:xlink="http://www.w3.org/1999/xlink" x="0px" y="0px"
	 viewBox="0 0 512 512" style="enable-background:new 0 0 512 512;" xml:space="preserve">
<path style="fill:#7BFFCD;" d="M378.827,357.161H126.275V168.324c0-41.034,33.264-74.299,74.299-74.299h56.239
	c67.386,0,122.013,54.628,122.013,122.013L378.827,357.161L378.827,357.161z"/>
<path style="fill:#46AFA7;" d="M200.575,94.025h-54.903c-72.687,0-131.611,58.924-131.611,131.611v131.525h112.215V168.324
	C126.275,127.289,159.541,94.025,200.575,94.025z"/>
<g>
	<path style="fill:#FFDC64;" d="M467.533,417.975H14.06v-60.814h453.472c16.794,0,30.407,13.613,30.407,30.407l0,0
		C497.94,404.361,484.325,417.975,467.533,417.975z"/>
	<circle style="fill:#FFDC64;" cx="275.05" cy="242.387" r="38.599"/>
</g>
<path d="M275.048,295.046c-29.036,0-52.66-23.623-52.66-52.66s23.623-52.659,52.66-52.659s52.659,23.623,52.659,52.659
	S304.086,295.046,275.048,295.046z M275.048,217.848c-13.53,0-24.54,11.008-24.54,24.538c0,13.532,11.009,24.54,24.54,24.54
	s24.538-11.008,24.538-24.54C299.587,228.856,288.579,217.848,275.048,217.848z"/>
<path d="M467.533,343.101h-74.644V216.038c0-75.032-61.043-136.074-136.074-136.074h-56.24h-54.903
	C65.349,79.964,0,145.312,0,225.636v192.339c0,7.766,6.295,14.06,14.06,14.06h453.472c24.519,0,44.467-19.949,44.467-44.467
	C512,363.05,492.051,343.101,467.533,343.101z M364.768,216.038v127.063H200.192V203.609c0-7.766-6.295-14.06-14.06-14.06
	c-7.766,0-14.06,6.295-14.06,14.06v139.491h-31.734V168.324c0-33.216,27.023-60.239,60.238-60.239h56.24
	C316.34,108.085,364.768,156.512,364.768,216.038z M28.121,225.636c0-61.423,47.351-111.994,107.471-117.122
	c-0.066,0.072-0.128,0.148-0.194,0.221c-0.398,0.436-0.779,0.886-1.168,1.329c-0.52,0.591-1.042,1.18-1.547,1.784
	c-0.395,0.474-0.775,0.962-1.16,1.444c-0.474,0.593-0.951,1.187-1.409,1.793c-0.382,0.506-0.751,1.022-1.123,1.537
	c-0.437,0.603-0.875,1.206-1.296,1.821c-0.366,0.531-0.717,1.073-1.071,1.614c-0.404,0.616-0.804,1.232-1.192,1.857
	c-0.344,0.555-0.678,1.119-1.011,1.683c-0.371,0.63-0.738,1.261-1.094,1.901c-0.321,0.575-0.631,1.156-0.939,1.739
	c-0.342,0.647-0.675,1.296-1.001,1.952c-0.294,0.592-0.581,1.188-0.86,1.787c-0.312,0.665-0.614,1.334-0.908,2.008
	c-0.266,0.606-0.526,1.213-0.778,1.826c-0.281,0.683-0.551,1.372-0.816,2.064c-0.236,0.619-0.47,1.237-0.693,1.862
	c-0.25,0.704-0.488,1.414-0.721,2.126c-0.205,0.626-0.411,1.25-0.602,1.881c-0.221,0.728-0.425,1.465-0.627,2.202
	c-0.173,0.628-0.349,1.256-0.508,1.89c-0.19,0.756-0.359,1.52-0.529,2.283c-0.139,0.627-0.285,1.251-0.412,1.883
	c-0.159,0.793-0.292,1.594-0.429,2.394c-0.105,0.614-0.219,1.225-0.312,1.843c-0.127,0.848-0.224,1.706-0.326,2.562
	c-0.069,0.581-0.152,1.157-0.21,1.742c-0.096,0.959-0.156,1.926-0.221,2.894c-0.032,0.491-0.082,0.979-0.105,1.472
	c-0.073,1.465-0.112,2.939-0.112,4.422v174.777H28.121V225.636z M467.533,403.915H28.121v-32.693h98.156h252.552h88.704
	c9.013,0,16.347,7.332,16.347,16.347C483.879,396.582,476.545,403.915,467.533,403.915z"/>
<path d="M186.133,175.489c-0.914,0-1.842-0.098-2.742-0.281c-0.9-0.183-1.786-0.45-2.643-0.801
	c-0.844-0.352-1.659-0.787-2.418-1.294c-0.773-0.506-1.49-1.097-2.137-1.743c-0.647-0.647-1.237-1.364-1.758-2.137
	c-0.506-0.759-0.928-1.575-1.279-2.432c-0.352-0.844-0.633-1.729-0.816-2.629c-0.169-0.9-0.267-1.828-0.267-2.742
	c0-0.914,0.098-1.842,0.267-2.742c0.183-0.9,0.464-1.786,0.816-2.643c0.352-0.844,0.773-1.659,1.279-2.418
	c0.52-0.773,1.111-1.49,1.758-2.137c0.647-0.647,1.364-1.237,2.137-1.758c0.759-0.506,1.575-0.928,2.418-1.279
	c0.858-0.352,1.743-0.633,2.643-0.816c1.8-0.352,3.67-0.352,5.484,0c0.9,0.183,1.786,0.464,2.629,0.816
	c0.858,0.352,1.673,0.773,2.432,1.279c0.773,0.52,1.49,1.111,2.137,1.758s1.237,1.364,1.743,2.137
	c0.506,0.759,0.942,1.575,1.294,2.418c0.352,0.858,0.619,1.743,0.801,2.643c0.183,0.9,0.281,1.828,0.281,2.742
	c0,0.914-0.098,1.842-0.281,2.742c-0.183,0.9-0.45,1.786-0.801,2.629c-0.352,0.858-0.787,1.673-1.294,2.432
	c-0.506,0.773-1.097,1.49-1.743,2.137s-1.364,1.237-2.137,1.743c-0.759,0.506-1.575,0.942-2.432,1.294
	c-0.844,0.352-1.729,0.619-2.629,0.801C187.975,175.391,187.047,175.489,186.133,175.489z"/>
<g>
</g>
<g>
</g>
<g>
</g>
<g>
</g>
<g>
</g>
<g>
</g>
<g>
</g>
<g>
</g>
<g>
</g>
<g>
</g>
<g>
</g>
<g>
</g>
<g>
</g>
<g>
</g>
<g>
</g>
</svg>
