<?xml version="1.0" encoding="iso-8859-1"?>
<!-- Generator: Adobe Illustrator 19.0.0, SVG Export Plug-In . SVG Version: 6.00 Build 0)  -->
<svg version="1.1" id="Layer_1" xmlns="http://www.w3.org/2000/svg" xmlns:xlink="http://www.w3.org/1999/xlink" x="0px" y="0px"
	 viewBox="0 0 512 512" style="enable-background:new 0 0 512 512;" xml:space="preserve">
<polygon style="fill:#FFDC64;" points="396.384,132.441 396.384,20.137 115.618,20.137 115.618,132.441 14.51,132.441 
	256.001,458.872 497.49,132.441 "/>
<g>
	<circle style="fill:#7BFFCD;" cx="147.203" cy="449.747" r="42.108"/>
	<circle style="fill:#7BFFCD;" cx="292.244" cy="402.967" r="42.108"/>
</g>
<polygon style="fill:#FF5050;" points="189.315,242.338 189.315,310.178 334.35,263.392 334.35,195.554 "/>
<path d="M510.448,125.908c-2.467-4.891-7.477-7.978-12.957-7.978h-86.598V20.137c0-8.012-6.498-14.51-14.51-14.51H115.616
	c-8.012,0-14.51,6.498-14.51,14.51V117.4c-1.074,0.067-2.116,0.244-3.112,0.533H14.51c-5.479,0-10.489,3.086-12.957,7.978
	c-2.465,4.893-1.966,10.758,1.293,15.161l171.961,232.445v26.829c-8.171-4.582-17.582-7.207-27.598-7.207
	c-31.219,0-56.618,25.398-56.618,56.618s25.398,56.618,56.618,56.618s56.618-25.398,56.618-56.618v-37.012l40.51,54.759
	c2.737,3.699,7.063,5.881,11.665,5.881c4.601,0,8.928-2.182,11.664-5.881l7.747-10.47c5.319,1.66,10.972,2.554,16.831,2.554
	c31.219,0,56.618-25.398,56.618-56.618v-45.22l160.294-216.677C512.414,136.666,512.913,130.801,510.448,125.908z M147.209,477.351
	c-15.217,0-27.598-12.38-27.598-27.598s12.38-27.598,27.598-27.598s27.598,12.38,27.598,27.598S162.425,477.351,147.209,477.351z
	 M203.826,320.744L319.84,283.32v64.861l-2.864,3.871c-7.477-3.646-15.869-5.698-24.734-5.698
	c-31.219,0-56.618,25.398-56.618,56.616c0,1.413,0.07,2.811,0.173,4.198l-31.973-43.218v-43.206H203.826z M319.84,252.828
	L203.826,290.25v-37.346l116.014-37.424V252.828z M292.242,430.565c-15.217,0-27.598-12.38-27.598-27.598
	c0-15.218,12.38-27.596,27.598-27.596s27.598,12.378,27.598,27.596C319.84,418.185,307.459,430.565,292.242,430.565z
	 M348.86,308.953v-45.561v-67.84c0-4.639-2.219-8.999-5.968-11.73c-3.752-2.731-8.578-3.504-12.996-2.079l-145.034,46.786
	c-5.993,1.933-10.055,7.512-10.055,13.809v67.838v14.545L43.293,146.95h72.324c1.399,0,2.747-0.209,4.026-0.577h174.256
	c8.012,0,14.51-6.498,14.51-14.51s-6.498-14.51-14.51-14.51H130.128V34.647h251.746v97.794c0,8.012,6.498,14.51,14.51,14.51h72.324
	L348.86,308.953z"/>
<path d="M337.43,146.377c-0.943,0-1.902-0.102-2.829-0.29c-0.927-0.189-1.844-0.464-2.713-0.827
	c-0.885-0.363-1.727-0.813-2.51-1.335c-0.798-0.522-1.538-1.132-2.206-1.799c-0.667-0.667-1.277-1.407-1.799-2.206
	c-0.537-0.784-0.972-1.625-1.335-2.51c-0.363-0.871-0.653-1.783-0.842-2.713c-0.189-0.929-0.274-1.886-0.274-2.828
	c0-0.943,0.087-1.902,0.274-2.844c0.189-0.916,0.479-1.83,0.842-2.713c0.363-0.872,0.798-1.714,1.335-2.497
	c0.522-0.798,1.132-1.538,1.799-2.205c0.667-0.667,1.407-1.277,2.206-1.814c0.784-0.522,1.625-0.972,2.51-1.335
	c0.871-0.363,1.785-0.638,2.713-0.827c1.857-0.377,3.787-0.377,5.657,0c0.93,0.189,1.844,0.464,2.713,0.827
	c0.885,0.363,1.727,0.813,2.51,1.335c0.798,0.537,1.538,1.146,2.206,1.814c0.667,0.667,1.277,1.407,1.799,2.205
	c0.522,0.784,0.972,1.625,1.335,2.497c0.363,0.884,0.638,1.798,0.827,2.713c0.189,0.942,0.29,1.901,0.29,2.844
	c0,0.942-0.102,1.901-0.29,2.828c-0.189,0.93-0.464,1.844-0.827,2.713c-0.363,0.885-0.813,1.727-1.335,2.51
	c-0.522,0.798-1.132,1.538-1.799,2.206c-0.667,0.667-1.407,1.277-2.206,1.799c-0.784,0.522-1.625,0.972-2.51,1.335
	c-0.871,0.363-1.783,0.638-2.713,0.827C339.33,146.276,338.372,146.377,337.43,146.377z"/>
<g>
</g>
<g>
</g>
<g>
</g>
<g>
</g>
<g>
</g>
<g>
</g>
<g>
</g>
<g>
</g>
<g>
</g>
<g>
</g>
<g>
</g>
<g>
</g>
<g>
</g>
<g>
</g>
<g>
</g>
</svg>
