<?xml version="1.0" encoding="iso-8859-1"?>
<!-- Generator: Adobe Illustrator 19.0.0, SVG Export Plug-In . SVG Version: 6.00 Build 0)  -->
<svg version="1.1" id="Layer_1" xmlns="http://www.w3.org/2000/svg" xmlns:xlink="http://www.w3.org/1999/xlink" x="0px" y="0px"
	 viewBox="0 0 512 512" style="enable-background:new 0 0 512 512;" xml:space="preserve">
<path style="fill:#FF5050;" d="M16.56,90.764c-1.119,9.66-1.782,20.5-1.782,32.633c0,61.163,30.259,126.791,34.356,134.73
	c4.259,8.254,12.78,13.421,22.068,13.421H199.32c9.286,0,17.807-5.166,22.067-13.418c4.096-7.936,34.354-73.569,34.354-134.732
	c0-12.133-0.664-22.971-1.784-32.633L16.56,90.764L16.56,90.764z"/>
<path style="fill:#FFDC64;" d="M228.079,20.464H42.438c0,0-19.761,17.525-25.878,70.3h237.395
	C247.84,37.989,228.079,20.464,228.079,20.464z"/>
<path d="M198.705,154.948c-0.961,0-1.936-0.089-2.896-0.281c-0.946-0.192-1.862-0.473-2.763-0.842
	c-0.887-0.369-1.744-0.828-2.542-1.36c-0.813-0.547-1.566-1.153-2.246-1.847c-0.695-0.68-1.3-1.433-1.847-2.246
	c-0.532-0.798-0.99-1.655-1.36-2.542c-0.369-0.887-0.65-1.818-0.842-2.763c-0.192-0.961-0.281-1.936-0.281-2.896
	c0-3.887,1.566-7.699,4.33-10.448c0.68-0.68,1.433-1.3,2.246-1.832c0.798-0.532,1.655-0.99,2.542-1.36
	c0.901-0.369,1.818-0.65,2.763-0.842c4.803-0.961,9.916,0.606,13.345,4.034c0.68,0.68,1.3,1.433,1.832,2.246
	c0.532,0.798,0.99,1.655,1.36,2.557c0.369,0.887,0.65,1.818,0.842,2.763c0.192,0.946,0.296,1.921,0.296,2.882
	c0,0.961-0.103,1.936-0.296,2.896c-0.192,0.946-0.473,1.877-0.842,2.763c-0.369,0.887-0.828,1.744-1.36,2.542
	c-0.532,0.813-1.153,1.566-1.832,2.246C206.404,153.381,202.592,154.948,198.705,154.948z"/>
<path style="fill:#FF5050;" d="M258.043,90.764c-1.12,9.66-1.784,20.5-1.784,32.633c0,61.163,30.259,126.791,34.356,134.73
	c4.259,8.254,12.78,13.421,22.068,13.421h128.118c9.286,0,17.807-5.166,22.067-13.418c4.096-7.936,34.354-73.569,34.354-134.732
	c0-12.133-0.664-22.971-1.784-32.633L258.043,90.764L258.043,90.764z"/>
<path style="fill:#FFDC64;" d="M469.562,20.464H283.921c0,0-19.761,17.525-25.878,70.3h237.395
	C489.323,37.989,469.562,20.464,469.562,20.464z"/>
<path d="M510.12,89.069c0-0.001,0-0.004,0-0.006c-6.576-56.746-28.297-77.478-30.753-79.656c-2.703-2.397-6.19-3.721-9.805-3.721
	H283.921c-3.613,0-7.102,1.324-9.805,3.721c-1.493,1.324-10.111,9.533-18.116,28.511c-8.005-18.978-16.624-27.187-18.116-28.511
	c-2.703-2.397-6.191-3.721-9.805-3.721H42.438c-3.613,0-7.102,1.324-9.805,3.721C30.177,11.585,8.457,32.316,1.881,89.06
	c0,0.001,0,0.001,0,0.003C0.632,99.83,0,111.382,0,123.397c0,68.654,35.64,140.808,36.001,141.505
	c6.819,13.213,20.306,21.422,35.201,21.422H199.32c14.893,0,28.38-8.208,35.198-21.419c0.098-0.189,2.811-5.678,6.705-14.938v95.101
	L129.5,482.202c-5.155,6.328-4.204,15.637,2.124,20.791c6.325,5.155,15.635,4.204,20.791-2.124l88.808-109.008v99.673
	c0,8.162,6.616,14.778,14.778,14.778c8.16,0,14.778-6.616,14.778-14.778v-99.673l88.808,109.008
	c2.922,3.585,7.175,5.444,11.466,5.444c3.282,0,6.584-1.088,9.326-3.322c6.326-5.155,7.278-14.465,2.124-20.791L270.78,345.067
	v-95.11c3.894,9.263,6.607,14.753,6.705,14.944c6.819,13.213,20.306,21.422,35.2,21.422h128.118c14.893,0,28.38-8.208,35.197-21.418
	C476.358,264.207,512,192.088,512,123.394C512,111.394,511.367,99.845,510.12,89.069z M290.841,35.242h171.802
	c4.023,5.797,11.029,18.428,15.532,40.744H275.31C279.813,53.67,286.819,41.039,290.841,35.242z M49.359,35.242h171.799
	c4.023,5.797,11.03,18.428,15.533,40.744H33.827C38.33,53.67,45.336,41.039,49.359,35.242z M208.253,251.351
	c-1.725,3.343-5.149,5.419-8.935,5.419H71.202c-3.788,0-7.21-2.076-8.935-5.419c-5.571-10.798-23.422-52.533-30.126-96.395h122.226
	c8.162,0,14.778-6.616,14.778-14.778s-6.616-14.778-14.778-14.778H29.586c-0.007-0.668-0.03-1.339-0.03-2.002
	c0-6.118,0.179-12.087,0.535-17.855h210.337c0.356,5.766,0.535,11.735,0.535,17.855
	C240.961,177.014,215.162,237.963,208.253,251.351z M449.734,251.351c-1.725,3.341-5.147,5.418-8.933,5.418H312.683
	c-3.788,0-7.21-2.076-8.935-5.419c-5.571-10.8-23.42-52.537-30.126-96.397h122.227c8.16,0,14.778-6.616,14.778-14.778
	s-6.618-14.778-14.778-14.778H271.067c-0.007-0.666-0.03-1.336-0.03-2.001c0-6.118,0.18-12.087,0.535-17.855h210.335
	c0.356,5.769,0.535,11.738,0.535,17.855C482.444,177.032,456.645,237.966,449.734,251.351z"/>
<path d="M440.177,154.948c-0.961,0-1.937-0.089-2.882-0.281c-0.946-0.192-1.877-0.473-2.763-0.842
	c-0.9-0.369-1.757-0.828-2.555-1.36c-0.813-0.547-1.568-1.153-2.248-1.847c-0.68-0.68-1.3-1.433-1.832-2.246
	c-0.531-0.798-0.99-1.655-1.36-2.542c-0.369-0.901-0.649-1.832-0.841-2.763c-0.192-0.961-0.296-1.936-0.296-2.896
	s0.103-1.936,0.296-2.882s0.471-1.877,0.841-2.763c0.369-0.901,0.829-1.759,1.36-2.557c0.532-0.813,1.153-1.566,1.832-2.246
	c0.68-0.68,1.435-1.3,2.248-1.832c0.798-0.532,1.655-0.99,2.555-1.36c0.888-0.369,1.818-0.65,2.763-0.842
	c1.906-0.384,3.872-0.384,5.778,0c0.946,0.192,1.862,0.473,2.763,0.842c0.887,0.369,1.744,0.828,2.542,1.36
	c0.813,0.532,1.568,1.153,2.248,1.832c2.762,2.749,4.33,6.561,4.33,10.448c0,0.961-0.09,1.936-0.281,2.896
	c-0.192,0.931-0.471,1.862-0.841,2.763c-0.369,0.887-0.829,1.744-1.36,2.542c-0.547,0.813-1.153,1.566-1.847,2.246
	c-0.68,0.68-1.435,1.3-2.248,1.847c-0.798,0.532-1.655,0.99-2.542,1.36c-0.901,0.369-1.818,0.65-2.763,0.842
	C442.113,154.859,441.154,154.948,440.177,154.948z"/>
<g>
</g>
<g>
</g>
<g>
</g>
<g>
</g>
<g>
</g>
<g>
</g>
<g>
</g>
<g>
</g>
<g>
</g>
<g>
</g>
<g>
</g>
<g>
</g>
<g>
</g>
<g>
</g>
<g>
</g>
</svg>
