<?xml version="1.0" encoding="iso-8859-1"?>
<!-- Generator: Adobe Illustrator 19.0.0, SVG Export Plug-In . SVG Version: 6.00 Build 0)  -->
<svg version="1.1" id="Layer_1" xmlns="http://www.w3.org/2000/svg" xmlns:xlink="http://www.w3.org/1999/xlink" x="0px" y="0px"
	 viewBox="0 0 511.999 511.999" style="enable-background:new 0 0 511.999 511.999;" xml:space="preserve">
<path style="fill:#FFDC64;" d="M368.216,95.946v141.738c0,0.741-0.014,1.468-0.042,2.195c-0.042,1.607-0.126,3.201-0.266,4.794
	c-3.536,42.004-38.747,74.993-81.688,74.993h-60.441c-42.941,0-78.152-32.988-81.688-74.993c-0.14-1.593-0.224-3.187-0.266-4.794
	c-0.028-0.728-0.042-1.454-0.042-2.195V95.946c0-0.727,0.014-1.454,0.028-2.181c1.174-44.269,37.419-79.787,81.968-79.787h60.441
	c44.548,0,80.793,35.518,81.968,79.787C368.202,94.492,368.216,95.219,368.216,95.946z"/>
<g>
	<path style="fill:#F96232;" d="M368.216,95.946v49.832h-42.507c-14.356,0-25.999-11.644-25.999-26.013
		c0-7.185,2.907-13.685,7.604-18.381c4.711-4.711,11.224-7.618,18.395-7.618h42.479C368.202,94.492,368.216,95.219,368.216,95.946z"
		/>
	<path style="fill:#F96232;" d="M368.216,187.866v49.818c0,0.741-0.014,1.468-0.042,2.195h-42.465
		c-14.356,0-25.999-11.658-25.999-25.999c0-7.199,2.907-13.685,7.604-18.409c4.711-4.697,11.224-7.604,18.395-7.604H368.216z"/>
	<path style="fill:#F96232;" d="M143.811,93.765h42.479c14.356,0,25.999,11.644,25.999,25.999c0,7.199-2.907,13.685-7.604,18.395
		c-4.711,4.711-11.224,7.618-18.395,7.618h-42.507"/>
	<path style="fill:#F96232;" d="M212.29,213.879c0,7.171-2.907,13.671-7.604,18.381c-4.711,4.697-11.224,7.618-18.395,7.618h-42.465
		c-0.028-0.728-0.042-1.454-0.042-2.195v-49.818h42.507C200.645,187.866,212.29,199.51,212.29,213.879z"/>
</g>
<path style="fill:#7DF5A5;" d="M289.779,395.982c0-10.806,1.138-21.266,3.232-31.217h-74.025c2.094,9.951,3.232,20.411,3.232,31.217
	c0,40.797-15.929,76.779-40.191,98.172l-0.812,3.868h149.566l-0.812-3.868C305.71,472.761,289.779,436.777,289.779,395.982z"/>
<path d="M412.711,161.105c-7.719,0-13.978,6.259-13.978,13.978v62.604c0,1.019-0.017,2.023-0.05,3.109
	c-0.057,2.185-0.178,4.305-0.369,6.515c-2.373,27.983-15.075,53.918-35.767,73.03c-20.837,19.246-47.945,29.846-76.326,29.846
	h-60.441c-28.383,0-55.489-10.6-76.326-29.845c-20.692-19.114-33.394-45.05-35.769-73.059c-0.19-2.183-0.31-4.304-0.369-6.571
	c-0.032-1.002-0.049-2.006-0.049-3.025v-62.604c0-7.719-6.259-13.978-13.978-13.978s-13.978,6.259-13.978,13.978v62.604
	c0,1.322,0.022,2.624,0.06,3.837c0.073,2.752,0.224,5.426,0.46,8.148c2.963,34.955,18.822,67.345,44.653,91.207
	c21.353,19.719,47.978,32.151,76.424,35.982c0.879,6.31,1.333,12.708,1.333,19.121c0,35.328-13.255,68.11-35.458,87.689
	c-2.26,1.993-3.816,4.664-4.435,7.615l-0.811,3.868c-0.864,4.119,0.176,8.412,2.829,11.679c2.653,3.269,6.641,5.166,10.851,5.166
	h149.566c4.21,0,8.197-1.897,10.851-5.166c2.653-3.268,3.694-7.559,2.829-11.679l-0.811-3.868c-0.618-2.951-2.175-5.622-4.435-7.615
	c-22.203-19.581-35.458-52.361-35.458-87.689c0-6.413,0.454-12.811,1.333-19.121c28.445-3.831,55.071-16.264,76.424-35.984
	c25.832-23.861,41.69-56.251,44.652-91.178c0.238-2.749,0.389-5.424,0.458-8.092c0.041-1.297,0.063-2.597,0.063-3.921v-62.604
	C426.689,167.363,420.429,161.105,412.711,161.105z M209.621,484.044c16.923-24.02,26.575-55.29,26.575-88.062
	c0-5.765-0.299-11.525-0.893-17.239h41.391c-0.594,5.714-0.893,11.475-0.893,17.239c0,32.772,9.651,64.042,26.575,88.062H209.621z"
	/>
<path d="M255.999,110.572c-0.909,0-1.833-0.098-2.726-0.28c-0.893-0.182-1.775-0.447-2.614-0.797
	c-0.853-0.349-1.662-0.783-2.417-1.286c-0.77-0.502-1.483-1.09-2.126-1.733c-0.643-0.643-1.23-1.356-1.733-2.125
	c-0.502-0.755-0.937-1.58-1.286-2.418c-0.349-0.839-0.629-1.718-0.811-2.613c-0.182-0.896-0.264-1.819-0.264-2.726
	c0-0.909,0.084-1.833,0.264-2.74c0.182-0.881,0.461-1.763,0.811-2.614c0.349-0.84,0.784-1.649,1.286-2.404
	c0.503-0.77,1.09-1.483,1.733-2.126c0.643-0.643,1.356-1.23,2.126-1.747c0.755-0.503,1.564-0.937,2.417-1.286
	c0.84-0.349,1.719-0.615,2.614-0.797c1.803-0.363,3.648-0.363,5.451,0c0.895,0.182,1.775,0.447,2.613,0.797
	c0.853,0.349,1.663,0.783,2.418,1.286c0.769,0.517,1.482,1.104,2.125,1.747c0.644,0.643,1.231,1.356,1.733,2.126
	c0.503,0.755,0.937,1.564,1.286,2.404c0.349,0.851,0.629,1.733,0.811,2.614c0.182,0.907,0.266,1.831,0.266,2.74
	c0,0.907-0.085,1.831-0.266,2.726c-0.182,0.895-0.461,1.775-0.811,2.613c-0.349,0.84-0.783,1.663-1.286,2.418
	c-0.502,0.769-1.089,1.482-1.733,2.125c-0.643,0.643-1.356,1.231-2.125,1.733c-0.755,0.503-1.566,0.937-2.418,1.286
	c-0.839,0.349-1.718,0.615-2.613,0.797C257.829,110.473,256.907,110.572,255.999,110.572z"/>
<path d="M382.166,93.685l-0.004-0.183v-0.004l-0.003-0.103c-0.665-25.096-10.939-48.582-28.931-66.132
	C335.205,9.683,311.406,0,286.22,0h-60.441c-25.187,0-48.985,9.683-67.008,27.264c-17.993,17.55-28.268,41.034-28.935,66.239
	l-0.004,0.183c-0.014,0.753-0.028,1.505-0.028,2.26c0,0,0.205,148.182,0.356,149.898c2.01,23.886,12.847,46.026,30.513,62.344
	c17.77,16.414,40.892,25.456,65.104,25.456h60.441c24.213,0,47.334-9.041,65.104-25.456c17.666-16.318,28.503-38.458,30.509-62.298
	c0.154-1.76,0.361-100.113,0.361-100.113V95.947C382.194,95.192,382.18,94.44,382.166,93.685z M354.238,107.743V131.8h-28.529
	c-6.628,0-12.023-5.398-12.023-12.034c0-3.216,1.247-6.234,3.511-8.497c2.273-2.273,5.295-3.524,8.511-3.524h28.529V107.743z
	 M157.76,225.9v-24.056h28.529c6.628,0,12.023,5.398,12.023,12.035c0,3.208-1.252,6.231-3.496,8.482
	c-2.29,2.281-5.317,3.538-8.527,3.538H157.76V225.9z M157.76,107.743h28.529c6.628,0,12.023,5.393,12.023,12.023
	c0,3.219-1.252,6.247-3.51,8.51c-2.273,2.273-5.296,3.524-8.513,3.524H157.76L157.76,107.743L157.76,107.743z M286.22,305.687
	h-16.243V138.524c0-7.719-6.259-13.978-13.978-13.978c-7.719,0-13.978,6.259-13.978,13.978v167.164h-16.243
	c-31.491,0-58.694-22.043-66.041-51.831h26.553c10.661,0,20.7-4.154,28.293-11.728c7.536-7.557,11.684-17.589,11.684-28.25
	c0-22.05-17.934-39.991-39.979-39.991H157.76v-14.132h28.529c10.682,0,20.724-4.158,28.293-11.726
	c7.536-7.557,11.684-17.594,11.684-28.265c0-22.045-17.934-39.979-39.979-39.979h-26.612c7.193-29.984,33.907-51.831,66.101-51.831
	h60.441c32.22,0,58.951,21.88,66.115,51.831h-26.627c-10.683,0-20.727,4.16-28.279,11.712c-7.543,7.544-11.698,17.583-11.698,28.267
	c0,22.05,17.934,39.99,39.979,39.99h28.529v14.132h-28.529c-10.669,0-20.706,4.149-28.31,11.728
	c-7.524,7.571-11.669,17.61-11.669,28.265c0,22.043,17.934,39.977,39.979,39.977h26.558
	C344.935,283.63,317.723,305.687,286.22,305.687z M354.238,225.9h-28.529c-6.628,0-12.023-5.391-12.023-12.021
	c0-3.221,1.257-6.259,3.495-8.511c2.281-2.273,5.309-3.524,8.528-3.524h28.529V225.9z"/>
<g>
</g>
<g>
</g>
<g>
</g>
<g>
</g>
<g>
</g>
<g>
</g>
<g>
</g>
<g>
</g>
<g>
</g>
<g>
</g>
<g>
</g>
<g>
</g>
<g>
</g>
<g>
</g>
<g>
</g>
</svg>
