<?xml version="1.0" encoding="iso-8859-1"?>
<!-- Generator: Adobe Illustrator 19.0.0, SVG Export Plug-In . SVG Version: 6.00 Build 0)  -->
<svg version="1.1" id="Layer_1" xmlns="http://www.w3.org/2000/svg" xmlns:xlink="http://www.w3.org/1999/xlink" x="0px" y="0px"
	 viewBox="0 0 512 512" style="enable-background:new 0 0 512 512;" xml:space="preserve">
<circle style="fill:#4DA081;" cx="256.008" cy="458.506" r="38.838"/>
<g>
	<rect x="307.157" y="14.656" style="fill:#7DF5A5;" width="61.163" height="99.073"/>
	<rect x="143.671" y="14.656" style="fill:#7DF5A5;" width="61.163" height="99.073"/>
</g>
<polygon style="fill:#FFDC64;" points="307.161,113.729 307.161,16.243 306.71,16.243 306.71,185.157 256.001,219.916 
	205.292,185.157 205.292,16.243 204.84,16.243 204.84,113.729 156.561,113.729 156.561,219.079 256.001,293.164 355.44,219.079 
	355.44,113.729 "/>
<path d="M368.326,0h-61.163c-7.005,0-12.853,4.918-14.303,11.487c-0.513,1.493-0.805,3.089-0.805,4.756v161.19l-36.053,24.713
	l-36.053-24.713V16.243c0-1.668-0.292-3.262-0.805-4.756C217.693,4.918,211.846,0,204.84,0h-61.164
	c-8.094,0-14.656,6.561-14.656,14.656v99.073c0,7.494,5.628,13.662,12.885,14.539v90.812c0,4.63,2.188,8.987,5.899,11.752
	l93.541,69.69V407.07c-22.391,6.39-38.838,27.022-38.838,51.436c0,29.496,23.997,53.494,53.494,53.494s53.494-23.997,53.494-53.494
	c0-24.414-16.447-45.046-38.838-51.436V300.521l93.541-69.69c3.712-2.766,5.899-7.123,5.899-11.752v-90.812
	c7.258-0.876,12.885-7.045,12.885-14.539V14.656C382.981,6.561,376.42,0,368.326,0z M353.67,99.073h-31.851V29.312h31.851V99.073z
	 M158.332,29.312h31.851v69.762h-31.851V29.312L158.332,29.312z M280.183,458.506c0,13.334-10.848,24.182-24.182,24.182
	c-13.334,0-24.182-10.848-24.182-24.182s10.848-24.182,24.182-24.182C269.335,434.324,280.183,445.173,280.183,458.506z
	 M340.784,211.722l-84.784,63.166l-84.784-63.166v-83.337h19.419v56.771c0,4.833,2.383,9.356,6.369,12.088l50.709,34.759
	c4.993,3.424,11.578,3.424,16.573,0l50.709-34.759c3.986-2.732,6.369-7.255,6.369-12.088v-56.771h19.419L340.784,211.722
	L340.784,211.722z"/>
<path d="M425.625,100.08c-2.519,0-5.071-0.651-7.401-2.017c-4.668-2.738-7.285-7.672-7.285-12.73c0-2.508,0.643-5.046,2.002-7.36
	c4.096-6.982,13.019-9.355,19.999-5.258l0.114,0.066c4.653,2.73,7.244,7.63,7.243,12.661c0,2.518-0.651,5.068-2.017,7.397
	C435.552,97.489,430.655,100.08,425.625,100.08z"/>
<path d="M456.97,238.07c-2.782,0-5.593-0.79-8.086-2.443c-6.746-4.473-8.588-13.567-4.117-20.313
	c9.028-13.617,13.8-29.492,13.8-45.911c0-16.022-4.559-31.573-13.187-44.973c-4.382-6.806-2.417-15.875,4.389-20.256
	c6.805-4.381,15.875-2.415,20.256,4.389c11.679,18.141,17.852,39.178,17.852,60.839c0,22.198-6.46,43.674-18.682,62.107
	C466.377,235.766,461.718,238.07,456.97,238.07z"/>
<path d="M426.398,267.591c-5.03,0-9.926-2.591-12.655-7.243c-1.366-2.327-2.015-4.879-2.017-7.395
	c-0.001-5.031,2.59-9.931,7.241-12.661l0.243-0.142c6.985-4.095,15.962-1.756,20.058,5.226c1.366,2.327,2.015,4.879,2.017,7.397
	c0.001,5.031-2.59,9.931-7.243,12.66l-0.243,0.142C431.47,266.942,428.917,267.591,426.398,267.591z"/>
<path d="M86.376,100.08c-5.03,0-9.926-2.591-12.655-7.243c-1.366-2.329-2.015-4.879-2.017-7.397
	c-0.001-5.031,2.59-9.931,7.243-12.661c6.982-4.095,16.019-1.789,20.114,5.193c1.375,2.346,2.031,4.913,2.031,7.444
	c0,5.002-2.565,9.862-7.202,12.581l-0.114,0.066C91.448,99.429,88.895,100.08,86.376,100.08z"/>
<path d="M55.033,238.07c-4.748,0-9.408-2.304-12.229-6.558c-12.221-18.433-18.682-39.909-18.682-62.107
	c0-21.661,6.173-42.698,17.852-60.839c4.381-6.808,13.45-8.771,20.256-4.389c6.806,4.382,8.771,13.451,4.389,20.256
	c-8.626,13.4-13.187,28.951-13.187,44.973c0,16.419,4.772,32.294,13.8,45.911c4.473,6.746,2.629,15.841-4.117,20.313
	C60.626,237.279,57.813,238.07,55.033,238.07z"/>
<path d="M85.604,267.591c-2.519,0-5.072-0.649-7.401-2.017l-0.243-0.142c-4.65-2.727-7.24-7.622-7.243-12.649
	c0-2.521,0.649-5.075,2.017-7.407c4.095-6.981,13.074-9.323,20.058-5.226l0.243,0.142c4.649,2.727,7.24,7.622,7.241,12.649
	c0.001,2.521-0.649,5.075-2.017,7.407C95.53,265.002,90.634,267.591,85.604,267.591z"/>
<g>
</g>
<g>
</g>
<g>
</g>
<g>
</g>
<g>
</g>
<g>
</g>
<g>
</g>
<g>
</g>
<g>
</g>
<g>
</g>
<g>
</g>
<g>
</g>
<g>
</g>
<g>
</g>
<g>
</g>
</svg>
