<?xml version="1.0" encoding="iso-8859-1"?>
<!-- Generator: Adobe Illustrator 19.0.0, SVG Export Plug-In . SVG Version: 6.00 Build 0)  -->
<svg version="1.1" id="Layer_1" xmlns="http://www.w3.org/2000/svg" xmlns:xlink="http://www.w3.org/1999/xlink" x="0px" y="0px"
	 viewBox="0 0 512 512" style="enable-background:new 0 0 512 512;" xml:space="preserve">
<rect x="14.144" y="28.718" style="fill:#A2A8D3;" width="483.713" height="454.563"/>
<circle style="fill:#7BFFCD;" cx="256" cy="255.999" r="160.53"/>
<circle style="fill:#FF5050;" cx="256" cy="255.999" r="28.287"/>
<path d="M256,298.43c-23.396,0-42.431-19.035-42.431-42.431s19.035-42.431,42.431-42.431c23.396,0,42.431,19.035,42.431,42.431
	S279.396,298.43,256,298.43z M256,241.856c-7.799,0-14.144,6.345-14.144,14.144c0,7.799,6.345,14.144,14.144,14.144
	c7.799,0,14.144-6.345,14.144-14.144C270.144,248.2,263.799,241.856,256,241.856z"/>
<path d="M349.72,270.143c-7.81,0-14.144-6.334-14.144-14.144c0-32.277-19.312-61.006-49.202-73.186
	c-7.233-2.949-10.707-11.203-7.759-18.436c2.949-7.232,11.198-10.704,18.436-7.759c40.587,16.542,66.812,55.552,66.812,99.383
	C363.864,263.809,357.53,270.143,349.72,270.143z"/>
<path d="M246.085,177.587c-3.721,0-7.369-1.499-10-4.144c-0.665-0.651-1.245-1.372-1.768-2.151
	c-0.509-0.764-0.948-1.583-1.301-2.433c-0.354-0.861-0.622-1.754-0.806-2.645c-0.184-0.918-0.267-1.853-0.267-2.772
	c0-0.918,0.085-1.853,0.267-2.758c0.184-0.905,0.453-1.796,0.806-2.643c0.354-0.863,0.792-1.683,1.301-2.447
	c0.523-0.778,1.103-1.499,1.768-2.15c3.281-3.281,8.161-4.796,12.758-3.861c0.907,0.184,1.798,0.453,2.645,0.806
	c0.85,0.354,1.67,0.792,2.447,1.301c0.764,0.508,1.499,1.103,2.15,1.754c0.651,0.651,1.245,1.372,1.754,2.15
	c0.509,0.764,0.948,1.584,1.301,2.447c0.354,0.849,0.622,1.738,0.806,2.643c0.184,0.907,0.283,1.84,0.283,2.758
	c0,0.919-0.099,1.854-0.283,2.772c-0.184,0.891-0.453,1.784-0.806,2.645c-0.354,0.85-0.792,1.669-1.301,2.433
	c-0.509,0.779-1.103,1.501-1.754,2.151c-0.651,0.651-1.385,1.245-2.15,1.768c-0.764,0.509-1.598,0.948-2.447,1.301
	c-0.849,0.354-1.738,0.622-2.645,0.806C247.938,177.502,247.005,177.587,246.085,177.587z"/>
<circle style="fill:#FF5050;" cx="63.646" cy="76.375" r="47.657"/>
<path d="M497.856,14.576H14.144C6.334,14.576,0,20.909,0,28.719v454.561c0,7.81,6.334,14.144,14.144,14.144h483.713
	c7.81,0,14.144-6.334,14.144-14.144V28.719C512,20.908,505.667,14.576,497.856,14.576z M97.158,76.375
	c0,18.479-15.033,33.512-33.512,33.512S30.134,94.854,30.134,76.375s15.033-33.512,33.512-33.512S97.158,57.896,97.158,76.375z
	 M483.713,469.136H28.287V127.015c10.026,7.022,22.215,11.161,35.359,11.161c4.055,0,8.015-0.405,11.855-1.153l22.757,43.998
	c-10.85,22.732-16.933,48.156-16.933,74.978c0,96.315,78.359,174.674,174.674,174.674s174.674-78.359,174.674-174.674
	S352.315,81.325,256,81.325c-57.617,0-108.8,28.048-140.635,71.199L101.3,125.329c14.67-11.309,24.146-29.041,24.146-48.954
	c0-12.346-3.653-23.85-9.916-33.512h368.183V469.136z M264.957,325.303h-60.224l-74.529-144.088
	c25.566-42.843,72.382-71.602,125.795-71.602c80.718,0,146.387,65.669,146.387,146.387S336.718,402.386,256,402.386
	s-146.387-65.669-146.387-146.387c0-14.393,2.098-28.303,5.987-41.452l67.963,131.397c2.428,4.697,7.275,7.646,12.562,7.646h68.831
	c7.81,0,14.144-6.334,14.144-14.144S272.767,325.303,264.957,325.303z"/>
<g>
</g>
<g>
</g>
<g>
</g>
<g>
</g>
<g>
</g>
<g>
</g>
<g>
</g>
<g>
</g>
<g>
</g>
<g>
</g>
<g>
</g>
<g>
</g>
<g>
</g>
<g>
</g>
<g>
</g>
</svg>
