<?xml version="1.0" encoding="iso-8859-1"?>
<!-- Generator: Adobe Illustrator 19.0.0, SVG Export Plug-In . SVG Version: 6.00 Build 0)  -->
<svg version="1.1" id="Layer_1" xmlns="http://www.w3.org/2000/svg" xmlns:xlink="http://www.w3.org/1999/xlink" x="0px" y="0px"
	 viewBox="0 0 512.001 512.001" style="enable-background:new 0 0 512.001 512.001;" xml:space="preserve">
<path style="fill:#FF5050;" d="M357.958,329.117c-3.854-6.993-5.085-15.112-3.463-22.929c2.639-12.724,4.063-29.001,4.063-38.933
	c0-56.641-45.917-88.61-102.558-88.61s-102.558,31.969-102.558,88.61c0,9.931,1.424,26.209,4.063,38.931
	c1.622,7.818,0.391,15.937-3.463,22.929c-11.8,21.418-18.647,52.532-18.647,76.216c0,66.608,53.996,92.708,120.603,92.708
	s120.605-26.1,120.605-92.708C376.604,381.649,369.758,350.534,357.958,329.117z"/>
<path d="M329.373,424.451c-0.906,0-1.828-0.096-2.736-0.279c-0.879-0.181-1.759-0.445-2.609-0.794
	c-0.839-0.349-1.648-0.783-2.402-1.284c-0.768-0.502-1.479-1.089-2.122-1.731c-0.642-0.642-1.228-1.354-1.731-2.123
	c-0.502-0.754-0.935-1.562-1.284-2.413c-0.349-0.837-0.628-1.717-0.796-2.61c-0.181-0.893-0.279-1.814-0.279-2.722
	c0-0.906,0.098-1.828,0.279-2.722c0.168-0.893,0.447-1.773,0.796-2.624c0.349-0.837,0.782-1.647,1.27-2.401
	c0.516-0.768,1.103-1.479,1.745-2.122c0.642-0.642,1.354-1.23,2.122-1.745c0.754-0.502,1.563-0.921,2.402-1.27
	c0.85-0.349,1.729-0.628,2.609-0.796c1.816-0.363,3.657-0.363,5.457,0c0.895,0.168,1.774,0.447,2.624,0.796
	c0.839,0.349,1.648,0.768,2.402,1.27c0.768,0.515,1.479,1.103,2.122,1.745c0.642,0.642,1.228,1.354,1.745,2.122
	c0.49,0.754,0.921,1.563,1.27,2.401c0.349,0.851,0.628,1.731,0.796,2.624c0.181,0.895,0.278,1.816,0.278,2.722
	c0,0.907-0.096,1.83-0.278,2.722c-0.167,0.893-0.447,1.774-0.796,2.61c-0.349,0.851-0.782,1.66-1.284,2.413
	c-0.502,0.769-1.089,1.481-1.731,2.123c-0.642,0.642-1.354,1.228-2.122,1.731c-0.754,0.501-1.563,0.935-2.402,1.284
	c-0.85,0.349-1.729,0.613-2.624,0.794C331.203,424.354,330.282,424.451,329.373,424.451z"/>
<rect x="217.262" y="13.957" style="fill:#FFDC64;" width="77.464" height="63.269"/>
<rect id="SVGCleanerId_0" x="228.205" y="77.226" style="fill:#4DA081;" width="55.597" height="275.422"/>
<path d="M283.8,366.615h-55.598c-7.707,0-13.957-6.25-13.957-13.957V77.232c0-7.707,6.25-13.957,13.957-13.957H283.8
	c7.707,0,13.957,6.25,13.957,13.957v275.426C297.757,360.365,291.507,366.615,283.8,366.615z M242.159,338.701h27.683V91.189
	h-27.683V338.701z"/>
<g>
	<rect id="SVGCleanerId_0_1_" x="228.205" y="77.226" style="fill:#4DA081;" width="55.597" height="275.422"/>
</g>
<path d="M370.184,322.383C370.184,322.383,370.184,322.382,370.184,322.383c-2.246-4.076-2.965-8.82-2.022-13.359
	c2.992-14.417,4.355-31.757,4.355-41.769c0-31.267-12.171-57.679-35.196-76.381c-11.137-9.043-24.603-15.895-39.562-20.319V90.852
	c6.253-1.383,10.933-6.951,10.933-13.62V59.467c6.997-0.755,12.446-6.676,12.446-13.872s-5.449-13.117-12.446-13.872V13.957
	C308.69,6.25,302.44,0,294.733,0h-77.464c-7.707,0-13.957,6.25-13.957,13.957v17.765c-6.997,0.755-12.446,6.676-12.446,13.872
	s5.449,13.117,12.446,13.872v17.765c0,6.667,4.68,12.236,10.933,13.62v79.704c-14.96,4.424-28.426,11.275-39.562,20.319
	c-23.026,18.7-35.196,45.112-35.196,76.381c0,10.012,1.364,27.352,4.353,41.768c0.942,4.54,0.225,9.283-2.021,13.36
	c-12.189,22.124-20.379,55.458-20.379,82.952c0,35.771,14.326,64.427,41.43,82.871c22.878,15.567,55.082,23.796,93.132,23.796
	s70.255-8.229,93.132-23.796c27.104-18.443,41.43-47.099,41.43-82.871C390.561,377.841,382.373,344.505,370.184,322.383z
	 M231.226,27.915h49.549v35.36h-49.549V27.915z M269.842,91.189v247.511h-27.683V91.189H269.842z M333.428,465.127
	c-18.227,12.403-45,18.958-77.427,18.958s-59.2-6.556-77.427-18.958c-14.652-9.971-23.686-23.38-27.341-40.678h136.27
	c7.707,0,13.957-6.25,13.957-13.957c0-7.707-6.25-13.957-13.957-13.957H149.673c1.467-21.014,7.882-44.867,16.595-60.684
	c5.456-9.903,7.198-21.446,4.905-32.501c-2.475-11.932-3.771-27.19-3.771-36.095c0-36.44,20.88-57.318,46.844-67.287v152.69
	c0,7.707,6.25,13.957,13.957,13.957h55.598c7.707,0,13.957-6.25,13.957-13.957V199.968c25.962,9.97,46.844,30.847,46.844,67.287
	c0,8.905-1.297,24.164-3.771,36.097c-2.295,11.056-0.553,22.597,4.905,32.5c9.959,18.075,16.914,46.647,16.914,69.481
	C362.647,432.189,353.09,451.747,333.428,465.127z"/>
<g>
</g>
<g>
</g>
<g>
</g>
<g>
</g>
<g>
</g>
<g>
</g>
<g>
</g>
<g>
</g>
<g>
</g>
<g>
</g>
<g>
</g>
<g>
</g>
<g>
</g>
<g>
</g>
<g>
</g>
</svg>
