<?xml version="1.0" encoding="iso-8859-1"?>
<!-- Generator: Adobe Illustrator 19.0.0, SVG Export Plug-In . SVG Version: 6.00 Build 0)  -->
<svg version="1.1" id="Layer_1" xmlns="http://www.w3.org/2000/svg" xmlns:xlink="http://www.w3.org/1999/xlink" x="0px" y="0px"
	 viewBox="0 0 512 512" style="enable-background:new 0 0 512 512;" xml:space="preserve">
<rect x="115.214" y="14.071" style="fill:#A2A8D3;" width="281.575" height="443.054"/>
<path d="M351.304,277.811c-0.915,0-1.843-0.086-2.744-0.267s-1.787-0.464-2.631-0.816c-0.858-0.352-1.674-0.788-2.434-1.295
	c-0.774-0.507-1.492-1.098-2.139-1.745c-0.647-0.647-1.238-1.365-1.745-2.139c-0.507-0.76-0.943-1.576-1.295-2.434
	c-0.352-0.844-0.619-1.729-0.802-2.631c-0.183-0.901-0.281-1.829-0.281-2.742c0-0.915,0.099-1.845,0.281-2.744
	c0.183-0.901,0.45-1.788,0.802-2.645c0.352-0.846,0.788-1.662,1.295-2.422c0.507-0.774,1.098-1.492,1.745-2.139
	s1.365-1.238,2.139-1.745c0.76-0.505,1.576-0.943,2.434-1.295c0.844-0.352,1.731-0.618,2.631-0.802c1.815-0.366,3.687-0.366,5.502,0
	c0.901,0.184,1.773,0.45,2.631,0.802c0.844,0.352,1.66,0.789,2.42,1.295c0.774,0.507,1.492,1.098,2.139,1.745
	c0.647,0.647,1.238,1.365,1.759,2.139c0.507,0.76,0.943,1.576,1.295,2.422c0.352,0.857,0.619,1.745,0.802,2.645
	s0.267,1.829,0.267,2.744c0,0.913-0.084,1.843-0.267,2.742c-0.183,0.902-0.45,1.788-0.802,2.631
	c-0.352,0.858-0.788,1.674-1.295,2.434c-0.521,0.774-1.112,1.492-1.759,2.139c-0.647,0.647-1.365,1.238-2.139,1.745
	c-0.76,0.507-1.576,0.943-2.42,1.295c-0.858,0.352-1.745,0.633-2.631,0.816C353.148,277.725,352.217,277.811,351.304,277.811z"/>
<circle style="fill:#FFDC64;" cx="256.008" cy="355.574" r="43.329"/>
<path d="M256.001,412.971c-31.65,0-57.398-25.75-57.398-57.4s25.749-57.4,57.398-57.4s57.398,25.75,57.398,57.4
	S287.651,412.971,256.001,412.971z M256.001,326.313c-16.132,0-29.256,13.125-29.256,29.258c0,16.132,13.125,29.258,29.256,29.258
	s29.256-13.125,29.256-29.258C285.258,339.439,272.132,326.313,256.001,326.313z"/>
<circle style="fill:#7BFFCD;" cx="256.008" cy="138.163" r="68.454"/>
<path d="M256.001,220.685c-45.504,0-82.524-37.021-82.524-82.525s37.021-82.524,82.524-82.524s82.524,37.021,82.524,82.524
	C338.525,183.665,301.504,220.685,256.001,220.685z M256.001,83.777c-29.987,0-54.382,24.396-54.382,54.382
	c0,29.988,24.395,54.383,54.382,54.383s54.382-24.396,54.382-54.383C310.383,108.174,285.988,83.777,256.001,83.777z"/>
<g>
	<rect x="115.214" y="457.125" style="fill:#767B95;" width="75.983" height="40.806"/>
	<rect x="320.805" y="457.125" style="fill:#767B95;" width="75.983" height="40.806"/>
</g>
<path d="M396.792,0H115.21c-7.771,0-14.071,6.301-14.071,14.071v443.052v40.806c0,7.77,6.3,14.071,14.071,14.071h75.983
	c7.771,0,14.071-6.301,14.071-14.071v-26.735h101.472v26.735c0,7.77,6.3,14.071,14.071,14.071h75.983
	c7.771,0,14.071-6.301,14.071-14.071v-40.806V14.071C410.863,6.301,404.563,0,396.792,0z M382.721,28.142v414.91h-61.912H191.195
	h-61.912V277.811h179.812c7.771,0,14.071-6.301,14.071-14.071c0-7.77-6.3-14.071-14.071-14.071H129.281V28.142H382.721z
	 M177.122,483.858h-47.841v-12.664h47.841V483.858z M382.721,483.858h-47.841v-12.664h47.841V483.858z"/>
<g>
</g>
<g>
</g>
<g>
</g>
<g>
</g>
<g>
</g>
<g>
</g>
<g>
</g>
<g>
</g>
<g>
</g>
<g>
</g>
<g>
</g>
<g>
</g>
<g>
</g>
<g>
</g>
<g>
</g>
</svg>
