<?xml version="1.0" encoding="iso-8859-1"?>
<!-- Generator: Adobe Illustrator 19.0.0, SVG Export Plug-In . SVG Version: 6.00 Build 0)  -->
<svg version="1.1" id="Layer_1" xmlns="http://www.w3.org/2000/svg" xmlns:xlink="http://www.w3.org/1999/xlink" x="0px" y="0px"
	 viewBox="0 0 512 512" style="enable-background:new 0 0 512 512;" xml:space="preserve">
<rect x="45.194" y="15.035" style="fill:#A2A8D3;" width="421.604" height="436.638"/>
<path d="M466.804,466.712H45.196c-8.304,0-15.035-6.731-15.035-15.035V15.035C30.161,6.731,36.892,0,45.196,0h421.608
	c8.304,0,15.035,6.731,15.035,15.035v436.643C481.839,459.981,475.108,466.712,466.804,466.712z M60.231,436.643h391.539V30.069
	H60.231V436.643z"/>
<rect x="110.595" y="172.899" style="fill:#7DF5A5;" width="290.802" height="213.373"/>
<path d="M160.996,336.044c-0.977,0-1.97-0.09-2.932-0.286c-0.962-0.195-1.909-0.481-2.811-0.857
	c-0.917-0.376-1.789-0.842-2.601-1.383c-0.827-0.556-1.594-1.173-2.285-1.879c-0.692-0.692-1.323-1.458-1.864-2.285
	c-0.541-0.812-1.007-1.684-1.383-2.586c-0.376-0.902-0.662-1.849-0.857-2.811c-0.195-0.977-0.301-1.955-0.301-2.947
	c0-0.977,0.105-1.954,0.301-2.932c0.195-0.962,0.481-1.909,0.857-2.811c0.376-0.902,0.842-1.774,1.383-2.601
	c0.541-0.812,1.173-1.594,1.864-2.285c0.692-0.692,1.458-1.323,2.285-1.864c0.812-0.541,1.684-1.007,2.601-1.383
	c0.902-0.376,1.849-0.662,2.811-0.857c1.939-0.391,3.939-0.391,5.879,0c0.947,0.195,1.894,0.481,2.811,0.857
	c0.902,0.376,1.774,0.842,2.586,1.383c0.827,0.541,1.594,1.173,2.285,1.864c0.692,0.692,1.323,1.473,1.879,2.285
	c0.541,0.827,1.007,1.699,1.368,2.601c0.376,0.902,0.677,1.849,0.872,2.811c0.195,0.977,0.286,1.955,0.286,2.932
	c0,0.992-0.09,1.97-0.286,2.947c-0.195,0.962-0.496,1.909-0.872,2.811c-0.361,0.902-0.827,1.774-1.368,2.586
	c-0.556,0.827-1.188,1.594-1.879,2.285c-0.692,0.707-1.458,1.323-2.285,1.879c-0.812,0.541-1.684,1.007-2.586,1.383
	c-0.917,0.376-1.864,0.662-2.811,0.857C162.964,335.954,161.972,336.044,160.996,336.044z"/>
<path d="M401.403,157.865H204.23c-0.005,0-0.011,0-0.015,0h-93.618c-8.304,0-15.035,6.731-15.035,15.035v213.377
	c0,8.304,6.731,15.035,15.035,15.035h290.806c8.304,0,15.035-6.731,15.035-15.035V172.899
	C416.438,164.596,409.707,157.865,401.403,157.865z M167.924,187.934l-42.293,42.293v-42.293H167.924z M125.632,272.754l84.82-84.82
	h62.358l-91.825,91.831c-5.871,5.871-5.871,15.391,0,21.262c2.936,2.936,6.784,4.404,10.631,4.404c3.847,0,7.696-1.469,10.631-4.404
	l113.085-113.093h71.036v96.233l-87.075,87.075h-62.37l97.408-97.399c5.871-5.871,5.873-15.391,0-21.262
	c-5.871-5.873-15.39-5.871-21.262,0L194.397,371.243h-68.766V272.754z M341.82,371.242l44.548-44.548v44.548H341.82z"/>
<path d="M355.845,246.106c-0.992,0-1.97-0.09-2.947-0.286c-0.962-0.195-1.909-0.481-2.811-0.857
	c-0.902-0.376-1.774-0.842-2.601-1.383c-0.812-0.556-1.594-1.188-2.285-1.879c-0.692-0.692-1.308-1.458-1.864-2.285
	c-0.541-0.812-1.007-1.684-1.383-2.586c-0.376-0.917-0.662-1.864-0.857-2.827s-0.286-1.955-0.286-2.932
	c0-0.977,0.09-1.97,0.286-2.932s0.481-1.909,0.857-2.811c0.376-0.917,0.842-1.789,1.383-2.601c0.556-0.827,1.173-1.594,1.864-2.285
	c0.692-0.692,1.473-1.323,2.285-1.864c0.827-0.541,1.699-1.007,2.601-1.383c0.902-0.376,1.849-0.662,2.811-0.857
	c1.939-0.391,3.939-0.391,5.879,0c0.962,0.195,1.909,0.481,2.811,0.857s1.774,0.842,2.601,1.383
	c0.812,0.541,1.579,1.173,2.285,1.864c0.692,0.692,1.308,1.458,1.864,2.285c0.541,0.812,1.007,1.684,1.383,2.601
	c0.376,0.902,0.662,1.849,0.857,2.811s0.301,1.955,0.301,2.932c0,0.977-0.105,1.97-0.301,2.932
	c-0.195,0.962-0.481,1.909-0.857,2.827c-0.376,0.902-0.842,1.774-1.383,2.586c-0.556,0.827-1.173,1.594-1.864,2.285
	c-0.707,0.692-1.473,1.323-2.285,1.879c-0.827,0.541-1.699,1.007-2.601,1.383s-1.849,0.662-2.811,0.857
	C357.799,246.016,356.824,246.106,355.845,246.106z"/>
<rect x="110.595" y="69.475" style="fill:#FF5050;" width="61.454" height="48.863"/>
<path d="M172.054,133.375H110.6c-8.304,0-15.035-6.731-15.035-15.035V69.477c0-8.304,6.731-15.035,15.035-15.035h61.454
	c8.304,0,15.035,6.731,15.035,15.035v48.863C187.089,126.643,180.358,133.375,172.054,133.375z M125.635,103.305h31.385V84.512
	h-31.385V103.305z"/>
<rect x="225.28" y="69.475" style="fill:#FF5050;" width="61.454" height="48.863"/>
<path d="M286.727,133.375h-61.454c-8.304,0-15.035-6.731-15.035-15.035V69.477c0-8.304,6.731-15.035,15.035-15.035h61.454
	c8.304,0,15.035,6.731,15.035,15.035v48.863C301.762,126.643,295.031,133.375,286.727,133.375z M240.308,103.305h31.385V84.512
	h-31.385V103.305z"/>
<rect x="339.95" y="69.475" style="fill:#FF5050;" width="61.454" height="48.863"/>
<path d="M401.4,133.375h-61.454c-8.304,0-15.035-6.731-15.035-15.035V69.477c0-8.304,6.731-15.035,15.035-15.035H401.4
	c8.304,0,15.035,6.731,15.035,15.035v48.863C416.435,126.643,409.704,133.375,401.4,133.375z M354.98,103.305h31.385V84.512H354.98
	V103.305z"/>
<path d="M123.945,512H71.824c-8.304,0-15.035-6.731-15.035-15.035c0-8.304,6.731-15.035,15.035-15.035h52.121
	c8.304,0,15.035,6.731,15.035,15.035C138.979,505.269,132.248,512,123.945,512z"/>
<path d="M440.175,512h-52.121c-8.304,0-15.035-6.731-15.035-15.035c0-8.304,6.731-15.035,15.035-15.035h52.121
	c8.304,0,15.035,6.731,15.035,15.035C455.209,505.269,448.478,512,440.175,512z"/>
<g>
</g>
<g>
</g>
<g>
</g>
<g>
</g>
<g>
</g>
<g>
</g>
<g>
</g>
<g>
</g>
<g>
</g>
<g>
</g>
<g>
</g>
<g>
</g>
<g>
</g>
<g>
</g>
<g>
</g>
</svg>
