<?xml version="1.0" encoding="iso-8859-1"?>
<!-- Generator: Adobe Illustrator 19.0.0, SVG Export Plug-In . SVG Version: 6.00 Build 0)  -->
<svg version="1.1" id="Layer_1" xmlns="http://www.w3.org/2000/svg" xmlns:xlink="http://www.w3.org/1999/xlink" x="0px" y="0px"
	 viewBox="0 0 512 512" style="enable-background:new 0 0 512 512;" xml:space="preserve">
<path style="fill:#FF5050;" d="M307.431,202.505l4.089,116.152c-10.982-19.301-31.722-32.329-55.517-32.329
	s-44.535,13.026-55.517,32.329l4.089-116.152c-53.165,29.955-90.861,102.436-90.861,168.266
	c0,85.582,63.705,127.498,142.289,127.498s142.289-41.917,142.289-127.498C398.291,304.941,360.594,232.46,307.431,202.505z"/>
<circle style="fill:#FFDC64;" cx="255.996" cy="350.172" r="63.847"/>
<path style="fill:#7BFFCD;" d="M256.001,286.328c23.795,0,44.535,13.026,55.517,32.329l-9.628-273.524
	c-0.616-17.519-14.998-31.402-32.526-31.402H242.64c-17.53,0-31.91,13.883-32.526,31.402l-9.629,273.524
	C211.467,299.354,232.206,286.328,256.001,286.328z"/>
<path d="M320.891,194.611l-5.279-149.962C314.73,19.613,294.416,0,269.364,0H242.64c-25.053,0-45.367,19.613-46.249,44.649
	l-5.279,149.962c-53.195,33.964-91.13,106.576-91.13,176.161C99.982,456.565,161.223,512,256,512s156.018-55.436,156.018-141.228
	C412.021,301.187,374.086,228.575,320.891,194.611z M212.729,324.941c0.35-0.599,0.713-1.186,1.085-1.767
	c0.177-0.276,0.35-0.557,0.533-0.829c0.516-0.77,1.052-1.524,1.606-2.261c0.205-0.272,0.42-0.534,0.629-0.8
	c0.406-0.518,0.82-1.027,1.245-1.527c0.238-0.279,0.476-0.557,0.719-0.831c0.523-0.589,1.06-1.164,1.609-1.726
	c0.125-0.129,0.244-0.262,0.372-0.39c0.7-0.7,1.421-1.376,2.16-2.032c0.154-0.137,0.312-0.269,0.467-0.405
	c0.669-0.579,1.348-1.144,2.044-1.688c0.099-0.077,0.196-0.157,0.295-0.232c4.999-3.836,10.695-6.703,16.776-8.446v55.142
	c0,7.583,6.147,13.731,13.731,13.731c7.583,0,13.731-6.147,13.731-13.731v-55.142c6.08,1.742,11.775,4.609,16.776,8.446
	c0.099,0.077,0.196,0.155,0.295,0.232c0.696,0.542,1.377,1.107,2.044,1.688c0.155,0.135,0.313,0.268,0.467,0.405
	c0.737,0.656,1.46,1.332,2.16,2.032c0.126,0.128,0.246,0.261,0.372,0.39c0.549,0.562,1.085,1.138,1.609,1.726
	c0.243,0.275,0.483,0.552,0.719,0.831c0.426,0.5,0.839,1.009,1.245,1.527c0.21,0.266,0.426,0.53,0.629,0.8
	c0.555,0.736,1.09,1.491,1.606,2.261c0.183,0.273,0.354,0.553,0.533,0.829c0.372,0.581,0.736,1.168,1.085,1.767
	c4.343,7.417,6.845,16.037,6.845,25.236c0,27.634-22.483,50.117-50.117,50.117s-50.117-22.483-50.117-50.117
	C205.885,340.977,208.386,332.358,212.729,324.941z M242.64,27.461h26.724c10.185,0,18.446,7.975,18.804,18.155l8.395,238.463
	c-0.715-0.441-1.446-0.858-2.176-1.277c-0.051-0.029-0.102-0.059-0.152-0.088c-7.406-4.214-15.565-7.239-24.228-8.826
	c-0.092-0.016-0.183-0.037-0.275-0.054V107.176c0-7.583-6.147-13.731-13.731-13.731c-7.583,0-13.731,6.147-13.731,13.731v166.66
	c-0.092,0.016-0.183,0.037-0.275,0.054c-8.661,1.587-16.821,4.612-24.228,8.826c-0.051,0.029-0.102,0.059-0.152,0.088
	c-0.73,0.417-1.461,0.836-2.176,1.277l8.395-238.463C224.194,35.436,232.453,27.461,242.64,27.461z M256.001,484.539
	c-62.149,0-128.557-29.887-128.557-113.766c0-52.462,25.678-108.505,62.428-140.915l-2.999,85.179
	c-5.389,10.557-8.45,22.495-8.45,35.139c0,42.776,34.802,77.578,77.578,77.578s77.578-34.802,77.578-77.578
	c0-12.645-3.061-24.581-8.45-35.139l-2.999-85.179c36.75,32.41,62.428,88.453,62.428,140.915
	C384.56,454.651,318.15,484.539,256.001,484.539z"/>
<path d="M256.001,79.712c-0.892,0-1.799-0.082-2.677-0.261c-0.879-0.178-1.744-0.439-2.568-0.783
	c-0.838-0.343-1.634-0.769-2.375-1.263c-0.755-0.508-1.455-1.085-2.087-1.716c-0.632-0.632-1.208-1.332-1.703-2.087
	c-0.494-0.741-0.92-1.538-1.263-2.362c-0.343-0.838-0.604-1.703-0.783-2.568c-0.179-0.892-0.275-1.799-0.275-2.691
	s0.096-1.799,0.275-2.677c0.178-0.879,0.439-1.744,0.783-2.568c0.343-0.838,0.769-1.634,1.263-2.375
	c0.494-0.755,1.071-1.455,1.703-2.087c0.632-0.632,1.332-1.208,2.087-1.703c0.741-0.494,1.538-0.92,2.375-1.263
	c0.824-0.343,1.689-0.604,2.568-0.783c1.771-0.357,3.584-0.357,5.355,0c0.879,0.178,1.744,0.439,2.568,0.783
	c0.838,0.343,1.634,0.769,2.375,1.263c0.755,0.494,1.455,1.071,2.087,1.703c0.632,0.632,1.208,1.332,1.703,2.087
	c0.494,0.741,0.92,1.538,1.263,2.375c0.343,0.824,0.618,1.689,0.783,2.568c0.178,0.879,0.275,1.785,0.275,2.677
	s-0.096,1.799-0.275,2.691c-0.165,0.865-0.439,1.73-0.783,2.568c-0.343,0.824-0.769,1.62-1.263,2.362
	c-0.494,0.755-1.071,1.455-1.703,2.087s-1.332,1.208-2.087,1.716c-0.741,0.494-1.538,0.92-2.375,1.263
	c-0.824,0.343-1.689,0.604-2.568,0.783C257.8,79.629,256.894,79.712,256.001,79.712z"/>
<g>
</g>
<g>
</g>
<g>
</g>
<g>
</g>
<g>
</g>
<g>
</g>
<g>
</g>
<g>
</g>
<g>
</g>
<g>
</g>
<g>
</g>
<g>
</g>
<g>
</g>
<g>
</g>
<g>
</g>
</svg>
