<?xml version="1.0" encoding="iso-8859-1"?>
<!-- Generator: Adobe Illustrator 19.0.0, SVG Export Plug-In . SVG Version: 6.00 Build 0)  -->
<svg version="1.1" id="Layer_1" xmlns="http://www.w3.org/2000/svg" xmlns:xlink="http://www.w3.org/1999/xlink" x="0px" y="0px"
	 viewBox="0 0 512 512" style="enable-background:new 0 0 512 512;" xml:space="preserve">
<rect x="14.501" y="125.301" style="fill:#A2A8D3;" width="483.003" height="348.016"/>
<path d="M497.499,110.795h-1.437L57.24,24.468c-7.864-1.557-15.481,3.57-17.027,11.428c-1.546,7.858,3.572,15.482,11.429,17.027
	l294.178,57.871H14.501C6.492,110.793,0,117.287,0,125.294V473.31c0,8.007,6.492,14.501,14.501,14.501h482.999
	c8.009,0,14.501-6.493,14.501-14.501V125.294C512,117.287,505.508,110.795,497.499,110.795z M482.999,458.811H29.001V139.796
	h453.997V458.811z"/>
<circle style="fill:#7BFFCD;" cx="151.199" cy="299.309" r="91.746"/>
<rect x="290.681" y="196.108" style="fill:#FFDC64;" width="160.479" height="85.064"/>
<path d="M451.155,295.675H290.681c-8.009,0-14.501-6.493-14.501-14.501v-85.064c0-8.007,6.492-14.501,14.501-14.501h160.475
	c8.009,0,14.501,6.493,14.501,14.501v85.064C465.656,289.182,459.164,295.675,451.155,295.675z M305.181,266.674h131.473v-56.063
	H305.181V266.674z"/>
<circle style="fill:#767B95;" cx="422.883" cy="373.495" r="29.001"/>
<path d="M422.879,416.997c-23.987,0-43.502-19.515-43.502-43.502s19.515-43.502,43.502-43.502c23.987,0,43.502,19.515,43.502,43.502
	S446.866,416.997,422.879,416.997z M422.879,358.994c-7.996,0-14.501,6.505-14.501,14.501c0,7.996,6.505,14.501,14.501,14.501
	c7.996,0,14.501-6.505,14.501-14.501C437.38,365.499,430.875,358.994,422.879,358.994z"/>
<circle style="fill:#767B95;" cx="318.957" cy="373.495" r="29.001"/>
<path d="M318.957,416.997c-23.987,0-43.502-19.515-43.502-43.502s19.515-43.502,43.502-43.502c23.987,0,43.502,19.515,43.502,43.502
	S342.944,416.997,318.957,416.997z M318.957,358.994c-7.996,0-14.501,6.505-14.501,14.501c0,7.996,6.505,14.501,14.501,14.501
	c7.996,0,14.501-6.505,14.501-14.501C333.458,365.499,326.953,358.994,318.957,358.994z"/>
<path d="M106.613,338.454c-0.957,0-1.9-0.1-2.842-0.289c-0.914-0.174-1.827-0.464-2.712-0.827c-0.87-0.363-1.711-0.814-2.494-1.334
	c-0.798-0.522-1.537-1.131-2.219-1.798c-0.667-0.667-1.262-1.407-1.798-2.204c-0.522-0.783-0.972-1.624-1.334-2.496
	c-0.363-0.883-0.638-1.798-0.827-2.712c-0.189-0.941-0.276-1.9-0.276-2.842c0-0.941,0.087-1.9,0.276-2.826
	c0.189-0.93,0.464-1.843,0.827-2.712c0.363-0.885,0.812-1.726,1.334-2.509c0.537-0.798,1.131-1.537,1.798-2.204
	c3.379-3.364,8.396-4.917,13.094-3.959c0.928,0.174,1.842,0.464,2.712,0.827s1.726,0.812,2.509,1.334
	c0.798,0.522,1.537,1.131,2.204,1.798c0.667,0.667,1.276,1.407,1.798,2.204c0.522,0.783,0.972,1.624,1.334,2.509
	c0.363,0.87,0.638,1.782,0.827,2.712c0.189,0.928,0.29,1.885,0.29,2.826c0,0.943-0.102,1.901-0.29,2.842
	c-0.189,0.914-0.464,1.829-0.827,2.712c-0.363,0.871-0.812,1.713-1.334,2.496c-0.522,0.798-1.131,1.537-1.798,2.204
	c-0.667,0.667-1.407,1.276-2.204,1.798c-0.783,0.521-1.639,0.972-2.509,1.334c-0.87,0.362-1.784,0.652-2.712,0.827
	C108.498,338.352,107.556,338.454,106.613,338.454z"/>
<path d="M151.201,193.054c-58.586,0-106.249,47.662-106.249,106.249s47.664,106.248,106.249,106.248s106.248-47.662,106.248-106.248
	S209.787,193.054,151.201,193.054z M151.201,376.55c-42.594,0-77.248-34.652-77.248-77.247s34.654-77.247,77.248-77.247
	c26.952,0,50.712,13.884,64.538,34.868h-65.629c-8.009,0-14.501,6.493-14.501,14.501c0,8.007,6.492,14.501,14.501,14.501h77.154
	c0.763,4.349,1.183,8.814,1.183,13.378c0,3.442-0.249,6.825-0.687,10.15h-77.65c-8.009,0-14.501,6.493-14.501,14.501
	c0,8.007,6.492,14.501,14.501,14.501h67.641C204.301,361.232,179.514,376.55,151.201,376.55z"/>
<path d="M106.613,285.918c-0.957,0-1.9-0.088-2.842-0.276c-0.928-0.189-1.842-0.463-2.712-0.825s-1.711-0.814-2.494-1.336
	c-0.798-0.521-1.537-1.13-2.204-1.797c-0.667-0.667-1.276-1.421-1.813-2.206c-0.522-0.798-0.972-1.639-1.334-2.507
	c-0.363-0.871-0.638-1.784-0.827-2.712c-0.189-0.943-0.276-1.885-0.276-2.842c0-0.943,0.087-1.885,0.276-2.828
	c0.189-0.928,0.464-1.842,0.827-2.712s0.812-1.724,1.334-2.507c0.537-0.783,1.146-1.524,1.813-2.191
	c0.667-0.682,1.407-1.276,2.204-1.813c0.783-0.521,1.624-0.972,2.494-1.334c0.87-0.363,1.784-0.637,2.712-0.825
	c1.871-0.378,3.799-0.378,5.67,0c0.928,0.189,1.842,0.463,2.712,0.825c0.885,0.363,1.726,0.813,2.509,1.334
	c0.798,0.537,1.537,1.131,2.204,1.813c0.667,0.667,1.276,1.408,1.798,2.191c0.522,0.783,0.972,1.639,1.334,2.507
	c0.363,0.871,0.638,1.784,0.827,2.712c0.189,0.943,0.29,1.885,0.29,2.828c0,0.957-0.102,1.9-0.29,2.842
	c-0.188,0.928-0.464,1.842-0.827,2.712c-0.363,0.87-0.812,1.711-1.334,2.507c-0.522,0.783-1.131,1.539-1.798,2.206
	c-0.667,0.667-1.407,1.276-2.204,1.797c-0.783,0.522-1.624,0.973-2.509,1.336c-0.87,0.363-1.784,0.637-2.712,0.825
	C108.513,285.831,107.556,285.918,106.613,285.918z"/>
<g>
</g>
<g>
</g>
<g>
</g>
<g>
</g>
<g>
</g>
<g>
</g>
<g>
</g>
<g>
</g>
<g>
</g>
<g>
</g>
<g>
</g>
<g>
</g>
<g>
</g>
<g>
</g>
<g>
</g>
</svg>
