<?xml version="1.0" encoding="iso-8859-1"?>
<!-- Generator: Adobe Illustrator 19.0.0, SVG Export Plug-In . SVG Version: 6.00 Build 0)  -->
<svg version="1.1" id="Layer_1" xmlns="http://www.w3.org/2000/svg" xmlns:xlink="http://www.w3.org/1999/xlink" x="0px" y="0px"
	 viewBox="0 0 512 512" style="enable-background:new 0 0 512 512;" xml:space="preserve">
<rect x="12.736" y="96.197" style="fill:#767B95;" width="486.527" height="82.756"/>
<g>
	<rect x="40.626" y="53.192" style="fill:#7BFFCD;" width="75.488" height="43.004"/>
	<polygon style="fill:#7BFFCD;" points="40.626,178.95 40.626,458.808 116.118,427.144 116.118,178.95 	"/>
</g>
<g>
	<rect x="159.038" y="53.192" style="fill:#46AFA7;" width="75.488" height="43.004"/>
	<polygon style="fill:#46AFA7;" points="159.045,178.95 159.045,409.141 234.537,377.476 234.537,178.95 	"/>
</g>
<g>
	<rect x="277.461" y="53.192" style="fill:#7BFFCD;" width="75.488" height="43.004"/>
	<polygon style="fill:#7BFFCD;" points="277.463,178.95 277.463,359.474 352.955,327.81 352.955,178.95 	"/>
</g>
<g>
	<rect x="395.883" y="53.192" style="fill:#46AFA7;" width="75.488" height="43.004"/>
	<polygon style="fill:#46AFA7;" points="395.882,178.95 395.882,309.806 471.374,278.142 471.374,178.95 	"/>
</g>
<path d="M499.264,83.46H484.11V53.192c0-7.033-5.703-12.736-12.736-12.736h-75.491c-7.033,0-12.736,5.703-12.736,12.736V83.46
	h-17.454V53.192c0-7.033-5.703-12.736-12.736-12.736h-75.492c-7.033,0-12.736,5.703-12.736,12.736V83.46h-17.454V53.192
	c0-7.033-5.702-12.736-12.736-12.736h-75.491c-7.034,0-12.736,5.703-12.736,12.736V83.46h-17.454V53.192
	c0-7.033-5.702-12.736-12.736-12.736H40.626c-7.034,0-12.736,5.703-12.736,12.736V83.46H12.736C5.702,83.46,0,89.163,0,96.196
	v82.756c0,7.033,5.702,12.736,12.736,12.736H27.89v267.12c0,4.264,2.133,8.245,5.684,10.606c2.121,1.41,4.579,2.131,7.053,2.131
	c1.667,0,3.342-0.327,4.925-0.991l75.492-31.662c4.732-1.984,7.81-6.614,7.81-11.745V191.687h17.454v217.455
	c0,4.264,2.133,8.245,5.684,10.606c2.122,1.41,4.579,2.131,7.053,2.131c1.667,0,3.342-0.327,4.925-0.991l75.491-31.664
	c4.732-1.986,7.81-6.614,7.81-11.745V191.687h17.454v167.786c0,4.264,2.133,8.245,5.684,10.606c2.121,1.41,4.58,2.131,7.053,2.131
	c1.667,0,3.342-0.327,4.925-0.991l75.492-31.662c4.732-1.984,7.81-6.614,7.81-11.745V191.687h17.454v118.118
	c0,4.264,2.133,8.246,5.684,10.606c2.121,1.41,4.579,2.131,7.053,2.131c1.667,0,3.342-0.327,4.925-0.991l75.491-31.663
	c4.732-1.986,7.81-6.614,7.81-11.745v-86.455h15.156c7.033,0,12.736-5.703,12.736-12.736V96.196
	C512,89.162,506.297,83.46,499.264,83.46z M408.618,65.928h50.018V83.46h-50.018V65.928z M290.2,65.928h50.019V83.46H290.2V65.928z
	 M171.781,65.928h50.018V83.46h-50.018V65.928z M53.363,65.928h50.019V83.46H53.363V65.928z M103.382,418.676l-50.019,20.979
	V191.687h50.019V418.676z M221.8,369.008l-50.018,20.981V191.687H221.8V369.008z M340.219,319.342L290.2,340.321V191.688h50.019
	V319.342z M458.637,269.674l-50.018,20.979v-98.965h50.018V269.674z M486.527,166.214h-15.154h-75.491h-42.927h-75.492h-42.926
	h-75.491h-42.929H40.626H25.473V150.31h296.125c7.033,0,12.736-5.703,12.736-12.736c0-7.033-5.703-12.736-12.736-12.736H25.473
	v-15.905h15.154h75.492h42.926h75.491h42.926h75.492h42.927h75.491h15.156V166.214z"/>
<path d="M359.814,150.314c-0.841,0-1.668-0.089-2.496-0.255c-0.815-0.166-1.617-0.408-2.382-0.726
	c-0.777-0.318-1.514-0.713-2.202-1.172c-0.702-0.459-1.351-0.993-1.937-1.579c-0.586-0.586-1.121-1.235-1.579-1.936
	c-0.457-0.688-0.853-1.426-1.172-2.203c-0.318-0.764-0.559-1.565-0.725-2.382c-0.167-0.815-0.255-1.656-0.255-2.482
	c0-0.828,0.088-1.67,0.255-2.496c0.166-0.804,0.406-1.606,0.725-2.382c0.318-0.765,0.715-1.504,1.172-2.192
	c0.458-0.701,0.993-1.35,1.579-1.936c2.955-2.968,7.35-4.318,11.501-3.49c0.815,0.166,1.617,0.408,2.382,0.726
	c0.764,0.318,1.503,0.713,2.202,1.172c0.688,0.471,1.337,1.006,1.937,1.592c0.586,0.586,1.121,1.235,1.578,1.936
	c0.458,0.688,0.855,1.426,1.173,2.192c0.318,0.776,0.559,1.578,0.725,2.382c0.166,0.827,0.242,1.668,0.242,2.496
	c0,0.827-0.078,1.668-0.242,2.482c-0.166,0.816-0.406,1.619-0.725,2.382c-0.318,0.777-0.715,1.516-1.173,2.203
	c-0.47,0.701-0.992,1.35-1.578,1.936C366.449,148.951,363.163,150.314,359.814,150.314z"/>
<g>
</g>
<g>
</g>
<g>
</g>
<g>
</g>
<g>
</g>
<g>
</g>
<g>
</g>
<g>
</g>
<g>
</g>
<g>
</g>
<g>
</g>
<g>
</g>
<g>
</g>
<g>
</g>
<g>
</g>
</svg>
