<?xml version="1.0" encoding="iso-8859-1"?>
<!-- Generator: Adobe Illustrator 19.0.0, SVG Export Plug-In . SVG Version: 6.00 Build 0)  -->
<svg version="1.1" id="Layer_1" xmlns="http://www.w3.org/2000/svg" xmlns:xlink="http://www.w3.org/1999/xlink" x="0px" y="0px"
	 viewBox="0 0 512 512" style="enable-background:new 0 0 512 512;" xml:space="preserve">
<polygon style="fill:#FFDC64;" points="92.204,412.341 255.999,128.64 419.795,412.341 "/>
<path style="fill:#F96232;" d="M494.028,427.435L280.043,56.804c-10.687-18.51-37.402-18.51-48.089,0L17.971,427.435
	c-10.687,18.509,2.671,41.646,24.044,41.646h427.969C491.356,469.081,504.714,445.944,494.028,427.435z M92.204,412.341
	L255.999,128.64l163.795,283.701H92.204z"/>
<path d="M473.514,126.362c-0.922,0-1.858-0.098-2.766-0.282c-0.908-0.186-1.802-0.454-2.653-0.809
	c-0.865-0.355-1.688-0.796-2.454-1.305c-0.78-0.511-1.504-1.106-2.156-1.759s-1.248-1.376-1.759-2.156
	c-0.511-0.766-0.95-1.589-1.305-2.454c-0.355-0.851-0.624-1.743-0.809-2.653c-0.184-0.908-0.284-1.844-0.284-2.766
	c0-0.921,0.099-1.858,0.284-2.78c0.184-0.894,0.454-1.787,0.809-2.653c0.355-0.851,0.794-1.674,1.305-2.44
	c0.511-0.78,1.106-1.504,1.759-2.156c3.291-3.305,8.199-4.81,12.795-3.887c0.908,0.184,1.801,0.468,2.667,0.823
	c0.851,0.355,1.674,0.78,2.44,1.291c0.78,0.525,1.504,1.121,2.156,1.773c0.653,0.653,1.248,1.376,1.773,2.156
	c0.511,0.766,0.95,1.589,1.305,2.44c0.355,0.865,0.624,1.759,0.809,2.653c0.184,0.922,0.27,1.86,0.27,2.78
	c0,0.922-0.085,1.86-0.27,2.766c-0.184,0.909-0.454,1.803-0.809,2.653c-0.355,0.865-0.794,1.688-1.305,2.454
	c-0.525,0.78-1.121,1.504-1.773,2.156c-0.652,0.653-1.376,1.248-2.156,1.759c-0.766,0.509-1.589,0.95-2.44,1.305
	c-0.865,0.355-1.759,0.623-2.667,0.809C475.372,126.264,474.436,126.362,473.514,126.362z"/>
<circle style="fill:#7DF5A5;" cx="258.793" cy="326.074" r="38.063"/>
<path d="M506.313,420.342L388.728,216.68l64.7-64.356c5.555-5.525,5.579-14.507,0.054-20.061
	c-5.524-5.555-14.507-5.579-20.061-0.054l-59.367,59.053L292.329,49.71c-7.583-13.134-21.163-20.976-36.329-20.976
	c-15.167,0-28.746,7.842-36.328,20.976L5.686,420.342c-7.582,13.135-7.582,28.816,0.001,41.95
	c7.582,13.134,21.163,20.974,36.328,20.974h427.967c15.165,0,28.748-7.84,36.329-20.974
	C513.896,449.158,513.896,433.475,506.313,420.342z M481.744,448.107c-1.179,2.04-4.684,6.789-11.761,6.789H42.016
	c-7.076,0-10.581-4.748-11.759-6.789c-1.179-2.041-3.539-7.451,0-13.579L244.24,63.896c3.538-6.128,9.402-6.79,11.759-6.79
	s8.222,0.662,11.759,6.79l85.485,148.064l-20.81,20.699l-64.151-111.113c-2.533-4.389-7.216-7.093-12.284-7.093
	c-5.068,0-9.751,2.704-12.284,7.093L79.92,405.248c-2.535,4.389-2.535,9.796,0,14.185c2.533,4.389,7.216,7.093,12.284,7.093h327.589
	c5.068,0,9.751-2.704,12.284-7.093c2.535-4.389,2.535-9.796,0-14.185l-84.969-147.17l20.81-20.699l113.824,197.147
	C485.282,440.655,482.923,446.064,481.744,448.107z M311.626,253.358l-27.289,27.145c-19.897-11.147-45.59-8.284-62.494,8.619l0,0
	c-20.371,20.371-20.371,53.519,0,73.892c9.869,9.869,22.99,15.303,36.945,15.303c13.955,0,27.077-5.434,36.945-15.303
	c16.885-16.886,19.76-42.545,8.652-62.436l21.917-21.801l68.924,119.379H116.774L255.999,157.01L311.626,253.358z M241.902,309.182
	c8.937-8.935,23.234-9.269,32.602-1.055c0.318,0.396,0.655,0.78,1.02,1.148c0.38,0.383,0.78,0.733,1.192,1.064
	c8.226,9.368,7.894,23.674-1.044,32.613c-4.509,4.511-10.505,6.995-16.883,6.995c-6.379,0-12.375-2.484-16.885-6.995
	C232.593,333.64,232.593,318.493,241.902,309.182L241.902,309.182z"/>
<g>
</g>
<g>
</g>
<g>
</g>
<g>
</g>
<g>
</g>
<g>
</g>
<g>
</g>
<g>
</g>
<g>
</g>
<g>
</g>
<g>
</g>
<g>
</g>
<g>
</g>
<g>
</g>
<g>
</g>
</svg>
