<?xml version="1.0" encoding="iso-8859-1"?>
<!-- Generator: Adobe Illustrator 19.0.0, SVG Export Plug-In . SVG Version: 6.00 Build 0)  -->
<svg version="1.1" id="Layer_1" xmlns="http://www.w3.org/2000/svg" xmlns:xlink="http://www.w3.org/1999/xlink" x="0px" y="0px"
	 viewBox="0 0 512.001 512.001" style="enable-background:new 0 0 512.001 512.001;" xml:space="preserve">
<g>
	<path style="fill:#7BFFCD;" d="M497.42,273.186c0-29.503-16.954-55.03-41.641-67.417c5.973-15.146,9.292-31.632,9.292-48.901
		c0-73.669-59.72-133.388-133.39-133.388c-52.887,0-98.583,30.782-120.155,75.404c-12.567-9.371-28.15-14.92-45.031-14.92
		c-41.644,0-75.402,33.759-75.402,75.402c0,0.884,0.036,1.758,0.067,2.635c-43.589,8.18-76.58,46.416-76.58,92.38
		c0,51.929,42.096,94.025,94.025,94.025c0.526,0,1.044-0.031,1.567-0.039v0.222h313.415v-0.039
		C464.502,347.712,497.42,314.304,497.42,273.186z"/>
</g>
<path d="M399.119,196.28c-0.948,0-1.91-0.102-2.858-0.292c-0.919-0.175-1.837-0.467-2.727-0.831
	c-0.875-0.365-1.72-0.816-2.508-1.341c-0.802-0.525-1.546-1.137-2.216-1.808s-1.283-1.414-1.823-2.216
	c-0.525-0.787-0.977-1.633-1.341-2.522c-0.365-0.875-0.642-1.792-0.831-2.727c-0.19-0.933-0.277-1.895-0.277-2.842
	c0-0.948,0.087-1.911,0.277-2.843c0.19-0.933,0.467-1.853,0.831-2.727c0.365-0.889,0.816-1.735,1.341-2.522
	c0.539-0.802,1.152-1.545,1.823-2.216c0.671-0.671,1.414-1.283,2.216-1.808c0.787-0.523,1.633-0.977,2.508-1.341
	c0.889-0.365,1.808-0.64,2.727-0.831c1.881-0.379,3.82-0.379,5.701,0c0.933,0.191,1.852,0.467,2.727,0.831
	c0.889,0.365,1.735,0.818,2.522,1.341c0.802,0.525,1.546,1.137,2.216,1.808c2.712,2.712,4.272,6.474,4.272,10.308
	s-1.56,7.596-4.272,10.307c-0.671,0.671-1.414,1.283-2.216,1.808c-0.787,0.525-1.633,0.977-2.522,1.341
	c-0.875,0.365-1.793,0.656-2.727,0.831C401.029,196.177,400.068,196.28,399.119,196.28z"/>
<path style="fill:#7BFFCD;" d="M270.594,127.441c11.437-23.656,34.842-38.352,61.085-38.352c29.63,0,54.88,19.11,64.073,45.654"/>
<path d="M395.752,149.328c-6.042,0-11.689-3.784-13.777-9.812c-7.423-21.44-27.635-35.845-50.294-35.845
	c-20.602,0-38.979,11.54-47.96,30.117c-3.504,7.249-12.223,10.286-19.472,6.78c-7.249-3.504-10.285-12.223-6.78-19.472
	c13.892-28.735,42.328-46.585,74.212-46.585c35.077,0,66.362,22.289,77.85,55.463c2.635,7.611-1.398,15.914-9.008,18.549
	C398.944,149.068,397.334,149.328,395.752,149.328z"/>
<g>
	<circle style="fill:#FFDC64;" cx="155.862" cy="446.213" r="42.312"/>
	<circle style="fill:#FFDC64;" cx="301.606" cy="399.206" r="42.312"/>
</g>
<polygon style="fill:#FF5050;" points="198.174,237.79 198.174,305.958 343.912,258.946 343.912,190.779 "/>
<path d="M473.431,199.327c4.131-13.754,6.22-27.985,6.22-42.46c0-81.591-66.378-147.969-147.969-147.969
	c-28.351,0-55.905,8.047-79.682,23.269c-18.62,11.922-34.262,27.772-45.878,46.375c-12.239-6.026-25.69-9.159-39.626-9.159
	c-46.622,0-85.076,35.641-89.547,81.107C31.724,164.21,0,206.17,0,254.381c0,59.627,48.3,108.187,107.832,108.601
	c0.761,0.122,1.543,0.187,2.339,0.187h73.423v33.395c-8.21-4.604-17.667-7.242-27.732-7.242c-31.371,0-56.892,25.521-56.892,56.891
	c0,31.371,25.521,56.892,56.892,56.892s56.892-25.521,56.892-56.892V363.17h44.855c-8.056,9.818-12.899,22.369-12.899,36.031
	c0,31.371,25.521,56.892,56.891,56.892c31.371,0,56.892-25.521,56.892-56.892V363.17h65.095c0.5,0,0.994-0.026,1.481-0.074
	c23.199-0.774,44.887-10.302,61.186-26.909c16.604-16.919,25.747-39.291,25.747-63C512,243.297,497.496,216.01,473.431,199.327z
	 M155.862,473.941c-15.29,0-27.732-12.44-27.732-27.732s12.44-27.73,27.732-27.73s27.732,12.438,27.732,27.73
	C183.594,461.501,171.154,473.941,155.862,473.941z M329.33,248.33l-116.577,37.605v-37.528l116.577-37.605V248.33z
	 M212.754,316.576l116.577-37.607v55.04H212.754V316.576z M301.6,426.93c-15.29,0-27.73-12.44-27.73-27.732
	s12.44-27.732,27.73-27.732c15.29,0,27.732,12.44,27.732,27.732S316.891,426.93,301.6,426.93z M423.287,333.971
	c-0.262,0.006-0.523,0.019-0.783,0.036h-64.013v-75.062v-68.168c0-4.661-2.229-9.043-5.998-11.787
	c-0.471-0.343-0.959-0.655-1.461-0.936c-2.782-1.557-5.991-2.13-9.134-1.693c-0.828,0.115-1.653,0.277-2.464,0.538l-145.736,47.014
	c-6.023,1.942-10.104,7.548-10.104,13.876v68.168v28.049h-70.886c-0.908-0.159-1.834-0.236-2.773-0.22
	c-0.302,0.006-0.602,0.015-0.903,0.025l-0.427,0.013c-43.805,0-79.443-35.64-79.443-79.445c0-38.19,27.205-71.017,64.689-78.052
	c7.083-1.33,12.134-7.634,11.881-14.838l-0.013-0.373c-0.02-0.582-0.045-1.166-0.045-1.754c0-33.537,27.284-60.821,60.821-60.821
	c13.205,0,25.763,4.16,36.313,12.027c3.488,2.603,7.952,3.504,12.18,2.474c4.225-1.034,7.77-3.9,9.662-7.816
	c19.728-40.803,61.74-67.168,107.03-67.168c65.512,0,118.808,53.298,118.808,118.808c0,14.977-2.783,29.628-8.274,43.551
	c-2.769,7.022,0.279,14.996,7.025,18.38c20.726,10.4,33.6,31.24,33.6,54.387C482.84,306.031,456.124,333.299,423.287,333.971z"/>
<g>
</g>
<g>
</g>
<g>
</g>
<g>
</g>
<g>
</g>
<g>
</g>
<g>
</g>
<g>
</g>
<g>
</g>
<g>
</g>
<g>
</g>
<g>
</g>
<g>
</g>
<g>
</g>
<g>
</g>
</svg>
