<?xml version="1.0" encoding="iso-8859-1"?>
<!-- Generator: Adobe Illustrator 19.0.0, SVG Export Plug-In . SVG Version: 6.00 Build 0)  -->
<svg version="1.1" id="Layer_1" xmlns="http://www.w3.org/2000/svg" xmlns:xlink="http://www.w3.org/1999/xlink" x="0px" y="0px"
	 viewBox="0 0 512 512" style="enable-background:new 0 0 512 512;" xml:space="preserve">
<rect x="14.027" y="59.616" style="fill:#4DA081;" width="483.945" height="392.767"/>
<path d="M497.973,466.411H14.027C6.28,466.411,0,460.13,0,452.384V59.616c0-7.746,6.28-14.027,14.027-14.027h483.945
	c7.747,0,14.027,6.281,14.027,14.027v392.767C512,460.13,505.72,466.411,497.973,466.411z M28.055,438.356h455.89V73.644H28.055
	V438.356z"/>
<path d="M103.452,407.314c-0.912,0-1.838-0.086-2.735-0.267c-0.898-0.181-1.781-0.449-2.637-0.8
	c-0.842-0.351-1.655-0.786-2.413-1.291c-0.772-0.504-1.487-1.093-2.132-1.738c-0.645-0.645-1.234-1.362-1.739-2.134
	s-0.94-1.585-1.291-2.425c-0.351-0.843-0.631-1.725-0.814-2.623c-0.182-0.899-0.267-1.825-0.267-2.735
	c0-0.912,0.084-1.839,0.267-2.749c0.182-0.899,0.463-1.783,0.814-2.623s0.786-1.655,1.291-2.427
	c0.505-0.758,1.094-1.473,1.739-2.132c0.645-0.645,1.361-1.22,2.132-1.739c0.757-0.504,1.571-0.94,2.413-1.291
	c0.856-0.351,1.739-0.616,2.637-0.8c1.81-0.365,3.661-0.365,5.471,0c0.898,0.184,1.781,0.449,2.637,0.8
	c0.842,0.351,1.655,0.787,2.413,1.291c0.772,0.519,1.487,1.094,2.132,1.739c0.645,0.659,1.234,1.373,1.739,2.132
	c0.505,0.773,0.94,1.587,1.291,2.427s0.631,1.724,0.8,2.623c0.182,0.91,0.281,1.838,0.281,2.749c0,0.91-0.098,1.838-0.281,2.735
	c-0.182,0.898-0.449,1.781-0.8,2.623c-0.351,0.842-0.786,1.668-1.291,2.425c-0.505,0.771-1.094,1.488-1.739,2.134
	c-0.645,0.645-1.361,1.234-2.132,1.738c-0.757,0.505-1.571,0.94-2.427,1.291c-0.842,0.351-1.725,0.617-2.623,0.8
	C105.29,407.229,104.364,407.314,103.452,407.314z"/>
<path d="M205.151,146.755c-0.912,0-1.838-0.086-2.735-0.267c-0.898-0.181-1.781-0.449-2.623-0.8
	c-0.856-0.351-1.669-0.786-2.427-1.291c-0.772-0.519-1.487-1.093-2.132-1.753c-0.645-0.645-1.234-1.361-1.739-2.132
	c-0.505-0.757-0.94-1.571-1.291-2.413c-0.351-0.843-0.617-1.725-0.8-2.623c-0.182-0.912-0.281-1.825-0.281-2.749
	c0-0.912,0.098-1.839,0.281-2.735c0.182-0.899,0.449-1.783,0.8-2.623c0.351-0.856,0.786-1.669,1.291-2.427
	c0.505-0.772,1.094-1.487,1.739-2.132c0.645-0.645,1.361-1.234,2.132-1.739c0.757-0.504,1.571-0.94,2.427-1.291
	c0.842-0.351,1.725-0.616,2.623-0.8c1.81-0.365,3.661-0.365,5.471,0c0.898,0.184,1.781,0.449,2.623,0.8
	c0.856,0.351,1.669,0.787,2.427,1.291c0.772,0.505,1.487,1.094,2.132,1.739c0.645,0.645,1.234,1.361,1.739,2.132
	c0.505,0.757,0.94,1.571,1.291,2.427c0.351,0.842,0.631,1.724,0.8,2.623c0.182,0.898,0.281,1.824,0.281,2.735
	c0,0.924-0.098,1.838-0.281,2.749c-0.168,0.898-0.449,1.781-0.8,2.623c-0.351,0.842-0.786,1.655-1.291,2.413
	c-0.505,0.772-1.094,1.487-1.739,2.132C212.459,145.268,208.84,146.755,205.151,146.755z"/>
<path d="M306.849,393.3c-0.912,0-1.838-0.098-2.735-0.281c-0.898-0.182-1.781-0.449-2.623-0.8c-0.856-0.351-1.669-0.786-2.427-1.291
	c-0.772-0.504-1.487-1.093-2.132-1.738c-2.609-2.609-4.11-6.228-4.11-9.931c0-0.912,0.098-1.839,0.281-2.735
	c0.182-0.899,0.449-1.783,0.8-2.623s0.786-1.655,1.29-2.427c0.505-0.758,1.094-1.473,1.739-2.118
	c0.645-0.659,1.361-1.234,2.132-1.753c0.757-0.504,1.571-0.94,2.427-1.291c0.842-0.351,1.725-0.616,2.623-0.8
	c1.81-0.365,3.661-0.365,5.471,0c0.898,0.184,1.781,0.449,2.623,0.8c0.856,0.351,1.669,0.787,2.427,1.291
	c0.772,0.519,1.487,1.094,2.132,1.753c0.645,0.645,1.234,1.361,1.739,2.118c0.505,0.773,0.94,1.587,1.291,2.427
	s0.631,1.724,0.8,2.623c0.182,0.898,0.281,1.824,0.281,2.735c0,0.924-0.098,1.838-0.281,2.749c-0.168,0.898-0.449,1.781-0.8,2.623
	c-0.351,0.842-0.786,1.668-1.291,2.425c-0.505,0.771-1.094,1.488-1.739,2.134c-0.645,0.645-1.361,1.234-2.132,1.738
	c-0.757,0.505-1.571,0.94-2.427,1.291c-0.842,0.351-1.725,0.617-2.623,0.8C308.687,393.202,307.761,393.3,306.849,393.3z"/>
<path d="M408.548,132.727c-0.912,0-1.838-0.086-2.735-0.267c-0.898-0.181-1.781-0.449-2.623-0.8
	c-0.856-0.351-1.669-0.786-2.427-1.291c-0.771-0.519-1.487-1.093-2.132-1.753c-2.609-2.608-4.11-6.214-4.11-9.916
	c0-0.912,0.098-1.839,0.281-2.735c0.168-0.899,0.449-1.783,0.8-2.623c0.351-0.84,0.786-1.669,1.291-2.427
	c0.505-0.772,1.094-1.487,1.739-2.132c3.254-3.254,8.108-4.755,12.653-3.829c0.898,0.184,1.781,0.449,2.637,0.8
	c0.842,0.351,1.655,0.787,2.413,1.291c0.771,0.505,1.487,1.094,2.132,1.739c0.645,0.645,1.234,1.361,1.739,2.132
	c0.505,0.757,0.94,1.571,1.291,2.427c0.351,0.842,0.631,1.724,0.8,2.623c0.182,0.898,0.281,1.824,0.281,2.735
	c0,0.924-0.098,1.838-0.281,2.749c-0.168,0.898-0.449,1.781-0.8,2.623c-0.351,0.842-0.786,1.655-1.291,2.425
	c-0.505,0.757-1.094,1.473-1.739,2.118c-0.645,0.661-1.361,1.234-2.132,1.753c-0.758,0.505-1.571,0.94-2.427,1.291
	c-0.842,0.351-1.725,0.617-2.623,0.8C410.386,132.643,409.46,132.727,408.548,132.727z"/>
<circle style="fill:#FFDC64;" cx="103.452" cy="238.466" r="33.666"/>
<circle style="fill:#7DF5A5;" cx="205.151" cy="336.658" r="33.666"/>
<circle style="fill:#FFDC64;" cx="306.849" cy="182.356" r="33.666"/>
<circle style="fill:#7DF5A5;" cx="408.548" cy="260.91" r="33.666"/>
<path d="M117.479,192.881v-60.148c0-7.746-6.28-14.027-14.027-14.027s-14.027,6.281-14.027,14.027v60.148
	c-19.473,6.004-33.666,24.166-33.666,45.585s14.193,39.581,33.666,45.585v67.162c0,7.746,6.28,14.027,14.027,14.027
	s14.027-6.281,14.027-14.027v-67.162c19.473-6.004,33.666-24.166,33.666-45.585S136.952,198.885,117.479,192.881z M103.452,258.104
	c-10.829,0-19.638-8.809-19.638-19.638s8.809-19.638,19.638-19.638s19.638,8.809,19.638,19.638S114.281,258.104,103.452,258.104z"/>
<path d="M219.178,291.073V174.815c0-7.746-6.28-14.027-14.027-14.027c-7.747,0-14.027,6.281-14.027,14.027v116.258
	c-19.473,6.004-33.666,24.166-33.666,45.585s14.193,39.581,33.666,45.585v11.052c0,7.746,6.28,14.027,14.027,14.027
	c7.747,0,14.027-6.281,14.027-14.027v-11.052c19.473-6.004,33.666-24.166,33.666-45.585
	C252.844,315.239,238.651,297.076,219.178,291.073z M205.151,356.296c-10.829,0-19.638-8.809-19.638-19.638
	c0-10.829,8.809-19.638,19.638-19.638c10.829,0,19.638,8.809,19.638,19.638C224.789,347.487,215.98,356.296,205.151,356.296z"/>
<path d="M320.877,136.771v-18.066c0-7.746-6.28-14.027-14.027-14.027c-7.747,0-14.027,6.281-14.027,14.027v18.066
	c-19.473,6.004-33.666,24.166-33.666,45.585s14.193,39.581,33.666,45.585v109.244c0,7.746,6.28,14.027,14.027,14.027
	c7.747,0,14.027-6.281,14.027-14.027V227.941c19.473-6.004,33.666-24.166,33.666-45.585S340.35,142.775,320.877,136.771z
	 M306.849,201.995c-10.829,0-19.638-8.809-19.638-19.638s8.809-19.638,19.638-19.638c10.829,0,19.638,8.809,19.638,19.638
	S317.678,201.995,306.849,201.995z"/>
<path d="M456.241,260.91c0-21.418-14.193-39.581-33.666-45.585v-54.537c0-7.746-6.28-14.027-14.027-14.027
	s-14.027,6.281-14.027,14.027v54.537c-19.473,6.004-33.666,24.166-33.666,45.585c0,21.418,14.193,39.581,33.666,45.585v72.773
	c0,7.746,6.28,14.027,14.027,14.027s14.027-6.281,14.027-14.027v-72.773C442.048,300.491,456.241,282.328,456.241,260.91z
	 M408.548,280.548c-10.829,0-19.638-8.809-19.638-19.638c0-10.829,8.809-19.638,19.638-19.638c10.829,0,19.638,8.809,19.638,19.638
	C428.186,271.739,419.377,280.548,408.548,280.548z"/>
<g>
</g>
<g>
</g>
<g>
</g>
<g>
</g>
<g>
</g>
<g>
</g>
<g>
</g>
<g>
</g>
<g>
</g>
<g>
</g>
<g>
</g>
<g>
</g>
<g>
</g>
<g>
</g>
<g>
</g>
</svg>
