<?xml version="1.0" encoding="iso-8859-1"?>
<!-- Generator: Adobe Illustrator 19.0.0, SVG Export Plug-In . SVG Version: 6.00 Build 0)  -->
<svg version="1.1" id="Layer_1" xmlns="http://www.w3.org/2000/svg" xmlns:xlink="http://www.w3.org/1999/xlink" x="0px" y="0px"
	 viewBox="0 0 512 512" style="enable-background:new 0 0 512 512;" xml:space="preserve">
<circle style="fill:#FFDC64;" cx="207.424" cy="139.191" r="125.41"/>
<path style="fill:#A2A8D3;" d="M207.428,264.602c-29.329,0-56.305-10.071-77.663-26.94l23.806,154.394
	c4.097,26.577,26.967,46.191,53.857,46.191l0,0c26.89,0,49.76-19.614,53.857-46.191l23.806-154.394
	C263.733,254.53,236.758,264.602,207.428,264.602z"/>
<path d="M276.039,152.978c-0.896,0-1.807-0.095-2.687-0.274c-0.882-0.181-1.752-0.441-2.577-0.786
	c-0.841-0.345-1.639-0.773-2.383-1.268c-0.759-0.496-1.462-1.075-2.096-1.709c-0.634-0.634-1.213-1.351-1.709-2.095
	c-0.495-0.759-0.923-1.559-1.268-2.384c-0.345-0.826-0.62-1.695-0.784-2.577c-0.181-0.894-0.276-1.792-0.276-2.701
	c0-3.624,1.473-7.166,4.038-9.73c0.634-0.649,1.337-1.213,2.096-1.723c0.744-0.496,1.542-0.923,2.383-1.268
	c0.827-0.345,1.695-0.606,2.577-0.786c4.479-0.91,9.233,0.565,12.431,3.776c2.563,2.562,4.039,6.105,4.039,9.73
	c0,0.91-0.084,1.807-0.262,2.701c-0.179,0.882-0.455,1.752-0.799,2.577c-0.345,0.826-0.758,1.626-1.254,2.384
	c-0.509,0.743-1.089,1.461-1.723,2.095C283.219,151.505,279.663,152.978,276.039,152.978z"/>
<path d="M276.631,152.978c-0.896,0-1.805-0.095-2.701-0.274c-0.868-0.181-1.736-0.441-2.577-0.786
	c-0.827-0.345-1.626-0.773-2.37-1.268c-0.758-0.496-1.462-1.075-2.096-1.709c-0.648-0.634-1.213-1.351-1.723-2.095
	c-0.495-0.759-0.923-1.559-1.268-2.384c-0.345-0.826-0.605-1.695-0.784-2.577c-0.179-0.894-0.262-1.792-0.262-2.701
	c0-3.624,1.475-7.18,4.038-9.73c0.634-0.649,1.338-1.213,2.096-1.723c0.744-0.496,1.543-0.923,2.37-1.268
	c0.841-0.345,1.709-0.606,2.577-0.786c1.778-0.358,3.611-0.358,5.389,0c0.882,0.179,1.75,0.441,2.577,0.786
	c0.839,0.345,1.639,0.772,2.383,1.268c0.758,0.51,1.462,1.074,2.096,1.723c2.562,2.562,4.038,6.105,4.038,9.73
	c0,0.91-0.096,1.807-0.276,2.701c-0.179,0.882-0.44,1.752-0.784,2.577c-0.345,0.826-0.773,1.626-1.268,2.384
	c-0.496,0.743-1.075,1.461-1.709,2.095s-1.338,1.213-2.096,1.709c-0.744,0.495-1.544,0.923-2.383,1.268
	c-0.828,0.345-1.695,0.605-2.577,0.786C278.438,152.883,277.527,152.978,276.631,152.978z"/>
<path d="M386.23,232.255c-40.428,0-73.318,32.891-73.318,73.319v133.106c0,25.231-20.526,45.755-45.755,45.755
	c-21.219,0-39.107-14.519-44.26-34.143c26.781-6.116,47.649-27.856,52.009-56.137l23.02-149.297
	c26.507-22.735,44.394-55.244,48.011-91.886h2.685c7.61,0,13.781-6.171,13.781-13.781c0-7.61-6.171-13.781-13.781-13.781h-2.685
	C338.996,55.105,279.528,0,207.428,0S75.861,55.105,68.919,125.41h-2.686c-7.61,0-13.781,6.171-13.781,13.781
	c0,7.61,6.171,13.781,13.781,13.781h2.686c3.618,36.642,21.504,69.151,48.011,91.886l23.019,149.299
	c4.518,29.296,26.751,51.573,54.923,56.734C200.704,485.525,230.888,512,267.155,512c40.428,0,73.318-32.891,73.318-73.318V305.576
	c0-25.231,20.527-45.757,45.757-45.757s45.755,20.527,45.755,45.757v111.878c0,7.61,6.171,13.781,13.781,13.781
	c7.61,0,13.781-6.171,13.781-13.781V305.576C459.551,265.147,426.659,232.255,386.23,232.255z M96.682,152.973h138.016
	c7.61,0,13.781-6.171,13.781-13.781c0-7.61-6.171-13.781-13.781-13.781H96.682c6.816-55.069,53.864-97.847,110.748-97.847
	s103.932,42.779,110.748,97.847h-0.204c-7.61,0-13.781,6.171-13.781,13.781c0,7.61,6.171,13.781,13.781,13.781h0.204
	c-6.334,51.177-47.415,91.73-98.848,97.207c-0.316,0.033-0.631,0.068-0.948,0.098c-1.435,0.141-2.879,0.245-4.327,0.331
	c-0.416,0.023-0.83,0.058-1.246,0.077c-1.783,0.085-3.575,0.136-5.379,0.136s-3.596-0.051-5.379-0.136
	c-0.416-0.019-0.83-0.052-1.244-0.077c-1.45-0.085-2.895-0.19-4.33-0.331c-0.316-0.03-0.63-0.065-0.944-0.098
	C144.096,244.704,103.015,204.15,96.682,152.973z M167.19,389.957L147.941,265.11c15.23,7.231,31.646,11.571,48.717,12.859
	c0.142,0.011,0.285,0.018,0.427,0.029c1.012,0.073,2.024,0.142,3.04,0.193c0.488,0.026,0.978,0.04,1.468,0.059
	c0.708,0.029,1.415,0.062,2.126,0.081c1.233,0.033,2.47,0.051,3.71,0.051s2.478-0.018,3.71-0.051
	c0.708-0.018,1.414-0.052,2.121-0.081c0.491-0.021,0.984-0.034,1.473-0.059c1.013-0.051,2.022-0.12,3.031-0.193
	c0.146-0.011,0.292-0.019,0.438-0.03c17.068-1.287,33.484-5.628,48.714-12.861l-19.25,124.846
	c-3.084,19.998-20.006,34.511-40.239,34.511S170.273,409.952,167.19,389.957z"/>
<path d="M207.428,354.154c-7.61,0-13.781-6.171-13.781-13.781v-22.417c0-7.61,6.171-13.781,13.781-13.781
	s13.781,6.171,13.781,13.781v22.417C221.21,347.984,215.04,354.154,207.428,354.154z"/>
<g>
</g>
<g>
</g>
<g>
</g>
<g>
</g>
<g>
</g>
<g>
</g>
<g>
</g>
<g>
</g>
<g>
</g>
<g>
</g>
<g>
</g>
<g>
</g>
<g>
</g>
<g>
</g>
<g>
</g>
</svg>
