<?xml version="1.0" encoding="iso-8859-1"?>
<!-- Generator: Adobe Illustrator 19.0.0, SVG Export Plug-In . SVG Version: 6.00 Build 0)  -->
<svg version="1.1" id="Layer_1" xmlns="http://www.w3.org/2000/svg" xmlns:xlink="http://www.w3.org/1999/xlink" x="0px" y="0px"
	 viewBox="0 0 512 512" style="enable-background:new 0 0 512 512;" xml:space="preserve">
<rect x="13.875" y="115.665" style="fill:#4DA081;" width="484.249" height="331.621"/>
<rect x="120.216" y="181.42" style="fill:#7DF5A5;" width="271.568" height="200.138"/>
<circle style="fill:#FFDC64;" cx="146.912" cy="281.489" r="84.633"/>
<circle style="fill:#7DF5A5;" cx="145.178" cy="281.489" r="28.444"/>
<path d="M145.174,323.802c-23.334,0-42.32-18.986-42.32-42.32s18.986-42.32,42.32-42.32s42.32,18.986,42.32,42.32
	S168.508,323.802,145.174,323.802z M145.174,266.913c-8.034,0-14.569,6.535-14.569,14.569s6.535,14.569,14.569,14.569
	s14.569-6.535,14.569-14.569S153.207,266.913,145.174,266.913z"/>
<circle style="fill:#FFDC64;" cx="365.088" cy="281.489" r="84.633"/>
<circle style="fill:#7DF5A5;" cx="363.353" cy="281.489" r="28.444"/>
<path d="M363.358,323.802c-23.334,0-42.32-18.986-42.32-42.32s18.986-42.32,42.32-42.32c23.334,0,42.32,18.986,42.32,42.32
	S386.692,323.802,363.358,323.802z M363.358,266.913c-8.034,0-14.569,6.535-14.569,14.569s6.535,14.569,14.569,14.569
	c8.034,0,14.569-6.535,14.569-14.569S371.391,266.913,363.358,266.913z"/>
<path d="M256,231.899c-0.902,0-1.819-0.085-2.706-0.264c-0.887-0.179-1.762-0.443-2.595-0.79c-0.846-0.347-1.65-0.778-2.399-1.277
	c-0.765-0.513-1.472-1.096-2.11-1.734c-0.638-0.638-1.221-1.347-1.721-2.11c-0.498-0.749-0.93-1.554-1.277-2.387
	c-0.347-0.846-0.624-1.707-0.79-2.595c-0.182-0.902-0.277-1.804-0.277-2.72c0-0.902,0.096-1.819,0.277-2.706
	c0.165-0.888,0.443-1.762,0.79-2.595c0.347-0.845,0.763-1.65,1.277-2.399c0.5-0.763,1.082-1.472,1.721-2.11s1.346-1.221,2.11-1.721
	c0.749-0.498,1.553-0.93,2.399-1.277c0.834-0.347,1.707-0.609,2.595-0.79c1.776-0.362,3.621-0.362,5.411,0
	c0.888,0.18,1.762,0.443,2.593,0.79c0.846,0.347,1.651,0.778,2.4,1.277c0.763,0.5,1.471,1.082,2.109,1.721
	c0.64,0.638,1.222,1.347,1.721,2.11c0.5,0.749,0.93,1.554,1.277,2.399c0.347,0.834,0.624,1.707,0.791,2.595
	c0.18,0.888,0.277,1.804,0.277,2.706c0,0.916-0.097,1.818-0.277,2.72c-0.167,0.888-0.444,1.748-0.791,2.595
	c-0.347,0.833-0.777,1.637-1.277,2.387c-0.498,0.763-1.081,1.472-1.721,2.11c-0.638,0.638-1.346,1.221-2.109,1.734
	c-0.749,0.498-1.554,0.93-2.4,1.277c-0.833,0.347-1.705,0.609-2.593,0.79C257.818,231.814,256.901,231.899,256,231.899z"/>
<rect x="151.616" y="64.708" style="fill:#FF5050;" width="50.591" height="50.591"/>
<rect x="259.15" y="64.708" style="fill:#FFDC64;" width="50.591" height="50.591"/>
<rect x="366.684" y="64.708" style="fill:#FF5050;" width="108.547" height="50.591"/>
<path d="M498.125,101.796h-9.019V64.708c0-7.662-6.213-13.875-13.875-13.875H366.684c-7.662,0-13.875,6.213-13.875,13.875v37.089
	h-29.194V64.708c0-7.662-6.213-13.875-13.875-13.875H259.15c-7.662,0-13.875,6.213-13.875,13.875v37.089h-29.194V64.708
	c0-7.662-6.213-13.875-13.875-13.875h-50.589c-7.662,0-13.875,6.213-13.875,13.875v37.089H13.875C6.213,101.796,0,108.01,0,115.672
	v331.621c0,7.662,6.213,13.875,13.875,13.875h484.249c7.662,0,13.875-6.213,13.875-13.875V115.672
	C512,108.01,505.787,101.796,498.125,101.796z M380.559,78.583h80.796v22.84h-80.796V78.583z M273.025,78.583h22.84v22.84h-22.84
	V78.583z M165.491,78.583h22.84v22.84h-22.84V78.583z M484.249,433.417H269.875v-37.991h121.91c7.662,0,13.875-6.213,13.875-13.875
	v-10.339c34.131-15.493,57.939-49.872,57.939-89.73s-23.809-74.237-57.939-89.73v-10.339c0-7.662-6.213-13.875-13.875-13.875
	H120.215c-7.662,0-13.875,6.213-13.875,13.875v10.339C72.209,207.245,48.4,241.624,48.4,281.482s23.809,74.237,57.939,89.73v10.339
	c0,7.662,6.213,13.875,13.875,13.875h121.91v37.991H27.751v-303.87h456.499V433.417z M365.092,352.239
	c-39.016,0-70.759-31.741-70.759-70.757s31.743-70.757,70.759-70.757s70.757,31.741,70.757,70.757S404.108,352.239,365.092,352.239z
	 M269.635,257.129c-1.189-6.455-6.836-11.35-13.635-11.35c-6.799,0-12.446,4.895-13.635,11.35
	c-6.781-26.567-24.394-48.838-47.832-61.841h122.936C294.028,208.291,276.416,230.562,269.635,257.129z M146.908,210.725
	c39.016,0,70.759,31.741,70.759,70.757s-31.743,70.757-70.759,70.757s-70.757-31.741-70.757-70.757S107.892,210.725,146.908,210.725
	z M242.125,306.725v60.95h-47.592C217.708,354.82,235.18,332.897,242.125,306.725z M269.875,306.725
	c6.945,26.173,24.416,48.095,47.592,60.95h-47.592V306.725z"/>
<g>
</g>
<g>
</g>
<g>
</g>
<g>
</g>
<g>
</g>
<g>
</g>
<g>
</g>
<g>
</g>
<g>
</g>
<g>
</g>
<g>
</g>
<g>
</g>
<g>
</g>
<g>
</g>
<g>
</g>
</svg>
