<?xml version="1.0" encoding="iso-8859-1"?>
<!-- Generator: Adobe Illustrator 19.0.0, SVG Export Plug-In . SVG Version: 6.00 Build 0)  -->
<svg version="1.1" id="Layer_1" xmlns="http://www.w3.org/2000/svg" xmlns:xlink="http://www.w3.org/1999/xlink" x="0px" y="0px"
	 viewBox="0 0 512 512" style="enable-background:new 0 0 512 512;" xml:space="preserve">
<path style="fill:#767B95;" d="M497.895,304.62v143.092H14.105V304.62c0-28.858,7.729-55.911,21.242-79.196
	c27.349-47.152,78.38-78.859,136.815-78.859h167.676c58.436,0,109.466,31.707,136.815,78.859
	C490.166,248.711,497.895,275.762,497.895,304.62z"/>
<g>
	<path style="fill:#FFDC64;" d="M167.493,303.127c0,21.453-8.703,40.875-22.751,54.938c-14.062,14.062-33.485,22.765-54.952,22.765
		H14.105v-76.208c0-28.858,7.729-55.911,21.242-79.196H89.79C132.711,225.424,167.493,260.22,167.493,303.127z"/>
	<path style="fill:#FFDC64;" d="M497.895,304.62v76.208H422.21c-42.921,0-77.703-34.796-77.703-77.703
		c0-21.453,8.703-40.875,22.751-54.938c14.062-14.062,33.484-22.765,54.952-22.765h54.444
		C490.166,248.711,497.895,275.762,497.895,304.62z"/>
</g>
<g>
	<rect x="150.384" y="395.806" style="fill:#7BFFCD;" width="70.171" height="51.905"/>
	<rect x="220.908" y="395.806" style="fill:#7BFFCD;" width="70.171" height="51.905"/>
	<rect x="291.431" y="395.806" style="fill:#7BFFCD;" width="70.171" height="51.905"/>
</g>
<path d="M437.598,317.228c-0.917,0-1.849-0.099-2.75-0.268c-0.903-0.183-1.791-0.451-2.638-0.804
	c-0.86-0.353-1.677-0.79-2.439-1.298c-0.777-0.522-1.496-1.1-2.145-1.763c-2.623-2.622-4.133-6.261-4.133-9.971
	c0-0.917,0.097-1.849,0.282-2.75c0.168-0.904,0.45-1.793,0.803-2.638c0.353-0.848,0.791-1.678,1.298-2.44
	c0.508-0.776,1.1-1.495,1.749-2.144c3.272-3.272,8.153-4.783,12.737-3.851c0.889,0.183,1.777,0.451,2.638,0.804
	c0.846,0.353,1.664,0.79,2.426,1.298c0.776,0.508,1.495,1.1,2.144,1.749c0.65,0.649,1.243,1.368,1.763,2.144
	c0.508,0.762,0.946,1.58,1.299,2.44c0.353,0.846,0.619,1.733,0.803,2.638c0.183,0.903,0.268,1.834,0.268,2.75
	c0,3.71-1.509,7.349-4.134,9.971c-0.649,0.663-1.368,1.241-2.144,1.763c-0.762,0.508-1.58,0.945-2.426,1.298
	c-0.86,0.353-1.749,0.621-2.638,0.804C439.446,317.13,438.513,317.228,437.598,317.228z"/>
<path d="M511.162,287.628c-2.413-24.408-10.004-48.077-22.307-69.281c-23.943-41.279-63.898-70.37-109.323-81.205V112.89
	c0-34.578-28.129-62.708-62.707-62.708H195.174c-34.578,0-62.707,28.13-62.707,62.708v24.252
	c-45.423,10.837-85.378,39.928-109.32,81.203C8.004,244.443,0,274.275,0,304.622v76.208v66.884c0,7.789,6.315,14.105,14.105,14.105
	h136.286h70.171h0.353h70.171h0.353h70.171h136.286c7.789,0,14.105-6.316,14.105-14.105v-66.884v-76.208
	C512,298.932,511.719,293.26,511.162,287.628z M395.287,289.022h-35.094c2.615-11.593,8.432-22.244,17.038-30.86
	c12.016-12.017,27.989-18.634,44.978-18.634h46.043c0.114,0.226,0.236,0.449,0.348,0.676c0.288,0.575,0.567,1.154,0.848,1.733
	c0.372,0.769,0.739,1.54,1.097,2.316c0.275,0.594,0.543,1.192,0.81,1.79c0.344,0.774,0.683,1.553,1.013,2.333
	c0.254,0.599,0.508,1.2,0.753,1.803c0.324,0.797,0.639,1.598,0.949,2.401c0.228,0.591,0.46,1.182,0.681,1.777
	c0.316,0.849,0.616,1.704,0.917,2.559c0.193,0.551,0.394,1.102,0.58,1.656c0.337,1,0.654,2.006,0.969,3.013
	c0.13,0.418,0.269,0.831,0.396,1.248c0.429,1.419,0.836,2.844,1.221,4.274c0.102,0.378,0.19,0.757,0.289,1.137
	c0.278,1.068,0.551,2.135,0.805,3.209c0.128,0.547,0.244,1.097,0.367,1.646c0.203,0.911,0.406,1.822,0.592,2.738
	c0.123,0.601,0.234,1.203,0.348,1.804c0.166,0.872,0.327,1.745,0.478,2.621c0.106,0.621,0.206,1.243,0.303,1.866
	c0.137,0.865,0.265,1.732,0.386,2.599c0.087,0.626,0.171,1.253,0.25,1.88c0.11,0.877,0.21,1.756,0.305,2.636
	c0.066,0.618,0.133,1.234,0.19,1.853c0.086,0.911,0.157,1.824,0.226,2.736c0.044,0.587,0.093,1.172,0.13,1.76
	c0.064,1.007,0.107,2.017,0.15,3.025c0.021,0.495,0.051,0.987,0.065,1.482c0.047,1.504,0.075,3.01,0.075,4.518v62.103h-61.581
	c-30.219,0-55.565-21.194-62.001-49.493h35.078c7.789,0,14.105-6.316,14.105-14.105S403.075,289.022,395.287,289.022z
	 M160.676,112.89c0-19.022,15.476-34.499,34.497-34.499h121.653c19.022,0,34.497,15.477,34.497,34.499v19.958
	c-1.764-0.12-3.536-0.206-5.31-0.269c-0.573-0.071-1.151-0.118-1.742-0.118h-4.433H172.162h-4.433c-0.591,0-1.171,0.048-1.743,0.118
	c-1.774,0.065-3.545,0.15-5.309,0.269V112.89z M328.729,160.669c-6.538,31.63-34.609,55.478-68.145,55.478h-9.168
	c-33.537,0-61.609-23.848-68.145-55.478H328.729L328.729,160.669z M154.809,161.747c7.316,46.739,47.849,82.61,96.607,82.61h9.168
	c48.76,0,89.291-35.872,96.607-82.61c35.85,4.391,68.855,22.222,92.229,49.572H422.21c-24.524,0-47.581,9.552-64.93,26.9
	c-13.959,13.974-22.858,31.648-25.796,50.802H180.513c-6.806-43.95-44.895-77.703-90.721-77.703H62.58
	C85.953,183.969,118.959,166.138,154.809,161.747z M74.399,317.231h77.408c-2.615,11.593-8.432,22.244-17.038,30.86
	c-12.017,12.017-27.991,18.634-44.978,18.634H28.209v-62.103c0-1.508,0.027-3.014,0.075-4.518c0.016-0.494,0.045-0.984,0.065-1.477
	c0.042-1.013,0.086-2.025,0.15-3.034c0.037-0.581,0.085-1.161,0.128-1.741c0.069-0.921,0.141-1.844,0.227-2.762
	c0.058-0.611,0.123-1.219,0.189-1.828c0.096-0.891,0.196-1.781,0.307-2.671c0.078-0.614,0.159-1.227,0.244-1.841
	c0.123-0.886,0.255-1.772,0.395-2.655c0.096-0.604,0.192-1.206,0.295-1.81c0.154-0.901,0.32-1.8,0.492-2.698
	c0.11-0.576,0.216-1.151,0.333-1.726c0.195-0.958,0.405-1.91,0.619-2.863c0.114-0.505,0.22-1.014,0.339-1.518
	c0.276-1.171,0.573-2.336,0.877-3.498c0.073-0.281,0.14-0.564,0.214-0.846c0.391-1.451,0.804-2.9,1.24-4.337
	c0.096-0.316,0.202-0.626,0.299-0.941c0.346-1.111,0.697-2.221,1.069-3.323c0.166-0.494,0.344-0.982,0.515-1.473
	c0.322-0.921,0.646-1.842,0.986-2.755c0.202-0.543,0.413-1.082,0.621-1.621c0.331-0.858,0.667-1.714,1.016-2.566
	c0.227-0.557,0.461-1.111,0.695-1.666c0.351-0.829,0.709-1.657,1.078-2.48c0.248-0.557,0.498-1.111,0.753-1.666
	c0.378-0.821,0.767-1.636,1.162-2.45c0.261-0.539,0.52-1.078,0.787-1.612c0.12-0.241,0.248-0.48,0.371-0.719H89.79
	c30.221,0,55.567,21.194,62.001,49.493H74.399c-7.79,0-14.105,6.316-14.105,14.105S66.609,317.231,74.399,317.231z M164.496,433.609
	v-23.697h41.961v23.697H164.496z M235.019,433.609v-23.697h41.961v23.697H235.019z M305.543,433.609v-23.697h41.961v23.697H305.543z
	 M375.714,433.609v-37.802c0-7.789-6.316-14.105-14.105-14.105h-70.171c-0.059,0-0.117,0.008-0.176,0.008
	c-0.059,0-0.117-0.008-0.176-0.008h-70.171c-0.059,0-0.117,0.008-0.176,0.008s-0.117-0.008-0.176-0.008h-70.171
	c-7.79,0-14.105,6.316-14.105,14.105v37.802H28.209v-38.675H89.79c24.522,0,47.581-9.55,64.931-26.9
	c13.959-13.974,22.857-31.648,25.795-50.802h150.971c6.806,43.95,44.895,77.703,90.721,77.703h61.582v38.675H375.714z"/>
<g>
</g>
<g>
</g>
<g>
</g>
<g>
</g>
<g>
</g>
<g>
</g>
<g>
</g>
<g>
</g>
<g>
</g>
<g>
</g>
<g>
</g>
<g>
</g>
<g>
</g>
<g>
</g>
<g>
</g>
</svg>
