<?xml version="1.0" encoding="iso-8859-1"?>
<!-- Generator: Adobe Illustrator 19.0.0, SVG Export Plug-In . SVG Version: 6.00 Build 0)  -->
<svg version="1.1" id="Layer_1" xmlns="http://www.w3.org/2000/svg" xmlns:xlink="http://www.w3.org/1999/xlink" x="0px" y="0px"
	 viewBox="0 0 512 512" style="enable-background:new 0 0 512 512;" xml:space="preserve">
<path style="fill:#46AFA7;" d="M256,497.628L256,497.628c-63.58,0-115.121-51.541-115.121-115.121V167.074h230.241v215.434
	C371.121,446.087,319.58,497.628,256,497.628z"/>
<rect x="166.528" y="14.372" style="fill:#FFDC64;" width="178.931" height="152.702"/>
<g>
	<rect x="166.887" y="67.069" style="fill:#FF5050;" width="53.176" height="100"/>
	<rect x="291.923" y="67.069" style="fill:#FF5050;" width="53.176" height="100"/>
</g>
<path d="M371.121,152.702h-11.283V14.372C359.837,6.434,353.401,0,345.465,0H166.535c-7.938,0-14.372,6.434-14.372,14.372v138.33
	h-11.283c-7.938,0-14.372,6.434-14.372,14.372v215.434C126.507,453.91,184.597,512,256,512s129.493-58.09,129.493-129.493V167.074
	C385.493,159.136,379.057,152.702,371.121,152.702z M330.734,152.702h-24.432v-71.26h24.432V152.702z M331.093,28.744v23.954H291.93
	c-7.936,0-14.372,6.434-14.372,14.372v85.632h-43.116V67.069c0-7.938-6.434-14.372-14.372-14.372h-39.164V28.744H331.093z
	 M205.698,152.702h-24.432v-71.26h24.432V152.702z M356.749,382.507c0,55.553-45.195,100.749-100.749,100.749
	s-100.749-45.195-100.749-100.749V181.446h50.447v175.682c0,7.938,6.434,14.372,14.372,14.372s14.372-6.434,14.372-14.372V181.446
	h57.488h64.819V382.507z"/>
<path d="M220.07,414.609c-3.78,0-7.488-1.523-10.161-4.197c-0.661-0.661-1.265-1.408-1.782-2.185
	c-0.517-0.79-0.963-1.624-1.322-2.486c-0.359-0.862-0.647-1.768-0.819-2.688c-0.187-0.934-0.287-1.868-0.287-2.803
	c0-3.794,1.538-7.502,4.211-10.175c3.334-3.334,8.293-4.858,12.963-3.924c0.92,0.187,1.825,0.46,2.688,0.819
	c0.877,0.359,1.71,0.805,2.486,1.322c0.79,0.532,1.523,1.121,2.185,1.782c2.673,2.673,4.211,6.381,4.211,10.175
	c0,0.934-0.101,1.868-0.287,2.803c-0.172,0.92-0.46,1.825-0.819,2.688c-0.359,0.862-0.805,1.696-1.322,2.486
	c-0.517,0.776-1.121,1.523-1.782,2.185s-1.394,1.265-2.185,1.782c-0.776,0.517-1.61,0.963-2.486,1.322
	c-0.862,0.359-1.768,0.632-2.688,0.819C221.953,414.522,221.004,414.609,220.07,414.609z"/>
<g>
</g>
<g>
</g>
<g>
</g>
<g>
</g>
<g>
</g>
<g>
</g>
<g>
</g>
<g>
</g>
<g>
</g>
<g>
</g>
<g>
</g>
<g>
</g>
<g>
</g>
<g>
</g>
<g>
</g>
</svg>
