<?xml version="1.0" encoding="iso-8859-1"?>
<!-- Generator: Adobe Illustrator 19.0.0, SVG Export Plug-In . SVG Version: 6.00 Build 0)  -->
<svg version="1.1" id="Layer_1" xmlns="http://www.w3.org/2000/svg" xmlns:xlink="http://www.w3.org/1999/xlink" x="0px" y="0px"
	 viewBox="0 0 512 512" style="enable-background:new 0 0 512 512;" xml:space="preserve">
<path d="M367.098,32.221c-0.92,0-1.855-0.099-2.76-0.283s-1.797-0.453-2.647-0.807c-0.863-0.354-1.683-0.793-2.447-1.302
	c-0.78-0.508-1.502-1.102-2.153-1.753c-0.651-0.651-1.245-1.374-1.755-2.153c-0.508-0.764-0.948-1.585-1.302-2.447
	c-0.354-0.851-0.621-1.741-0.805-2.647c-0.185-0.907-0.283-1.841-0.283-2.76c0-0.92,0.098-1.855,0.283-2.76
	c0.168-0.906,0.451-1.797,0.805-2.647c0.354-0.862,0.794-1.683,1.302-2.447c0.509-0.78,1.104-1.502,1.755-2.153
	c0.651-0.651,1.373-1.245,2.153-1.769c0.764-0.508,1.584-0.934,2.447-1.288c0.851-0.354,1.741-0.635,2.647-0.821
	c1.826-0.368,3.708-0.368,5.534,0c0.892,0.185,1.783,0.467,2.647,0.821c0.849,0.354,1.67,0.78,2.434,1.288
	c0.778,0.524,1.5,1.118,2.151,1.769c0.652,0.651,1.247,1.373,1.769,2.153c0.509,0.764,0.934,1.585,1.288,2.447
	c0.354,0.851,0.637,1.741,0.821,2.647c0.184,0.906,0.269,1.84,0.269,2.76c0,0.918-0.086,1.854-0.269,2.76
	c-0.184,0.906-0.467,1.797-0.821,2.647c-0.354,0.862-0.793,1.683-1.302,2.447c-0.508,0.778-1.102,1.502-1.755,2.153
	c-0.651,0.651-1.373,1.245-2.151,1.753c-0.764,0.509-1.585,0.948-2.434,1.302c-0.863,0.354-1.755,0.623-2.647,0.807
	C368.951,32.121,368.017,32.221,367.098,32.221z"/>
<path d="M144.903,32.221c-0.92,0-1.855-0.099-2.774-0.283c-0.892-0.184-1.783-0.453-2.647-0.807
	c-0.851-0.354-1.67-0.793-2.434-1.302c-0.78-0.508-1.502-1.102-2.153-1.753c-0.651-0.651-1.245-1.374-1.769-2.153
	c-0.509-0.764-0.948-1.585-1.302-2.447c-0.354-0.851-0.623-1.741-0.807-2.647c-0.184-0.907-0.267-1.841-0.267-2.76
	c0-0.92,0.085-1.855,0.267-2.76c0.183-0.904,0.453-1.797,0.807-2.647c0.354-0.862,0.793-1.683,1.302-2.447
	c0.524-0.78,1.118-1.502,1.769-2.153s1.373-1.245,2.153-1.769c0.764-0.508,1.584-0.934,2.434-1.288
	c0.863-0.354,1.755-0.635,2.647-0.821c1.826-0.368,3.708-0.368,5.534,0c0.906,0.185,1.797,0.467,2.645,0.821
	c0.863,0.354,1.684,0.78,2.448,1.288c0.778,0.524,1.5,1.118,2.151,1.769c0.652,0.651,1.247,1.373,1.755,2.153
	c0.51,0.764,0.948,1.585,1.302,2.447c0.354,0.851,0.623,1.741,0.807,2.647c0.184,0.906,0.283,1.84,0.283,2.76
	c0,0.918-0.099,1.854-0.283,2.76c-0.184,0.906-0.453,1.797-0.807,2.647c-0.354,0.862-0.793,1.683-1.302,2.447
	c-0.508,0.778-1.102,1.502-1.755,2.153c-0.651,0.651-1.373,1.245-2.151,1.753c-0.764,0.509-1.585,0.948-2.448,1.302
	c-0.849,0.354-1.739,0.623-2.645,0.807C146.756,32.121,145.822,32.221,144.903,32.221z"/>
<rect x="22.517" y="436.605" style="fill:#FFDC64;" width="122.377" height="61.252"/>
<path d="M144.901,512H22.517c-7.815,0-14.153-6.337-14.153-14.153V436.6c0-7.815,6.337-14.153,14.153-14.153h122.384
	c7.815,0,14.153,6.337,14.153,14.153v61.248C159.053,505.664,152.716,512,144.901,512z M36.669,483.695h94.079v-32.943H36.669
	V483.695z"/>
<rect x="22.517" y="330.985" style="fill:#FFDC64;" width="122.377" height="61.252"/>
<path d="M144.901,406.388H22.517c-7.815,0-14.153-6.337-14.153-14.153v-61.248c0-7.815,6.337-14.152,14.153-14.152h122.384
	c7.815,0,14.153,6.337,14.153,14.152v61.248C159.053,400.052,152.716,406.388,144.901,406.388z M36.669,378.083h94.079V345.14
	H36.669V378.083z"/>
<rect x="22.517" y="225.379" style="fill:#FFDC64;" width="122.377" height="61.252"/>
<path d="M144.901,46.374c-7.815,0-14.153,6.338-14.153,14.153v150.697H22.517c-7.815,0-14.153,6.337-14.153,14.153v61.248
	c0,7.815,6.337,14.152,14.153,14.152h122.384c7.815,0,14.153-6.337,14.153-14.152V60.526
	C159.053,52.71,152.716,46.374,144.901,46.374z M130.748,272.471H36.669v-32.943h94.079v11.444L130.748,272.471L130.748,272.471z"/>
<rect x="194.809" y="436.605" style="fill:#A2A8D3;" width="122.377" height="61.252"/>
<path d="M317.192,512H194.808c-7.815,0-14.153-6.337-14.153-14.153V436.6c0-7.815,6.337-14.153,14.153-14.153h122.384
	c7.815,0,14.153,6.337,14.153,14.153v61.248C331.344,505.664,325.007,512,317.192,512z M208.961,483.695h94.079v-32.943h-94.079
	L208.961,483.695L208.961,483.695z"/>
<rect x="194.809" y="330.985" style="fill:#A2A8D3;" width="122.377" height="61.252"/>
<path d="M317.192,406.388H194.808c-7.815,0-14.153-6.337-14.153-14.153v-61.248c0-7.815,6.337-14.152,14.153-14.152h122.384
	c7.815,0,14.153,6.337,14.153,14.152v61.248C331.344,400.052,325.007,406.388,317.192,406.388z M208.961,378.083h94.079V345.14
	h-94.079L208.961,378.083L208.961,378.083z"/>
<rect x="194.809" y="225.379" style="fill:#A2A8D3;" width="122.377" height="61.252"/>
<path d="M317.192,300.776H194.808c-7.815,0-14.153-6.337-14.153-14.152v-61.248c0-7.815,6.337-14.153,14.153-14.153h122.384
	c7.815,0,14.153,6.337,14.153,14.153v61.248C331.344,294.44,325.007,300.776,317.192,300.776z M208.961,272.471h94.079v-32.943
	h-94.079L208.961,272.471L208.961,272.471z"/>
<rect x="194.809" y="119.759" style="fill:#A2A8D3;" width="122.377" height="61.252"/>
<path d="M317.192,195.165H194.808c-7.815,0-14.153-6.337-14.153-14.153v-61.248c0-7.815,6.337-14.153,14.153-14.153h122.384
	c7.815,0,14.153,6.337,14.153,14.153v61.248C331.344,188.829,325.007,195.165,317.192,195.165z M208.961,166.86h94.079v-32.943
	h-94.079L208.961,166.86L208.961,166.86z"/>
<rect x="194.809" y="14.153" style="fill:#A2A8D3;" width="122.377" height="61.252"/>
<path d="M317.192,89.553H194.808c-7.815,0-14.153-6.338-14.153-14.153V14.153C180.656,6.337,186.993,0,194.808,0h122.384
	c7.815,0,14.153,6.337,14.153,14.153V75.4C331.344,83.217,325.007,89.553,317.192,89.553z M208.961,61.248h94.079V28.305h-94.079
	L208.961,61.248L208.961,61.248z"/>
<rect x="367.102" y="436.605" style="fill:#7BFFCD;" width="122.377" height="61.252"/>
<path d="M489.483,512H367.099c-7.815,0-14.153-6.337-14.153-14.153V436.6c0-7.815,6.337-14.153,14.153-14.153h122.384
	c7.815,0,14.153,6.337,14.153,14.153v61.248C503.636,505.664,497.3,512,489.483,512z M381.253,483.695h94.079v-32.943h-94.079
	V483.695z"/>
<rect x="367.102" y="330.985" style="fill:#7BFFCD;" width="122.377" height="61.252"/>
<path d="M489.483,316.835H381.252V60.526c0-7.815-6.337-14.153-14.152-14.153c-7.815,0-14.153,6.338-14.153,14.153v331.711
	c0,7.815,6.337,14.152,14.153,14.152h122.384c7.815,0,14.153-6.337,14.153-14.152v-61.248
	C503.636,323.173,497.3,316.835,489.483,316.835z M475.331,378.083h-94.079v-32.331v-0.613h94.079V378.083z"/>
<g>
</g>
<g>
</g>
<g>
</g>
<g>
</g>
<g>
</g>
<g>
</g>
<g>
</g>
<g>
</g>
<g>
</g>
<g>
</g>
<g>
</g>
<g>
</g>
<g>
</g>
<g>
</g>
<g>
</g>
</svg>
