<?xml version="1.0" encoding="iso-8859-1"?>
<!-- Generator: Adobe Illustrator 19.0.0, SVG Export Plug-In . SVG Version: 6.00 Build 0)  -->
<svg version="1.1" id="Layer_1" xmlns="http://www.w3.org/2000/svg" xmlns:xlink="http://www.w3.org/1999/xlink" x="0px" y="0px"
	 viewBox="0 0 512 512" style="enable-background:new 0 0 512 512;" xml:space="preserve">
<path d="M40.747,70.359c-0.987,0-1.991-0.106-2.976-0.304c-0.957-0.197-1.913-0.486-2.84-0.866c-0.913-0.38-1.792-0.85-2.612-1.382
	c-0.837-0.562-1.611-1.2-2.31-1.898c-2.84-2.823-4.449-6.741-4.449-10.735c0-0.987,0.091-1.991,0.287-2.961
	c0.196-0.97,0.486-1.93,0.866-2.84c0.38-0.926,0.85-1.807,1.397-2.627c0.562-0.835,1.2-1.61,1.898-2.308
	c0.699-0.699,1.473-1.336,2.31-1.883c0.82-0.545,1.699-1.017,2.612-1.397c0.926-0.38,1.883-0.667,2.84-0.866
	c1.959-0.395,3.979-0.395,5.937,0c0.972,0.199,1.929,0.486,2.838,0.866c0.926,0.38,1.807,0.852,2.627,1.397
	c0.835,0.547,1.61,1.184,2.308,1.883c0.7,0.699,1.338,1.473,1.883,2.308c0.547,0.82,1.017,1.701,1.397,2.627
	c0.38,0.911,0.668,1.868,0.866,2.84c0.197,0.972,0.304,1.974,0.304,2.961c0,3.994-1.625,7.912-4.451,10.735
	c-0.699,0.699-1.473,1.336-2.308,1.898c-0.82,0.533-1.701,1.002-2.627,1.382c-0.911,0.38-1.866,0.668-2.838,0.866
	C42.736,70.252,41.733,70.359,40.747,70.359z"/>
<circle style="fill:#FFDC64;" cx="431.265" cy="55.169" r="39.988"/>
<path d="M431.267,0c-25.156,0-46.417,16.929-53.03,39.988H86.3c-8.385,0-15.185,6.8-15.185,15.185s6.8,15.185,15.185,15.185h291.936
	c6.613,23.059,27.876,39.988,53.03,39.988c30.422,0,55.175-24.751,55.175-55.173S461.689,0,431.267,0z M431.267,79.975
	c-12.218,0-22.376-8.89-24.409-20.534c0.396-1.356,0.62-2.785,0.62-4.269s-0.222-2.913-0.62-4.269
	c2.033-11.644,12.191-20.534,24.409-20.534c13.677,0,24.804,11.126,24.804,24.802S444.944,79.975,431.267,79.975z"/>
<rect x="27.27" y="165.566" style="fill:#4DA081;" width="116.843" height="331.239"/>
<rect x="197.577" y="165.566" style="fill:#7DF5A5;" width="116.843" height="255.312"/>
<rect x="367.881" y="165.566" style="fill:#4DA081;" width="116.843" height="179.385"/>
<circle style="fill:#7DF5A5;" cx="426.315" cy="209.559" r="39.988"/>
<path d="M484.73,150.389H367.888c-8.385,0-15.185,6.8-15.185,15.185v179.387c0,8.385,6.8,15.185,15.185,15.185H484.73
	c8.385,0,15.185-6.8,15.185-15.185V165.574C499.915,157.189,493.115,150.389,484.73,150.389z M451.111,209.559
	c0,13.676-11.126,24.802-24.804,24.802c-13.676,0-24.802-11.126-24.802-24.802c0-13.677,11.126-24.804,24.802-24.804
	C439.985,184.755,451.111,195.881,451.111,209.559z M383.073,329.775v-86.003c10.115,12.754,25.73,20.959,43.236,20.959
	c17.506,0,33.122-8.205,43.237-20.96v86.004L383.073,329.775L383.073,329.775z"/>
<circle style="fill:#4DA081;" cx="256.618" cy="209.559" r="39.988"/>
<path d="M314.423,150.389H197.577c-8.385,0-15.185,6.8-15.185,15.185v255.314c0,8.385,6.8,15.185,15.185,15.185h116.844
	c8.385,0,15.185-6.8,15.185-15.185V165.574C329.608,157.189,322.808,150.389,314.423,150.389z M281.425,209.559
	c0,13.676-11.126,24.802-24.802,24.802c-13.678,0-24.804-11.126-24.804-24.802c0-13.677,11.126-24.804,24.804-24.804
	C270.299,184.755,281.425,195.881,281.425,209.559z M212.763,405.702V242.98c10.091,13.208,25.993,21.752,43.86,21.752
	c17.146,0,32.488-7.863,42.615-20.168v161.138L212.763,405.702L212.763,405.702z"/>
<circle style="fill:#7DF5A5;" cx="85.691" cy="209.559" r="39.988"/>
<path d="M144.112,150.389H27.27c-8.385,0-15.185,6.8-15.185,15.185v331.241c0,8.385,6.8,15.185,15.185,15.185h116.843
	c8.385,0,15.185-6.8,15.185-15.185V165.574C159.298,157.189,152.499,150.389,144.112,150.389z M110.495,209.559
	c0,13.676-11.126,24.802-24.802,24.802c-13.677,0-24.804-11.126-24.804-24.802c0-13.677,11.126-24.804,24.804-24.804
	C99.369,184.755,110.495,195.881,110.495,209.559z M42.455,481.629V243.771c10.115,12.754,25.732,20.96,43.237,20.96
	s33.121-8.203,43.236-20.959v237.856H42.455z"/>
<g>
</g>
<g>
</g>
<g>
</g>
<g>
</g>
<g>
</g>
<g>
</g>
<g>
</g>
<g>
</g>
<g>
</g>
<g>
</g>
<g>
</g>
<g>
</g>
<g>
</g>
<g>
</g>
<g>
</g>
</svg>
