<?xml version="1.0" encoding="iso-8859-1"?>
<!-- Generator: Adobe Illustrator 19.0.0, SVG Export Plug-In . SVG Version: 6.00 Build 0)  -->
<svg version="1.1" id="Layer_1" xmlns="http://www.w3.org/2000/svg" xmlns:xlink="http://www.w3.org/1999/xlink" x="0px" y="0px"
	 viewBox="0 0 512 512" style="enable-background:new 0 0 512 512;" xml:space="preserve">
<circle style="fill:#A2A8D3;" cx="256.004" cy="191.585" r="165.134"/>
<path d="M255.999,371.175c-46.012,0-92.023-17.515-127.052-52.543l0,0c-70.057-70.058-70.057-184.048,0-254.106
	c70.058-70.055,184.046-70.055,254.105,0c70.055,70.058,70.055,184.048,0,254.106C348.022,353.66,302.012,371.175,255.999,371.175z
	 M149.512,298.066c58.719,58.719,154.259,58.717,212.974,0c58.717-58.717,58.717-154.258,0-212.975
	c-58.717-58.719-154.257-58.719-212.974,0C90.796,143.808,90.796,239.349,149.512,298.066L149.512,298.066z"/>
<path style="fill:#767B95;" d="M166.733,280.845l55.789-10.295c30.555,12.677,67.051,6.606,91.897-18.239
	c32.902-32.902,32.902-86.247,0-119.15s-86.247-32.902-119.15,0c-24.846,24.846-30.915,61.342-18.239,91.897L166.733,280.845z"/>
<path d="M324.701,122.879c-18.66-18.66-43.468-28.938-69.858-28.938c-26.389,0-51.198,10.276-69.857,28.936
	c-27.322,27.321-36.121,67.545-23.006,103.595l-9.547,51.733c-0.868,4.704,0.634,9.538,4.018,12.922
	c2.751,2.753,6.461,4.259,10.281,4.259c0.878,0,1.761-0.08,2.639-0.241l51.733-9.548c36.048,13.112,76.272,4.316,103.595-23.003
	C363.22,224.072,363.22,161.398,324.701,122.879z M304.136,242.028c-20.025,20.022-49.872,25.945-76.041,15.09
	c-2.594-1.078-5.449-1.379-8.212-0.87l-9.795,1.807l46.488-46.488c5.678-5.678,5.678-14.886,0-20.566
	c-5.678-5.677-14.886-5.677-20.566,0l-46.488,46.488l1.808-9.797c0.51-2.763,0.208-5.615-0.868-8.21
	c-10.858-26.17-4.934-56.017,15.09-76.041c13.166-13.167,30.672-20.419,49.291-20.419s36.127,7.252,49.291,20.419
	C331.316,170.623,331.316,214.848,304.136,242.028z"/>
<path d="M277.143,184.98c-0.945,0-1.906-0.087-2.85-0.275c-0.916-0.189-1.834-0.465-2.719-0.829
	c-0.874-0.364-1.716-0.814-2.501-1.338c-0.801-0.538-1.543-1.149-2.212-1.818c-0.669-0.669-1.28-1.411-1.818-2.21
	c-0.523-0.785-0.974-1.629-1.338-2.503c-0.364-0.886-0.64-1.802-0.829-2.734c-0.189-0.931-0.275-1.89-0.275-2.836
	c0-0.944,0.087-1.905,0.275-2.834c0.189-0.932,0.465-1.848,0.829-2.719c0.364-0.887,0.814-1.73,1.338-2.516
	c0.538-0.8,1.149-1.541,1.818-2.21c0.669-0.669,1.411-1.28,2.212-1.803c0.785-0.523,1.627-0.974,2.501-1.338
	c0.886-0.364,1.803-0.64,2.719-0.829c1.876-0.378,3.81-0.378,5.686,0c0.931,0.189,1.847,0.465,2.718,0.829
	c0.887,0.364,1.73,0.814,2.516,1.338c0.8,0.523,1.541,1.134,2.21,1.803c0.669,0.669,1.281,1.411,1.803,2.21
	c0.523,0.785,0.974,1.629,1.338,2.516c0.364,0.872,0.64,1.787,0.829,2.719c0.189,0.931,0.291,1.89,0.291,2.834
	c0,0.945-0.102,1.906-0.291,2.836c-0.189,0.932-0.465,1.848-0.829,2.734c-0.364,0.874-0.814,1.717-1.338,2.503
	c-0.522,0.8-1.134,1.541-1.803,2.21c-0.669,0.669-1.411,1.28-2.21,1.818c-0.785,0.523-1.629,0.974-2.516,1.338
	c-0.873,0.364-1.787,0.64-2.718,0.829C279.048,184.893,278.088,184.98,277.143,184.98z"/>
<path style="fill:#F96232;" d="M143.419,383.664L98.85,428.232c42.486,35.717,97.3,57.24,157.149,57.24v-71.72
	C217.069,413.752,178.145,403.714,143.419,383.664z"/>
<path style="fill:#FFDC64;" d="M96.636,347.742c-20.429-20.429-36.102-43.808-47.043-68.763H14.541
	c9.283,59.629,40.132,112.114,84.31,149.253l44.568-44.568C126.696,374.01,110.94,362.046,96.636,347.742z"/>
<path style="fill:#F96232;" d="M368.58,383.664c-34.727,20.048-73.65,30.088-112.581,30.088v71.72
	c59.849,0,114.663-21.524,157.149-57.24L368.58,383.664z"/>
<path style="fill:#FF5050;" d="M497.458,278.979h-35.052c-10.941,24.955-26.614,48.333-47.043,68.763
	c-14.305,14.305-30.059,26.268-46.783,35.923l44.568,44.568C457.327,391.093,488.175,338.61,497.458,278.979z"/>
<path d="M508.504,269.52c-2.763-3.225-6.798-5.082-11.046-5.082h-35.052c-5.774,0-10.999,3.416-13.317,8.703
	c-10.521,23.998-25.328,45.639-44.008,64.317c-13.098,13.099-27.825,24.406-43.77,33.61c-0.001,0.001-0.004,0.003-0.006,0.004
	c-31.887,18.408-68.3,28.138-105.305,28.138c-37.007,0-73.422-9.73-105.31-28.141c-0.001-0.001-0.004-0.001-0.006-0.003
	c-15.946-9.206-30.671-20.512-43.766-33.608c-18.679-18.679-33.485-40.319-44.008-64.319c-2.318-5.287-7.544-8.702-13.317-8.702
	H14.541c-4.248,0-8.283,1.857-11.044,5.082c-2.763,3.227-3.977,7.499-3.324,11.696c9.593,61.627,41.315,117.792,89.32,158.148
	c46.526,39.111,105.659,60.651,166.506,60.651c60.849,0,119.981-21.54,166.505-60.651c48.007-40.357,79.728-96.522,89.323-158.148
	C512.48,277.02,511.266,272.747,508.504,269.52z M241.458,470.471c-43.539-2.77-85.501-17.915-120.719-43.559l25.269-25.269
	c29.572,15.253,62.137,24.191,95.452,26.211v42.617H241.458z M32.17,293.521h8.129c11.625,23.873,27.087,45.535,46.054,64.503
	c10.445,10.445,21.806,19.893,33.921,28.218l-22.006,22.006C65.368,377.199,42.394,337.291,32.17,293.521z M270.541,470.471v-42.617
	c33.313-2.021,65.88-10.958,95.452-26.211l10.074,10.076l15.193,15.193C356.042,452.554,314.081,467.701,270.541,470.471z
	 M413.728,408.249l-22.004-22.006c12.115-8.324,23.474-17.771,33.922-28.218c18.969-18.969,34.431-40.632,46.054-64.503h8.13
	C469.607,337.289,446.631,377.197,413.728,408.249z"/>
<g>
</g>
<g>
</g>
<g>
</g>
<g>
</g>
<g>
</g>
<g>
</g>
<g>
</g>
<g>
</g>
<g>
</g>
<g>
</g>
<g>
</g>
<g>
</g>
<g>
</g>
<g>
</g>
<g>
</g>
</svg>
