<?xml version="1.0" encoding="iso-8859-1"?>
<!-- Generator: Adobe Illustrator 19.0.0, SVG Export Plug-In . SVG Version: 6.00 Build 0)  -->
<svg version="1.1" id="Layer_1" xmlns="http://www.w3.org/2000/svg" xmlns:xlink="http://www.w3.org/1999/xlink" x="0px" y="0px"
	 viewBox="0 0 512 512" style="enable-background:new 0 0 512 512;" xml:space="preserve">
<rect x="14.334" y="69.66" style="fill:#46AFA7;" width="111.245" height="372.68"/>
<rect x="124.962" y="69.66" style="fill:#7BFFCD;" width="111.245" height="372.68"/>
<rect x="235.605" y="69.66" style="fill:#46AFA7;" width="111.245" height="372.68"/>
<rect x="344.399" y="69.66" style="fill:#7BFFCD;" width="153.272" height="372.68"/>
<path d="M69.661,161.41c-0.932,0-1.878-0.1-2.795-0.287s-1.82-0.459-2.68-0.817c-0.874-0.358-1.706-0.803-2.48-1.319
	c-0.788-0.516-1.519-1.118-2.179-1.777c-0.659-0.659-1.261-1.39-1.777-2.179c-0.516-0.774-0.96-1.605-1.319-2.48
	c-0.358-0.86-0.645-1.763-0.817-2.68c-0.186-0.917-0.287-1.863-0.287-2.795c0-0.932,0.1-1.878,0.287-2.809
	c0.172-0.903,0.459-1.806,0.817-2.68c0.358-0.86,0.803-1.691,1.319-2.465c0.516-0.788,1.118-1.519,1.777-2.179
	c0.659-0.659,1.39-1.261,2.179-1.792c0.774-0.516,1.605-0.96,2.48-1.319c0.86-0.358,1.763-0.631,2.68-0.817
	c1.849-0.373,3.741-0.373,5.59,0c0.917,0.186,1.82,0.459,2.695,0.817c0.86,0.358,1.691,0.803,2.465,1.319
	c0.788,0.53,1.519,1.132,2.179,1.792c0.659,0.659,1.261,1.39,1.777,2.179c0.516,0.774,0.96,1.605,1.319,2.465
	c0.358,0.874,0.645,1.777,0.817,2.68c0.186,0.932,0.287,1.878,0.287,2.809c0,0.932-0.1,1.878-0.287,2.795
	c-0.172,0.917-0.459,1.82-0.817,2.68c-0.358,0.874-0.803,1.706-1.319,2.48c-0.516,0.788-1.118,1.519-1.777,2.179
	c-0.659,0.659-1.39,1.261-2.179,1.777c-0.774,0.516-1.605,0.96-2.465,1.319c-0.874,0.358-1.777,0.631-2.695,0.817
	C71.539,161.311,70.593,161.41,69.661,161.41z"/>
<path d="M291.232,161.41c-3.784,0-7.482-1.534-10.148-4.2c-0.659-0.659-1.247-1.39-1.777-2.179c-0.516-0.774-0.96-1.605-1.319-2.48
	c-0.358-0.86-0.631-1.763-0.817-2.68c-0.186-0.917-0.272-1.863-0.272-2.795s0.086-1.878,0.272-2.809
	c0.186-0.903,0.459-1.806,0.817-2.68c0.358-0.86,0.803-1.691,1.319-2.465c0.53-0.788,1.118-1.519,1.777-2.179
	c3.34-3.325,8.285-4.859,12.943-3.927c0.917,0.186,1.82,0.459,2.68,0.817c0.86,0.358,1.691,0.803,2.48,1.319
	c0.774,0.53,1.519,1.132,2.179,1.792c0.659,0.659,1.261,1.39,1.777,2.179c0.516,0.774,0.96,1.605,1.319,2.465
	c0.358,0.874,0.631,1.777,0.817,2.68c0.186,0.932,0.287,1.878,0.287,2.809s-0.1,1.878-0.287,2.795
	c-0.186,0.917-0.459,1.82-0.817,2.68c-0.358,0.874-0.803,1.706-1.319,2.48c-0.516,0.788-1.118,1.519-1.777,2.179
	c-0.659,0.659-1.405,1.261-2.179,1.777c-0.788,0.516-1.62,0.96-2.48,1.319c-0.86,0.358-1.763,0.631-2.68,0.817
	C293.097,161.311,292.165,161.41,291.232,161.41z"/>
<path d="M180.589,379.255c-0.932,0-1.878-0.086-2.795-0.272c-0.917-0.186-1.82-0.459-2.68-0.817
	c-0.874-0.358-1.706-0.803-2.48-1.319c-0.788-0.53-1.519-1.132-2.179-1.792c-0.659-0.659-1.261-1.39-1.777-2.179
	c-0.516-0.774-0.96-1.605-1.319-2.465c-0.358-0.874-0.631-1.763-0.817-2.68c-0.186-0.932-0.287-1.863-0.287-2.809
	c0-0.932,0.1-1.878,0.287-2.795c0.186-0.917,0.459-1.82,0.817-2.68c0.358-0.874,0.803-1.706,1.319-2.48
	c0.516-0.788,1.118-1.519,1.777-2.179c0.659-0.659,1.39-1.261,2.179-1.777c0.774-0.516,1.605-0.96,2.48-1.319
	c0.86-0.358,1.763-0.631,2.68-0.817c1.849-0.373,3.741-0.373,5.59,0c0.917,0.186,1.82,0.459,2.695,0.817
	c0.86,0.358,1.691,0.803,2.465,1.319c0.788,0.516,1.519,1.118,2.179,1.777c0.659,0.659,1.261,1.39,1.792,2.179
	c0.516,0.774,0.96,1.605,1.319,2.48c0.358,0.86,0.631,1.763,0.817,2.68c0.186,0.917,0.272,1.863,0.272,2.795
	c0,0.932-0.086,1.878-0.272,2.809c-0.186,0.903-0.459,1.806-0.817,2.68c-0.358,0.86-0.803,1.691-1.319,2.465
	c-0.53,0.788-1.132,1.519-1.792,2.179c-0.659,0.659-1.39,1.261-2.179,1.792c-0.774,0.516-1.605,0.96-2.465,1.319
	c-0.874,0.358-1.777,0.631-2.695,0.817S181.522,379.255,180.589,379.255z"/>
<circle style="fill:#FF5050;" cx="421.042" cy="162.832" r="53.035"/>
<rect x="391.17" y="254.769" style="fill:#FFDC64;" width="59.725" height="134.322"/>
<path d="M497.666,55.326H14.334C6.417,55.326,0,61.744,0,69.66v372.68c0,7.917,6.417,14.334,14.334,14.334h483.332
	c7.917,0,14.334-6.417,14.334-14.334V69.66C512,61.744,505.583,55.326,497.666,55.326z M483.332,137.218
	c-10.101-24.479-34.215-41.757-62.298-41.757c-26.026,0-48.636,14.844-59.851,36.503v-47.97h122.15v53.224H483.332z M459.736,162.83
	c0,21.34-17.361,38.701-38.701,38.701s-38.701-17.361-38.701-38.701s17.361-38.701,38.701-38.701S459.736,141.49,459.736,162.83z
	 M330.068,248.833H305.56v-58.759c0-7.917-6.417-14.334-14.334-14.334s-14.334,6.417-14.334,14.334v58.759h-26.344V83.994h79.52
	V248.833L330.068,248.833z M221.27,169.997h-26.344v-22.924c0-7.917-6.417-14.334-14.334-14.334s-14.334,6.417-14.334,14.334v22.924
	h-26.344V83.994h81.356V169.997z M139.914,198.665h26.344v123.261c0,7.917,6.417,14.334,14.334,14.334s14.334-6.417,14.334-14.334
	V198.665h26.344v229.341h-81.356V198.665z M250.548,277.501h26.344v87.426c0,7.917,6.417,14.334,14.334,14.334
	s14.334-6.417,14.334-14.334v-87.426h24.508v150.505h-79.52V277.501z M110.634,83.994v204.885H83.995v-98.805
	c0-7.917-6.417-14.334-14.334-14.334s-14.334,6.417-14.334,14.334v98.805H28.668V83.994H110.634z M28.668,317.547h26.659v47.379
	c0,7.917,6.417,14.334,14.334,14.334s14.334-6.417,14.334-14.334v-47.379h26.639v110.459H28.668V317.547z M361.182,428.006V193.697
	c11.215,21.658,33.825,36.503,59.851,36.503c28.083,0,52.197-17.278,62.298-41.757v239.564H361.182z"/>
<path d="M450.896,240.429h-59.725c-7.917,0-14.334,6.417-14.334,14.334v134.324c0,7.917,6.417,14.334,14.334,14.334h59.725
	c7.917,0,14.334-6.417,14.334-14.334V254.763C465.23,246.846,458.813,240.429,450.896,240.429z M436.563,374.753h-31.057V269.097
	h31.057V374.753z"/>
<g>
</g>
<g>
</g>
<g>
</g>
<g>
</g>
<g>
</g>
<g>
</g>
<g>
</g>
<g>
</g>
<g>
</g>
<g>
</g>
<g>
</g>
<g>
</g>
<g>
</g>
<g>
</g>
<g>
</g>
</svg>
