<?xml version="1.0" encoding="iso-8859-1"?>
<!-- Generator: Adobe Illustrator 19.0.0, SVG Export Plug-In . SVG Version: 6.00 Build 0)  -->
<svg version="1.1" id="Layer_1" xmlns="http://www.w3.org/2000/svg" xmlns:xlink="http://www.w3.org/1999/xlink" x="0px" y="0px"
	 viewBox="0 0 512 512" style="enable-background:new 0 0 512 512;" xml:space="preserve">
<g>
	<polygon style="fill:#F96232;" points="224.664,432.001 178.183,497.404 333.799,497.404 287.319,432.001 	"/>
	<circle style="fill:#F96232;" cx="418.05" cy="65.672" r="51.073"/>
	<circle style="fill:#F96232;" cx="93.951" cy="65.672" r="51.073"/>
</g>
<path style="fill:#FFDC64;" d="M427.835,115.798c-3.169,0.615-6.44,0.947-9.791,0.947c-28.207,0-51.073-22.866-51.073-51.073
	c0-1.687,0.088-3.353,0.247-4.998h-2.071l19.095,159.313c4.32,34.262-10.681,68.42-38.217,87.022
	c-15.018,10.147-32.604,15.51-50.856,15.51h-78.356c-18.252,0-35.837-5.363-50.854-15.509
	c-27.536-18.603-42.538-52.762-38.218-87.024l19.095-159.311h-2.052c0.159,1.645,0.247,3.312,0.247,4.998
	c0,28.207-22.866,51.073-51.073,51.073c-3.356,0-6.633-0.333-9.808-0.95L62.567,255.563
	c-7.362,58.397,17.844,116.721,66.617,149.671c25.015,16.9,55.169,26.766,87.629,26.766h78.356c32.46,0,62.616-9.868,87.629-26.766
	c48.773-32.95,73.978-91.272,66.617-149.671L427.835,115.798z"/>
<path d="M193.944,397.993c-0.949,0-1.912-0.088-2.847-0.276c-0.934-0.191-1.854-0.467-2.73-0.832
	c-0.876-0.365-1.737-0.819-2.525-1.343c-0.788-0.54-1.547-1.153-2.219-1.825c-0.672-0.672-1.285-1.416-1.81-2.22
	c-0.526-0.788-0.978-1.635-1.343-2.511c-0.365-0.89-0.642-1.81-0.832-2.73c-0.19-0.947-0.292-1.912-0.292-2.861
	c0-0.947,0.102-1.912,0.292-2.847c0.19-0.934,0.467-1.854,0.832-2.73c0.365-0.889,0.817-1.736,1.343-2.524
	c0.526-0.803,1.139-1.547,1.81-2.22c0.671-0.672,1.431-1.285,2.219-1.809c0.788-0.526,1.65-0.978,2.525-1.343
	c0.876-0.365,1.796-0.642,2.73-0.832c1.883-0.38,3.825-0.38,5.708,0c0.934,0.19,1.854,0.467,2.73,0.832
	c0.876,0.365,1.723,0.817,2.511,1.343c0.803,0.524,1.547,1.137,2.219,1.809c0.672,0.673,1.285,1.417,1.825,2.22
	c0.526,0.788,0.978,1.635,1.343,2.524c0.365,0.877,0.642,1.796,0.832,2.73c0.19,0.936,0.277,1.899,0.277,2.847
	c0,0.949-0.088,1.914-0.277,2.861c-0.19,0.92-0.467,1.839-0.832,2.73c-0.365,0.876-0.817,1.723-1.343,2.511
	c-0.54,0.804-1.153,1.549-1.825,2.22c-0.672,0.671-1.416,1.285-2.219,1.825c-0.788,0.524-1.635,0.978-2.511,1.343
	c-0.876,0.365-1.796,0.641-2.73,0.832C195.857,397.905,194.909,397.993,193.944,397.993z"/>
<path d="M463.842,253.335L444.167,125.91c23.248-10.122,39.548-33.308,39.548-60.238C483.715,29.461,454.256,0,418.044,0
	c-29.388,0-54.328,19.405-62.684,46.075H156.64C148.284,19.405,123.344,0,93.955,0C57.744,0,28.285,29.461,28.285,65.672
	c0,26.924,16.293,50.104,39.531,60.23L48.14,253.335c-0.02,0.134-0.039,0.269-0.057,0.401c-3.963,31.438,0.666,63.286,13.386,92.1
	c12.868,29.15,33.457,53.872,59.541,71.494c22.895,15.468,48.914,25.037,76.165,28.146l-30.893,43.469
	c-3.163,4.452-3.578,10.299-1.073,15.151c2.505,4.854,7.511,7.903,12.972,7.903h155.616c5.462,0,10.467-3.049,12.972-7.903
	c2.505-4.852,2.092-10.699-1.073-15.151l-30.893-43.469c27.251-3.109,53.27-12.68,76.165-28.146
	c26.083-17.621,46.672-42.344,59.541-71.494c12.72-28.814,17.349-60.662,13.386-92.1
	C463.88,253.604,463.862,253.469,463.842,253.335z M418.044,29.195c20.113,0,36.475,16.364,36.475,36.477
	c0,17.79-12.805,32.636-29.68,35.832c-0.509,0.095-1.02,0.185-1.533,0.26c-0.009,0.001-0.018,0.001-0.026,0.003
	c-0.574,0.083-1.147,0.152-1.721,0.209c-0.061,0.006-0.126,0.009-0.187,0.015c-0.518,0.048-1.035,0.088-1.552,0.114
	c-0.588,0.029-1.181,0.045-1.777,0.045c-1.886,0-3.738-0.145-5.547-0.422c-17.49-2.68-30.928-17.828-30.93-36.055
	c0-0.596,0.016-1.188,0.045-1.777c0.029-0.597,0.074-1.198,0.133-1.804v-0.009C383.557,43.647,399.143,29.195,418.044,29.195z
	 M142.236,221.724L159.79,75.272h19.564v222.864c-1.777-1.001-3.521-2.071-5.222-3.22
	C151.11,279.361,138.587,250.667,142.236,221.724z M208.548,75.27h32.845v232.649h-24.58c-2.776,0-5.534-0.152-8.265-0.445V75.27z
	 M270.588,75.27h32.845v232.203c-2.73,0.292-5.487,0.445-8.265,0.445h-24.58V75.27z M332.629,75.27h19.565l17.564,146.541
	c3.638,28.857-8.886,57.549-31.906,73.1c-1.702,1.15-3.447,2.22-5.223,3.222V75.27z M93.955,29.195
	c18.901,0,34.487,14.452,36.297,32.886v0.009c0.058,0.606,0.104,1.209,0.133,1.804c0.028,0.588,0.045,1.181,0.045,1.777
	c0,18.227-13.439,33.375-30.93,36.055c-1.809,0.277-3.663,0.422-5.547,0.422c-0.599,0-1.194-0.016-1.785-0.045
	c-0.472-0.023-0.944-0.061-1.417-0.104c-0.109-0.009-0.22-0.015-0.33-0.025c-0.553-0.054-1.107-0.123-1.658-0.201
	c-0.029-0.004-0.058-0.007-0.086-0.01c-0.531-0.079-1.063-0.171-1.591-0.272c-16.839-3.223-29.607-18.053-29.607-35.819
	C57.48,45.56,73.843,29.195,93.955,29.195z M206.466,482.805l25.731-36.207h47.587l25.731,36.207H206.466z M374.626,393.138
	c-23.498,15.874-50.974,24.264-79.457,24.264h-7.851h-62.655h-7.851c-28.483,0-55.959-8.391-79.457-24.264
	c-43.951-29.693-67.056-81.62-60.33-135.552l19.498-126.292c0.123-0.004,0.244-0.019,0.366-0.025
	c0.823-0.036,1.639-0.098,2.455-0.165c0.371-0.031,0.744-0.048,1.114-0.085c1.177-0.117,2.347-0.26,3.505-0.436
	c0.083-0.013,0.165-0.031,0.248-0.045c1.074-0.169,2.14-0.363,3.195-0.584c0.384-0.08,0.761-0.178,1.143-0.264
	c0.752-0.171,1.502-0.346,2.245-0.543c0.434-0.115,0.863-0.244,1.293-0.368c0.682-0.196,1.361-0.397,2.033-0.615
	c0.442-0.143,0.879-0.295,1.317-0.447c0.654-0.226,1.304-0.461,1.947-0.709c0.432-0.166,0.863-0.334,1.29-0.509
	c0.642-0.263,1.279-0.537,1.912-0.819c0.412-0.184,0.823-0.365,1.231-0.558c0.648-0.305,1.288-0.626,1.925-0.952
	c0.274-0.14,0.558-0.267,0.831-0.41l-11.315,94.399c-5.001,39.669,12.477,79.292,44.529,100.946
	c6.781,4.581,14.015,8.31,21.565,11.173v9.327c0,8.061,6.535,14.598,14.598,14.598c8.062,0,14.598-6.537,14.598-14.598v-2.814
	c2.739,0.212,5.495,0.324,8.265,0.324h24.58v46.284c0,8.061,6.535,14.598,14.598,14.598c8.062,0,14.598-6.537,14.598-14.598v-46.284
	h24.58c2.771,0,5.525-0.112,8.265-0.324v2.814c0,8.061,6.535,14.598,14.598,14.598c8.062,0,14.598-6.537,14.598-14.598v-9.328
	c7.55-2.863,14.785-6.594,21.567-11.175c32.051-21.651,49.53-61.274,44.539-100.856l-11.325-94.497
	c0.272,0.145,0.553,0.27,0.826,0.409c0.641,0.328,1.283,0.651,1.936,0.958c0.409,0.193,0.822,0.375,1.235,0.559
	c0.629,0.28,1.263,0.553,1.902,0.815c0.432,0.177,0.866,0.347,1.302,0.515c0.638,0.245,1.282,0.479,1.93,0.704
	c0.444,0.155,0.888,0.308,1.334,0.453c0.664,0.215,1.336,0.415,2.01,0.609c0.438,0.126,0.873,0.257,1.314,0.374
	c0.731,0.194,1.47,0.366,2.21,0.536c0.393,0.09,0.78,0.19,1.175,0.273c1.004,0.21,2.019,0.394,3.041,0.556
	c0.136,0.022,0.269,0.051,0.404,0.073c1.155,0.178,2.32,0.321,3.493,0.436c0.382,0.038,0.771,0.057,1.155,0.089
	c0.798,0.064,1.598,0.126,2.404,0.162c0.126,0.004,0.248,0.02,0.374,0.025l19.498,126.292
	C441.683,311.517,418.577,363.446,374.626,393.138z"/>
<path d="M318.025,397.993c-0.949,0-1.912-0.088-2.847-0.276c-0.934-0.191-1.854-0.467-2.73-0.832
	c-0.876-0.365-1.737-0.819-2.525-1.343c-0.788-0.54-1.547-1.153-2.219-1.825c-0.672-0.672-1.285-1.416-1.81-2.22
	c-0.526-0.788-0.978-1.635-1.343-2.511c-0.365-0.89-0.642-1.81-0.832-2.73c-0.19-0.947-0.292-1.912-0.292-2.861
	c0-0.947,0.102-1.912,0.292-2.847c0.19-0.934,0.467-1.854,0.832-2.73c0.365-0.889,0.817-1.736,1.343-2.524
	c0.526-0.803,1.139-1.547,1.81-2.22c0.672-0.672,1.431-1.285,2.219-1.809c0.788-0.526,1.65-0.978,2.525-1.343
	c0.876-0.365,1.796-0.642,2.73-0.832c1.883-0.38,3.825-0.38,5.708,0c0.934,0.19,1.854,0.467,2.73,0.832
	c0.876,0.365,1.723,0.817,2.511,1.343c0.803,0.524,1.547,1.137,2.219,1.809c0.686,0.673,1.285,1.417,1.825,2.22
	c0.526,0.788,0.978,1.635,1.343,2.524c0.365,0.877,0.642,1.796,0.832,2.73c0.19,0.936,0.277,1.899,0.277,2.847
	c0,0.949-0.088,1.914-0.277,2.861c-0.19,0.92-0.467,1.839-0.832,2.73c-0.365,0.876-0.817,1.723-1.343,2.511
	c-0.54,0.804-1.153,1.549-1.825,2.22c-0.672,0.671-1.416,1.285-2.219,1.825c-0.788,0.524-1.635,0.978-2.511,1.343
	c-0.876,0.365-1.796,0.641-2.73,0.832C319.937,397.905,318.99,397.993,318.025,397.993z"/>
<g>
</g>
<g>
</g>
<g>
</g>
<g>
</g>
<g>
</g>
<g>
</g>
<g>
</g>
<g>
</g>
<g>
</g>
<g>
</g>
<g>
</g>
<g>
</g>
<g>
</g>
<g>
</g>
<g>
</g>
</svg>
