<?xml version="1.0" encoding="iso-8859-1"?>
<!-- Generator: Adobe Illustrator 19.0.0, SVG Export Plug-In . SVG Version: 6.00 Build 0)  -->
<svg version="1.1" id="Layer_1" xmlns="http://www.w3.org/2000/svg" xmlns:xlink="http://www.w3.org/1999/xlink" x="0px" y="0px"
	 viewBox="0 0 511.999 511.999" style="enable-background:new 0 0 511.999 511.999;" xml:space="preserve">
<rect x="14.56" y="200.173" style="fill:#7BFFCD;" width="294.115" height="294.115"/>
<circle style="fill:#A2A8D3;" cx="161.618" cy="347.23" r="120.893"/>
<path d="M161.618,424.444c-8.042,0-14.56-6.52-14.56-14.56c0-8.04,6.519-14.56,14.56-14.56c26.521,0,48.098-21.577,48.098-48.098
	c0-13.791-5.964-26.951-16.361-36.105c-6.037-5.314-6.62-14.515-1.306-20.55c5.314-6.034,14.515-6.619,20.549-1.306
	c16.676,14.682,26.239,35.809,26.239,57.962C238.836,389.804,204.196,424.444,161.618,424.444z"/>
<path d="M161.618,299.131c-8.042,0-14.56-6.52-14.56-14.56c0-8.04,6.519-14.562,14.56-14.562c8.042,0,14.56,6.517,14.56,14.557
	v0.004C176.178,292.612,169.659,299.131,161.618,299.131z"/>
<g>
	<path style="fill:#FFDC64;" d="M331.039,17.717c-22.273,0-40.327,18.055-40.327,40.327s18.056,40.327,40.327,40.327v57.954h40.327
		V58.044C371.367,35.771,353.312,17.717,331.039,17.717z"/>
	<path style="fill:#FFDC64;" d="M457.111,73.326c22.273,0,40.327,18.055,40.327,40.327s-18.056,40.327-40.327,40.327v57.954h-40.327
		v-98.281C416.784,91.381,434.84,73.326,457.111,73.326z"/>
</g>
<path d="M457.111,58.766c-30.265,0-54.887,24.623-54.887,54.887v95.082c-0.232,1.031-0.364,2.098-0.364,3.199v31.913
	c0,8.028-6.532,14.56-14.56,14.56c-0.492,0-0.977,0.026-1.456,0.073V157.861c0.052-0.505,0.083-1.018,0.083-1.536V58.044
	c0-30.265-24.621-54.887-54.886-54.887c-30.265,0-54.887,24.623-54.887,54.887c0,25.225,17.107,46.531,40.327,52.929v45.352
	c0,8.04,6.52,14.56,14.56,14.56h25.683v294.276c0,8.028-6.532,14.56-14.56,14.56h-18.928V200.167c0-8.04-6.52-14.56-14.56-14.56
	H14.56c-8.042,0-14.56,6.52-14.56,14.56v294.115c0,8.04,6.519,14.56,14.56,14.56h276.643h17.472h33.488
	c24.085,0,43.68-19.595,43.68-43.68V287.455c0.479,0.048,0.964,0.073,1.456,0.073c24.085,0,43.68-19.595,43.68-43.68v-17.353h26.131
	c8.04,0,14.56-6.52,14.56-14.56v-45.352c23.221-6.398,40.327-27.702,40.327-52.929C512,83.389,487.376,58.766,457.111,58.766z
	 M294.115,319.021c-11.079-52.099-52.194-93.215-104.293-104.293h104.293V319.021z M267.956,347.226
	c0,58.635-47.703,106.339-106.339,106.339S55.279,405.861,55.279,347.226s47.703-106.34,106.339-106.34
	S267.956,288.589,267.956,347.226z M133.413,214.729C81.314,225.806,40.199,266.922,29.12,319.021V214.729H133.413z M29.12,375.429
	c11.079,52.099,52.194,93.215,104.293,104.293H29.12V375.429z M291.203,479.723H189.822
	c52.099-11.077,93.215-52.194,104.293-104.293v104.293H291.203z M331.039,83.813c-14.208,0-25.767-11.559-25.767-25.767
	c0-14.209,11.559-25.767,25.767-25.767c14.208,0,25.766,11.558,25.766,25.767v83.721h-11.205V98.373
	C345.599,90.331,339.081,83.813,331.039,83.813z M457.111,139.422c-8.04,0-14.56,6.52-14.56,14.56v43.394h-11.207v-83.721
	c0-14.209,11.558-25.767,25.767-25.767c14.209,0,25.767,11.558,25.767,25.767C482.88,127.861,471.32,139.422,457.111,139.422z"/>
<g>
</g>
<g>
</g>
<g>
</g>
<g>
</g>
<g>
</g>
<g>
</g>
<g>
</g>
<g>
</g>
<g>
</g>
<g>
</g>
<g>
</g>
<g>
</g>
<g>
</g>
<g>
</g>
<g>
</g>
</svg>
