<?xml version="1.0" encoding="iso-8859-1"?>
<!-- Generator: Adobe Illustrator 19.0.0, SVG Export Plug-In . SVG Version: 6.00 Build 0)  -->
<svg version="1.1" id="Layer_1" xmlns="http://www.w3.org/2000/svg" xmlns:xlink="http://www.w3.org/1999/xlink" x="0px" y="0px"
	 viewBox="0 0 512 512" style="enable-background:new 0 0 512 512;" xml:space="preserve">
<path d="M384.164,355.664c-0.873,0-1.733-0.093-2.593-0.265c-0.847-0.159-1.68-0.422-2.474-0.753
	c-0.794-0.331-1.561-0.729-2.288-1.204c-0.714-0.489-1.389-1.045-2.011-1.653c-0.608-0.608-1.151-1.284-1.64-2.012
	c-0.476-0.714-0.886-1.482-1.217-2.275c-0.331-0.807-0.582-1.64-0.754-2.487c-0.172-0.848-0.251-1.72-0.251-2.579
	c0-0.86,0.079-1.733,0.251-2.579c0.172-0.847,0.423-1.68,0.754-2.474c0.331-0.806,0.741-1.573,1.217-2.287
	c0.489-0.728,1.032-1.403,1.64-2.012c2.474-2.459,5.873-3.876,9.365-3.876c3.479,0,6.892,1.415,9.352,3.876
	c2.46,2.46,3.876,5.873,3.876,9.352c0,0.86-0.093,1.733-0.265,2.579c-0.172,0.847-0.423,1.68-0.754,2.487
	c-0.331,0.794-0.741,1.561-1.217,2.275c-0.489,0.728-1.032,1.403-1.64,2.012C391.056,354.247,387.644,355.664,384.164,355.664z"/>
<g>
	<path style="fill:#FFDC64;" d="M347.597,39.518c-20.235,0-36.637,16.403-36.637,36.637s16.404,36.637,36.637,36.637v52.651h36.637
		V76.155C384.234,55.922,367.831,39.518,347.597,39.518z"/>
	<path style="fill:#FFDC64;" d="M462.133,90.039c20.235,0,36.637,16.403,36.637,36.637s-16.404,36.637-36.637,36.637v52.651h-36.637
		v-89.288C425.496,106.443,441.9,90.039,462.133,90.039z"/>
</g>
<path d="M462.133,76.811c-27.496,0-49.865,22.37-49.865,49.865l-0.331,118.283c0,7.294-5.934,13.228-13.228,13.228
	c-0.447,0-0.888,0.024-1.323,0.067l0.075-182.098c0-27.496-22.37-49.865-49.865-49.865c-27.496,0-49.865,22.37-49.865,49.865
	c0,22.917,15.542,42.274,36.637,48.085v41.204c0,7.304,5.922,13.228,13.228,13.228h23.335v118.129
	c0,7.304,5.922,13.228,13.228,13.228s13.228-5.923,13.228-13.228v-12.225c0.435,0.044,0.876,0.067,1.323,0.067
	c21.882,0,39.684-17.802,39.684-39.684v-15.766h23.74c7.306,0,13.228-5.923,13.228-13.228v-41.202
	C496.458,168.952,512,149.597,512,126.678C512,99.181,489.629,76.811,462.133,76.811z M347.597,99.566
	c-12.908,0-23.409-10.502-23.409-23.409c0-12.909,10.502-23.409,23.409-23.409c12.908,0,23.409,10.5,23.409,23.409v76.061h-10.182
	v-39.423C360.825,105.489,354.903,99.566,347.597,99.566z M462.133,150.086c-7.306,0-13.228,5.923-13.228,13.228v39.423h-10.182
	v-76.061c0-12.909,10.502-23.409,23.409-23.409s23.409,10.5,23.409,23.409C485.544,139.584,475.042,150.086,462.133,150.086z"/>
<path style="fill:#7BFFCD;" d="M339.685,309.004c0,90.138-73.078,163.229-163.229,163.229c-65.993,0-122.845-39.163-148.55-95.519
	c-9.432-20.626-14.679-43.564-14.679-67.71c0-24.157,5.248-47.082,14.666-67.71c25.718-56.355,82.57-95.519,148.563-95.519
	C266.607,145.775,339.685,218.854,339.685,309.004z"/>
<path style="fill:#FF5050;" d="M210.71,309.004L210.71,309.004c0,37.395-30.314,67.71-67.71,67.71H27.907
	c-9.432-20.626-14.679-43.564-14.679-67.71c0-24.157,5.248-47.082,14.666-67.71H143C180.396,241.294,210.71,271.608,210.71,309.004z
	"/>
<path d="M384.16,374.846c-7.306,0-13.228,5.923-13.228,13.228v57.95c0,7.294-5.934,13.228-13.228,13.228h-88.815
	c50.377-31.107,84.024-86.819,84.024-150.248c0-97.298-79.159-176.455-176.457-176.455c-68.935,0-131.972,40.53-160.595,103.253
	C5.336,258.849,0,283.478,0,309.004c0,3.192,0.083,6.371,0.25,9.533c1.167,22.138,6.408,43.516,15.621,63.667
	c28.611,62.725,91.644,103.257,160.584,103.257c0.242,0,181.248,0.247,181.248,0.247c21.882,0,39.684-17.802,39.684-39.684v-57.95
	C397.388,380.769,391.464,374.846,384.16,374.846z M36.665,363.487c-0.434-1.108-0.857-2.221-1.263-3.336
	c-0.091-0.251-0.176-0.505-0.266-0.757c-0.332-0.929-0.659-1.859-0.972-2.792c-0.144-0.429-0.279-0.858-0.419-1.288
	c-0.249-0.765-0.495-1.53-0.732-2.299c-0.146-0.474-0.286-0.95-0.427-1.426c-0.217-0.732-0.429-1.462-0.634-2.197
	c-0.136-0.488-0.271-0.976-0.402-1.466c-0.198-0.741-0.39-1.482-0.577-2.225c-0.12-0.476-0.241-0.952-0.356-1.43
	c-0.19-0.788-0.37-1.578-0.548-2.369c-0.097-0.433-0.197-0.862-0.29-1.295c-0.21-0.983-0.409-1.97-0.599-2.959
	c-0.046-0.239-0.098-0.476-0.143-0.717c-0.231-1.23-0.446-2.463-0.647-3.701c-0.056-0.343-0.103-0.687-0.156-1.028
	c-0.139-0.897-0.274-1.792-0.396-2.693c-0.062-0.462-0.118-0.925-0.177-1.388c-0.099-0.79-0.196-1.578-0.283-2.369
	c-0.054-0.497-0.104-0.993-0.155-1.491c-0.077-0.769-0.148-1.537-0.214-2.307c-0.042-0.503-0.083-1.005-0.122-1.511
	c-0.058-0.782-0.108-1.566-0.155-2.349c-0.029-0.485-0.06-0.971-0.083-1.459c-0.042-0.856-0.073-1.716-0.102-2.574
	c-0.013-0.411-0.032-0.82-0.042-1.233c-0.032-1.274-0.05-2.548-0.05-3.824c0-1.275,0.019-2.546,0.05-3.816
	c0.011-0.418,0.029-0.836,0.042-1.253c0.028-0.852,0.058-1.702,0.101-2.552c0.024-0.492,0.056-0.983,0.085-1.474
	c0.046-0.776,0.095-1.554,0.153-2.328c0.038-0.513,0.081-1.024,0.123-1.536c0.065-0.759,0.135-1.517,0.21-2.275
	c0.05-0.507,0.102-1.013,0.157-1.517c0.086-0.779,0.181-1.556,0.279-2.332c0.06-0.475,0.116-0.951,0.181-1.423
	c0.119-0.872,0.25-1.739,0.384-2.609c0.057-0.372,0.108-0.746,0.169-1.119c0.198-1.228,0.411-2.452,0.642-3.672
	c0.053-0.28,0.112-0.558,0.167-0.837c0.184-0.947,0.373-1.894,0.574-2.837c0.097-0.455,0.202-0.907,0.304-1.358
	c0.172-0.77,0.347-1.538,0.532-2.304c0.119-0.492,0.243-0.984,0.368-1.475c0.184-0.729,0.37-1.456,0.565-2.18
	c0.134-0.5,0.271-0.999,0.41-1.497c0.202-0.725,0.411-1.446,0.624-2.167c0.144-0.485,0.286-0.97,0.435-1.455
	c0.234-0.759,0.478-1.517,0.724-2.275c0.142-0.435,0.279-0.872,0.425-1.306c0.314-0.934,0.639-1.864,0.971-2.791
	c0.09-0.251,0.175-0.507,0.266-0.757c0.406-1.116,0.828-2.228,1.262-3.335h106.345c30.041,0,54.482,24.441,54.482,54.482
	c0,30.042-24.44,54.483-54.482,54.483H36.665V363.487z M50.162,389.943H143c44.628,0,80.938-36.308,80.938-80.939
	c0-44.628-36.308-80.938-80.938-80.938H50.152c27.325-42.528,74.882-69.063,126.304-69.063c82.71,0,150.001,67.289,150.001,149.999
	s-67.29,150.001-150.001,150.001C125.033,459.006,77.481,432.474,50.162,389.943z"/>
<path style="fill:#7BFFCD;" d="M143.375,305.517l-57.803-34.283c-2.698-1.601-6.114,0.344-6.114,3.483v68.566
	c0,3.138,3.415,5.083,6.114,3.483l57.802-34.283C146.019,310.912,146.019,307.086,143.375,305.517z"/>
<path d="M83.505,360.553c-2.952,0-5.905-0.751-8.551-2.259c-5.382-3.065-8.725-8.818-8.725-15.012v-68.566
	c0-6.195,3.344-11.946,8.725-15.012c5.384-3.066,12.036-3.005,17.364,0.151l57.803,34.285c5.22,3.097,8.462,8.79,8.462,14.859
	s-3.243,11.764-8.463,14.859l-57.802,34.281C89.61,359.747,86.558,360.553,83.505,360.553z M92.685,290.832v36.333L123.315,309
	L92.685,290.832z M136.627,316.895h0.013H136.627z"/>
<g>
</g>
<g>
</g>
<g>
</g>
<g>
</g>
<g>
</g>
<g>
</g>
<g>
</g>
<g>
</g>
<g>
</g>
<g>
</g>
<g>
</g>
<g>
</g>
<g>
</g>
<g>
</g>
<g>
</g>
</svg>
