<?xml version="1.0" encoding="iso-8859-1"?>
<!-- Generator: Adobe Illustrator 19.0.0, SVG Export Plug-In . SVG Version: 6.00 Build 0)  -->
<svg version="1.1" id="Layer_1" xmlns="http://www.w3.org/2000/svg" xmlns:xlink="http://www.w3.org/1999/xlink" x="0px" y="0px"
	 viewBox="0 0 511.999 511.999" style="enable-background:new 0 0 511.999 511.999;" xml:space="preserve">
<circle style="fill:#FFDC64;" cx="135.239" cy="84.049" r="65.822"/>
<g>
	<path style="fill:#767B95;" d="M449.014,35.273H179.439c13.282,12.043,21.626,29.436,21.626,48.778s-8.344,36.734-21.626,48.778
		h269.576c26.94,0,48.778-21.839,48.778-48.778l0,0C497.793,57.112,475.953,35.273,449.014,35.273z"/>
	<path style="fill:#767B95;" d="M69.411,84.052c0-19.343,8.344-36.734,21.626-48.778H62.985
		c-26.938-0.001-48.778,21.838-48.778,48.776l0,0c0,26.94,21.839,48.778,48.778,48.778h28.052
		C77.755,120.787,69.411,103.394,69.411,84.052z"/>
</g>
<path d="M438.179,98.255c-0.923,0-1.861-0.085-2.77-0.269c-0.909-0.186-1.804-0.455-2.657-0.81
	c-0.867-0.355-1.691-0.797-2.458-1.307c-0.781-0.526-1.506-1.122-2.159-1.776c-0.654-0.654-1.25-1.38-1.762-2.161
	c-0.511-0.767-0.952-1.591-1.307-2.444c-0.355-0.867-0.625-1.762-0.81-2.657c-0.185-0.922-0.284-1.861-0.284-2.785
	s0.099-1.861,0.284-2.77s0.455-1.804,0.81-2.657c0.355-0.865,0.796-1.689,1.307-2.456c0.511-0.781,1.108-1.507,1.762-2.161
	s1.378-1.25,2.159-1.76c0.767-0.511,1.591-0.952,2.458-1.307c0.852-0.355,1.747-0.625,2.657-0.81c1.833-0.369,3.722-0.369,5.555,0
	c0.895,0.185,1.79,0.455,2.657,0.81c0.852,0.355,1.676,0.796,2.444,1.307c0.781,0.51,1.506,1.107,2.159,1.76s1.25,1.38,1.776,2.161
	c0.511,0.767,0.952,1.591,1.307,2.456c0.355,0.854,0.625,1.747,0.81,2.657c0.185,0.911,0.27,1.847,0.27,2.77
	s-0.085,1.863-0.27,2.785c-0.185,0.895-0.469,1.79-0.824,2.657c-0.355,0.852-0.781,1.676-1.293,2.444
	c-0.526,0.781-1.122,1.507-1.776,2.161c-0.654,0.654-1.378,1.25-2.159,1.776c-0.767,0.51-1.591,0.952-2.444,1.307
	c-0.867,0.355-1.762,0.624-2.657,0.81C440.04,98.171,439.103,98.255,438.179,98.255z"/>
<circle style="fill:#FFDC64;" cx="376.762" cy="256" r="65.822"/>
<g>
	<path style="fill:#767B95;" d="M310.935,255.999c0-19.342,8.344-36.734,21.626-48.778H62.985
		c-26.938,0-48.778,21.839-48.778,48.778l0,0c0,26.94,21.839,48.778,48.778,48.778h269.576
		C319.278,292.734,310.935,275.342,310.935,255.999z"/>
	<path style="fill:#767B95;" d="M449.014,207.221h-28.052c13.282,12.044,21.626,29.436,21.626,48.778s-8.344,36.734-21.626,48.778
		h28.052c26.94,0,48.778-21.838,48.778-48.778l0,0C497.793,229.06,475.953,207.221,449.014,207.221z"/>
</g>
<circle style="fill:#FFDC64;" cx="135.239" cy="427.951" r="65.822"/>
<g>
	<path style="fill:#767B95;" d="M69.411,427.946c0-19.342,8.344-36.734,21.626-48.778H62.985c-26.938,0-48.778,21.839-48.778,48.778
		l0,0c0,26.94,21.839,48.778,48.778,48.778h28.052C77.755,464.682,69.411,447.289,69.411,427.946z"/>
	<path style="fill:#767B95;" d="M449.014,379.168H179.439c13.282,12.043,21.626,29.436,21.626,48.778
		c0,19.343-8.344,36.734-21.626,48.778h269.576c26.94,0,48.778-21.839,48.778-48.778l0,0
		C497.793,401.008,475.953,379.168,449.014,379.168z"/>
</g>
<path d="M62.985,147.037h22.963c13.599,10.665,30.708,17.049,49.289,17.049s35.691-6.383,49.289-17.049h264.487
	c34.731,0,62.985-28.255,62.985-62.986c0-34.73-28.255-62.985-62.985-62.985H184.528C170.929,10.4,153.821,4.017,135.238,4.017
	S99.546,10.4,85.947,21.066H62.985C28.255,21.066,0,49.321,0,84.052C0,118.782,28.255,147.037,62.985,147.037z M483.585,84.052
	c0,19.062-15.509,34.571-34.571,34.571H207.412c1.9-3.948,3.464-8.084,4.7-12.357c0.021-0.074,0.043-0.148,0.064-0.222
	c0.374-1.306,0.715-2.624,1.023-3.957c0.033-0.143,0.067-0.286,0.099-0.429c0.253-1.124,0.482-2.258,0.686-3.398H395.56
	c7.847,0,14.207-6.362,14.207-14.207s-6.361-14.207-14.207-14.207H213.984c-0.206-1.144-0.435-2.279-0.689-3.405
	c-0.031-0.138-0.064-0.274-0.095-0.412c-0.31-1.338-0.652-2.664-1.027-3.975c-0.02-0.07-0.038-0.138-0.06-0.207
	c-1.237-4.276-2.802-8.414-4.703-12.363h241.602C468.077,49.48,483.585,64.989,483.585,84.052z M176.458,53.019
	c0.064,0.085,0.129,0.168,0.193,0.253c0.375,0.503,0.736,1.019,1.093,1.536c0.161,0.234,0.322,0.467,0.479,0.703
	c0.271,0.406,0.533,0.82,0.793,1.235c0.233,0.375,0.465,0.752,0.688,1.131c0.18,0.307,0.358,0.615,0.533,0.926
	c0.29,0.516,0.571,1.036,0.842,1.561c0.105,0.202,0.209,0.403,0.311,0.607c0.328,0.655,0.642,1.317,0.942,1.985
	c0.043,0.095,0.087,0.19,0.129,0.286c2.499,5.669,3.984,11.784,4.322,18.053c0.001,0.014,0.003,0.03,0.003,0.044
	c0.048,0.902,0.072,1.807,0.072,2.715c0,0.01-0.001,0.021-0.001,0.031c0,0.896-0.024,1.79-0.071,2.681
	c-0.001,0.033-0.006,0.067-0.007,0.099c-0.296,5.385-1.434,10.655-3.337,15.625c0,0.001-0.001,0.004-0.003,0.006
	c-0.305,0.796-0.632,1.583-0.975,2.361c-0.045,0.102-0.092,0.203-0.138,0.305c-0.297,0.661-0.608,1.316-0.932,1.963
	c-0.105,0.209-0.213,0.418-0.321,0.625c-0.269,0.519-0.547,1.033-0.833,1.541c-0.178,0.315-0.358,0.629-0.541,0.941
	c-0.222,0.376-0.449,0.747-0.679,1.118c-0.261,0.419-0.527,0.835-0.8,1.246c-0.153,0.232-0.313,0.46-0.47,0.689
	c-0.359,0.521-0.725,1.041-1.102,1.549c-0.06,0.08-0.121,0.159-0.182,0.239c-9.429,12.501-24.4,20.598-41.228,20.598
	c-16.827,0-31.797-8.097-41.227-20.596c-0.061-0.081-0.124-0.161-0.183-0.242c-0.378-0.507-0.74-1.024-1.1-1.546
	c-0.158-0.23-0.317-0.459-0.472-0.692c-0.274-0.411-0.538-0.828-0.8-1.246c-0.23-0.371-0.459-0.742-0.679-1.118
	c-0.185-0.311-0.364-0.625-0.541-0.941c-0.286-0.51-0.564-1.023-0.833-1.541c-0.108-0.207-0.216-0.416-0.321-0.625
	c-0.324-0.648-0.635-1.303-0.932-1.963c-0.045-0.102-0.094-0.203-0.138-0.305c-0.344-0.78-0.671-1.566-0.975-2.361
	c-0.001-0.001-0.001-0.004-0.003-0.006c-1.904-4.971-3.042-10.241-3.337-15.625c-0.001-0.033-0.006-0.067-0.007-0.099
	c-0.047-0.891-0.071-1.784-0.071-2.681c0-0.01-0.001-0.021-0.001-0.031c0-0.908,0.024-1.813,0.072-2.715
	c0-0.014,0.003-0.03,0.003-0.044c0.338-6.271,1.823-12.384,4.322-18.053c0.043-0.095,0.087-0.19,0.129-0.286
	c0.3-0.668,0.614-1.33,0.942-1.985c0.102-0.203,0.206-0.405,0.311-0.607c0.271-0.526,0.553-1.046,0.842-1.561
	c0.175-0.311,0.352-0.619,0.533-0.926c0.223-0.381,0.455-0.756,0.688-1.131c0.26-0.415,0.521-0.828,0.793-1.235
	c0.156-0.237,0.318-0.469,0.479-0.703c0.357-0.517,0.717-1.031,1.093-1.536c0.064-0.085,0.129-0.169,0.193-0.253
	c9.429-12.494,24.397-20.588,41.22-20.588S167.028,40.524,176.458,53.019z M62.985,49.48h0.078c-1.9,3.951-3.465,8.088-4.703,12.363
	c-0.02,0.07-0.04,0.138-0.06,0.207c-0.375,1.311-0.717,2.637-1.027,3.975c-0.031,0.138-0.064,0.274-0.095,0.412
	c-0.283,1.256-0.536,2.52-0.759,3.798c-0.036,0.203-0.075,0.406-0.109,0.609c-0.2,1.198-0.369,2.405-0.514,3.621
	c-0.033,0.267-0.072,0.533-0.102,0.8c-0.128,1.166-0.223,2.343-0.3,3.525c-0.02,0.296-0.051,0.59-0.068,0.887
	c-0.078,1.449-0.124,2.905-0.124,4.373l0,0l0,0c0,0.004,0,0.007,0,0.011c0,1.463,0.045,2.915,0.124,4.359
	c0.017,0.304,0.05,0.605,0.07,0.909c0.077,1.172,0.17,2.34,0.298,3.498c0.03,0.276,0.071,0.548,0.105,0.823
	c0.145,1.206,0.313,2.405,0.511,3.596c0.036,0.212,0.077,0.422,0.114,0.632c0.222,1.269,0.473,2.527,0.754,3.775
	c0.033,0.143,0.067,0.286,0.099,0.429c0.308,1.333,0.649,2.651,1.023,3.957c0.021,0.074,0.041,0.148,0.064,0.222
	c1.237,4.274,2.802,8.408,4.7,12.357h-0.078c-19.063,0.004-34.572-15.504-34.572-34.568C28.415,64.989,43.923,49.48,62.985,49.48z"
	/>
<path d="M449.014,193.012H426.05c-13.598-10.664-30.708-17.047-49.289-17.047c-18.582,0-35.69,6.383-49.289,17.047H62.985
	C28.255,193.012,0,221.267,0,255.999c0,34.73,28.255,62.985,62.985,62.985H327.47c13.599,10.665,30.708,17.049,49.291,17.049
	c18.583,0,35.691-6.383,49.291-17.049h22.962c34.731,0,62.985-28.255,62.985-62.985C512,221.267,483.745,193.012,449.014,193.012z
	 M28.415,255.999c0-19.063,15.509-34.572,34.571-34.572h241.603c-1.901,3.951-3.467,8.091-4.704,12.369
	c-0.018,0.065-0.037,0.132-0.057,0.197c-0.376,1.316-0.72,2.644-1.03,3.985c-0.031,0.134-0.063,0.269-0.092,0.402
	c-0.284,1.257-0.537,2.526-0.76,3.805c-0.036,0.203-0.074,0.405-0.109,0.607c-0.2,1.198-0.369,2.407-0.514,3.621
	c-0.033,0.267-0.072,0.533-0.102,0.8c-0.128,1.165-0.223,2.339-0.3,3.518c-0.02,0.298-0.051,0.595-0.068,0.894
	c-0.078,1.449-0.124,2.905-0.124,4.373c0,1.468,0.045,2.924,0.124,4.373c0.017,0.301,0.048,0.598,0.068,0.899
	c0.077,1.176,0.172,2.348,0.298,3.511c0.03,0.271,0.071,0.541,0.104,0.813c0.145,1.21,0.314,2.412,0.513,3.607
	c0.035,0.207,0.075,0.415,0.111,0.622c0.223,1.272,0.475,2.533,0.756,3.785c0.031,0.141,0.065,0.281,0.098,0.423
	c0.308,1.334,0.649,2.655,1.024,3.964c0.02,0.072,0.041,0.143,0.061,0.216c1.237,4.275,2.802,8.411,4.701,12.359h-241.6
	C43.923,290.569,28.415,275.06,28.415,255.999z M335.542,287.031c-0.064-0.085-0.129-0.168-0.193-0.253
	c-0.375-0.504-0.736-1.019-1.094-1.537c-0.161-0.233-0.323-0.466-0.477-0.7c-0.271-0.408-0.534-0.821-0.794-1.237
	c-0.233-0.375-0.465-0.75-0.688-1.129c-0.182-0.307-0.358-0.615-0.533-0.926c-0.288-0.516-0.57-1.034-0.841-1.559
	c-0.105-0.203-0.21-0.405-0.313-0.609c-0.327-0.654-0.641-1.313-0.939-1.979c-0.044-0.097-0.088-0.193-0.132-0.291
	c-2.495-5.66-3.978-11.765-4.319-18.025c-0.001-0.024-0.004-0.047-0.006-0.072c-0.048-0.902-0.072-1.806-0.072-2.714
	c0-0.908,0.024-1.811,0.072-2.714c0.001-0.024,0.004-0.048,0.006-0.072c0.293-5.395,1.434-10.674,3.34-15.654
	c0,0,0.001-0.001,0.001-0.003c0.305-0.796,0.632-1.584,0.976-2.364c0.045-0.102,0.092-0.205,0.139-0.307
	c0.296-0.659,0.607-1.313,0.931-1.959c0.107-0.212,0.215-0.422,0.324-0.632c0.267-0.517,0.544-1.027,0.828-1.536
	c0.179-0.318,0.361-0.635,0.546-0.948c0.219-0.372,0.445-0.74,0.673-1.107c0.264-0.423,0.531-0.844,0.808-1.259
	c0.151-0.226,0.305-0.45,0.459-0.675c0.364-0.527,0.73-1.051,1.114-1.564c0.054-0.074,0.111-0.145,0.166-0.217
	c9.429-12.508,24.404-20.61,41.238-20.61c16.836,0,31.811,8.104,41.241,20.613c0.054,0.071,0.109,0.142,0.163,0.215
	c0.384,0.514,0.752,1.039,1.115,1.567c0.153,0.223,0.308,0.446,0.457,0.672c0.277,0.415,0.544,0.837,0.808,1.26
	c0.229,0.367,0.455,0.735,0.673,1.107c0.186,0.314,0.367,0.631,0.546,0.948c0.284,0.507,0.561,1.019,0.828,1.536
	c0.109,0.21,0.217,0.421,0.324,0.632c0.324,0.646,0.634,1.3,0.931,1.959c0.046,0.102,0.094,0.205,0.139,0.307
	c0.344,0.78,0.671,1.567,0.976,2.364c0,0.001,0.001,0.001,0.001,0.003c1.907,4.98,3.046,10.259,3.34,15.654
	c0.001,0.024,0.004,0.047,0.006,0.072c0.048,0.902,0.072,1.806,0.072,2.714c0,0.908-0.024,1.811-0.072,2.714
	c-0.001,0.024-0.004,0.048-0.006,0.072c-0.341,6.26-1.824,12.365-4.319,18.025c-0.043,0.097-0.088,0.193-0.132,0.291
	c-0.298,0.666-0.612,1.326-0.939,1.979c-0.102,0.205-0.207,0.406-0.313,0.609c-0.271,0.524-0.553,1.044-0.841,1.559
	c-0.175,0.311-0.352,0.619-0.533,0.926c-0.223,0.379-0.455,0.756-0.688,1.129c-0.26,0.415-0.523,0.83-0.794,1.237
	c-0.156,0.236-0.318,0.467-0.477,0.7c-0.357,0.519-0.717,1.033-1.094,1.537c-0.064,0.085-0.129,0.169-0.193,0.253
	c-9.429,12.494-24.397,20.588-41.22,20.588S344.971,299.525,335.542,287.031z M449.014,290.569h-0.078
	c1.9-3.95,3.464-8.085,4.701-12.359c0.021-0.072,0.041-0.143,0.061-0.216c0.375-1.308,0.716-2.63,1.024-3.964
	c0.033-0.141,0.065-0.281,0.098-0.423c0.283-1.25,0.534-2.512,0.756-3.785c0.037-0.207,0.077-0.415,0.111-0.622
	c0.199-1.192,0.367-2.393,0.511-3.602c0.033-0.274,0.074-0.546,0.105-0.82c0.128-1.161,0.222-2.331,0.298-3.506
	c0.02-0.301,0.053-0.6,0.068-0.901c0.078-1.449,0.124-2.905,0.124-4.373c0-1.468-0.045-2.924-0.124-4.373
	c-0.017-0.298-0.048-0.595-0.068-0.894c-0.077-1.179-0.172-2.353-0.3-3.518c-0.03-0.267-0.07-0.533-0.102-0.8
	c-0.146-1.215-0.315-2.424-0.514-3.621c-0.034-0.203-0.072-0.405-0.109-0.607c-0.223-1.279-0.476-2.547-0.76-3.805
	c-0.03-0.134-0.063-0.269-0.092-0.402c-0.31-1.343-0.654-2.671-1.03-3.985c-0.018-0.065-0.037-0.132-0.057-0.197
	c-1.237-4.278-2.803-8.416-4.704-12.369h0.08c19.062,0,34.571,15.509,34.571,34.572C483.585,275.06,468.077,290.569,449.014,290.569
	z"/>
<path d="M449.014,364.961H184.528c-13.599-10.665-30.708-17.049-49.289-17.049s-35.691,6.383-49.289,17.049H62.985
	C28.255,364.961,0,393.215,0,427.948c0,34.73,28.255,62.985,62.985,62.985h22.962c13.599,10.665,30.708,17.049,49.291,17.049
	s35.691-6.383,49.291-17.049h264.485c34.731,0,62.985-28.255,62.985-62.987C512,393.215,483.745,364.961,449.014,364.961z
	 M28.415,427.946c0-19.062,15.509-34.571,34.571-34.571h0.078c-1.9,3.948-3.464,8.084-4.7,12.357
	c-0.021,0.074-0.043,0.148-0.064,0.222c-0.374,1.306-0.715,2.624-1.023,3.957c-0.033,0.143-0.067,0.286-0.099,0.429
	c-0.281,1.247-0.533,2.506-0.754,3.775c-0.037,0.212-0.078,0.421-0.114,0.632c-0.199,1.189-0.367,2.388-0.511,3.596
	c-0.033,0.274-0.074,0.547-0.105,0.823c-0.126,1.158-0.222,2.326-0.298,3.498c-0.02,0.304-0.053,0.605-0.07,0.909
	c-0.078,1.443-0.124,2.895-0.124,4.359c0,0.004,0,0.009,0,0.011l0,0v0.001c0,1.468,0.045,2.925,0.124,4.373
	c0.016,0.296,0.048,0.591,0.068,0.887c0.077,1.181,0.172,2.357,0.3,3.525c0.03,0.267,0.07,0.533,0.102,0.8
	c0.146,1.215,0.315,2.424,0.514,3.621c0.034,0.205,0.074,0.406,0.109,0.609c0.223,1.277,0.476,2.543,0.759,3.798
	c0.031,0.138,0.064,0.274,0.095,0.412c0.31,1.338,0.652,2.664,1.027,3.975c0.02,0.07,0.038,0.138,0.06,0.207
	c1.237,4.276,2.802,8.414,4.703,12.363h-0.078C43.923,462.518,28.415,447.01,28.415,427.946z M94.018,458.979
	c-0.064-0.085-0.129-0.168-0.193-0.253c-0.375-0.503-0.736-1.019-1.093-1.536c-0.161-0.234-0.323-0.467-0.479-0.703
	c-0.271-0.406-0.533-0.82-0.793-1.235c-0.233-0.375-0.465-0.752-0.688-1.131c-0.18-0.307-0.358-0.615-0.533-0.926
	c-0.29-0.516-0.571-1.036-0.842-1.561c-0.105-0.202-0.209-0.403-0.311-0.607c-0.328-0.655-0.642-1.317-0.942-1.985
	c-0.043-0.095-0.087-0.19-0.129-0.286c-2.499-5.669-3.984-11.784-4.322-18.053c-0.001-0.014-0.003-0.03-0.003-0.044
	c-0.048-0.902-0.072-1.807-0.072-2.715c0-0.01,0.001-0.021,0.001-0.031c0-0.897,0.024-1.79,0.071-2.681
	c0.001-0.033,0.006-0.067,0.007-0.099c0.296-5.385,1.434-10.655,3.337-15.625c0-0.001,0.001-0.004,0.003-0.006
	c0.305-0.796,0.632-1.583,0.975-2.361c0.045-0.102,0.092-0.203,0.138-0.305c0.297-0.661,0.608-1.316,0.932-1.963
	c0.105-0.209,0.213-0.418,0.321-0.625c0.269-0.519,0.547-1.033,0.833-1.541c0.178-0.315,0.358-0.629,0.541-0.941
	c0.222-0.376,0.449-0.747,0.679-1.118c0.261-0.419,0.526-0.835,0.8-1.246c0.155-0.233,0.314-0.462,0.472-0.692
	c0.359-0.521,0.722-1.039,1.1-1.546c0.06-0.081,0.124-0.161,0.183-0.242c9.429-12.5,24.4-20.596,41.227-20.596
	c16.829,0,31.799,8.098,41.228,20.598c0.06,0.08,0.122,0.158,0.182,0.239c0.378,0.507,0.743,1.027,1.102,1.549
	c0.158,0.229,0.317,0.457,0.47,0.689c0.274,0.411,0.538,0.828,0.8,1.246c0.23,0.371,0.459,0.742,0.679,1.118
	c0.185,0.311,0.364,0.625,0.541,0.94c0.286,0.51,0.564,1.023,0.833,1.541c0.108,0.207,0.216,0.416,0.321,0.625
	c0.324,0.648,0.635,1.303,0.932,1.963c0.045,0.102,0.094,0.203,0.138,0.305c0.344,0.78,0.671,1.566,0.975,2.361
	c0.001,0.001,0.001,0.004,0.003,0.006c1.904,4.971,3.042,10.241,3.337,15.625c0.001,0.033,0.006,0.067,0.007,0.099
	c0.047,0.891,0.071,1.784,0.071,2.681c0,0.01,0.001,0.021,0.001,0.031c0,0.908-0.024,1.813-0.072,2.715
	c0,0.014-0.003,0.03-0.003,0.044c-0.338,6.271-1.823,12.384-4.322,18.053c-0.043,0.095-0.087,0.19-0.129,0.286
	c-0.3,0.668-0.614,1.33-0.942,1.985c-0.102,0.203-0.206,0.405-0.311,0.607c-0.271,0.526-0.553,1.046-0.842,1.561
	c-0.175,0.311-0.352,0.619-0.533,0.926c-0.223,0.381-0.455,0.756-0.688,1.131c-0.26,0.415-0.521,0.828-0.793,1.235
	c-0.156,0.237-0.318,0.469-0.479,0.703c-0.357,0.517-0.717,1.031-1.093,1.536c-0.064,0.085-0.129,0.169-0.193,0.253
	c-9.429,12.494-24.397,20.588-41.22,20.588S103.447,471.473,94.018,458.979z M449.014,462.518H207.412
	c1.9-3.951,3.465-8.088,4.703-12.363c0.02-0.07,0.04-0.138,0.06-0.207c0.375-1.311,0.717-2.637,1.027-3.975
	c0.031-0.138,0.064-0.274,0.095-0.412c0.254-1.127,0.483-2.262,0.689-3.405h181.576c7.847,0,14.207-6.362,14.207-14.207
	c0-7.845-6.361-14.207-14.207-14.207H213.984c-0.206-1.141-0.433-2.275-0.686-3.398c-0.033-0.144-0.067-0.286-0.099-0.429
	c-0.308-1.333-0.649-2.651-1.023-3.957c-0.021-0.074-0.041-0.148-0.064-0.222c-1.237-4.274-2.802-8.408-4.7-12.357h241.602
	c19.062,0,34.571,15.509,34.571,34.572C483.585,447.01,468.077,462.518,449.014,462.518z"/>
<path d="M438.179,442.158c-3.737,0-7.402-1.52-10.045-4.164c-2.643-2.641-4.163-6.307-4.163-10.043c0-0.923,0.099-1.863,0.284-2.786
	c0.185-0.895,0.455-1.79,0.81-2.655c0.355-0.854,0.796-1.678,1.307-2.445c0.511-0.781,1.108-1.506,1.762-2.159
	c3.296-3.31,8.212-4.818,12.829-3.893c0.895,0.185,1.79,0.455,2.657,0.81c0.852,0.355,1.676,0.796,2.444,1.307
	c0.781,0.526,1.506,1.122,2.159,1.776c0.668,0.654,1.25,1.378,1.776,2.159c0.511,0.767,0.952,1.591,1.307,2.445
	c0.355,0.865,0.625,1.76,0.81,2.655c0.185,0.923,0.27,1.863,0.27,2.786c0,3.737-1.52,7.402-4.163,10.043
	c-0.654,0.654-1.378,1.25-2.159,1.762c-0.767,0.511-1.591,0.952-2.444,1.307c-0.867,0.355-1.762,0.625-2.657,0.81
	C440.04,442.057,439.103,442.158,438.179,442.158z"/>
<g>
</g>
<g>
</g>
<g>
</g>
<g>
</g>
<g>
</g>
<g>
</g>
<g>
</g>
<g>
</g>
<g>
</g>
<g>
</g>
<g>
</g>
<g>
</g>
<g>
</g>
<g>
</g>
<g>
</g>
</svg>
