<?xml version="1.0" encoding="iso-8859-1"?>
<!-- Generator: Adobe Illustrator 19.0.0, SVG Export Plug-In . SVG Version: 6.00 Build 0)  -->
<svg version="1.1" id="Layer_1" xmlns="http://www.w3.org/2000/svg" xmlns:xlink="http://www.w3.org/1999/xlink" x="0px" y="0px"
	 viewBox="0 0 512 512" style="enable-background:new 0 0 512 512;" xml:space="preserve">
<rect x="13.333" y="283.32" style="fill:#767B95;" width="485.333" height="181.973"/>
<rect x="64.213" y="326.907" style="fill:#7DF5A5;" width="383.587" height="138.387"/>
<path style="fill:#FFDC64;" d="M447.791,465.292H64.209l0,0c0-43.692,35.419-79.111,79.111-79.111h225.36
	C412.371,386.18,447.791,421.6,447.791,465.292L447.791,465.292z"/>
<rect x="13.333" y="46.707" style="fill:#767B95;" width="485.333" height="181.973"/>
<rect x="60.253" y="98.147" style="fill:#A2A8D3;" width="272.773" height="79.107"/>
<circle style="fill:#7DF5A5;" cx="414.987" cy="137.693" r="38.667"/>
<path d="M414.984,189.696c-28.673,0-52-23.327-52-52s23.327-52,52-52s52,23.327,52,52S443.657,189.696,414.984,189.696z
	 M414.984,112.363c-13.969,0-25.333,11.364-25.333,25.333s11.364,25.333,25.333,25.333c13.969,0,25.333-11.364,25.333-25.333
	S428.953,112.363,414.984,112.363z"/>
<path d="M333.031,84.808H60.253c-7.363,0-13.333,5.971-13.333,13.333v79.111c0,7.363,5.971,13.333,13.333,13.333h272.777
	c7.363,0,13.333-5.971,13.333-13.333V98.141C346.364,90.777,340.395,84.808,333.031,84.808z M319.697,163.919H73.587v-12.889
	h144.552c7.363,0,13.333-5.971,13.333-13.333s-5.971-13.333-13.333-13.333H73.587v-12.888h246.111V163.919z"/>
<path d="M258.133,151.032c-0.865,0-1.733-0.092-2.6-0.265c-0.853-0.175-1.693-0.427-2.492-0.76
	c-0.801-0.333-1.575-0.748-2.307-1.227c-0.72-0.48-1.413-1.04-2.027-1.653c-0.615-0.613-1.175-1.293-1.653-2.027
	c-0.48-0.72-0.893-1.493-1.227-2.307c-0.333-0.8-0.587-1.64-0.76-2.493s-0.267-1.733-0.267-2.6c0-0.865,0.093-1.747,0.267-2.613
	c0.173-0.853,0.427-1.693,0.76-2.493c0.333-0.8,0.747-1.573,1.227-2.293c0.479-0.733,1.039-1.413,1.653-2.027
	c3.092-3.093,7.705-4.521,12.039-3.653c0.855,0.173,1.68,0.427,2.493,0.76c0.801,0.333,1.573,0.747,2.293,1.227
	c0.735,0.493,1.415,1.053,2.04,1.667c0.613,0.613,1.16,1.293,1.653,2.027c0.48,0.72,0.893,1.493,1.227,2.293
	c0.333,0.813,0.587,1.64,0.76,2.493c0.173,0.867,0.265,1.748,0.265,2.613c0,0.867-0.092,1.748-0.265,2.6s-0.427,1.695-0.76,2.493
	c-0.333,0.813-0.747,1.587-1.227,2.307c-0.493,0.733-1.04,1.413-1.653,2.027c-0.627,0.613-1.305,1.173-2.04,1.653
	c-0.72,0.479-1.492,0.893-2.293,1.227c-0.813,0.333-1.653,0.585-2.493,0.76C259.88,150.94,259.013,151.032,258.133,151.032z"/>
<path d="M498.667,242.016c7.363,0,13.333-5.971,13.333-13.333V46.709c0-7.363-5.971-13.333-13.333-13.333H13.333
	C5.971,33.376,0,39.347,0,46.709v181.973c0,7.363,5.971,13.333,13.333,13.333h35.861v27.968H13.333
	C5.971,269.984,0,275.955,0,283.317v181.973c0,7.363,5.971,13.333,13.333,13.333h50.876h383.581h50.876
	c7.363,0,13.333-5.971,13.333-13.333V283.317c0-7.363-5.971-13.333-13.333-13.333h-35.861v-27.968H498.667z M26.667,60.043h458.667
	v155.307H26.667V60.043z M434.457,400.416c-16.773-17.005-40.061-27.569-65.777-27.569H143.32
	c-25.716,0-49.004,10.564-65.777,27.569v-60.173h356.915L434.457,400.416L434.457,400.416z M78.901,451.957
	c6.18-29.9,32.716-52.444,64.419-52.444h225.36c31.703,0,58.24,22.544,64.419,52.444H78.901z M485.333,451.957h-24.209V326.909
	c0-7.363-5.971-13.333-13.333-13.333H64.209c-7.363,0-13.333,5.971-13.333,13.333v125.048H26.667V296.651h458.667V451.957z
	 M436.139,269.984H75.861v-27.968H436.14v27.968H436.139z"/>
<g>
</g>
<g>
</g>
<g>
</g>
<g>
</g>
<g>
</g>
<g>
</g>
<g>
</g>
<g>
</g>
<g>
</g>
<g>
</g>
<g>
</g>
<g>
</g>
<g>
</g>
<g>
</g>
<g>
</g>
</svg>
