<?xml version="1.0" encoding="iso-8859-1"?>
<!-- Generator: Adobe Illustrator 18.0.0, SVG Export Plug-In . SVG Version: 6.00 Build 0)  -->
<!DOCTYPE svg PUBLIC "-//W3C//DTD SVG 1.1//EN" "http://www.w3.org/Graphics/SVG/1.1/DTD/svg11.dtd">
<svg version="1.1" id="Capa_1" xmlns="http://www.w3.org/2000/svg" xmlns:xlink="http://www.w3.org/1999/xlink" x="0px" y="0px"
	 viewBox="0 0 433.46 433.46" style="enable-background:new 0 0 433.46 433.46;" xml:space="preserve">
<g>
	<path d="M21.945,347.269h301.796V97.861H21.945V347.269z M29.945,339.269V150.462h285.796v188.808H29.945z M315.741,142.462
		h-83.889v-36.601h83.889V142.462z M223.853,105.861v36.601H29.945v-36.601H223.853z"/>
	<path d="M51.499,137.072c7.119,0,12.911-5.792,12.911-12.911s-5.792-12.911-12.911-12.911s-12.91,5.792-12.91,12.911
		S44.38,137.072,51.499,137.072z M47.499,121.333v0.141c0,2.209,1.791,4,4,4s4-1.791,4-4v-0.142c0.569,0.802,0.911,1.774,0.911,2.83
		c0,2.708-2.203,4.911-4.911,4.911c-2.707,0-4.91-2.203-4.91-4.911C46.589,123.106,46.931,122.134,47.499,121.333z"/>
	<path d="M87.13,137.072c7.119,0,12.91-5.792,12.91-12.911s-5.791-12.911-12.91-12.911s-12.911,5.792-12.911,12.911
		S80.011,137.072,87.13,137.072z M83.13,121.331v0.142c0,2.209,1.791,4,4,4s4-1.791,4-4v-0.141c0.568,0.801,0.91,1.774,0.91,2.829
		c0,2.708-2.203,4.911-4.91,4.911c-2.708,0-4.911-2.203-4.911-4.911C82.219,123.106,82.561,122.133,83.13,121.331z"/>
	<path d="M122.761,137.072c7.119,0,12.91-5.792,12.91-12.911s-5.791-12.911-12.91-12.911s-12.911,5.792-12.911,12.911
		S115.642,137.072,122.761,137.072z M118.761,121.331v0.142c0,2.209,1.791,4,4,4s4-1.791,4-4v-0.141
		c0.568,0.801,0.91,1.774,0.91,2.829c0,2.708-2.203,4.911-4.91,4.911c-2.708,0-4.911-2.203-4.911-4.911
		C117.85,123.106,118.192,122.133,118.761,121.331z"/>
	<path d="M158.392,137.072c7.119,0,12.91-5.792,12.91-12.911s-5.791-12.911-12.91-12.911s-12.911,5.792-12.911,12.911
		S151.272,137.072,158.392,137.072z M154.392,121.331v0.142c0,2.209,1.791,4,4,4s4-1.791,4-4v-0.141
		c0.568,0.801,0.91,1.774,0.91,2.829c0,2.708-2.203,4.911-4.91,4.911c-2.708,0-4.911-2.203-4.911-4.911
		C153.48,123.106,153.823,122.133,154.392,121.331z"/>
	<path d="M194.021,137.072c7.119,0,12.911-5.792,12.911-12.911s-5.792-12.911-12.911-12.911s-12.91,5.792-12.91,12.911
		S186.902,137.072,194.021,137.072z M190.021,121.333v0.141c0,2.209,1.791,4,4,4s4-1.791,4-4v-0.142
		c0.569,0.802,0.911,1.774,0.911,2.83c0,2.708-2.203,4.911-4.911,4.911c-2.707,0-4.91-2.203-4.91-4.911
		C189.111,123.106,189.453,122.134,190.021,121.333z"/>
	<path d="M304.179,137.211v-26.1h-32.504v26.1H304.179z M279.675,119.112h16.504v10.1h-16.504V119.112z"/>
	<path d="M433.46,182.793c0-7.439-5.11-13.69-11.999-15.473v-28.025c0-2.209-1.791-4-4-4s-4,1.791-4,4v28.025
		c-6.889,1.783-11.999,8.034-11.999,15.473v33.999h11.999v135.493c0,10.2-8.299,18.499-18.499,18.499s-18.499-8.298-18.499-18.499
		v-12c0-14.612-11.888-26.499-26.499-26.499h-4.276V103.888c0-13.863-11.278-25.142-25.142-25.142H219.674V75.42v-4v-5.116
		c0-6.412-5.216-11.627-11.627-11.627h-71.114c-6.411,0-11.627,5.216-11.627,11.627v5.116v4v3.327H25.142
		C11.278,78.747,0,90.025,0,103.888v237.354c0,13.741,11.082,24.936,24.777,25.132v11.336h22.867v-11.327h250.398v11.327h22.867
		v-11.336c13.695-0.196,24.777-11.391,24.777-25.132v-19.456h4.276c10.2,0,18.499,8.299,18.499,18.499v12
		c0,14.611,11.888,26.499,26.499,26.499s26.499-11.887,26.499-26.499V216.792h11.999V182.793z M133.306,66.304
		c0-2,1.627-3.627,3.627-3.627h71.114c2,0,3.627,1.627,3.627,3.627v1.116h-78.368V66.304z M133.306,75.42h78.368v3.327h-78.368
		V75.42z M39.645,369.711h-6.867v-3.327h6.867V369.711z M306.043,369.711v-3.327h6.867v3.327H306.043z M337.688,341.242
		c0,9.452-7.689,17.142-17.142,17.142H25.142C15.689,358.384,8,350.694,8,341.242V103.888c0-9.452,7.689-17.142,17.142-17.142
		h295.404c9.452,0,17.142,7.689,17.142,17.142V341.242z M417.461,174.794c4.411,0,7.999,3.588,7.999,8v12.499h-15.998v-12.499
		C409.462,178.382,413.05,174.794,417.461,174.794z M409.462,208.792v-5.5h15.998v5.5H409.462z"/>
</g>
<g>
</g>
<g>
</g>
<g>
</g>
<g>
</g>
<g>
</g>
<g>
</g>
<g>
</g>
<g>
</g>
<g>
</g>
<g>
</g>
<g>
</g>
<g>
</g>
<g>
</g>
<g>
</g>
<g>
</g>
</svg>
