<?xml version="1.0" encoding="iso-8859-1"?>
<!-- Generator: Adobe Illustrator 16.0.0, SVG Export Plug-In . SVG Version: 6.00 Build 0)  -->
<!DOCTYPE svg PUBLIC "-//W3C//DTD SVG 1.1//EN" "http://www.w3.org/Graphics/SVG/1.1/DTD/svg11.dtd">
<svg version="1.1" id="Layer_1" xmlns="http://www.w3.org/2000/svg" xmlns:xlink="http://www.w3.org/1999/xlink" x="0px" y="0px"
	 width="792px" height="792px" viewBox="0 0 792 792" style="enable-background:new 0 0 792 792;" xml:space="preserve">
<path d="M210.119,525.756l-38.625-38.624l7.312-7.312l38.625,38.624L210.119,525.756z M694.922,60.767
	c2.019,2.019,2.019,5.291,0,7.311c-1.011,1.008-2.333,1.513-3.656,1.513s-2.646-0.504-3.656-1.513l-3.563-3.563
	c-7.28,4.177-15.697,7.949-23.224,10.357c-1.642,0.523-2.725,2.05-2.762,3.889c-0.095,4.878-1.722,9.125-4.683,12.355l3.365,3.365
	c2.019,2.019,2.019,5.291,0,7.311c-1.011,1.008-2.332,1.514-3.656,1.514c-1.323,0-2.646-0.504-3.655-1.514l-4.375-4.375
	c-6.538,3.991-15.415,8.17-23.457,10.5L346.528,382.989c39.606,55.682,33.382,132.996-15.302,181.681
	c-27.549,27.548-63.735,41.321-99.921,41.321c-36.186,0-72.372-13.773-99.919-41.321C104.699,537.982,90.001,502.497,90,464.752
	c-0.001-37.747,14.698-73.234,41.388-99.924c48.688-48.689,126.012-54.913,181.697-15.303l175.937-175.939l-4.072-4.072
	c-2.019-2.019-2.019-5.291,0-7.311c2.019-2.019,5.291-2.019,7.311,0l4.476,4.475c3.125-1.994,6.692-3.251,10.418-3.59
	c1.5-0.133,2.945-0.526,4.308-1.168c1.376-0.64,2.606-1.504,3.683-2.581l78.921-78.92c2.439-8.456,6.658-17.183,10.514-23.48
	l-4.193-4.194c-2.019-2.019-2.019-5.291,0-7.311c2.019-2.019,5.291-2.019,7.311,0l3.189,3.189c3.23-2.96,7.477-4.587,12.359-4.682
	c1.835-0.037,3.361-1.12,3.885-2.759c2.409-7.531,6.182-15.948,10.358-23.228l-3.385-3.385c-2.021-2.019-2.021-5.292,0-7.311
	c2.02-2.019,5.292-2.019,7.311,0l1.833,1.833c0.861-1.127,1.752-2.193,2.622-3.063c10.191-10.192,29.177-7.174,43.223,6.871
	c14.051,14.051,17.073,33.041,6.882,43.232c-0.87,0.87-1.935,1.762-3.063,2.622L694.922,60.767z M150.752,361.528l8.086,8.088
	c2.675-2.043,5.433-3.953,8.253-5.752l-2.03-3.518c-1.428-2.473-0.58-5.635,1.892-7.062c2.472-1.429,5.635-0.579,7.062,1.892
	l2.029,3.514c6.21-3.239,12.681-5.917,19.347-8.013l-1.051-3.919c-0.739-2.758,0.897-5.593,3.655-6.332
	c2.76-0.739,5.592,0.897,6.331,3.655l1.052,3.925c6.792-1.502,13.734-2.427,20.76-2.727v-4.068c0-2.855,2.314-5.17,5.169-5.17
	s5.169,2.314,5.169,5.17v4.055c7.043,0.303,13.98,1.241,20.76,2.74l1.052-3.925c0.739-2.758,3.57-4.393,6.331-3.655
	c2.758,0.738,4.394,3.574,3.655,6.332l-1.051,3.922c6.676,2.098,13.146,4.778,19.345,8.012l2.03-3.517
	c1.427-2.473,4.588-3.319,7.062-1.893c2.472,1.427,3.319,4.588,1.892,7.062l-2.03,3.518c0.655,0.418,1.308,0.841,1.955,1.271
	l8.205-8.205C258.602,324.375,195.413,326.713,150.752,361.528z M130.423,506.755c2.963,7.12,6.68,13.884,11.081,20.217
	l16.249-20.671l33.197,33.197l-20.406,16.043c42.854,28.745,101.059,23.434,138.024-13.532
	c42.601-42.603,42.601-111.921-0.001-154.52c-19.393-19.394-45.156-30.72-72.542-31.895c-25.973-1.114-51.257,6.976-71.625,22.802
	c0.308,1.257,0.478,2.556,0.467,3.884c-0.037,4.2-1.704,8.157-4.694,11.143c-25.707,25.705-35.604,63.349-25.908,98.313
	C135.775,497.185,134.142,502.864,130.423,506.755z M106.939,506.006l13.973-5.056c2.641-0.956,4.13-3.789,3.391-6.452
	c-10.69-38.55,0.225-80.053,28.486-108.313c1.139-1.136,1.728-2.526,1.741-3.995c0.013-1.448-0.544-2.808-1.568-3.831
	l-10.147-10.148c-1.393,1.277-2.77,2.583-4.116,3.93c-24.737,24.736-38.361,57.627-38.359,92.612
	C100.339,478.986,102.595,492.874,106.939,506.006z M134.843,535.445c-1.552-2.111-3.02-4.276-4.426-6.479l-3.513,2.027
	c-0.814,0.471-1.703,0.694-2.58,0.694c-1.787,0-3.524-0.927-4.482-2.585c-1.428-2.472-0.58-5.634,1.892-7.062l3.496-2.019
	c-1.404-2.689-2.704-5.434-3.899-8.229l-10.751,3.889c4.352,10.31,10.041,20.058,16.981,29.026L134.843,535.445z M144.535,562.838
	l30.867-24.27l-16.721-16.721l-24.329,30.951c1.409,1.548,2.856,3.069,4.346,4.558C140.598,559.258,142.548,561.079,144.535,562.838
	z M339.124,390.39l-8.187,8.188c0.429,0.647,0.831,1.307,1.247,1.959l3.523-2.034c2.474-1.428,5.635-0.58,7.062,1.892
	c1.428,2.473,0.581,5.635-1.892,7.062l-3.506,2.024c3.253,6.251,5.895,12.735,7.969,19.361l3.957-1.06
	c2.755-0.736,5.592,0.898,6.331,3.656c0.738,2.758-0.898,5.592-3.656,6.331l-3.977,1.065c1.507,6.837,2.432,13.778,2.73,20.746
	h4.118c2.854,0,5.169,2.314,5.169,5.169s-2.315,5.17-5.169,5.17h-4.118c-0.298,6.967-1.224,13.906-2.73,20.746l3.977,1.064
	c2.758,0.739,4.395,3.573,3.656,6.331c-0.619,2.31-2.708,3.833-4.99,3.833c-0.443,0-0.893-0.057-1.341-0.177l-3.957-1.06
	c-2.074,6.627-4.717,13.11-7.969,19.362l3.506,2.023c2.473,1.428,3.32,4.589,1.892,7.062c-0.958,1.658-2.696,2.585-4.482,2.585
	c-0.877,0-1.765-0.224-2.579-0.694l-3.523-2.034c-3.702,5.813-7.943,11.377-12.747,16.61l2.876,2.877
	c2.019,2.019,2.019,5.291,0,7.311c-1.01,1.009-2.333,1.514-3.656,1.514c-1.324,0-2.647-0.504-3.656-1.514l-2.878-2.878
	c-5.223,4.79-10.791,9.023-16.623,12.726l2.046,3.545c1.428,2.473,0.581,5.635-1.892,7.062c-0.814,0.47-1.703,0.693-2.579,0.693
	c-1.788,0-3.524-0.927-4.482-2.585l-2.043-3.54c-6.239,3.237-12.722,5.878-19.354,7.953l1.074,4.005
	c0.739,2.757-0.897,5.593-3.655,6.332c-0.448,0.12-0.898,0.177-1.341,0.177c-2.282,0-4.371-1.522-4.99-3.832l-1.079-4.025
	c-6.828,1.508-13.764,2.441-20.733,2.747v4.15c0,2.854-2.314,5.169-5.169,5.169s-5.169-2.314-5.169-5.169v-4.134
	c-6.96-0.289-13.903-1.201-20.749-2.704l-1.063,3.966c-0.619,2.309-2.708,3.832-4.99,3.832c-0.443,0-0.893-0.057-1.341-0.177
	c-2.758-0.739-4.394-3.574-3.655-6.332l1.057-3.942c-6.62-2.068-13.101-4.717-19.361-7.977l-2.021,3.501
	c-0.958,1.658-2.696,2.585-4.481,2.585c-0.878,0-1.766-0.224-2.58-0.694c-2.472-1.428-3.32-4.589-1.892-7.062l2.019-3.495
	c-1.706-1.089-3.385-2.237-5.048-3.423l-9.288,7.304c23.185,17.403,50.876,26.117,78.564,26.119
	c33.543,0.003,67.075-12.763,92.61-38.299C368.626,512.648,374.727,441.877,339.124,390.39z M612.025,102.874l-12.896-12.896
	l-76.674,76.675c-1.937,1.935-4.16,3.494-6.61,4.633c-2.44,1.15-5.063,1.861-7.766,2.102c-2.999,0.272-5.837,1.603-7.979,3.747
	L305.924,371.31c3.456,2.763,6.791,5.704,9.955,8.868c3.184,3.186,6.132,6.518,8.882,9.957L612.025,102.874z M681.781,20.21
	c-9.615-9.615-22.712-12.763-28.602-6.873c-0.568,0.567-2.174,2.343-4.811,6.551c-4.57,7.293-8.828,16.429-11.392,24.438
	c-1.858,5.823-7.296,9.822-13.528,9.947c-1.699,0.034-4.081,0.433-5.799,2.152c-0.333,0.333-1.064,1.139-2.22,2.788
	c-3.428,4.888-7.958,13.388-10.707,21.731l16.315,16.316c10.829-3.565,21.713-10.088,24.535-12.911
	c1.718-1.717,2.117-4.099,2.15-5.795c0.125-6.236,4.124-11.672,9.951-13.532c8.007-2.56,17.143-6.82,24.437-11.391
	c4.206-2.637,5.982-4.243,6.55-4.81C694.551,42.932,691.4,29.831,681.781,20.21z"/>
<g>
</g>
<g>
</g>
<g>
</g>
<g>
</g>
<g>
</g>
<g>
</g>
<g>
</g>
<g>
</g>
<g>
</g>
<g>
</g>
<g>
</g>
<g>
</g>
<g>
</g>
<g>
</g>
<g>
</g>
</svg>
