<?xml version="1.0" encoding="iso-8859-1"?>
<!-- Generator: Adobe Illustrator 18.0.0, SVG Export Plug-In . SVG Version: 6.00 Build 0)  -->
<!DOCTYPE svg PUBLIC "-//W3C//DTD SVG 1.1//EN" "http://www.w3.org/Graphics/SVG/1.1/DTD/svg11.dtd">
<svg version="1.1" id="Capa_1" xmlns="http://www.w3.org/2000/svg" xmlns:xlink="http://www.w3.org/1999/xlink" x="0px" y="0px"
	 viewBox="0 0 449.544 449.544" style="enable-background:new 0 0 449.544 449.544;" xml:space="preserve">
<path d="M314.811,105.412c-3.46-14.513-5.97-29.101-7.496-43.415c6.255-3.139,9.332-6.787,9.332-11.036c0,0,0-15.054,0-15.613
	c0-4.843-3.242-9.203-9.624-12.986c-1.719-6.62-10.314-12.033-25.651-16.109C266.203,2.221,246.103,0,224.774,0
	c-21.329,0-41.429,2.221-56.598,6.252c-15.337,4.076-23.932,9.489-25.652,16.109c-6.383,3.783-9.625,8.144-9.625,12.987
	c0,0.559,0,15.613,0,15.613c0,4.249,3.077,7.896,9.33,11.035c-1.53,14.353-4.037,28.942-7.489,43.417
	c-6.816,28.634-10.272,59.472-10.272,91.657c0,42.386,6.106,83.09,17.659,117.712c13.461,40.33,22.867,80.311,27.957,118.825
	l0.261,1.989c0.183,1.393,1.082,2.588,2.369,3.148c16.542,7.199,34.3,10.799,52.057,10.799c17.758,0,35.516-3.6,52.058-10.799
	c1.281-0.559,2.18-1.745,2.367-3.131l0.271-2.003c5.074-38.463,14.478-78.443,27.949-118.83
	c11.553-34.619,17.658-75.323,17.658-117.711C325.075,164.86,321.622,134.022,314.811,105.412z M170.231,13.983
	C184.749,10.125,204.12,8,224.774,8s40.025,2.125,54.543,5.983c15.855,4.214,20.045,8.975,20.045,10.903s-4.189,6.689-20.045,10.903
	c-14.518,3.858-33.888,5.983-54.543,5.983s-40.025-2.125-54.543-5.983c-15.856-4.214-20.046-8.975-20.046-10.903
	S154.375,18.197,170.231,13.983z M144.143,30.891c3.449,5.058,11.476,9.293,24.034,12.63c15.168,4.032,35.269,6.252,56.598,6.252
	s41.429-2.22,56.598-6.252c12.557-3.337,20.583-7.572,24.032-12.63c2.074,1.596,3.242,3.162,3.242,4.456
	c0,2.451-4.795,7.873-22.765,12.648c-16.27,4.323-37.972,6.704-61.108,6.704s-44.839-2.381-61.109-6.704
	c-17.97-4.775-22.764-10.197-22.764-12.648C140.9,34.053,142.068,32.488,144.143,30.891z M140.9,50.961V47.24
	C156.072,57.43,190.58,62.7,224.773,62.7s68.701-5.271,83.873-15.461v3.721c0,0.695-2.481,4.002-14.622,7.487
	c-2.1,0.603-3.327,2.778-2.759,4.887c0.168,0.62,0.249,1.209,0.249,1.802c0,3.828-3.114,6.942-6.942,6.942
	c-3.437,0-6.387-2.566-6.863-5.971c-0.147-1.054-0.708-2.005-1.56-2.644c-0.851-0.64-1.923-0.914-2.974-0.761
	c-14.313,2.07-31.05,3.165-48.402,3.165s-34.09-1.095-48.402-3.165c-1.053-0.152-2.123,0.122-2.974,0.76
	c-0.851,0.639-1.412,1.591-1.56,2.645c-0.478,3.403-3.428,5.971-6.863,5.971c-3.828,0-6.942-3.114-6.942-6.942
	c0-0.593,0.081-1.183,0.249-1.806c0.566-2.107-0.661-4.28-2.76-4.883C143.382,54.963,140.9,51.655,140.9,50.961z M299.444,135.063
	l-5.721,10.777l-7.593-9.55l5.72-10.777L299.444,135.063z M157.696,125.514l5.72,10.777l-7.593,9.55l-5.721-10.777L157.696,125.514z
	 M177.979,432.288c-0.401-3.022-0.837-6.056-1.29-9.096c15.47,5.39,31.773,8.089,48.083,8.089c16.307,0,32.619-2.701,48.089-8.091
	c-0.453,3.039-0.888,6.073-1.288,9.094C241.707,444.632,207.85,444.636,177.979,432.288z M299.828,312.25
	c-11.499,34.473-20.059,68.663-25.544,101.898c-31.627,12.177-67.394,12.176-99.019,0.002c-5.496-33.281-14.058-67.471-25.549-101.9
	c-11.283-33.815-17.247-73.644-17.247-115.18c0-31.563,3.383-61.776,10.055-89.803c3.35-14.047,7.479-42.146,7.509-42.136
	c0,0.002,0,0.003,0,0.005c0,5.73,3.246,10.71,7.992,13.216l-3.532,38.336l-12.282,15.446c-0.99,1.245-1.148,2.959-0.402,4.364
	l9.813,18.485c0.633,1.192,1.823,1.984,3.166,2.108c0.123,0.011,0.246,0.017,0.368,0.017c1.212,0,2.367-0.552,3.13-1.511
	l13.024-16.381c0.99-1.245,1.148-2.959,0.402-4.364l-9.252-17.431l3.444-37.38c5.641-0.354,10.552-3.905,12.76-8.949
	c13.892,1.818,29.747,2.774,46.11,2.774s32.218-0.956,46.11-2.774c2.208,5.044,7.119,8.595,12.76,8.949l3.444,37.38l-9.252,17.431
	c-0.746,1.405-0.588,3.119,0.402,4.364l13.024,16.381c0.763,0.96,1.918,1.511,3.13,1.511c0.122,0,0.245-0.006,0.368-0.017
	c1.343-0.124,2.533-0.916,3.166-2.108l9.813-18.485c0.746-1.405,0.588-3.119-0.402-4.364l-12.282-15.446l-3.532-38.336
	c4.746-2.506,7.992-7.486,7.992-13.216c0-0.002,0-0.003,0-0.005c0.03-0.01,4.156,28.055,7.514,42.135
	c6.667,28.003,10.047,58.217,10.047,89.804C317.075,238.608,311.111,278.437,299.828,312.25z"/>
<g>
</g>
<g>
</g>
<g>
</g>
<g>
</g>
<g>
</g>
<g>
</g>
<g>
</g>
<g>
</g>
<g>
</g>
<g>
</g>
<g>
</g>
<g>
</g>
<g>
</g>
<g>
</g>
<g>
</g>
</svg>
