<?xml version="1.0" encoding="iso-8859-1"?>
<!-- Generator: Adobe Illustrator 16.0.0, SVG Export Plug-In . SVG Version: 6.00 Build 0)  -->
<!DOCTYPE svg PUBLIC "-//W3C//DTD SVG 1.1//EN" "http://www.w3.org/Graphics/SVG/1.1/DTD/svg11.dtd">
<svg version="1.1" id="Layer_1" xmlns="http://www.w3.org/2000/svg" xmlns:xlink="http://www.w3.org/1999/xlink" x="0px" y="0px"
	 width="792px" height="792px" viewBox="0 0 792 792" style="enable-background:new 0 0 792 792;" xml:space="preserve">
<path d="M267.159,401.098l33.75,33.75l-7.82,7.82l-33.75-33.75L267.159,401.098z M699.603,34.334l-7.753,7.753l2.794,2.793
	c2.159,2.159,2.159,5.659,0,7.82c-1.081,1.078-2.495,1.619-3.911,1.619c-1.415,0-2.831-0.539-3.91-1.619l-2.794-2.793l-7.756,7.756
	c-1.551,1.549-3.613,2.404-5.806,2.404c-1.865,0-3.635-0.625-5.078-1.765l-4.278,4.278l4.246,4.247c2.159,2.159,2.159,5.659,0,7.819
	c-1.08,1.078-2.494,1.619-3.91,1.619c-1.415,0-2.831-0.539-3.91-1.619l-4.246-4.246l-6.042,6.042l4.246,4.247
	c2.159,2.159,2.159,5.659,0,7.819c-1.081,1.078-2.495,1.619-3.91,1.619c-1.416,0-2.831-0.539-3.911-1.619l-4.246-4.246l-9.798,9.797
	c-0.224,4.46-2.047,8.714-5.195,11.978L502.542,232.331l5.567,63.763c3.007,34.526-9.319,68.379-33.818,92.878l-21.311,21.311
	l-3.735-2.353c-7.862-4.953-25.385-0.688-41.094,15.021c-7.907,7.907-13.546,17.023-15.876,25.667
	c-2.011,7.463-1.197,13.711,2.231,17.139c0.136,0.134,2.052,1.844,2.052,1.844l0.206,2.154
	c3.538,37.014-15.199,75.465-57.283,117.55C323.218,603.566,301.376,612,276.409,612c-8.317,0-16.979-0.936-25.898-2.829
	c-32.602-6.924-66.392-26.106-95.687-54.179l-25.886,25.886c-1.081,1.078-2.495,1.619-3.91,1.619s-2.831-0.539-3.911-1.619
	c-2.159-2.159-2.159-5.659,0-7.819l25.886-25.886c-28.067-29.29-47.249-63.079-54.172-95.681
	c-7.581-35.699,0.182-67.296,21.862-88.976c42.089-42.091,80.542-60.815,117.564-57.271l2.152,0.207c0,0,1.71,1.916,1.85,2.056
	c8.579,8.581,29.439-0.313,42.788-13.664c15.708-15.709,19.979-33.225,15.032-41.083l-2.351-3.735l21.309-21.31
	c24.509-24.509,58.362-36.836,92.878-33.819l63.756,5.566L595.97,77.57c3.264-3.149,7.517-4.971,11.978-5.196l3.469-3.47
	l-4.104-4.105c-2.159-2.159-2.159-5.659,0-7.82c2.158-2.159,5.658-2.159,7.819,0l4.105,4.105l6.042-6.042l-4.105-4.105
	c-2.159-2.159-2.159-5.66,0-7.819s5.659-2.159,7.819,0l4.105,4.105l10.606-10.606c-1.141-1.441-1.766-3.211-1.766-5.079
	c0-2.193,0.854-4.256,2.406-5.807l7.756-7.756l-2.793-2.794c-2.159-2.159-2.159-5.659,0-7.819c2.159-2.159,5.659-2.159,7.819,0
	l2.794,2.793l7.753-7.753C669.225,0.854,671.286,0,673.48,0c2.192,0,4.253,0.854,5.804,2.404L699.6,22.72
	C702.802,25.923,702.8,31.131,699.603,34.334z M161.234,545.805l34.728-34.729l-5.041-5.041l-34.729,34.728
	c0.828,0.854,1.638,1.715,2.483,2.56C159.52,544.166,160.381,544.977,161.234,545.805z M497.093,297.053l-4.734-54.174
	l-123.372,127.83l-37.691-37.693l127.827-123.368l-54.17-4.73c-31.248-2.73-61.904,8.428-84.096,30.621l-15.413,15.411
	c5.135,13.809-2.131,34.267-18.579,50.714c-19.789,19.788-44.804,25.952-57.624,14.425c-32.948-2.362-67.891,15.407-106.728,54.246
	c-18.941,18.941-25.641,46.947-18.864,78.857c5.975,28.128,21.791,57.345,44.995,83.479l37.978-37.976l36.785-55.397l39.292,39.293
	l-55.397,36.785l-37.977,37.977c26.139,23.208,55.357,39.027,83.484,44.998c31.907,6.773,59.912,0.073,78.853-18.869
	c38.833-38.833,56.603-73.77,54.257-106.717c-5.767-6.405-7.305-15.949-4.319-27.027c2.825-10.483,9.479-21.354,18.733-30.609
	c16.451-16.45,36.917-23.713,50.729-18.568l15.411-15.411C488.655,358.968,499.816,328.316,497.093,297.053z M204.492,503.967
	l40.831-27.11l-20.181-20.181l-27.112,40.829L204.492,503.967z M618.526,94.096L607.91,83.479c-1.586,0.208-3.082,0.914-4.258,2.049
	L347.078,333.154l21.772,21.773L616.476,98.354C617.611,97.178,618.317,95.682,618.526,94.096z M657.524,50.525l-6.042-6.042
	l-33.465,33.465l6.042,6.042L657.524,50.525z M689.768,28.526L673.48,12.237l-19.303,19.302l16.289,16.289L689.768,28.526z
	 M315.782,321.145c-6.895-6.893-18.113-6.895-25.008,0l-46.697,46.697c-1.251,1.251-2.914,1.941-4.685,1.941
	c-1.771,0-3.432-0.69-4.685-1.941c-1.248-1.248-1.935-2.906-1.935-4.672c0-1.765,0.687-3.425,1.935-4.673l2.567-2.567
	c2.159-2.159,2.159-5.659,0-7.818l-2.411-2.41c-2.158-2.159-5.658-2.159-7.82,0c-1.645,1.645-2.037,4.069-1.176,6.085
	c-2.69,3.182-4.155,7.171-4.155,11.386c0,4.719,1.838,9.156,5.174,12.491c3.339,3.341,7.781,5.181,12.504,5.181
	s9.165-1.84,12.504-5.18l46.697-46.695c2.583-2.584,6.786-2.584,9.368,0c2.577,2.576,2.577,6.769,0,9.346l-2.567,2.566
	c-2.159,2.159-2.159,5.66,0,7.819l2.411,2.411c2.16,2.159,5.66,2.159,7.819,0c1.645-1.646,2.036-4.069,1.175-6.086
	C322.65,338.088,322.312,327.675,315.782,321.145z M356.986,385.205c-2.018-0.861-4.443-0.472-6.088,1.175
	c-2.159,2.159-2.16,5.659,0,7.819l2.411,2.411c1.037,1.036,2.443,1.62,3.909,1.62c1.467,0,2.873-0.582,3.909-1.619l2.568-2.566
	c2.575-2.577,6.769-2.577,9.345,0c2.583,2.583,2.583,6.785,0,9.367l-46.697,46.697c-6.895,6.895-6.895,18.113,0,25.009
	c3.445,3.442,7.969,5.165,12.493,5.165c4.054,0,8.107-1.382,11.384-4.148c2.018,0.864,4.441,0.472,6.086-1.175
	c2.159-2.16,2.159-5.66,0-7.819l-2.411-2.411c-2.161-2.159-5.661-2.159-7.82,0l-2.567,2.567c-2.575,2.576-6.769,2.576-9.345,0
	c-2.583-2.584-2.583-6.786,0-9.368l46.697-46.697c6.895-6.895,6.895-18.113,0-25.008
	C374.331,379.693,363.919,379.354,356.986,385.205z"/>
<g>
</g>
<g>
</g>
<g>
</g>
<g>
</g>
<g>
</g>
<g>
</g>
<g>
</g>
<g>
</g>
<g>
</g>
<g>
</g>
<g>
</g>
<g>
</g>
<g>
</g>
<g>
</g>
<g>
</g>
</svg>
