<?xml version="1.0" encoding="iso-8859-1"?>
<!-- Generator: Adobe Illustrator 18.0.0, SVG Export Plug-In . SVG Version: 6.00 Build 0)  -->
<!DOCTYPE svg PUBLIC "-//W3C//DTD SVG 1.1//EN" "http://www.w3.org/Graphics/SVG/1.1/DTD/svg11.dtd">
<svg version="1.1" id="Capa_1" xmlns="http://www.w3.org/2000/svg" xmlns:xlink="http://www.w3.org/1999/xlink" x="0px" y="0px"
	 viewBox="0 0 427.141 427.141" style="enable-background:new 0 0 427.141 427.141;" xml:space="preserve">
<g>
	<path d="M377.244,68.376c-32.355-39.034-75.44-60.531-121.316-60.531c-14.514,0-28.747,2.158-42.451,6.336
		c-13.728-4.192-27.936-6.336-42.264-6.336c-45.875,0-88.96,21.497-121.316,60.531C17.72,107.193,0,158.757,0,213.57
		c0,54.813,17.72,106.378,49.897,145.194c32.356,39.034,75.44,60.531,121.316,60.531c14.328,0,28.536-2.144,42.264-6.336
		c13.704,4.178,27.937,6.336,42.451,6.336c45.876,0,88.961-21.497,121.316-60.531c32.177-38.817,49.896-90.382,49.896-145.194
		S409.421,107.193,377.244,68.376z M171.213,411.295C81.217,411.295,8,322.596,8,213.57C8,104.544,81.217,15.845,171.213,15.845
		c9.74,0,19.421,1.064,28.919,3.123c-24.412,10.071-46.771,26.788-65.521,49.409c-32.176,38.816-49.896,90.381-49.896,145.193
		c0,54.813,17.72,106.377,49.896,145.194c18.751,22.621,41.109,39.338,65.521,49.409
		C190.633,410.232,180.953,411.295,171.213,411.295z M255.928,411.295c-89.996,0-163.213-88.699-163.213-197.726
		c0-109.025,73.217-197.725,163.213-197.725s163.213,88.699,163.213,197.725C419.141,322.596,345.924,411.295,255.928,411.295z"/>
	<path d="M281.841,153.315c-27.918,0-50.631,27.028-50.631,60.25c0,22.735,10.766,43.474,27.635,53.697
		c-0.288,2.873-0.553,5.777-0.788,8.693c-3.636,45.203,1.384,70.344,15.344,76.858c1.779,0.83,3.515,1.252,5.156,1.253
		c0.002,0,0.003,0,0.005,0c0.041,0,0.081-0.006,0.122-0.007l31.696,0.004c2.907,0,5.473-1.285,7.42-3.716
		c2.452-3.062,9.914-12.379,0.125-76.846c-0.769-5.062-1.586-10.073-2.415-14.924c10.802-11.44,16.97-27.705,16.97-45.013
		C332.48,180.343,309.764,153.315,281.841,153.315z M276.783,345.563c-16.563-7.729-13-65.785-5.66-111.083
		c2.169,11.01,4.832,25.414,7.08,40.225c8.357,55.059,3.857,67.745,1.534,70.644c-0.567,0.709-0.928,0.718-1.168,0.718
		C278.248,346.114,277.68,345.982,276.783,345.563z M311.556,345.345c-0.574,0.718-0.937,0.718-1.175,0.718l-21.947-0.003
		c2.667-6.971,4.998-24.334-2.322-72.556c-3.593-23.67-8.233-46.3-10.284-55.935h23.63c1.793,8.335,6.764,32.152,10.557,57.133
		C318.376,329.759,313.878,342.447,311.556,345.345z M306.627,212.887c-0.324-1.884-1.966-3.317-3.942-3.317c0,0-31.839,0-31.852,0
		c-1.886,0.018-3.504,1.351-3.882,3.199c-0.051,0.249-4.194,20.664-7.128,45.53c-12.681-9.379-20.613-26.259-20.613-44.734
		c0-28.811,19.124-52.25,42.631-52.25c23.512,0,42.64,23.439,42.64,52.25c0,12.966-3.864,25.224-10.786,34.727
		C310.246,229.345,307.032,214.718,306.627,212.887z"/>
</g>
<g>
</g>
<g>
</g>
<g>
</g>
<g>
</g>
<g>
</g>
<g>
</g>
<g>
</g>
<g>
</g>
<g>
</g>
<g>
</g>
<g>
</g>
<g>
</g>
<g>
</g>
<g>
</g>
<g>
</g>
</svg>
