<?xml version="1.0" encoding="iso-8859-1"?>
<!-- Generator: Adobe Illustrator 18.0.0, SVG Export Plug-In . SVG Version: 6.00 Build 0)  -->
<!DOCTYPE svg PUBLIC "-//W3C//DTD SVG 1.1//EN" "http://www.w3.org/Graphics/SVG/1.1/DTD/svg11.dtd">
<svg version="1.1" id="Capa_1" xmlns="http://www.w3.org/2000/svg" xmlns:xlink="http://www.w3.org/1999/xlink" x="0px" y="0px"
	 viewBox="0 0 441.239 441.239" style="enable-background:new 0 0 441.239 441.239;" xml:space="preserve">
<g>
	<path d="M438.916,25.621c-0.45-7.736-4.362-14.702-10.732-19.112C422.033,2.251,414.862,0,407.442,0
		c-10.294,0-19.829,4.264-26.606,11.44l-6.968-6.968c-1.561-1.562-4.096-1.562-5.656,0c-1.563,1.563-1.563,4.095,0,5.657
		l7.764,7.764c-0.864,1.459-1.644,2.983-2.311,4.581l-3.452,8.268l-6.357-6.357c-1.561-1.562-4.096-1.562-5.656,0
		c-1.563,1.563-1.563,4.095,0,5.657l8.681,8.681l-2.939,7.04c-1.332,3.19-3.29,6.015-5.712,8.351l-9.224-9.224
		c-1.561-1.562-4.096-1.562-5.656,0c-1.563,1.563-1.563,4.095,0,5.657l8.181,8.181c-1.014,0.476-2.061,0.895-3.145,1.236
		l-14.473,4.548l-1.823,23.503L182.427,234.023c-20.382-12.119-47.141-15.927-75.796-10.699
		c-28.248,5.153-54.967,18.627-73.306,36.966c-20.021,20.02-31.046,46.639-31.046,74.954c0,23.704,7.732,46.218,21.996,64.669
		l-2.836,2.835c-1.563,1.562-1.563,4.095,0,5.657c0.78,0.781,1.805,1.172,2.828,1.172s2.047-0.391,2.828-1.171l2.326-2.326
		c0.372,0.413,0.75,0.821,1.129,1.229l-2.276,2.276c-1.563,1.562-1.563,4.095,0,5.657c0.781,0.781,1.805,1.171,2.828,1.171
		s2.048-0.391,2.828-1.172l2.275-2.275c0.408,0.379,0.816,0.758,1.229,1.129l-2.325,2.325c-1.563,1.562-1.563,4.095,0,5.657
		c0.78,0.781,1.805,1.172,2.828,1.172s2.047-0.391,2.828-1.171l2.835-2.834c18.449,14.266,40.961,21.998,64.666,21.998
		c0,0,0.006,0,0.007,0c28.312-0.002,54.93-11.028,74.949-31.048c18.43-18.429,31.928-45.277,37.033-73.662
		c5.182-28.803,1.234-55.632-11.098-75.993l146.419-150.087l7.096-3.199c18.853-8.499,32.785-25.625,37.271-45.812l3.512-15.802
		c4.154,1.704,10.427,3.792,16.229,3.792c4.456,0,8.084-1.205,10.784-3.581C436.287,40.729,439.365,33.357,438.916,25.621z
		 M335.925,95.451l11.697,11.697L168.144,291.123l-2.96-2.96l21.095-46.722L335.925,95.451z M177.568,404.533
		c-18.51,18.509-43.118,28.704-69.293,28.706c-0.004,0-0.004,0-0.007,0c-26.173,0-50.78-10.192-69.286-28.698
		c-18.509-18.509-28.702-43.119-28.702-69.296s10.193-50.788,28.702-69.296c17.218-17.218,42.398-29.885,69.086-34.753
		c0.175-0.032,0.348-0.054,0.523-0.085c-5.152,7.337-7.938,16.056-7.938,25.208c0,11.753,4.576,22.803,12.86,31.086l0.114,0.115
		c4.299,4.273,10.333,6.898,16.99,7.392c5.06,0.375,9.72,2.679,13.121,6.488c6.353,7.113,6.564,18.015,0.504,25.344l-0.142,0.169
		c-5.038,5.972-5.19,14.608-0.363,20.535c1.509,1.853,3.135,3.652,4.832,5.349c13.381,13.381,31.201,20.702,49.852,20.701
		c0.395,0,0.792-0.01,1.188-0.017C193.677,385.283,186.197,395.904,177.568,404.533z M212.384,335.112
		c-1.873,10.413-4.945,20.589-9,30.165c-18.304,1.43-36.114-5.097-49.158-18.141c-1.506-1.506-2.947-3.102-4.285-4.744
		c-2.401-2.947-2.285-7.289,0.278-10.328l0.178-0.212c8.569-10.364,8.272-25.748-0.691-35.785
		c-4.79-5.363-11.359-8.608-18.497-9.137c-4.754-0.352-8.995-2.158-11.906-5.052l-0.106-0.106
		c-6.799-6.799-10.543-15.839-10.543-25.456c0-9.617,3.744-18.657,10.543-25.456c0.473-0.473,0.947-0.914,1.42-1.337
		c21.686-1.88,41.573,1.942,57.25,11.11l-22.249,49.276l12.597,12.597l35.147-36.028
		C213.847,284.951,217.065,309.087,212.384,335.112z M425.185,39.842c-1.196,1.053-3.046,1.586-5.499,1.586
		c-7.588,0-17.096-4.972-17.188-5.021l-4.639-2.459l-5.723,25.754c-3.941,17.737-16.185,32.786-32.749,40.254l-5.268,2.375
		L340.09,88.303l1.38-17.778l9.313-2.927c9.299-2.922,16.785-9.757,20.54-18.751l9.724-23.29C385.499,14.892,395.86,8,407.442,8
		c5.784,0,11.382,1.759,16.188,5.086c4.333,3,6.993,7.738,7.299,13S429.141,36.361,425.185,39.842z"/>
	<path d="M145.155,314.36c0-4.274-1.664-8.292-4.687-11.314c-3.021-3.022-7.04-4.687-11.313-4.687
		c-4.273,0-8.292,1.665-11.313,4.687c-3.022,3.022-4.687,7.04-4.687,11.314c0,4.273,1.664,8.292,4.687,11.314
		c3.021,3.022,7.04,4.686,11.313,4.686c4.273,0,8.292-1.664,11.313-4.686C143.491,322.651,145.155,318.633,145.155,314.36z
		 M134.813,320.017c-1.512,1.511-3.521,2.343-5.657,2.343c-2.137,0-4.146-0.832-5.657-2.343c-1.511-1.511-2.343-3.52-2.343-5.657
		c0-2.137,0.832-4.146,2.343-5.657c1.512-1.511,3.521-2.344,5.657-2.344c2.137,0,4.146,0.833,5.657,2.344
		c1.511,1.511,2.343,3.52,2.343,5.657C137.155,316.497,136.323,318.506,134.813,320.017z"/>
	<path d="M71.172,324.259c-1.563-1.562-4.096-1.562-5.656,0c-1.563,1.563-1.563,4.095,0,5.657L113.6,378
		c0.781,0.781,1.805,1.171,2.828,1.171s2.048-0.391,2.828-1.171c1.563-1.563,1.563-4.095,0-5.657L71.172,324.259z"/>
</g>
<g>
</g>
<g>
</g>
<g>
</g>
<g>
</g>
<g>
</g>
<g>
</g>
<g>
</g>
<g>
</g>
<g>
</g>
<g>
</g>
<g>
</g>
<g>
</g>
<g>
</g>
<g>
</g>
<g>
</g>
</svg>
