<?xml version="1.0" encoding="iso-8859-1"?>
<!-- Generator: Adobe Illustrator 18.0.0, SVG Export Plug-In . SVG Version: 6.00 Build 0)  -->
<!DOCTYPE svg PUBLIC "-//W3C//DTD SVG 1.1//EN" "http://www.w3.org/Graphics/SVG/1.1/DTD/svg11.dtd">
<svg version="1.1" id="Capa_1" xmlns="http://www.w3.org/2000/svg" xmlns:xlink="http://www.w3.org/1999/xlink" x="0px" y="0px"
	 viewBox="0 0 358.049 358.049" style="enable-background:new 0 0 358.049 358.049;" xml:space="preserve">
<path d="M352.954,329.167L198.213,178.75l136.52-140.443c1.299,0.271,2.62,0.425,3.958,0.425c5.166,0,10.025-2.014,13.682-5.671
	c7.55-7.55,7.55-19.836,0-27.386c-3.658-3.657-8.521-5.672-13.693-5.672c-5.173,0-10.036,2.015-13.694,5.672
	c-4.637,4.637-6.568,11.341-5.257,17.649L179.023,160.096L38.309,23.313c1.277-6.176-0.466-12.857-5.248-17.641
	C29.403,2.015,24.54,0,19.367,0C14.194,0,9.331,2.015,5.673,5.673C2.016,9.33,0.001,14.193,0.001,19.366S2.016,29.402,5.673,33.06
	c3.658,3.658,8.521,5.673,13.694,5.673c1.347,0,2.671-0.144,3.96-0.41l136.508,140.432L5.095,329.165
	c-3.251,3.162-5.06,7.4-5.093,11.934c-0.033,4.537,1.714,8.806,4.924,12.021c3.181,3.182,7.398,4.929,11.889,4.929
	c0.04,0,0.08,0,0.119,0c4.538-0.031,8.781-1.842,11.949-5.099l150.14-154.458l150.146,154.461c3.162,3.253,7.403,5.062,11.94,5.094
	c0.041,0,0.082,0,0.122,0c4.493,0,8.711-1.746,11.892-4.927c3.208-3.208,4.958-7.475,4.926-12.013
	C358.016,336.57,356.207,332.329,352.954,329.167z M330.643,11.331c2.146-2.146,5-3.328,8.037-3.328c3.036,0,5.89,1.182,8.036,3.328
	c4.432,4.432,4.432,11.642,0,16.073c-2.146,2.146-4.995,3.327-8.024,3.327c-1.314,0-2.606-0.224-3.863-0.674
	c-1.565-0.549-2.974-1.442-4.185-2.653c-1.211-1.212-2.104-2.62-2.663-4.21C326.507,19.078,327.552,14.422,330.643,11.331z
	 M323.256,31.052c0.531,0.698,1.096,1.375,1.729,2.009c0.634,0.634,1.311,1.199,2.009,1.73L192.476,173.173l-7.715-7.499
	L323.256,31.052z M11.331,27.403c-2.147-2.147-3.33-5.001-3.33-8.037s1.183-5.89,3.33-8.037C13.477,9.183,16.331,8,19.367,8
	c3.036,0,5.89,1.183,8.037,3.329c4.431,4.432,4.431,11.643,0,16.074c-2.146,2.146-5.001,3.329-8.037,3.329
	C16.331,30.732,13.477,29.55,11.331,27.403z M23.147,347.373c-1.663,1.709-3.889,2.659-6.269,2.676
	c-2.38,0.063-4.613-0.902-6.293-2.583c-1.684-1.687-2.601-3.927-2.583-6.308c0.018-2.377,0.966-4.6,2.67-6.258l154.74-150.41
	l8.032,8.263L23.147,347.373z M347.464,347.464c-1.682,1.682-3.879,2.57-6.3,2.583c-2.379-0.017-4.603-0.965-6.26-2.67
	L31.049,34.788c0.7-0.532,1.38-1.096,2.012-1.729c0.636-0.636,1.198-1.315,1.727-2.013l312.59,303.856
	c1.705,1.658,2.654,3.881,2.67,6.26C350.064,343.544,349.147,345.781,347.464,347.464z"/>
<g>
</g>
<g>
</g>
<g>
</g>
<g>
</g>
<g>
</g>
<g>
</g>
<g>
</g>
<g>
</g>
<g>
</g>
<g>
</g>
<g>
</g>
<g>
</g>
<g>
</g>
<g>
</g>
<g>
</g>
</svg>
