<?xml version="1.0" encoding="iso-8859-1"?>
<!-- Generator: Adobe Illustrator 18.0.0, SVG Export Plug-In . SVG Version: 6.00 Build 0)  -->
<!DOCTYPE svg PUBLIC "-//W3C//DTD SVG 1.1//EN" "http://www.w3.org/Graphics/SVG/1.1/DTD/svg11.dtd">
<svg version="1.1" id="Capa_1" xmlns="http://www.w3.org/2000/svg" xmlns:xlink="http://www.w3.org/1999/xlink" x="0px" y="0px"
	 viewBox="0 0 474.787 474.787" style="enable-background:new 0 0 474.787 474.787;" xml:space="preserve">
<g>
	<path d="M195.764,360.37l-28.028-17.032c-1.888-1.147-4.349-0.546-5.496,1.341s-0.547,4.348,1.341,5.496l28.028,17.032
		c0.649,0.395,1.366,0.582,2.073,0.582c1.351,0,2.669-0.685,3.422-1.923C198.253,363.978,197.652,361.517,195.764,360.37z"/>
	<path d="M191.299,306.376c-1.706-1.404-4.226-1.159-5.631,0.545l-15.093,18.326c-0.674,0.819-0.996,1.872-0.894,2.928
		s0.62,2.028,1.438,2.703l36.464,30.03c0.719,0.592,1.619,0.912,2.543,0.912c0.128,0,0.257-0.006,0.385-0.019
		c1.056-0.102,2.028-0.62,2.703-1.438l15.093-18.327c0.674-0.819,0.996-1.872,0.894-2.928s-0.62-2.028-1.438-2.703L191.299,306.376z
		 M209.583,352.19l-30.289-24.945l10.007-12.151l30.289,24.944L209.583,352.19z"/>
	<path d="M214.176,368.761c-0.757,0-1.518,0.08-2.261,0.238c-2.837,0.602-5.271,2.273-6.851,4.706
		c-1.581,2.432-2.119,5.333-1.517,8.171c1.058,4.986,5.523,8.606,10.615,8.606h0c0.756,0,1.517-0.08,2.261-0.238
		c2.837-0.602,5.271-2.273,6.851-4.706c1.581-2.432,2.119-5.333,1.517-8.171C223.733,372.38,219.268,368.761,214.176,368.761z
		 M214.762,382.418c-0.199,0.042-0.401,0.063-0.6,0.063h0c-1.337,0-2.511-0.954-2.79-2.267c-0.159-0.747-0.017-1.511,0.399-2.152
		c0.416-0.64,1.057-1.08,1.804-1.239c0.199-0.042,0.401-0.063,0.601-0.063c1.337,0,2.511,0.954,2.79,2.267
		C217.293,380.57,216.305,382.091,214.762,382.418z"/>
	<path d="M471.578,27.232c-1.497-0.313-3.018,0.352-4,1.525c-6.471,7.729-15.038,12.713-21.873,12.713
		c-2.443,0-4.468-0.647-6.016-1.922c-6.07-4.998-3.662-18.447,5.242-29.439c0.963-1.188,1.324-2.808,0.731-4.218
		c-0.852-2.022-3.085-2.942-5.048-2.238l-22.598,8.097c-1.461,0.523-2.478,1.844-2.633,3.388c-0.238,2.37-0.672,4.691-1.251,6.962
		l-1.067-0.879c-1.474-1.214-3.635-1.317-5.117-0.112c-2.038,1.656-1.966,4.643-0.05,6.22l3.397,2.798
		c-0.811,1.768-1.728,3.479-2.748,5.13l-1.835-1.511c-1.672-1.377-4.202-1.359-5.664,0.239c-1.56,1.704-1.356,4.344,0.404,5.793
		l2.327,1.917c-1.261,1.43-2.611,2.786-4.045,4.061l-3.247-2.674c-1.672-1.377-4.202-1.359-5.664,0.239
		c-1.56,1.704-1.356,4.344,0.404,5.793l1.902,1.566c-0.715,0.441-1.438,0.873-2.18,1.279l-4.117,2.248
		c-0.708,0.387-1.327,0.946-1.7,1.661c-0.924,1.77-0.437,3.814,0.985,4.986l3.163,2.606c2.074,1.708,3.353,4.129,3.603,6.818
		c0.251,2.702-0.566,5.349-2.245,7.389l-143.67,167.031c-1.257,1.461-2.671,2.789-4.27,3.865c-6.317,4.25-9.566,1.581-10.736,0.618
		c-0.653-0.538-1.543-1.514-1.736-3.776c-1.084-12.683,19.469-39.612,27.564-49.019c1.065-1.238,1.354-3.014,0.612-4.469
		c-1.074-2.106-3.612-2.799-5.558-1.691l-73.728,41.9c-2.194,1.255-3.438,3.602-3.246,6.125c0.191,2.506,1.765,4.622,4.092,5.517
		c6.25,2.433,9.939,7.283,11.28,14.829c1.564,8.804-11.376,19.989-36.436,31.496c-22.139,10.166-48.185,18.137-60.702,21.968
		c-2.662,0.814-4.764,1.458-6.124,1.906c-1.62,0.534-4.042,1.266-7.109,2.192C41.647,328.007,1.406,342.626,0.015,361.26
		c-0.061,0.812,0.053,1.637,0.448,2.349c0.956,1.727,2.901,2.456,4.651,1.944c52.906-15.433,91.804,5.756,106.072,15.582
		l0.992,0.685c0.954,0.658,1.803,1.244,2.543,1.742c1.303,0.877,2.91,1.256,4.438,0.894c2.899-0.688,4.635-3.409,4.265-6.167
		c-0.176-1.313-0.187-3.12,0.759-4.268c1.477-1.795,5.475-2.075,10.431-0.732c6.252,1.694,13.312,5.605,19.878,11.014
		c14.11,11.62,18.847,24.216,15.911,27.782c-0.536,0.65-1.394,1.108-2.548,1.358c-3.995,0.866-6.451,4.962-5.61,8.963
		c3.802,18.069-4.115,36.001-7.77,42.991c-0.561,1.073-0.694,2.345-0.233,3.464c0.653,1.587,2.149,2.508,3.715,2.508
		c0.335,0,0.674-0.042,1.008-0.129c31.47-8.193,70.1-35.452,78.129-46.454c0.513-0.703,0.754-1.573,0.737-2.442
		c-0.786-40.074,6.055-65.712,19.782-74.145c14.741-9.047,21.448,0.855,22.148,1.986c1.006,1.694,3.14,2.462,5.087,1.603
		c1.007-0.444,1.753-1.333,2.142-2.362l27.281-72.064c0.795-2.099-0.286-4.504-2.539-5.234c-1.574-0.51-3.304,0.077-4.356,1.355
		c-0.737,0.896-1.497,1.826-2.278,2.782c-11.141,13.636-27.978,34.243-40.679,27.665c-3.294-1.707-5.231-3.792-5.923-6.374
		c-0.691-2.579-0.091-5.373,0.812-7.714c0.823-2.135,2.021-4.106,3.437-5.904L411.629,95.064c2.236-2.715,5.675-4.106,9.217-3.654
		c1.942,0.248,3.749,1.131,5.26,2.376l2.839,2.338c0.714,0.588,1.593,0.977,2.517,1c1.852,0.046,3.417-1.13,3.944-2.793l1.448-4.569
		c0.256-0.807,0.541-1.599,0.837-2.386l1.913,1.576c0.745,0.614,1.646,0.913,2.541,0.913c1.177,0,2.345-0.517,3.137-1.515
		c1.375-1.734,0.967-4.289-0.742-5.696l-3.282-2.703c0.977-1.651,2.048-3.236,3.21-4.748l2.338,1.925
		c0.745,0.613,1.646,0.912,2.541,0.912c1.177,0,2.345-0.517,3.137-1.515c1.376-1.734,0.968-4.288-0.74-5.695l-1.872-1.542
		c1.424-1.317,2.928-2.545,4.507-3.68l3.408,2.806c0.745,0.613,1.646,0.912,2.541,0.912c1.177,0,2.345-0.517,3.137-1.515
		c1.376-1.733,0.969-4.288-0.74-5.695l-1.011-0.833c2.118-1.003,4.312-1.874,6.592-2.562c1.486-0.448,2.587-1.7,2.82-3.234
		l3.614-23.732C475.055,29.694,473.726,27.681,471.578,27.232z M260.742,311.033c13.095,6.776,26.612-3.129,37.924-15.042
		l-16.954,44.783c-1.967-1.524-4.534-2.985-7.721-3.772c-6.355-1.567-13.271-0.096-20.563,4.38
		c-16.336,10.035-24.281,36.852-23.619,79.722c-7.572,8.849-37.529,30.26-64.487,39.807c3.916-9.789,7.912-24.602,4.828-39.791
		c2.679-0.692,4.84-2.019,6.43-3.948c7.006-8.507-0.303-25.292-17-39.044c-16.693-13.747-34.564-17.699-41.57-9.192
		c-1.271,1.544-2.098,3.399-2.462,5.491c-14.578-9.995-52.589-30.657-104.317-18.733c3.578-3.955,10.868-9.199,25.347-15.557
		c16.338-7.174,35.288-12.899,46.609-16.319c3.12-0.943,5.585-1.687,7.301-2.252c1.279-0.422,3.345-1.054,5.96-1.854
		c12.683-3.882,39.074-11.959,61.698-22.348c29.932-13.743,43.335-26.881,40.975-40.166c-1.615-9.091-6.232-15.806-13.437-19.601
		l53.737-30.54c-0.911,1.284-1.833,2.615-2.756,3.982c-10.25,15.19-15.098,26.981-14.41,35.045c0.333,3.901,1.888,7.02,4.622,9.272
		c1.791,1.475,4.475,3.079,7.936,3.473l-16.329,18.985c-0.701,0.815-1.045,1.879-0.953,2.951s0.612,2.061,1.442,2.745l23.594,19.431
		c0.72,0.592,1.62,0.912,2.543,0.912c0.142,0,0.285-0.008,0.428-0.023c1.07-0.115,2.048-0.656,2.714-1.501l2.434-3.088
		c0.031,0.128,0.051,0.256,0.085,0.385C252.058,304.434,255.413,308.272,260.742,311.033z M244.498,294.166l-17.286-14.235
		L394.148,85.85l8.828,7.27L244.498,294.166z M463.588,51.851c-16.023,5.642-28.587,18.349-34.042,34.52
		c-2.95-1.973-6.448-3.044-10.021-3.044c-4.091,0-7.996,1.361-11.184,3.849l-9.391-7.734c1.543-3.036,2.218-6.44,1.897-9.904
		c-0.393-4.233-2.21-8.1-5.167-11.06c14.825-8.454,24.885-23.219,27.351-40.027l9.26-3.318c-5.832,12.115-5.273,24.344,2.312,30.59
		c2.976,2.451,6.815,3.747,11.102,3.747c6.212,0,13.086-2.692,19.369-7.374L463.588,51.851z"/>
</g>
<g>
</g>
<g>
</g>
<g>
</g>
<g>
</g>
<g>
</g>
<g>
</g>
<g>
</g>
<g>
</g>
<g>
</g>
<g>
</g>
<g>
</g>
<g>
</g>
<g>
</g>
<g>
</g>
<g>
</g>
</svg>
