<?xml version="1.0" encoding="iso-8859-1"?>
<!-- Generator: Adobe Illustrator 18.0.0, SVG Export Plug-In . SVG Version: 6.00 Build 0)  -->
<!DOCTYPE svg PUBLIC "-//W3C//DTD SVG 1.1//EN" "http://www.w3.org/Graphics/SVG/1.1/DTD/svg11.dtd">
<svg version="1.1" id="Capa_1" xmlns="http://www.w3.org/2000/svg" xmlns:xlink="http://www.w3.org/1999/xlink" x="0px" y="0px"
	 viewBox="0 0 470.578 470.578" style="enable-background:new 0 0 470.578 470.578;" xml:space="preserve">
<g>
	<path d="M203.24,349.503c-0.828,0-1.641-0.257-2.324-0.744l-36.284-25.893c-1.798-1.283-2.215-3.781-0.932-5.58l13.055-18.294
		c0.616-0.863,1.55-1.447,2.597-1.622c1.046-0.176,2.119,0.073,2.983,0.689l36.284,25.893c1.798,1.283,2.215,3.781,0.932,5.58
		l-13.055,18.294c-0.616,0.863-1.55,1.447-2.597,1.622C203.68,349.484,203.459,349.503,203.24,349.503z M172.536,318.677
		l29.771,21.246l8.408-11.782l-29.771-21.246L172.536,318.677z"/>
	<path d="M184.431,362.314c-0.804,0-1.616-0.242-2.32-0.745l-23.478-16.754c-1.798-1.283-2.215-3.781-0.932-5.58
		c1.284-1.798,3.782-2.215,5.58-0.932l23.478,16.754c1.798,1.283,2.215,3.781,0.932,5.58
		C186.91,361.731,185.68,362.314,184.431,362.314z"/>
	<path d="M203.501,400.513c-5.01,0-9.472-3.367-10.849-8.188c-1.709-5.984,1.769-12.244,7.753-13.953
		c1.013-0.289,2.057-0.436,3.104-0.436c5.01,0,9.472,3.367,10.849,8.188c1.708,5.984-1.769,12.244-7.753,13.953
		C205.593,400.366,204.548,400.513,203.501,400.513z M203.509,385.936c-0.304,0-0.608,0.043-0.907,0.128
		c-1.743,0.498-2.756,2.321-2.258,4.063c0.485,1.698,2.334,2.751,4.063,2.257c1.743-0.498,2.755-2.321,2.258-4.064
		C206.265,386.917,204.967,385.936,203.509,385.936z"/>
	<path d="M470.258,9.097c-0.751-1.768-2.651-2.753-4.531-2.344l-3.574,0.777l-0.151-1.091c-0.302-2.188-2.323-3.717-4.509-3.416
		c-2.188,0.302-3.718,2.321-3.416,4.509l0.235,1.701l-7.729,1.68l-0.135-0.979c-0.302-2.188-2.326-3.715-4.509-3.416
		c-2.188,0.302-3.718,2.321-3.416,4.509l0.219,1.59l-7.732,1.68l-0.116-0.859c-0.296-2.189-2.31-3.72-4.5-3.427
		c-2.189,0.296-3.724,2.312-3.427,4.5l0.202,1.49l-7.728,1.679l-0.101-0.749c-0.297-2.188-2.312-3.72-4.501-3.427
		c-2.189,0.297-3.723,2.312-3.427,4.501l0.187,1.379l-7.731,1.68l-0.089-0.654c-0.299-2.188-2.318-3.72-4.504-3.422
		c-2.188,0.299-3.721,2.315-3.422,4.504l0.174,1.276l-7.728,1.679l-0.074-0.543c-0.299-2.189-2.321-3.719-4.504-3.423
		c-2.189,0.299-3.721,2.315-3.423,4.504l0.159,1.166l-1.684,0.366c-2.093,0.455-3.457,2.479-3.092,4.589l2.069,11.982
		c0,0-132.05,181.573-132.192,181.667L1.787,384.062c-1.507,1.001-2.154,2.889-1.579,4.604s2.226,2.82,4.036,2.721l154.365-9.411
		l48.007,83.608c0.72,1.253,2.049,2.008,3.468,2.008c0.179,0,0.359-0.012,0.539-0.037c1.613-0.219,2.932-1.393,3.336-2.969
		l56.519-220.163L399.557,60.35l69.246-46.364C470.399,12.917,471.01,10.865,470.258,9.097z M208.656,453.07l-44.345-77.23
		c-0.756-1.318-2.184-2.089-3.712-2.001L18.6,382.496l210.012-139.533l-19.037,26.217l-4.393-3.135
		c-0.863-0.616-1.936-0.866-2.983-0.689c-1.046,0.175-1.98,0.758-2.597,1.622l-13.055,18.294c-1.283,1.798-0.866,4.296,0.932,5.58
		l36.284,25.893c0.705,0.503,1.516,0.745,2.32,0.745c1.249,0,2.479-0.583,3.259-1.677l13.055-18.294
		c0.616-0.864,0.864-1.937,0.689-2.983s-0.758-1.98-1.622-2.597l-2.869-2.048l18.853-26.886L208.656,453.07z M233.562,296.126
		l-8.408,11.782l-29.771-21.246l8.408-11.782L233.562,296.126z M232.084,285.243l-15.997-11.416L378.885,49.635l12.273,8.758
		L232.084,285.243z M396.783,52.579l-15.142-10.806l-1.425-8.25l66.665-14.487L396.783,52.579z"/>
</g>
<g>
</g>
<g>
</g>
<g>
</g>
<g>
</g>
<g>
</g>
<g>
</g>
<g>
</g>
<g>
</g>
<g>
</g>
<g>
</g>
<g>
</g>
<g>
</g>
<g>
</g>
<g>
</g>
<g>
</g>
</svg>
