<?xml version="1.0" encoding="iso-8859-1"?>
<!-- Generator: Adobe Illustrator 18.0.0, SVG Export Plug-In . SVG Version: 6.00 Build 0)  -->
<!DOCTYPE svg PUBLIC "-//W3C//DTD SVG 1.1//EN" "http://www.w3.org/Graphics/SVG/1.1/DTD/svg11.dtd">
<svg version="1.1" id="Capa_1" xmlns="http://www.w3.org/2000/svg" xmlns:xlink="http://www.w3.org/1999/xlink" x="0px" y="0px"
	 viewBox="0 0 468.86 468.86" style="enable-background:new 0 0 468.86 468.86;" xml:space="preserve">
<path d="M414.709,155.811c-14.565-14.662-33.967-22.737-54.629-22.737c-0.528,0-1.084-0.005-1.661-0.011
	c19.431-9.302,41.961-12.172,64.906-8.067c3.501,0.622,6.246-0.025,8.144-1.923c2.896-2.896,5.124-9.103-8.915-29.477
	c-9.016-13.085-22.549-28.859-38.107-44.417c-15.557-15.557-31.331-29.091-44.416-38.107c-20.372-14.038-26.579-11.812-29.476-8.916
	c-1.894,1.894-2.539,4.636-1.916,8.158c5.089,28.435-0.541,56.233-15.853,78.275c-27.096,39.027-57.49,76.228-90.338,110.569
	l-12.774,13.354c-0.477-1.428-1.258-2.404-1.903-3.007c-1.008-0.943-2.801-2.048-5.613-1.954c-3.366,0.113-7.314,1.963-11.018,5.073
	l-7.284-6.813l1.594-1.704c1.509-1.614,1.424-4.145-0.189-5.654c-1.614-1.508-4.145-1.424-5.654,0.189l-8.652,9.251
	c-1.509,1.614-1.424,4.145,0.189,5.654c0.807,0.754,1.843,1.11,2.866,1.076c1.023-0.034,2.033-0.459,2.788-1.265l1.594-1.704
	l7.284,6.812c-2.712,3.7-4.196,7.444-4.302,10.637c-3.213,0.316-6.885,2.119-10.345,5.025l-7.284-6.813l1.594-1.704
	c1.509-1.614,1.424-4.145-0.189-5.654c-1.614-1.508-4.145-1.424-5.654,0.189l-8.652,9.251c-1.509,1.614-1.424,4.145,0.189,5.654
	c0.807,0.754,1.843,1.11,2.866,1.076c1.023-0.034,2.033-0.459,2.788-1.265l1.594-1.704l7.291,6.818
	c-1.607,2.204-2.845,4.492-3.572,6.67c-0.428,1.284-0.648,2.426-0.73,3.453c-3.083,0.452-6.542,2.209-9.812,4.956l-7.284-6.812
	l1.594-1.704c1.509-1.614,1.424-4.145-0.189-5.654c-1.614-1.508-4.145-1.424-5.654,0.189l-8.652,9.251
	c-1.509,1.614-1.424,4.145,0.189,5.654c0.807,0.754,1.843,1.11,2.866,1.076s2.033-0.459,2.788-1.265l1.594-1.704l7.284,6.812
	c-4.821,6.577-5.75,13.296-2,16.803c0.49,0.458,1.168,0.951,2.054,1.329l-17.056,17.831c-18.976,19.836-29.257,45.876-28.952,73.323
	c0.093,8.372,1.173,16.59,3.174,24.522l-30.127,30.127L33.796,438.07c-0.98,0.672-1.611,1.747-1.72,2.931s0.313,2.355,1.154,3.196
	l17.381,17.381c0.754,0.753,1.772,1.171,2.828,1.171c0.123,0,0.245-0.005,0.368-0.017c1.184-0.109,2.258-0.74,2.931-1.72
	l13.207-19.251l22.775-22.775c4.734,8.667,10.729,16.704,17.893,23.869c16.771,16.771,39.058,26.006,62.761,26.005
	c0.019,0,0.039,0,0.057,0c23.704,0,45.994-9.235,62.764-26.005L413.76,265.29C444.108,234.943,444.533,185.83,414.709,155.811z
	 M182.103,215.579c-0.123,1.425-1.34,4.724-4.732,8.35c-3.308,3.537-6.468,5.039-8.027,5.27c0.123-1.426,1.34-4.724,4.732-8.351
	C177.383,217.311,180.544,215.809,182.103,215.579z M161.99,237.084c-0.123,1.426-1.34,4.724-4.732,8.351
	c-3.308,3.537-6.468,5.039-8.027,5.269c0.123-1.425,1.34-4.724,4.732-8.35C157.271,238.817,160.431,237.315,161.99,237.084z
	 M142.418,258.012c-0.123,1.426-1.34,4.724-4.732,8.351c-3.308,3.537-6.468,5.039-8.027,5.269c0.123-1.426,1.34-4.724,4.732-8.351
	C137.698,259.744,140.859,258.243,142.418,258.012z M52.864,452.518L42.29,441.943l12.861-8.823l6.536,6.536L52.864,452.518z
	 M66.871,433.522l-5.579-5.58l24.526-24.525c0.943,2.709,1.995,5.378,3.159,7.998L66.871,433.522z M408.104,259.633L230.538,437.198
	c-15.26,15.26-35.539,23.663-57.109,23.663c-0.008,0-0.018,0-0.026,0c-0.009,0-0.017,0-0.026,0
	c-21.567,0-41.848-8.403-57.106-23.663c-17.926-17.925-27.953-41.754-28.235-67.098c-0.282-25.343,9.212-49.388,26.734-67.704
	l93.46-97.707c33.135-34.642,63.795-72.168,91.128-111.535c16.528-23.793,22.621-53.713,17.157-84.24
	c-0.073-0.415-0.1-0.727-0.105-0.953c0.043-0.001,0.087-0.002,0.132-0.002c5.885,0,30.028,14.658,62.249,46.878
	c32.479,32.479,47.112,56.751,46.875,62.387c-0.222-0.005-0.529-0.032-0.938-0.104c-30.523-5.463-60.45,0.626-84.253,17.149
	c-40.146,27.877-78.027,59.538-112.591,94.102L124.776,331.479c-13.173,13.174-20.433,30.694-20.44,49.335
	c0,18.707,7.309,36.277,20.58,49.475c27.202,27.05,71.711,26.678,99.22-0.829l177.911-177.912
	c11.456-11.456,17.761-26.687,17.753-42.884c0.008-16.201-6.297-31.432-17.753-42.888c-23.652-23.651-62.133-23.652-85.779-0.007
	l-80.218,80.218c-3.781-1.724-7.868-2.562-11.949-2.518l9.44-9.44c32.847-32.847,68.718-63.045,106.693-89.827
	c4.722-3.276,12.26-3.201,17.771-3.142c0.726,0.007,1.42,0.015,2.074,0.015c18.516,0,35.9,7.236,48.953,20.375
	C435.759,188.35,435.342,232.395,408.104,259.633z M311.761,330.52l-11.314,11.314l-87.072-87.072
	c7.761-5.133,18.342-4.285,25.172,2.544L311.761,330.52z M242.909,250.441l79.015-79.015c20.528-20.527,53.933-20.526,74.467,0.007
	c9.943,9.944,15.416,23.165,15.409,37.231c0.007,14.063-5.466,27.283-15.409,37.227l-78.973,78.973l-73.214-73.214
	C243.784,251.228,243.349,250.829,242.909,250.441z M209.703,277.486l7.542-7.542l18.385,18.385l-7.543,7.542L209.703,277.486z
	 M204.045,271.829l-4.153-4.153l7.542-7.542l4.153,4.153L204.045,271.829z M194.236,273.334l42.809,42.808
	c2.079,2.08,2.079,5.463,0,7.542c-2.08,2.08-5.463,2.08-7.543,0l-42.808-42.808L194.236,273.334z M220.545,352.44
	c1.511,1.511,2.343,3.52,2.343,5.656c0,2.137-0.832,4.146-2.343,5.657c-1.511,1.511-3.52,2.343-5.657,2.343
	c-2.137,0-4.146-0.832-5.656-2.343l-11.785-11.785l11.313-11.313L220.545,352.44z M183.304,303.885l7.542-7.542l18.384,18.384
	l-7.542,7.542L183.304,303.885z M181.036,286.533l4.153,4.153l-7.542,7.542l-4.153-4.153L181.036,286.533z M167.837,299.732
	l35.266,35.265l-11.313,11.313l-14.014-14.014c-7.934-7.934-12.519-18.325-13.046-29.457L167.837,299.732z M112.336,380.815
	c0.001-1.363,0.061-2.717,0.149-4.065l50.691-50.69c1.291,2.344,2.769,4.593,4.422,6.735l-54.875,54.875
	C112.475,385.408,112.336,383.123,112.336,380.815z M157.517,310.052c0.5,2.799,1.213,5.541,2.151,8.2l-44.722,44.722
	c2.9-9.659,8.158-18.509,15.487-25.838L157.517,310.052z M172.935,338.772l30.639,30.638c3.022,3.022,7.04,4.687,11.313,4.687
	c4.274,0,8.292-1.664,11.313-4.686c3.022-3.022,4.687-7.04,4.687-11.314c0-4.273-1.664-8.292-4.686-11.313l-18.856-18.856
	l7.542-7.542l8.956,8.956c2.6,2.599,6.013,3.898,9.428,3.898c3.414,0,6.83-1.3,9.428-3.898c5.198-5.198,5.198-13.657,0-18.856
	l-8.956-8.956l7.542-7.543l53.505,53.505l-76.312,76.312c-24.398,24.397-63.839,24.763-87.922,0.813
	c-7.771-7.729-13.216-17.156-16.024-27.441L172.935,338.772z"/>
<g>
</g>
<g>
</g>
<g>
</g>
<g>
</g>
<g>
</g>
<g>
</g>
<g>
</g>
<g>
</g>
<g>
</g>
<g>
</g>
<g>
</g>
<g>
</g>
<g>
</g>
<g>
</g>
<g>
</g>
</svg>
