<?xml version="1.0" encoding="iso-8859-1"?>
<!-- Generator: Adobe Illustrator 18.0.0, SVG Export Plug-In . SVG Version: 6.00 Build 0)  -->
<!DOCTYPE svg PUBLIC "-//W3C//DTD SVG 1.1//EN" "http://www.w3.org/Graphics/SVG/1.1/DTD/svg11.dtd">
<svg version="1.1" id="Capa_1" xmlns="http://www.w3.org/2000/svg" xmlns:xlink="http://www.w3.org/1999/xlink" x="0px" y="0px"
	 viewBox="0 0 437.33 437.33" style="enable-background:new 0 0 437.33 437.33;" xml:space="preserve">
<g>
	<path d="M434.842,21.855L415.474,2.487c-2.656-2.655-6.818-3.255-10.119-1.457c-16.403,8.91-30.764,21.688-41.529,36.951
		c-1.767,2.501-3.682,4.788-5.692,6.798l-66.56,66.561c-9.003,9.002-17.811,16.377-26.938,22.553
		c-1.68,1.146-3.046,2.241-4.061,3.256c-2.984,2.984-4.754,6.913-5.168,11.438L75.886,333.906c-0.843-0.246-1.725-0.377-2.628-0.377
		c-2.494,0-4.839,0.971-6.604,2.735l-32.048,32.048c-1.764,1.764-2.735,4.108-2.735,6.603c0,1.279,0.259,2.517,0.745,3.659
		l-16.351,16.875c-1.388-0.521-2.868-0.805-4.395-0.805c-2.65,0-5.185,0.823-7.331,2.38l-1.351,0.98
		c-1.833,1.329-2.985,3.387-3.164,5.644s0.637,4.469,2.238,6.069l25.352,25.351c1.459,1.459,3.398,2.263,5.459,2.263
		c2.468,0,4.806-1.191,6.255-3.188l0.979-1.35c2.55-3.514,3.033-7.914,1.583-11.738l16.865-16.341
		c1.143,0.487,2.381,0.746,3.661,0.746c2.495,0,4.84-0.972,6.604-2.735l32.048-32.048c2.495-2.495,3.279-6.063,2.354-9.233
		l185.321-179.522c4.517-0.416,8.444-2.188,11.43-5.175c1.04-1.039,2.138-2.403,3.271-4.066
		c6.169-9.117,13.544-17.925,22.546-26.927l66.56-66.56c2.013-2.013,4.3-3.928,6.796-5.69
		c15.266-10.768,28.044-25.128,36.952-41.528C438.096,28.671,437.497,24.508,434.842,21.855z M259.362,156.002l21.964,21.964
		l-4.245,4.112l-21.832-21.831L259.362,156.002z M82.34,338.743l167.343-172.748l21.652,21.651L98.586,354.989L82.34,338.743z
		 M22.703,400.301l15.101-15.585l14.809,14.809l-15.585,15.1L22.703,400.301z M33.832,428.093l-0.789,1.088L8.149,404.289
		l1.089-0.79c1.745-1.266,4.29-1.061,5.809,0.459l18.326,18.326C34.943,423.854,35.136,426.297,33.832,428.093z M95.41,365.02
		l-32.048,32.048c-0.341,0.341-0.739,0.392-0.946,0.392s-0.605-0.051-0.946-0.392l-21.206-21.206
		c-0.341-0.342-0.393-0.74-0.393-0.947c0-0.206,0.051-0.604,0.393-0.946l32.048-32.048c0.341-0.341,0.739-0.392,0.946-0.392
		s0.605,0.051,0.946,0.392l21.206,21.206C95.932,363.649,95.932,364.498,95.41,365.02z M296.826,168.186
		c-1.052,1.543-1.836,2.43-2.31,2.903c-1.805,1.805-4.038,2.535-5.958,2.796l-25.116-25.116c0.26-1.926,0.988-4.163,2.79-5.966
		c0.456-0.456,1.331-1.225,2.898-2.294c7.394-5.003,14.578-10.76,21.797-17.451L314.27,146.4
		C307.579,153.617,301.824,160.8,296.826,168.186z M319.812,140.629L296.7,117.517c0.178-0.177,67.092-67.081,67.092-67.081
		c1.274-1.274,2.508-2.647,3.7-4.093l23.494,23.494c-1.445,1.192-2.818,2.425-4.093,3.701
		C386.893,73.538,319.988,140.452,319.812,140.629z M429.269,28.155c-7.791,14.344-18.75,27.018-31.819,36.833l-25.109-25.109
		c9.814-13.067,22.488-24.027,36.836-31.821c0.21-0.117,0.474-0.08,0.64,0.085l19.368,19.369
		C429.351,27.677,429.386,27.941,429.269,28.155z"/>
	<circle cx="128.62" cy="310.069" r="5.527"/>
	<circle cx="101.397" cy="337.293" r="5.527"/>
	<circle cx="63.269" cy="364.435" r="5.527"/>
	<circle cx="155.844" cy="282.846" r="5.527"/>
	<circle cx="183.068" cy="255.622" r="5.527"/>
	<circle cx="210.291" cy="228.398" r="5.527"/>
	<circle cx="237.515" cy="201.175" r="5.527"/>
	<path d="M337.48,81.938c-5.068,5.068-5.068,13.315,0,18.384c2.456,2.456,5.72,3.808,9.192,3.808c3.473,0,6.737-1.352,9.193-3.808
		l24.042-24.041l-18.385-18.386L337.48,81.938z M350.208,94.666c-0.944,0.944-2.2,1.464-3.536,1.464
		c-1.335,0-2.591-0.52-3.535-1.464c-1.95-1.949-1.95-5.122,0-7.071l9.9-9.9l7.071,7.071L350.208,94.666z M365.765,79.109
		l-7.071-7.071l2.828-2.828l7.071,7.071L365.765,79.109z"/>
</g>
<g>
</g>
<g>
</g>
<g>
</g>
<g>
</g>
<g>
</g>
<g>
</g>
<g>
</g>
<g>
</g>
<g>
</g>
<g>
</g>
<g>
</g>
<g>
</g>
<g>
</g>
<g>
</g>
<g>
</g>
</svg>
