<?xml version="1.0" encoding="iso-8859-1"?>
<!-- Generator: Adobe Illustrator 18.0.0, SVG Export Plug-In . SVG Version: 6.00 Build 0)  -->
<!DOCTYPE svg PUBLIC "-//W3C//DTD SVG 1.1//EN" "http://www.w3.org/Graphics/SVG/1.1/DTD/svg11.dtd">
<svg version="1.1" id="Capa_1" xmlns="http://www.w3.org/2000/svg" xmlns:xlink="http://www.w3.org/1999/xlink" x="0px" y="0px"
	 viewBox="0 0 442 442" style="enable-background:new 0 0 442 442;" xml:space="preserve">
<path d="M249,0c-7.168,0-13,5.832-13,13v220.534c0,8.222-6.468,15.154-14.418,15.455c-0.194,0.007-0.39,0.011-0.583,0.011
	c-8.271,0-14.999-6.729-14.999-15V13c0-7.168-5.832-13-13-13s-13,5.832-13,13v221c0,17.773,11.365,33.339,28,38.885v129.382
	c-6.151,4.487-9.535,11.753-8.933,19.484c0.819,10.497,8.994,18.955,19.439,20.111c0.828,0.092,1.666,0.138,2.492,0.138
	C233.13,442,243,432.131,243,420c0-7.014-3.396-13.609-9-17.728V272.885c16.635-5.546,28-21.111,28-38.885V13
	C262,5.832,256.168,0,249,0z M254,234c0,15.157-10.27,28.319-24.974,32.008c-1.778,0.446-3.026,2.046-3.026,3.88v134.54
	c0,1.427,0.76,2.746,1.995,3.461c4.32,2.504,7.005,7.145,7.005,12.111c0,7.72-6.281,14-14.001,14c-0.533,0-1.076-0.029-1.612-0.089
	c-6.525-0.723-11.831-6.218-12.343-12.781c-0.424-5.435,2.244-10.508,6.961-13.241c1.235-0.715,1.995-2.034,1.995-3.461v-134.54
	c0-1.834-1.248-3.434-3.026-3.88C198.27,262.319,188,249.157,188,234V13c0-2.757,2.243-5,5-5s5,2.243,5,5v221
	c0,12.977,10.803,23.491,23.885,22.983C234.286,256.515,244,246.215,244,233.534V13c0-2.757,2.243-5,5-5s5,2.243,5,5V234z"/>
<g>
</g>
<g>
</g>
<g>
</g>
<g>
</g>
<g>
</g>
<g>
</g>
<g>
</g>
<g>
</g>
<g>
</g>
<g>
</g>
<g>
</g>
<g>
</g>
<g>
</g>
<g>
</g>
<g>
</g>
</svg>
