<?xml version="1.0" encoding="iso-8859-1"?>
<!-- Generator: Adobe Illustrator 18.0.0, SVG Export Plug-In . SVG Version: 6.00 Build 0)  -->
<!DOCTYPE svg PUBLIC "-//W3C//DTD SVG 1.1//EN" "http://www.w3.org/Graphics/SVG/1.1/DTD/svg11.dtd">
<svg version="1.1" id="Capa_1" xmlns="http://www.w3.org/2000/svg" xmlns:xlink="http://www.w3.org/1999/xlink" x="0px" y="0px"
	 viewBox="0 0 458.662 458.662" style="enable-background:new 0 0 458.662 458.662;" xml:space="preserve">
<g>
	<path d="M457.392,23.527c-2.328-3.873-4.638-7.786-6.257-10.545c-1.178-2.006-3.489-4.316-5.495-5.494
		c-2.757-1.617-6.671-3.928-10.545-6.257C433.756,0.426,432.226,0,430.671,0c-3.036,0-5.894,1.632-7.456,4.258
		c-0.371,0.624-0.767,1.249-1.174,1.874l-1.415-1.415c-1.561-1.563-4.094-1.562-5.656,0c-1.563,1.562-1.563,4.095,0,5.657
		l2.282,2.282c-2.121,2.61-4.421,5.162-6.761,7.588l-2.695-2.696c-1.561-1.563-4.094-1.562-5.656,0
		c-1.563,1.562-1.563,4.095,0,5.657l2.656,2.656c-2.71,2.551-5.312,4.846-7.577,6.773l-2.254-2.254
		c-1.561-1.563-4.094-1.562-5.656,0c-1.563,1.562-1.563,4.095,0,5.657l1.691,1.691c-1.796,1.427-3.152,3.322-3.915,5.493
		l-2.032,5.777c-0.477,1.354-1.274,2.597-2.308,3.594L248.166,182.388c-2.858-4.285-7.325-10.75-9.943-13.367
		c-22.409-22.411-57.068-24.221-77.254-4.035c-5.497,5.497-9.504,14.223-11.586,25.234c-4.356,22.967-24.219,39.488-47.356,39.488
		c-0.193,0-0.389-0.001-0.583-0.004c-29.454-0.321-56.898,10.028-75.315,28.445c-39.916,39.917-33.285,111.496,14.782,159.563
		c23.183,23.183,52.467,37.538,82.458,40.418c3.697,0.355,7.352,0.532,10.954,0.532c25.895,0,49.083-9.102,66.149-26.168
		c19.732-19.732,30.029-49.205,28.25-80.861c-1.322-23.401,14.079-44.236,36.625-49.542c9.534-2.248,16.887-5.906,21.854-10.873
		c5.143-5.143,8.953-11.276,11.324-18.226c2.427-7.079,1.437-14.759-2.717-21.072c-4.088-6.213-10.623-10.098-17.927-10.659
		c-4.425-0.341-8.59-2.258-11.73-5.399c-2.633-2.633-4.406-6.006-5.105-9.638L406.02,75.876c0.999-1.036,2.245-1.835,3.603-2.312
		l5.773-2.026c2.173-0.762,4.069-2.118,5.5-3.916l1.691,1.691c0.78,0.781,1.805,1.172,2.828,1.172s2.047-0.391,2.828-1.171
		c1.563-1.562,1.563-4.095,0-5.657l-2.254-2.254c1.926-2.265,4.221-4.867,6.772-7.577l2.657,2.657
		c0.78,0.781,1.805,1.172,2.828,1.172s2.047-0.391,2.828-1.171c1.563-1.562,1.563-4.095,0-5.657l-2.696-2.696
		c2.426-2.341,4.979-4.64,7.588-6.761l2.282,2.282c0.78,0.781,1.805,1.172,2.828,1.172s2.047-0.391,2.828-1.171
		c1.563-1.562,1.563-4.095,0-5.657l-1.415-1.416c0.626-0.407,1.251-0.803,1.875-1.174c2.01-1.196,3.429-3.098,3.996-5.354
		C458.922,27.819,458.579,25.502,457.392,23.527z M387.312,59.299l12.004,12.004L230.755,246.114l-18.234-18.233L387.312,59.299z
		 M46.567,412.055c-0.851-0.851-1.684-1.712-2.507-2.578l44.72-60.231l20.597,20.596l-60.23,44.721
		C48.279,413.738,47.417,412.905,46.567,412.055z M260.495,241.52c4.489,4.489,10.445,7.23,16.774,7.719
		c4.818,0.37,9.14,2.95,11.856,7.079c2.782,4.229,3.45,9.361,1.83,14.086c-1.974,5.788-5.141,10.887-9.41,15.157
		c-3.846,3.845-10.082,6.869-18.032,8.744c-26.33,6.196-44.32,30.496-42.778,57.778c1.651,29.384-7.796,56.63-25.919,74.754
		c-17.723,17.721-42.831,26.006-70.683,23.33c-24.552-2.358-48.646-12.96-68.917-30.147l66.371-49.281l-33.704-33.705l-49.28,66.369
		c-37.642-44.478-41.32-105.095-6.819-139.597c16.903-16.904,42.241-26.397,69.565-26.103c0.228,0.003,0.453,0.004,0.681,0.004
		c26.979-0.001,50.139-19.246,55.213-46c1.782-9.426,5.027-16.71,9.382-21.066c17.068-17.067,46.649-15.257,65.941,4.036
		c2.073,2.073,6.508,8.448,9.746,13.355l-41.208,39.744l29.754,29.755l23.858-24.742
		C256.046,236.031,257.989,239.015,260.495,241.52z M414.659,62.623c-0.493,0.628-1.153,1.101-1.911,1.367l-5.773,2.026
		c-0.392,0.138-0.769,0.315-1.15,0.481l-13.705-13.704c0.165-0.379,0.342-0.752,0.479-1.142l2.032-5.777
		c0.266-0.756,0.738-1.416,1.365-1.906c6.217-4.866,20.199-16.454,29.728-29.156c0.09-0.115,0.184-0.227,0.26-0.348
		c1.499-2.019,2.887-4.063,4.107-6.114C430.283,8.025,430.583,8,430.671,8c0.105,0,0.203,0.029,0.301,0.087
		c3.901,2.346,7.844,4.672,10.619,6.301c0.825,0.484,2.16,1.819,2.645,2.644c1.63,2.777,3.955,6.717,6.299,10.616
		c0.085,0.142,0.108,0.294,0.068,0.453c-0.032,0.125-0.114,0.302-0.33,0.43c-2.051,1.221-4.097,2.609-6.117,4.109
		c-0.117,0.073-0.225,0.164-0.335,0.25C431.113,42.42,419.523,56.406,414.659,62.623z"/>
	<path d="M195.671,232.504c-1.9-1.9-4.428-2.947-7.115-2.947c-2.688,0-5.216,1.047-7.116,2.948l-5.482,5.482
		c-1.901,1.9-2.948,4.428-2.948,7.116s1.047,5.215,2.948,7.116l30.446,30.446c1.9,1.9,4.428,2.947,7.115,2.947
		c2.688,0,5.216-1.047,7.116-2.947l5.482-5.482c1.901-1.901,2.948-4.428,2.948-7.116s-1.047-5.215-2.948-7.116L195.671,232.504z
		 M220.461,271.525l-5.482,5.482c-0.778,0.779-2.139,0.78-2.919,0l-30.446-30.446c-0.39-0.39-0.604-0.908-0.604-1.459
		c0-0.551,0.215-1.069,0.604-1.459l5.482-5.482c0.39-0.39,0.908-0.604,1.46-0.604c0.551,0,1.069,0.215,1.459,0.604l30.446,30.447
		c0.39,0.39,0.604,0.908,0.604,1.458C221.066,270.618,220.851,271.136,220.461,271.525z"/>
	<path d="M138.631,275.312c-3.922,3.923-3.922,10.307,0.001,14.231l30.446,30.446c1.9,1.901,4.428,2.948,7.116,2.948
		s5.216-1.047,7.115-2.948l5.482-5.482c1.901-1.9,2.948-4.428,2.948-7.116s-1.047-5.215-2.948-7.116l-30.445-30.446
		c-1.9-1.901-4.428-2.948-7.116-2.948s-5.216,1.047-7.115,2.947L138.631,275.312z M149.773,275.485
		c0.389-0.39,0.907-0.604,1.458-0.604s1.069,0.214,1.459,0.604l30.446,30.447c0.39,0.39,0.604,0.908,0.604,1.458
		s-0.215,1.069-0.604,1.459l-5.483,5.483c-0.777,0.779-2.138,0.78-2.917,0l-30.446-30.446c-0.805-0.805-0.805-2.113-0.001-2.917
		L149.773,275.485z"/>
	<path d="M160.16,341.444l-42.981-42.981l-16.016,16.016l42.981,42.981L160.16,341.444z M117.178,309.776l31.667,31.668
		l-4.701,4.702l-31.667-31.668L117.178,309.776z"/>
	<path d="M97.334,274.643c29.438-5.884,41.355-18.915,44.78-23.593c0.011-0.011,0.023-0.02,0.034-0.031
		c4.032-4.032,4.032-10.593,0-14.625c-1.953-1.953-4.55-3.028-7.312-3.028c-2.763,0-5.359,1.075-7.313,3.029
		c-4.03,4.031-4.03,10.592,0.001,14.624c0.608,0.608,1.285,1.121,2.004,1.553c-6.028,4.856-16.791,11.013-34.86,14.445l-0.823-2.353
		c-0.729-2.085-3.011-3.187-5.096-2.456c-2.085,0.729-3.185,3.011-2.455,5.096l0.401,1.146
		c-35.069,6.833-45.751,21.388-46.207,22.031c0,0-1.804,2.443-2.313,3.847c-0.404,1.116-0.615,2.306-0.615,3.528
		c0,2.762,1.076,5.359,3.028,7.312c1.953,1.953,4.55,3.029,7.313,3.029s5.359-1.076,7.312-3.028c1.953-1.954,3.029-4.55,3.029-7.313
		s-1.076-5.359-3.028-7.312c-0.457-0.457-0.952-0.861-1.473-1.22c6.219-4.242,17.32-9.823,35.622-13.244l0.55,1.574
		c0.576,1.648,2.122,2.681,3.775,2.681c0.438,0,0.884-0.072,1.32-0.225c2.085-0.729,3.185-3.011,2.455-5.096L97.334,274.643z
		 M133.18,242.052c0.442-0.442,1.03-0.686,1.656-0.686c0.625,0,1.213,0.244,1.655,0.686c0.912,0.913,0.912,2.398,0,3.311
		c-0.885,0.886-2.428,0.884-3.311,0.001C132.268,244.45,132.268,242.965,133.18,242.052z M49.556,299.514
		c-0.883,0.884-2.425,0.884-3.31,0c-0.442-0.442-0.686-1.03-0.686-1.655s0.243-1.213,0.687-1.656
		c0.441-0.442,1.029-0.685,1.654-0.685s1.213,0.243,1.655,0.686c0.442,0.442,0.686,1.03,0.686,1.655S49.999,299.072,49.556,299.514z
		"/>
	<path d="M212.734,311.264c-2.763,0-5.359,1.075-7.313,3.028c-0.01,0.01-0.019,0.022-0.03,0.033
		c-4.677,3.424-17.712,15.339-23.595,44.781l-0.372-0.13c-2.091-0.731-4.367,0.371-5.097,2.456
		c-0.729,2.085,0.371,4.367,2.456,5.096l1.574,0.55c-3.421,18.302-9.002,29.403-13.244,35.622c-0.358-0.521-0.762-1.016-1.219-1.472
		c-1.953-1.954-4.55-3.03-7.313-3.03s-5.359,1.076-7.313,3.029c-4.03,4.032-4.03,10.592,0.001,14.624
		c1.953,1.953,4.55,3.029,7.313,3.029c1.667,0,3.274-0.392,4.715-1.132c0.945-0.485,2.66-1.796,2.66-1.796
		c0.643-0.455,15.198-11.138,22.031-46.206l1.146,0.401c0.438,0.153,0.883,0.225,1.32,0.225c1.653,0,3.199-1.032,3.776-2.681
		c0.729-2.085-0.371-4.367-2.456-5.096l-2.354-0.823c3.134-16.44,8.583-26.711,12.728-32.528c0.592-0.831,1.174-1.596,1.739-2.298
		c0.428,0.707,0.934,1.372,1.533,1.971c1.953,1.953,4.55,3.028,7.313,3.028c2.762,0,5.358-1.075,7.313-3.029
		c4.03-4.031,4.03-10.592-0.001-14.624C218.092,312.339,215.496,311.264,212.734,311.264z M160.237,410.195
		c-0.883,0.885-2.427,0.883-3.31,0c-0.913-0.913-0.913-2.398-0.001-3.311c0.442-0.442,1.03-0.686,1.656-0.686
		c0.625,0,1.213,0.243,1.655,0.686c0.442,0.442,0.686,1.03,0.686,1.655C160.923,409.164,160.68,409.752,160.237,410.195z
		 M214.389,323.26c-0.886,0.885-2.428,0.883-3.312,0c-0.442-0.442-0.686-1.03-0.686-1.655c0-0.465,0.135-0.908,0.386-1.287
		c0.115-0.075,0.178-0.112,0.18-0.113l-0.036-0.065c0.052-0.064,0.097-0.131,0.156-0.19c0.442-0.442,1.03-0.686,1.656-0.686
		c0.625,0,1.213,0.244,1.654,0.685C215.301,320.862,215.301,322.347,214.389,323.26z"/>
	<path d="M119.279,398.643c-2.763,0-5.359,1.076-7.312,3.028c-1.953,1.954-3.029,4.55-3.029,7.313c0,2.763,1.076,5.359,3.028,7.312
		c1.953,1.954,4.55,3.03,7.313,3.03s5.359-1.076,7.312-3.029c1.953-1.953,3.029-4.55,3.029-7.313c0-2.762-1.076-5.359-3.028-7.312
		C124.638,399.718,122.041,398.643,119.279,398.643z M120.933,410.64c-0.883,0.884-2.425,0.885-3.31-0.001
		c-0.442-0.442-0.686-1.03-0.686-1.655c0-0.625,0.243-1.213,0.687-1.656c0.441-0.442,1.029-0.685,1.654-0.685
		s1.213,0.243,1.655,0.686c0.442,0.442,0.686,1.03,0.686,1.655C121.62,409.609,121.376,410.197,120.933,410.64z"/>
	<path d="M152.395,386.208c0-2.762-1.076-5.359-3.029-7.313c-1.953-1.953-4.55-3.028-7.312-3.028c-2.763,0-5.359,1.075-7.313,3.029
		c-4.03,4.031-4.03,10.592,0.001,14.624c1.953,1.953,4.55,3.028,7.313,3.028c2.762,0,5.358-1.075,7.312-3.028
		C151.319,391.567,152.395,388.971,152.395,386.208z M143.709,387.864c-0.885,0.885-2.428,0.882-3.311,0.001
		c-0.913-0.914-0.913-2.399-0.001-3.312c0.442-0.442,1.03-0.686,1.656-0.686c0.625,0,1.213,0.244,1.655,0.686
		s0.686,1.03,0.686,1.655S144.152,387.422,143.709,387.864z"/>
</g>
<g>
</g>
<g>
</g>
<g>
</g>
<g>
</g>
<g>
</g>
<g>
</g>
<g>
</g>
<g>
</g>
<g>
</g>
<g>
</g>
<g>
</g>
<g>
</g>
<g>
</g>
<g>
</g>
<g>
</g>
</svg>
