<?xml version="1.0" encoding="iso-8859-1"?>
<!-- Generator: Adobe Illustrator 18.0.0, SVG Export Plug-In . SVG Version: 6.00 Build 0)  -->
<!DOCTYPE svg PUBLIC "-//W3C//DTD SVG 1.1//EN" "http://www.w3.org/Graphics/SVG/1.1/DTD/svg11.dtd">
<svg version="1.1" id="Capa_1" xmlns="http://www.w3.org/2000/svg" xmlns:xlink="http://www.w3.org/1999/xlink" x="0px" y="0px"
	 viewBox="0 0 474.843 474.843" style="enable-background:new 0 0 474.843 474.843;" xml:space="preserve">
<g>
	<path d="M16.477,285.634h441.89v-51.938H16.477V285.634z M24.477,263.665h21.658v13.969H24.477V263.665z M116.564,263.665h23.214
		v13.969h-23.214V263.665z M108.564,277.634H85.349v-13.969h23.214V277.634z M147.778,263.665h23.214v13.969h-23.214V263.665z
		 M178.993,263.665h23.214v13.969h-23.214V263.665z M210.207,263.665h23.214v13.969h-23.214V263.665z M241.422,263.665h23.214
		v13.969h-23.214V263.665z M272.636,263.665h23.214v13.969h-23.214V263.665z M303.851,263.665h23.214v13.969h-23.214V263.665z
		 M335.065,263.665h23.214v13.969h-23.214V263.665z M366.28,263.665h23.214v13.969H366.28V263.665z M397.494,263.665h23.214v13.969
		h-23.214V263.665z M397.494,255.665v-13.969h23.214v13.969H397.494z M389.494,255.665H366.28v-13.969h23.214V255.665z
		 M358.28,255.665h-23.214v-13.969h23.214V255.665z M327.065,255.665h-23.214v-13.969h23.214V255.665z M295.851,255.665h-23.214
		v-13.969h23.214V255.665z M264.636,255.665h-23.214v-13.969h23.214V255.665z M233.422,255.665h-23.214v-13.969h23.214V255.665z
		 M202.207,255.665h-23.214v-13.969h23.214V255.665z M170.993,255.665h-23.214v-13.969h23.214V255.665z M139.778,255.665h-23.214
		v-13.969h23.214V255.665z M108.564,255.665H85.349v-13.969h23.214V255.665z M77.349,255.665H54.135v-13.969h23.214V255.665z
		 M77.349,263.665v13.969H54.135v-13.969H77.349z M428.708,277.634v-13.969h21.658v13.969H428.708z M450.367,255.665h-21.658
		v-13.969h21.658V255.665z M46.135,241.697v13.969H24.477v-13.969H46.135z"/>
	<path d="M473.874,218.636c-0.019-0.028-50.195-56.105-50.195-56.105c-0.759-0.848-1.843-1.332-2.98-1.332h-28.243l-8.919-10.651
		c-0.76-0.907-1.883-1.432-3.067-1.432H94.374c-1.184,0-2.307,0.524-3.067,1.432l-8.919,10.651H51.233
		c-1.179,0-2.298,0.521-3.058,1.422c0,0-47.262,56.076-47.279,56.104C0.344,219.41,0,220.27,0,221.219v76.893c0,2.209,1.791,4,4,4
		h37.23l12.422,21.609c0.713,1.241,2.036,2.007,3.468,2.007h360.604c1.432,0,2.754-0.766,3.468-2.007l12.422-21.609h37.23
		c2.209,0,4-1.791,4-4v-76.893C474.843,220.229,474.47,219.334,473.874,218.636z M418.911,169.198l42.984,48.021h-28.282
		c0,0-12.666-21.982-12.806-22.153c-0.007-0.009-21.653-25.868-21.653-25.868H418.911z M424.386,217.219H50.457l8.977-15.616
		h355.975L424.386,217.219z M96.241,157.115h282.36l30.555,36.487H65.687L96.241,157.115z M53.093,169.198h22.595
		c0,0-21.805,26.067-21.863,26.152c-0.048,0.07-12.595,21.869-12.595,21.869H12.604L53.093,169.198z M415.409,317.728H59.434
		l-8.977-15.616h373.929L415.409,317.728z M466.843,294.112H8v-68.893h458.843V294.112z"/>
</g>
<g>
</g>
<g>
</g>
<g>
</g>
<g>
</g>
<g>
</g>
<g>
</g>
<g>
</g>
<g>
</g>
<g>
</g>
<g>
</g>
<g>
</g>
<g>
</g>
<g>
</g>
<g>
</g>
<g>
</g>
</svg>
