<?xml version="1.0" encoding="iso-8859-1"?>
<!-- Generator: Adobe Illustrator 18.0.0, SVG Export Plug-In . SVG Version: 6.00 Build 0)  -->
<!DOCTYPE svg PUBLIC "-//W3C//DTD SVG 1.1//EN" "http://www.w3.org/Graphics/SVG/1.1/DTD/svg11.dtd">
<svg version="1.1" id="Capa_1" xmlns="http://www.w3.org/2000/svg" xmlns:xlink="http://www.w3.org/1999/xlink" x="0px" y="0px"
	 viewBox="0 0 477.465 477.465" style="enable-background:new 0 0 477.465 477.465;" xml:space="preserve">
<path d="M355.339,90.575c-14.229-7.583-32.153-3.505-41.702,9.48l-18.805,25.57c-2.183,2.969-5.514,4.594-9.232,4.457
	c-3.684-0.138-6.918-2.008-8.874-5.133L231.913,53.38c-17.519-27.978-48.96-44.594-81.656-43.707
	c-4.089,0.111-8.158,0.631-12.172,1.415v0C135.602,4.548,129.314,0,122.031,0c-1.36,0-2.727,0.164-4.061,0.486
	c-8.415,2.033-14.03,10.053-13.062,18.657l46.166,409.875l-18.506,0.028c-1.061,0.001-2.078,0.424-2.827,1.176
	s-1.169,1.77-1.167,2.83l0.062,40.42c0.003,2.208,1.794,3.994,4,3.994c0.002,0,0.004,0,0.006,0l107.27-0.161
	c2.209-0.003,3.997-1.797,3.994-4.006l-0.021-14.137l9.819-0.015c2.089-0.003,3.952-1.532,4.149-3.611
	c0.226-2.385-1.645-4.389-3.982-4.389c-0.002,0-0.004,0-0.006,0l-9.992,0.015l-0.006-4.034l1.356-3.385l10.529-0.016
	c2.089-0.003,3.952-1.532,4.149-3.611c0.226-2.385-1.645-4.389-3.982-4.389c-0.002,0-0.004,0-0.006,0l-7.483,0.011l121.875-304.163
	C376.522,116.06,370.087,98.434,355.339,90.575z M119.849,8.262C120.569,8.088,121.302,8,122.031,8c4.688,0,8.615,3.523,9.136,8.195
	l47.435,425.218l-5.239,0.008c-7.319,0-13.458-5.485-14.277-12.759L112.858,18.247C112.339,13.643,115.345,9.35,119.849,8.262z
	 M149.325,85.789c0.583-1.7,1.345-3.319,2.265-4.832l38.647,341.997l-4.647,8.939L148.28,96.616
	C147.875,92.974,148.135,89.256,149.325,85.789z M339.932,135.007l-1.47-13.004c0.358-0.144,0.73-0.256,1.127-0.298
	c0.704-0.073,1.414,0.032,2.057,0.307c1.076,0.46,1.887,1.32,2.281,2.422c0.396,1.101,0.316,2.279-0.22,3.313L339.932,135.007z
	 M331.502,131.652l1.817,16.076l-5.313,10.221l-1.979-17.508L331.502,131.652z M318.974,151.762l0.239-0.383l2.18,19.29
	l-5.305,10.204l-2.492-22.051C315.582,156.669,317.386,154.311,318.974,151.762z M306.27,165.235l3.205,28.359l-5.313,10.22
	l-3.949-34.948C302.321,167.813,304.343,166.599,306.27,165.235z M292.502,171.883l5.046,44.652l-5.313,10.221l-6.044-53.487
	C288.339,172.953,290.445,172.485,292.502,171.883z M278.194,173.75l7.427,65.726l-5.304,10.203l-8.649-76.535
	C273.808,173.494,275.987,173.699,278.194,173.75z M263.374,170.988l10.33,91.412l-5.313,10.22l-11.835-104.728
	C258.737,169.108,261.018,170.136,263.374,170.988z M247.79,161.565l13.988,123.776l-5.313,10.22l-16.133-142.762
	C242.485,156.061,244.991,158.997,247.79,161.565z M230.573,137.688l19.278,170.594l-5.305,10.204l-21.804-192.95L230.573,137.688z
	 M212.979,110.389l24.954,220.819l-5.313,10.22L205.137,98.22L212.979,110.389z M195.374,83.072l30.632,271.076l-5.313,10.221
	L187.9,74.173c2.232,1.714,4.196,3.813,5.774,6.261L195.374,83.072z M179.371,69.938L214.08,377.09l-5.305,10.204L172.813,69.051
	C175.064,69.053,177.263,69.363,179.371,69.938z M164.909,70.347l37.253,329.667l-5.313,10.219L158.784,73.385
	C160.652,72.107,162.706,71.08,164.909,70.347z M153.345,437.014c3.684,7.409,11.306,12.407,20.016,12.407c0.002,0,0.031,0,0.033,0
	l5.677-0.009v7.546l-42.46,0.064l-0.031-19.983L153.345,437.014z M136.63,469.459l-0.007-4.437l99.27-0.149l0.007,4.437
	L136.63,469.459z M362.88,128.598L236.153,444.87c-0.19,0.475-0.288,0.982-0.287,1.494l0.016,10.51l-48.81,0.073v-10.562
	l163.735-314.953c1.552-2.991,1.789-6.526,0.651-9.699c-1.139-3.173-3.569-5.753-6.667-7.077c-1.892-0.81-3.978-1.126-6.038-0.907
	c-3.764,0.396-7.063,2.46-9.049,5.659l-17.521,28.125c-7.057,11.326-19.234,18.149-32.575,18.251
	c-13.364,0.087-25.621-6.534-32.851-17.75L200.399,76.1c-6.077-9.425-16.395-15.049-27.609-15.049c-0.012,0-0.023,0-0.035,0
	c-1.142,0.002-2.291,0.063-3.416,0.182c-9.862,1.037-18.276,6.345-23.539,13.97l-6.274-56.243l0,0
	c3.637-0.723,7.325-1.194,11.031-1.29c29.86-0.779,58.573,14.4,74.576,39.957l44.813,71.568c3.336,5.327,9.077,8.647,15.357,8.882
	c6.28,0.23,12.252-2.648,15.976-7.711l18.805-25.57c7.211-9.806,20.748-12.886,31.494-7.159
	C362.714,103.57,367.574,116.882,362.88,128.598z"/>
<g>
</g>
<g>
</g>
<g>
</g>
<g>
</g>
<g>
</g>
<g>
</g>
<g>
</g>
<g>
</g>
<g>
</g>
<g>
</g>
<g>
</g>
<g>
</g>
<g>
</g>
<g>
</g>
<g>
</g>
</svg>
