<?xml version="1.0" encoding="iso-8859-1"?>
<!-- Generator: Adobe Illustrator 16.0.0, SVG Export Plug-In . SVG Version: 6.00 Build 0)  -->
<!DOCTYPE svg PUBLIC "-//W3C//DTD SVG 1.1//EN" "http://www.w3.org/Graphics/SVG/1.1/DTD/svg11.dtd">
<svg version="1.1" id="Layer_1" xmlns="http://www.w3.org/2000/svg" xmlns:xlink="http://www.w3.org/1999/xlink" x="0px" y="0px"
	 width="792px" height="792px" viewBox="0 0 792 792" style="enable-background:new 0 0 792 792;" xml:space="preserve">
<path d="M196.049,444.491l46.174,46.174l23.861-23.861l-46.174-46.175L196.049,444.491z M251.211,466.805l-8.986,8.986
	l-31.299-31.299l8.986-8.987L251.211,466.805z M225.892,509.036l-48.219-48.219l7.438-7.438l48.219,48.22L225.892,509.036z
	 M224.889,544.653c-0.544,0-1.095,0.03-1.638,0.092c-7.926,0.896-13.647,8.076-12.75,16.006c0.83,7.322,7.005,12.844,14.368,12.844
	c0.544,0,1.095-0.03,1.638-0.092c3.841-0.436,7.281-2.339,9.69-5.362s3.496-6.804,3.061-10.643
	C238.429,550.175,232.253,544.653,224.889,544.653z M227.973,561.587c-0.658,0.826-1.598,1.347-2.648,1.465
	c-0.154,0.019-0.305,0.026-0.455,0.026c-2.006,0-3.69-1.508-3.917-3.508c-0.246-2.167,1.317-4.127,3.481-4.373
	c0.154-0.019,0.305-0.026,0.456-0.026c2.006,0,3.689,1.508,3.918,3.511C228.928,559.729,228.63,560.762,227.973,561.587z
	 M699.139,28.183l-6.167-3.159c-12.44-6.373-24.241-14.083-35.075-22.915C656.229,0.748,654.127,0,651.978,0
	c-3.009,0-5.854,1.457-7.611,3.897c-2.521,3.505-5.146,6.921-7.853,10.263l-5.779-5.778c-2.052-2.054-5.385-2.054-7.436,0
	c-2.055,2.055-2.055,5.384,0,7.438l6.384,6.384c-6.033,6.77-12.473,13.154-19.284,19.143l-6.315-6.315
	c-2.052-2.054-5.385-2.054-7.436,0c-2.056,2.055-2.056,5.384,0,7.438l5.662,5.663c-4.011,3.206-8.136,6.288-12.378,9.227
	c-1.351,0.935-2.186,2.448-2.259,4.089l-0.46,10.381l-240.73,234.283c-12.64,12.642-31.194,17.701-48.429,13.207
	c-25.566-6.67-50.649-0.83-67.101,15.622c-6.766,6.766-13.413,14.469-19.756,22.896l-2.288,3.04l2.172,3.123
	c0.772,1.112,1.423,2.308,1.926,3.538c2.222,5.488,1.671,11.786-1.551,17.733c-3.407,6.286-9.32,11.382-16.655,14.354
	c-10.645,4.32-22.331,3.2-29.774-2.852l-2.851-2.316l-3.155,1.877c-22.563,13.42-41.347,26.745-50.246,35.645
	c-15.032,15.034-21.358,36.828-17.814,61.368c3.464,23.975,16.001,47.806,35.301,67.106c19.299,19.299,43.132,31.835,67.105,35.3
	c4.457,0.644,8.818,0.961,13.068,0.961c19.159,0,35.994-6.472,48.295-18.774c8.902-8.901,22.227-27.686,35.646-50.248l1.877-3.156
	l-2.316-2.85c-6.051-7.444-7.171-19.13-2.851-29.775c2.969-7.332,8.066-13.246,14.352-16.652c5.947-3.224,12.244-3.776,17.747-1.545
	c1.171,0.471,2.356,1.111,3.523,1.905l3.102,2.108l3.003-2.245c8.51-6.361,16.234-12.995,22.957-19.721
	c16.453-16.452,22.293-41.538,15.622-67.101c-4.542-17.413,0.447-36.042,13.02-48.614L614.698,99.315l10.382-0.46
	c1.642-0.072,3.153-0.909,4.09-2.259c2.911-4.201,5.982-8.27,9.156-12.246l5.208,5.208c1.025,1.027,2.373,1.54,3.718,1.54
	s2.692-0.514,3.718-1.54c2.056-2.055,2.056-5.384,0-7.438l-5.881-5.881c5.983-6.814,12.364-13.261,19.127-19.299l5.968,5.968
	c1.025,1.027,2.373,1.54,3.719,1.54c1.345,0,2.692-0.514,3.718-1.54c2.055-2.055,2.055-5.384,0-7.438l-5.35-5.35
	c1.812-1.47,3.629-2.935,5.489-4.351c2.647-2.015,5.573-3.501,8.695-4.415l11.764-3.445c2.065-0.605,3.555-2.409,3.757-4.552
	C702.178,31.216,701.055,29.164,699.139,28.183z M133.699,553.017c-2.259-2.261-4.409-4.577-6.445-6.943l37.11-48.975l25.251,25.251
	l-48.975,37.111C138.268,557.415,135.95,555.267,133.699,553.017z M344.336,448.324c-5.634,5.634-12.027,11.215-19.039,16.624
	c-0.722-0.366-1.447-0.696-2.172-0.987c-8.454-3.425-17.935-2.695-26.695,2.051c-8.428,4.566-15.207,12.363-19.09,21.949
	c-5.199,12.814-4.257,27.021,2.238,37.296c-12.229,20.259-24.462,37.428-32.283,45.247c-12.629,12.63-31.249,17.903-52.423,14.84
	c-15.746-2.274-31.475-8.943-45.683-19.163l47.935-36.322l4.286,4.286l7.436-7.438l-48.838-48.838l-7.437,7.438l4.286,4.286
	l-36.317,47.925c-24.461-34.074-27.217-75.208-4.33-98.097c7.817-7.817,24.987-20.052,45.246-32.28
	c10.273,6.495,24.482,7.434,37.293,2.236c9.59-3.882,17.387-10.661,21.953-19.089c4.747-8.762,5.476-18.242,2.044-26.709
	c-0.305-0.748-0.643-1.484-1.012-2.206c5.395-6.946,10.985-13.323,16.653-18.99c13.782-13.784,35.093-18.601,57.009-12.883
	c8.668,2.262,17.606,2.496,26.194,0.93l-27.196,26.477l-5.38-5.38l-23.862,23.861l46.174,46.175l23.861-23.861l-5.565-5.565
	l26.621-27.345c-1.573,8.675-1.324,17.729,0.972,26.528C362.937,413.229,358.121,434.539,344.336,448.324z M320.316,397.698
	l-8.986,8.986l-31.299-31.299l8.986-8.986L320.316,397.698z M322.188,384.694l-20.351-20.353L592.326,81.534l12.669,12.67
	L322.188,384.694z M671.387,37.4c-18.954,14.427-35.552,31.597-49.36,51.063l-7.563,0.335l-16.732-16.733l0.336-7.563
	c20.881-14.812,39.077-32.79,54.124-53.478c9.547,7.691,19.794,14.558,30.541,20.469C678.66,32.784,674.847,34.768,671.387,37.4z"/>
<g>
</g>
<g>
</g>
<g>
</g>
<g>
</g>
<g>
</g>
<g>
</g>
<g>
</g>
<g>
</g>
<g>
</g>
<g>
</g>
<g>
</g>
<g>
</g>
<g>
</g>
<g>
</g>
<g>
</g>
</svg>
