<?xml version="1.0" encoding="iso-8859-1"?>
<!-- Generator: Adobe Illustrator 18.0.0, SVG Export Plug-In . SVG Version: 6.00 Build 0)  -->
<!DOCTYPE svg PUBLIC "-//W3C//DTD SVG 1.1//EN" "http://www.w3.org/Graphics/SVG/1.1/DTD/svg11.dtd">
<svg version="1.1" id="Capa_1" xmlns="http://www.w3.org/2000/svg" xmlns:xlink="http://www.w3.org/1999/xlink" x="0px" y="0px"
	 viewBox="0 0 444.651 444.651" style="enable-background:new 0 0 444.651 444.651;" xml:space="preserve">
<path d="M437.42,163.27c-11.632-20.893-35.75-32.875-66.167-32.875c-22.519,0-46.069,6.485-68.105,18.754
	c-33.545,18.678-66.596,52.34-82.244,83.763c-9.877,19.835-24.583,36.397-42.525,47.897c-13.191,8.455-26.91,16.144-41.02,23.013
	c0.741-1.61,1.478-3.227,2.234-4.81c5.588-11.723,11.84-23.305,18.583-34.423c10.687-17.624,26.341-32.236,45.271-42.258
	c17.087-9.044,35.297-23.955,51.273-41.988c11.301-12.756,20.931-26.472,27.849-39.665c7.144-13.626,12.063-27.804,14.62-42.141
	l0.243-1.401l-0.006-0.012c6.487-38.899-5.916-72.642-31.8-86.215c-26.189-13.733-61.531-4.376-90.032,23.839
	c-10.331,10.216-19.204,22.316-26.372,35.967c-6.946,13.249-12.758,28.974-16.806,45.469c-5.763,23.359-7.686,46.814-5.416,66.046
	c2.521,21.268-0.604,42.452-9.038,61.266c-10.661,23.807-23.777,46.613-38.984,67.788c-5.013,6.988-9.641,14.312-13.755,21.766
	c-1.408,2.547-2.789,5.187-4.202,8.019c-0.547,0.37-1.104,0.726-1.648,1.102L9.487,376.592c-9.333,6.439-12.211,18.767-6.695,28.673
	c3.862,6.938,11.196,11.248,19.139,11.248c3.027,0,5.974-0.617,8.761-1.836l0.07-0.031c-1.771,9.094,2.528,18.438,11.033,22.891
	c3.116,1.633,6.514,2.446,9.909,2.446c3.576,0,7.149-0.902,10.386-2.705c3.037-1.691,5.546-4.028,7.462-6.952l30.385-46.498
	c11.236-5.842,21.993-12.611,32.096-20.25c21.487-16.249,44.713-30.386,69.036-42.019c15.907-7.608,33.198-11.466,51.392-11.466
	c3.883,0,7.826,0.184,11.721,0.545c4.177,0.389,8.6,0.586,13.145,0.586c0.002,0,0.001,0,0.003,0
	c32.801,0,72.594-10.355,101.372-26.379c25.545-14.224,45.756-34.534,56.91-57.192C447.007,204.506,447.649,181.641,437.42,163.27z
	 M261.91,17.994c21.407,11.225,32.198,38.831,28.494,71.544c-13.873-12.843-30.422-24.447-48.288-33.82
	c-17.863-9.372-36.814-16.392-55.265-20.507C211.663,13.582,240.508,6.769,261.91,17.994z M156.305,74.432
	c6.444-12.271,14.344-23.185,23.472-32.511c19.421,3.732,39.641,10.924,58.622,20.882c18.987,9.962,36.402,22.516,50.512,36.378
	c-2.506,12.833-7.006,25.534-13.427,37.782c-6.053,11.544-14.307,23.535-23.989,34.888c-14.439-13.909-32.036-26.479-51.153-36.51
	c-19.121-10.031-39.459-17.363-59.096-21.329C145.067,99.636,150.23,86.021,156.305,74.432z M139.311,121.782
	c19.008,3.799,38.741,10.899,57.314,20.644c18.564,9.74,35.625,21.94,49.567,35.424c-14.719,16.062-31.116,29.276-46.488,37.411
	c-4.993,2.643-9.772,5.59-14.313,8.809c-7.579-5.208-15.641-10.067-24.015-14.459c-8.373-4.393-16.952-8.264-25.542-11.54
	c0.067-5.565-0.226-11.171-0.891-16.78C132.902,163.992,134.457,142.994,139.311,121.782z M85.476,315.948
	c15.52-21.609,28.906-44.887,39.786-69.183c5.663-12.633,9.088-26.255,10.191-40.26c7.468,2.952,14.917,6.364,22.207,10.188
	c7.291,3.825,14.318,8.027,20.994,12.496c-10.89,8.866-20.146,19.421-27.32,31.25c-6.88,11.347-13.261,23.165-18.961,35.126
	c-2.099,4.391-4.135,8.907-6.086,13.438c-6.591,2.965-13.257,5.757-19.987,8.356c-10.879,4.202-21.423,9.268-31.526,15.097
	C78.072,326.819,81.652,321.28,85.476,315.948z M62.858,425.946c-1.197,1.827-2.765,3.289-4.659,4.344
	c-3.947,2.196-8.692,2.258-12.692,0.161c-6.104-3.196-8.742-10.43-6.137-16.826l1.359-3.334l45.298-19.8L62.858,425.946z
	 M197.617,314.343c-24.806,11.863-48.496,26.282-70.41,42.854c-13.646,10.318-28.512,19.024-44.185,25.875l-55.535,24.274
	c-1.771,0.773-3.64,1.166-5.557,1.166c-5.042,0-9.698-2.735-12.149-7.14c-3.5-6.287-1.674-14.109,4.249-18.196l49.885-34.423
	c0.877-0.605,5.593-3.549,5.593-3.549l-0.073-0.133c12.513-8.081,25.854-14.882,39.747-20.248
	c25.633-9.901,50.366-22.444,73.513-37.28c12.075-7.739,22.766-17.617,31.659-29.151c4.826,6.824,9.372,14.043,13.543,21.534
	c4.169,7.488,7.909,15.152,11.168,22.846C224.546,304.241,210.652,308.109,197.617,314.343z M277.327,303.225
	c-4.299,0-8.473-0.186-12.405-0.551c-4.139-0.385-8.332-0.58-12.461-0.58c-1.664,0-3.318,0.042-4.968,0.102
	c-3.61-8.812-7.839-17.6-12.606-26.162c-4.765-8.559-10.006-16.78-15.593-24.486c3.225-4.79,6.158-9.823,8.771-15.07
	c8.153-16.372,21.722-33.781,37.585-49.068c14.314,14.057,27.386,31.394,37.95,50.366c10.563,18.972,18.421,39.225,22.841,58.815
	C309.811,300.834,292.764,303.225,277.327,303.225z M374.81,277.856c-12.023,6.695-26.045,12.359-40.645,16.626
	c-4.602-20.22-12.708-41.079-23.576-60.598c-10.868-19.519-24.324-37.387-39.08-51.931c11.273-10.138,23.453-19.089,35.53-25.814
	c12.419-6.915,25.66-11.937,38.798-14.841c14.701,14.23,28.133,31.913,38.922,51.29c10.799,19.395,18.762,40.147,23.114,60.155
	C398.56,262.311,387.385,270.855,374.81,277.856z M428.434,224.12c-3.662,7.439-8.402,14.607-14.029,21.371
	c-4.716-19.026-12.473-38.507-22.656-56.795c-10.178-18.279-22.646-35.126-36.328-49.151c5.354-0.759,10.653-1.149,15.832-1.149
	c27.43,0,48.999,10.485,59.178,28.768C439.344,183.17,438.635,203.399,428.434,224.12z"/>
<g>
</g>
<g>
</g>
<g>
</g>
<g>
</g>
<g>
</g>
<g>
</g>
<g>
</g>
<g>
</g>
<g>
</g>
<g>
</g>
<g>
</g>
<g>
</g>
<g>
</g>
<g>
</g>
<g>
</g>
</svg>
