<?xml version="1.0" encoding="iso-8859-1"?>
<!-- Generator: Adobe Illustrator 18.0.0, SVG Export Plug-In . SVG Version: 6.00 Build 0)  -->
<!DOCTYPE svg PUBLIC "-//W3C//DTD SVG 1.1//EN" "http://www.w3.org/Graphics/SVG/1.1/DTD/svg11.dtd">
<svg version="1.1" id="Capa_1" xmlns="http://www.w3.org/2000/svg" xmlns:xlink="http://www.w3.org/1999/xlink" x="0px" y="0px"
	 viewBox="0 0 424.772 424.772" style="enable-background:new 0 0 424.772 424.772;" xml:space="preserve">
<path d="M420.772,182.54c2.209,0,4-1.791,4-4s-1.791-4-4-4H283.469v-9.592c0-1.095-0.448-2.141-1.241-2.896
	c-0.792-0.756-1.862-1.161-2.953-1.1l-124,6c-2.131,0.103-3.807,1.861-3.807,3.995v3.592H85.516
	c3.814-4.263,6.658-9.186,8.433-14.499h326.824c2.209,0,4-1.791,4-4s-1.791-4-4-4H95.762c0.215-1.726,0.337-3.473,0.337-5.24
	c0-8.447-6.872-15.319-15.319-15.319c-8.447,0-15.319,6.872-15.319,15.319v5.24H4c-2.209,0-4,1.791-4,4v89.996c0,2.209,1.791,4,4,4
	h61.461v17.603c0,2.855-2.323,5.178-5.178,5.178s-5.178-2.322-5.178-5.178v-9.79c0-2.209-1.791-4-4-4s-4,1.791-4,4v9.79
	c0,7.267,5.912,13.178,13.178,13.178s13.178-5.911,13.178-13.178v-17.603h57.497c-0.018,0.892,0.144,1.747,0.523,2.531
	c2.123,4.388,9.97,4.982,17.528,1.326c2.229-1.078,4.173-2.409,5.767-3.857h24.836c-0.763,0.283-1.528,0.597-2.29,0.966
	c-7.557,3.656-11.963,10.177-9.84,14.565c2.123,4.388,9.97,4.982,17.528,1.326c5.356-2.591,9.114-6.619,10.102-10.309
	c0.226-0.5,0.358-1.052,0.358-1.637v-4.911h15.489c-0.018,0.892,0.144,1.747,0.523,2.531c2.123,4.388,9.97,4.982,17.528,1.326
	c2.229-1.078,4.173-2.409,5.767-3.857h109.693v39.254c0,2.209,1.791,4,4,4s4-1.791,4-4v-0.974l4.507-5.747
	c7.333-9.349,10.818-20.951,10.051-32.533h53.745c2.209,0,4-1.791,4-4s-1.791-4-4-4H365.8c-0.267-1.11-0.563-2.217-0.912-3.314
	c-0.67-2.106-2.922-3.272-5.024-2.599c-2.105,0.67-3.269,2.919-2.599,5.024c0.094,0.295,0.166,0.593,0.253,0.889h-5.048v-14.499
	h68.303c2.209,0,4-1.791,4-4s-1.791-4-4-4h-53.78c4.757-3.657,7.132-8.418,5.464-11.867c-0.55-1.136-1.489-2.012-2.702-2.632h51.018
	c2.209,0,4-1.791,4-4s-1.791-4-4-4H283.469V182.54H420.772z M275.469,174.54h-36v-3.592c0-0.02-0.006-0.039-0.006-0.059
	l36.006-1.742V174.54z M239.469,227.538h26.89c-0.346,0.149-0.692,0.298-1.038,0.465c-7.261,3.512-11.595,9.665-10.043,14.034
	H239.46C239.461,242.007,239.469,227.538,239.469,227.538z M239.469,219.538v-14.499h36v14.499H239.469z M231.469,219.538h-36
	v-14.499h36V219.538z M82.55,242.037c6.029-2.959,10.764-8.154,13.125-14.499h55.794v8.088c-3.041-0.098-6.622,0.671-10.147,2.377
	c-2.32,1.122-4.339,2.516-5.968,4.034H82.55z M77.396,205.039c6.7,0.754,11.926,6.449,11.926,13.347c0,0.389-0.03,0.77-0.054,1.152
	H73.461v-14.371c0.308-0.056,0.623-0.093,0.938-0.128H77.396z M92.632,205.039h58.837v14.499H97.295
	c0.017-0.382,0.028-0.766,0.028-1.152C97.323,213.34,95.56,208.705,92.632,205.039z M65.461,219.538H62.39
	c0.031-0.273,0.058-0.749,0.058-1.152c0-3.208,1.13-6.157,3.013-8.471V219.538z M65.461,227.538v8.41
	c-4.726-1.35-8.747-4.385-11.373-8.41H65.461z M73.461,227.538h13.394c-2.781,4.802-7.666,8.24-13.394,9.015V227.538z
	 M54.637,219.538h-3.58c-0.146-0.976-0.233-1.971-0.233-2.987c0-4.287,1.555-8.327,4.371-11.512h3.929
	c-2.924,3.665-4.675,8.305-4.675,13.347C54.448,218.789,54.525,219.171,54.637,219.538z M63.119,197.039l2.342-2.342v2.342H63.119z
	 M51.805,197.039H22.772V182.54h42.688v0.843L51.805,197.039z M14.772,197.039H8V182.54h6.772V197.039z M8,205.039h6.772v14.499H8
	V205.039z M22.772,205.039h22.8c-1.794,3.524-2.75,7.443-2.75,11.512c0,1.01,0.06,2.005,0.164,2.987H22.772V205.039z
	 M45.058,227.538c2.712,6.376,7.709,11.551,13.957,14.499H22.772v-14.499H45.058z M159.469,241.948v-14.41h28v14.499H159.46
	C159.461,242.007,159.469,241.979,159.469,241.948z M159.469,219.538v-14.499h28v14.499H159.469z M187.469,182.54v14.499h-28V182.54
	H187.469z M195.469,197.039V182.54h36v14.499H195.469z M195.469,174.54v-1.522l36-1.742v3.264H195.469z M187.469,173.405v1.135
	H164.01L187.469,173.405z M151.469,197.039H73.461v-10.342l4.157-4.157h73.851V197.039z M78.238,170.606l-3.934,3.934h-0.843
	v-14.499h11.937C83.731,163.937,81.324,167.52,78.238,170.606z M73.461,146.801c0-4.036,3.283-7.319,7.319-7.319
	s7.319,3.283,7.319,7.319c0,1.772-0.141,3.522-0.408,5.24h-14.23V146.801z M65.461,174.54H22.772v-14.499h42.688V174.54z
	 M14.772,160.041v14.499H8v-14.499H14.772z M8,227.538h6.772v14.499H8V227.538z M195.469,227.538h36v8.088
	c-3.041-0.098-6.622,0.671-10.147,2.377c-2.32,1.122-4.339,2.516-5.968,4.034h-19.885V227.538z M358.995,250.037
	c0.701,8.808-1.56,17.652-6.526,25.102v-25.102H358.995z M344.469,242.037h-68.25c3.628-2.456,6.117-5.555,6.893-8.452
	c0.226-0.5,0.358-1.052,0.358-1.637v-4.41h61V242.037z M358.193,205.039c-1.082,0.352-2.175,0.78-3.264,1.306
	c-5.356,2.591-9.115,6.62-10.103,10.31c-0.225,0.5-0.357,1.052-0.357,1.636v1.247h-61v-14.499H358.193z M275.469,197.039h-36V182.54
	h36V197.039z"/>
<g>
</g>
<g>
</g>
<g>
</g>
<g>
</g>
<g>
</g>
<g>
</g>
<g>
</g>
<g>
</g>
<g>
</g>
<g>
</g>
<g>
</g>
<g>
</g>
<g>
</g>
<g>
</g>
<g>
</g>
</svg>
