<?xml version="1.0" encoding="iso-8859-1"?>
<!-- Generator: Adobe Illustrator 18.0.0, SVG Export Plug-In . SVG Version: 6.00 Build 0)  -->
<!DOCTYPE svg PUBLIC "-//W3C//DTD SVG 1.1//EN" "http://www.w3.org/Graphics/SVG/1.1/DTD/svg11.dtd">
<svg version="1.1" id="Capa_1" xmlns="http://www.w3.org/2000/svg" xmlns:xlink="http://www.w3.org/1999/xlink" x="0px" y="0px"
	 viewBox="0 0 439 439" style="enable-background:new 0 0 439 439;" xml:space="preserve">
<g>
	<path d="M388.318,65.216c-0.01-1.027-0.407-2.035-1.163-2.79L325.902,1.172c-0.761-0.761-1.761-1.143-2.77-1.158
		C323.112,0.012,50.673,0,50.673,0v439h337.653C388.327,439,388.318,65.229,388.318,65.216z M332.178,18.762l42.491,42.492h-47.446
		C334.521,44.5,334.231,29.485,332.178,18.762z M380.327,431H58.673V8h261.885c2.939,6.725,10.689,29.253-3.241,55.371
		c-0.661,1.24-0.624,2.736,0.1,3.94c0.723,1.205,2.024,1.942,3.43,1.942h59.48V431z"/>
	<path d="M77.959,387.771h279.083v-8H85.959v-7.592h271.083v-8h-41.104v-7.592h41.104v-8h-41.104v-18.933h-69.253v18.933H85.959
		V315.38h44.9v7.138h8v-7.138h20.956v22.729h8V315.38h189.226v-8H173.839v-7.592h183.203v-8H144.883v-7.592h212.159v-8H77.959
		V387.771z M254.684,364.179v-7.592h17.16v7.592H254.684z M300.8,364.179h-14.934v-7.592H300.8V364.179z M307.937,337.654v10.933
		h-22.07v-10.933H307.937z M254.684,337.654h23.183v10.933h-23.183V337.654z M239.546,356.587v7.592H85.959v-7.592H239.546z
		 M85.959,307.38v-7.592h44.9v7.592H85.959z M159.815,307.38h-20.956v-7.592h20.956V307.38z M130.859,284.196v7.592h-44.9v-7.592
		H130.859z"/>
	<rect x="143.769" y="75.731" width="150.349" height="8"/>
	<rect x="171.611" y="59.026" width="94.664" height="8"/>
	<path d="M311.482,120.938h-8v7.137h-36.548v-16.047h-8v16.047h-78.868v-18.933h-39.183v18.933H77.959v111.573h279.083v-8H237.978
		v-7.591h119.063v-8h-15.489v-7.592h15.489v-8h-15.489v-11.592h-8v11.592h-95.574v-18.934h-39.183v18.934H85.959v-33.207h271.083v-8
		h-45.56v-7.592h45.56v-8h-45.56v-7.592h45.56v-8h-45.56V120.938z M252.911,136.075v7.592h-72.845v-7.592H252.911z M148.883,143.667
		v-7.592h23.183v7.592H148.883z M148.883,117.143h23.183v10.933h-23.183V117.143z M133.746,136.075v7.592H85.959v-7.592H133.746z
		 M223.955,231.648H85.959v-7.591h137.996V231.648z M206.795,216.058v-7.592h23.183v7.592H206.795z M327.529,208.466v7.592h-89.551
		v-7.592H327.529z M206.795,189.532h23.183v10.934h-23.183V189.532z M191.658,208.466v7.592H85.959v-7.592H191.658z M85.959,151.667
		h80.084v7.592H85.959V151.667z M297.458,159.259H180.066v-7.592h117.393V159.259z M303.482,143.667h-36.548v-7.592h36.548V143.667z
		"/>
</g>
<g>
</g>
<g>
</g>
<g>
</g>
<g>
</g>
<g>
</g>
<g>
</g>
<g>
</g>
<g>
</g>
<g>
</g>
<g>
</g>
<g>
</g>
<g>
</g>
<g>
</g>
<g>
</g>
<g>
</g>
</svg>
