<?xml version="1.0" encoding="iso-8859-1"?>
<!-- Generator: Adobe Illustrator 18.0.0, SVG Export Plug-In . SVG Version: 6.00 Build 0)  -->
<!DOCTYPE svg PUBLIC "-//W3C//DTD SVG 1.1//EN" "http://www.w3.org/Graphics/SVG/1.1/DTD/svg11.dtd">
<svg version="1.1" id="Capa_1" xmlns="http://www.w3.org/2000/svg" xmlns:xlink="http://www.w3.org/1999/xlink" x="0px" y="0px"
	 viewBox="0 0 444.478 444.478" style="enable-background:new 0 0 444.478 444.478;" xml:space="preserve">
<g>
	<path d="M0,84.115v276.247h23.572h397.333h23.572V84.115H0z M8,92.115h428.478V249.82h-15.572v-79.757H23.572v79.757H8V92.115z
		 M53.521,218.063v31.757H31.572v-71.757h17.381v40H53.521z M61.521,218.063h4.568v-40h12.813v40h4.568v31.757H61.521V218.063z
		 M91.47,218.063h4.568v-40h17.381v71.757H91.47V218.063z M121.418,178.063h17.381v40h4.568v31.757h-21.949V178.063z
		 M151.367,218.063h4.568v-40h12.813v40h4.568v31.757h-21.949V218.063z M181.316,218.063h4.568v-40h12.813v40h4.568v31.757h-21.949
		V218.063z M211.265,218.063h4.568v-40h17.38v71.757h-21.948V218.063z M241.213,178.063h17.381v40h4.568v31.757h-21.949V178.063z
		 M271.162,218.063h4.567v-40h12.813v40h4.567v31.757h-21.948V218.063z M301.11,218.063h4.568v-40h17.381v71.757H301.11V218.063z
		 M331.06,178.063h17.381v40h4.567v31.757H331.06V178.063z M361.008,218.063h4.568v-40h12.813v40h4.568v31.757h-21.949V218.063z
		 M390.957,218.063h4.567v-40h17.381v71.757h-21.948V218.063z M382.957,320.605v31.757h-21.949v-71.757h17.381v40H382.957z
		 M353.008,352.362H331.06v-31.757h4.567v-40h17.381V352.362z M323.06,320.605v31.757H301.11v-31.757h4.568v-40h12.813v40H323.06z
		 M293.11,320.605v31.757h-21.948v-31.757h4.567v-40h12.813v40H293.11z M263.162,320.605v31.757h-21.949v-71.757h17.381v40H263.162z
		 M233.213,352.362h-21.948v-31.757h4.568v-40h17.38V352.362z M203.265,320.605v31.757h-21.949v-31.757h4.568v-40h12.813v40H203.265
		z M173.316,320.605v31.757h-21.949v-71.757h17.381v40H173.316z M143.367,352.362h-21.949v-31.757h4.568v-40h17.381V352.362z
		 M113.418,320.605v31.757H91.47v-31.757h4.568v-40h12.813v40H113.418z M83.47,320.605v31.757H61.521v-31.757h4.568v-40h12.813v40
		H83.47z M53.521,320.605v31.757H31.572v-71.757h17.381v40H53.521z M390.957,352.362v-31.757h4.567v-40h17.381v71.757H390.957z
		 M23.572,272.605v79.757H8V257.82h428.478v94.542h-15.572v-79.757H23.572z"/>
	<path d="M420.905,100.69H23.572v57.702h397.333V100.69z M412.905,150.393H31.572V108.69h381.333V150.393z"/>
	<rect x="45.331" y="116.643" width="12.712" height="8"/>
	<rect x="45.331" y="134.439" width="12.712" height="8"/>
	<rect x="72.619" y="116.643" width="12.712" height="8"/>
	<rect x="72.619" y="134.439" width="12.712" height="8"/>
	<rect x="99.907" y="116.643" width="12.712" height="8"/>
	<rect x="99.907" y="134.439" width="12.712" height="8"/>
	<rect x="127.195" y="116.643" width="12.712" height="8"/>
	<rect x="127.195" y="134.439" width="12.712" height="8"/>
	<rect x="154.483" y="116.643" width="12.712" height="8"/>
	<rect x="154.483" y="134.439" width="12.712" height="8"/>
	<path d="M289.645,143.711c7.813,0,14.17-6.356,14.17-14.17c0-7.813-6.356-14.169-14.17-14.169c-7.813,0-14.169,6.356-14.169,14.169
		C275.476,137.354,281.832,143.711,289.645,143.711z M289.645,123.372c3.402,0,6.17,2.768,6.17,6.169c0,3.402-2.768,6.17-6.17,6.17
		c-3.401,0-6.169-2.768-6.169-6.17C283.476,126.14,286.243,123.372,289.645,123.372z"/>
	<path d="M337.529,143.711c7.813,0,14.169-6.356,14.169-14.17c0-7.813-6.356-14.169-14.169-14.169
		c-7.813,0-14.17,6.356-14.17,14.169C323.359,137.354,329.716,143.711,337.529,143.711z M337.529,123.372
		c3.401,0,6.169,2.768,6.169,6.169c0,3.402-2.768,6.17-6.169,6.17c-3.402,0-6.17-2.768-6.17-6.17
		C331.359,126.14,334.127,123.372,337.529,123.372z"/>
	<path d="M385.413,143.711c7.813,0,14.169-6.356,14.169-14.17c0-7.813-6.356-14.169-14.169-14.169
		c-7.813,0-14.17,6.356-14.17,14.169C371.243,137.354,377.6,143.711,385.413,143.711z M385.413,123.372
		c3.401,0,6.169,2.768,6.169,6.169c0,3.402-2.768,6.17-6.169,6.17c-3.402,0-6.17-2.768-6.17-6.17
		C379.243,126.14,382.011,123.372,385.413,123.372z"/>
	<path d="M260.679,116.643h-76.879v25.797h76.879V116.643z M252.679,134.439h-60.879v-9.797h60.879V134.439z"/>
</g>
<g>
</g>
<g>
</g>
<g>
</g>
<g>
</g>
<g>
</g>
<g>
</g>
<g>
</g>
<g>
</g>
<g>
</g>
<g>
</g>
<g>
</g>
<g>
</g>
<g>
</g>
<g>
</g>
<g>
</g>
</svg>
