<?xml version="1.0" encoding="iso-8859-1"?>
<!-- Generator: Adobe Illustrator 18.0.0, SVG Export Plug-In . SVG Version: 6.00 Build 0)  -->
<!DOCTYPE svg PUBLIC "-//W3C//DTD SVG 1.1//EN" "http://www.w3.org/Graphics/SVG/1.1/DTD/svg11.dtd">
<svg version="1.1" id="Capa_1" xmlns="http://www.w3.org/2000/svg" xmlns:xlink="http://www.w3.org/1999/xlink" x="0px" y="0px"
	 viewBox="0 0 448.164 448.164" style="enable-background:new 0 0 448.164 448.164;" xml:space="preserve">
<path d="M346.169,26.726c-2.353-7.879-14.917-14.318-37.452-19.168C286.066,2.685,256.01,0,224.083,0S162.1,2.685,139.449,7.559
	c-22.534,4.849-35.098,11.288-37.452,19.167c-9.567,4.476-14.415,9.7-14.415,15.546c0,0.846,0.565,16.777,1.021,23.846
	c3.131,48.506,16.569,94.133,38.628,129.008c12.321,19.479,26.634,34.754,42.235,45.398l-16.448,187.328
	c-0.144,1.628,0.719,3.179,2.176,3.918c21.568,10.93,45.229,16.395,68.889,16.395s47.32-5.465,68.889-16.395
	c1.457-0.739,2.319-2.29,2.176-3.918l-16.448-187.325c15.603-10.644,29.916-25.92,42.237-45.4
	c22.057-34.873,35.494-80.5,38.624-129.008c0.456-7.068,1.022-23,1.022-23.847C360.582,36.426,355.735,31.203,346.169,26.726z
	 M141.133,15.379C163.246,10.621,192.705,8,224.083,8s60.837,2.621,82.951,7.379c24.955,5.371,31.549,11.585,31.549,14.121
	s-6.594,8.751-31.549,14.121C284.921,48.38,255.462,51,224.083,51c-31.378,0-60.837-2.62-82.95-7.379
	c-24.956-5.37-31.55-11.585-31.55-14.121S116.177,20.75,141.133,15.379z M285.269,406.819
	c-19.062,8.909-40.152,13.617-61.187,13.617s-42.125-4.709-61.187-13.617l11.669-132.9c15.687,6.868,32.6,10.315,49.518,10.315
	c16.917,0,33.831-3.447,49.518-10.316L285.269,406.819z M161.226,425.829l0.927-10.558c19.414,8.619,40.698,13.165,61.929,13.165
	s42.516-4.546,61.929-13.165l0.927,10.558C247.38,444.944,200.784,444.944,161.226,425.829z M272.859,265.477
	c-30.712,14.338-66.843,14.338-97.554,0l1.772-20.184c14.839,8.478,30.69,12.908,47.005,12.908c16.315,0,32.167-4.429,47.005-12.906
	L272.859,265.477z M224.082,250.201c-68.738,0-125.005-86.969-128.053-195.711c22.249,14.666,83.836,20.291,128.053,20.291
	c44.217,0,105.802-5.625,128.052-20.291C349.086,163.232,292.818,250.201,224.082,250.201z M316.933,58.522
	c-24.755,5.325-57.729,8.259-92.851,8.259s-68.096-2.934-92.851-8.259c-28.142-6.055-35.649-13.063-35.649-16.251
	c0-1.657,2.104-4.306,7.688-7.248c4.212,6.638,16.325,12.146,36.18,16.419C162.1,56.315,192.156,59,224.083,59
	c31.928,0,61.984-2.685,84.634-7.558c19.854-4.273,31.967-9.779,36.179-16.418c5.582,2.942,7.686,5.59,7.686,7.247
	C352.582,45.459,345.074,52.468,316.933,58.522z"/>
<g>
</g>
<g>
</g>
<g>
</g>
<g>
</g>
<g>
</g>
<g>
</g>
<g>
</g>
<g>
</g>
<g>
</g>
<g>
</g>
<g>
</g>
<g>
</g>
<g>
</g>
<g>
</g>
<g>
</g>
</svg>
