<?xml version="1.0" encoding="iso-8859-1"?>
<!-- Generator: Adobe Illustrator 18.0.0, SVG Export Plug-In . SVG Version: 6.00 Build 0)  -->
<!DOCTYPE svg PUBLIC "-//W3C//DTD SVG 1.1//EN" "http://www.w3.org/Graphics/SVG/1.1/DTD/svg11.dtd">
<svg version="1.1" id="Capa_1" xmlns="http://www.w3.org/2000/svg" xmlns:xlink="http://www.w3.org/1999/xlink" x="0px" y="0px"
	 viewBox="0 0 474.096 474.096" style="enable-background:new 0 0 474.096 474.096;" xml:space="preserve">
<path d="M429.606,265.519c-0.326,0-0.647,0.018-0.971,0.025c-4.885-21.054-13.224-41.111-24.765-59.479
	c0.265-0.253,0.536-0.498,0.796-0.758c17.347-17.346,17.347-45.57,0-62.916c-8.403-8.403-19.575-13.031-31.458-13.031
	c-11.884,0-23.056,4.628-31.459,13.031c-0.264,0.264-0.513,0.539-0.77,0.808c-18.357-11.526-38.403-19.876-59.467-24.751
	c0.007-0.333,0.025-0.664,0.025-0.999c0-24.531-19.958-44.489-44.489-44.489s-44.489,19.958-44.489,44.489
	c0,0.332,0.018,0.66,0.025,0.99c-21.106,4.863-41.182,13.182-59.543,24.68c-0.232-0.243-0.456-0.491-0.694-0.729
	c-8.403-8.403-19.575-13.031-31.458-13.031c-11.884,0-23.056,4.628-31.459,13.031c-17.347,17.346-17.347,45.57,0,62.916
	c0.243,0.243,0.495,0.471,0.742,0.707c-11.486,18.357-19.799,38.427-24.654,59.531c-0.343-0.008-0.684-0.026-1.029-0.026
	C19.958,265.519,0,285.477,0,310.008s19.958,44.489,44.489,44.489c0.352,0,0.699-0.019,1.049-0.027
	c2.969,12.834,7.229,25.361,12.796,37.492c2.346,5.108,7.088,8.504,12.686,9.083c5.62,0.587,10.979-1.782,14.338-6.322
	c9.049-12.232,19.55-23.315,31.217-33.019c1.898,1.146,4.089,1.795,6.354,1.795c2.639,0,5.157-0.829,7.284-2.397
	c31.119-22.948,68.081-35.078,106.889-35.078c38.809,0,75.77,12.13,106.888,35.077c2.127,1.569,4.646,2.399,7.285,2.399h0.002
	c2.264-0.001,4.455-0.65,6.352-1.796c11.667,9.704,22.168,20.787,31.218,33.021c3.026,4.086,7.672,6.409,12.669,6.409
	c0.556,0,1.116-0.029,1.68-0.088c5.586-0.578,10.319-3.966,12.663-9.063c5.571-12.125,9.837-24.659,12.81-37.511
	c0.313,0.007,0.625,0.024,0.939,0.024c24.531,0,44.489-19.958,44.489-44.489S454.138,265.519,429.606,265.519z M425.713,311.377
	c-0.042,5.793-0.358,11.538-0.912,17.234c-8.284-2.143-14.43-9.659-14.43-18.603c0-8.943,6.143-16.458,14.425-18.602
	C425.444,298,425.76,304.663,425.713,311.377z M402.371,310.008c0,13.046,9.223,23.974,21.49,26.62
	c-0.431,3.064-0.938,6.111-1.519,9.141c-16.652-3.377-29.225-18.128-29.225-35.761c0-17.625,12.562-32.371,29.202-35.757
	c0.583,3.028,1.093,6.075,1.527,9.14C411.587,286.043,402.371,296.967,402.371,310.008z M432.804,291.061
	c9.087,1.53,16.038,9.432,16.038,18.947c0,9.514-6.95,17.416-16.036,18.947c0.551-5.792,0.864-11.632,0.907-17.52
	C433.761,304.587,433.449,297.79,432.804,291.061z M342.672,153.862c2.548,1.737,5.058,3.539,7.53,5.407
	c-2.75,4.32-4.23,9.335-4.23,14.58c0,7.274,2.833,14.114,7.978,19.258c5.144,5.145,11.983,7.978,19.258,7.978
	c5.243,0,10.256-1.479,14.574-4.226c1.869,2.471,3.672,4.981,5.409,7.529c-5.888,3.87-12.774,5.951-19.983,5.951
	c-9.747,0-18.91-3.796-25.803-10.688c-6.892-6.892-10.687-16.055-10.687-25.802C336.719,166.638,338.801,159.75,342.672,153.862z
	 M388.735,185.17c-3.818-4.614-7.853-9.089-12.123-13.399c-4.715-4.759-9.628-9.245-14.717-13.457
	c3.269-2.39,7.186-3.701,11.312-3.701c5.139,0,9.969,2.001,13.602,5.634s5.634,8.463,5.634,13.602
	C392.442,177.979,391.13,181.899,388.735,185.17z M370.929,177.402c4.178,4.217,8.124,8.598,11.851,13.118
	c-2.883,1.662-6.155,2.564-9.573,2.564c-5.138,0-9.968-2.001-13.602-5.634c-3.633-3.634-5.634-8.464-5.634-13.602
	c0-3.419,0.904-6.693,2.567-9.577C361.517,168.377,366.322,172.752,370.929,177.402z M373.208,137.36
	c9.746,0,18.909,3.796,25.802,10.688c14.099,14.1,14.217,36.956,0.371,51.213c-1.78-2.588-3.626-5.138-5.536-7.65
	c4.264-4.939,6.598-11.169,6.598-17.761c0-7.275-2.833-14.114-7.978-19.258c-5.144-5.145-11.982-7.978-19.258-7.978
	c-6.591,0-12.821,2.333-17.76,6.596c-2.512-1.91-5.064-3.754-7.653-5.533C354.641,141.025,363.641,137.36,373.208,137.36z
	 M210.444,123.265c2.672,12.232,13.582,21.42,26.604,21.42c13.021,0,23.931-9.187,26.604-21.418c3.066,0.433,6.115,0.94,9.144,1.522
	c-3.406,16.615-18.141,29.15-35.748,29.15c-17.61,0-32.346-12.54-35.749-29.159C204.328,124.201,207.377,123.696,210.444,123.265z
	 M237.104,121.396c0.15,0,0.303,0.001,0.453,0.001c6.076,0.014,12.108,0.323,18.082,0.907c-2.16,8.26-9.664,14.381-18.591,14.381
	c-8.928,0-16.433-6.123-18.592-14.384C224.614,121.7,230.835,121.396,237.104,121.396z M218.093,114.303
	c1.509-9.111,9.422-16.088,18.955-16.088c9.533,0,17.447,6.978,18.955,16.09c-6.09-0.582-12.236-0.893-18.427-0.907
	c-0.161,0-0.313-0.001-0.473-0.001C230.714,113.396,224.373,113.704,218.093,114.303z M237.048,80.96
	c19.896,0,36.114,16.01,36.472,35.822c-3.092-0.58-6.203-1.087-9.333-1.518c-1.118-13.999-12.859-25.05-27.14-25.05
	s-26.022,11.051-27.14,25.05c-3.129,0.43-6.24,0.935-9.332,1.513C200.937,96.967,217.153,80.96,237.048,80.96z M137.377,173.849
	c0,9.747-3.795,18.91-10.687,25.802c-6.893,6.892-16.056,10.688-25.802,10.688c-7.244,0-14.162-2.1-20.069-6.005
	c1.733-2.551,3.531-5.063,5.395-7.537c4.341,2.788,9.39,4.288,14.672,4.288c7.275,0,14.114-2.833,19.258-7.978
	c5.145-5.144,7.978-11.983,7.978-19.258c0-5.285-1.502-10.336-4.292-14.679c2.473-1.865,4.985-3.665,7.536-5.399
	C135.275,159.679,137.377,166.602,137.377,173.849z M87.286,160.248c3.634-3.633,8.464-5.634,13.602-5.634
	c4.084,0,7.962,1.282,11.211,3.625c-4.782,3.953-9.41,8.145-13.858,12.583c-4.575,4.565-8.895,9.317-12.958,14.236
	C79.883,177.545,80.537,166.997,87.286,160.248z M120.123,173.849c0,5.138-2.001,9.968-5.634,13.602
	c-3.633,3.633-8.463,5.634-13.602,5.634c-3.463,0-6.776-0.929-9.687-2.634c3.972-4.829,8.204-9.49,12.689-13.965
	c4.362-4.352,8.902-8.461,13.598-12.327C119.194,167.071,120.123,170.385,120.123,173.849z M75.086,148.047
	c6.893-6.892,16.056-10.688,25.803-10.688c9.529,0,18.494,3.637,25.331,10.239c-2.593,1.779-5.148,3.623-7.664,5.532
	c-4.924-4.213-11.117-6.517-17.668-6.517c-7.274,0-14.114,2.833-19.258,7.978c-10.107,10.106-10.587,26.242-1.454,36.931
	c-1.908,2.517-3.751,5.073-5.529,7.667C60.87,184.927,61.01,162.124,75.086,148.047z M48.489,310.008
	c0-6.245,0.303-12.444,0.899-18.579c8.237,2.175,14.336,9.668,14.336,18.579c0,8.907-6.094,16.397-14.325,18.576
	C48.803,322.448,48.489,316.255,48.489,310.008z M41.401,328.972c-9.14-1.485-16.147-9.411-16.147-18.964
	c0-9.55,7.003-17.474,16.138-18.962c-0.595,6.264-0.903,12.589-0.903,18.962C40.489,316.384,40.805,322.705,41.401,328.972z
	 M50.348,336.602c12.21-2.688,21.377-13.588,21.377-26.594c0-13.006-9.166-23.905-21.375-26.594c0.43-3.068,0.935-6.117,1.512-9.147
	c16.598,3.419,29.117,18.145,29.117,35.74c0,17.596-12.521,32.323-29.12,35.741C51.277,342.717,50.779,339.667,50.348,336.602z
	 M8,310.008c0-19.909,16.03-36.135,35.859-36.473c-0.577,3.091-1.08,6.201-1.51,9.33c-14.02,1.096-25.096,12.846-25.096,27.143
	c0,14.294,11.071,26.043,25.088,27.143c0.43,3.126,0.932,6.237,1.512,9.33C24.027,346.14,8,329.915,8,310.008z M351.272,355.501
	c-0.916,0-1.793-0.289-2.535-0.838c-32.504-23.969-71.107-36.639-111.637-36.639c-40.528,0-79.132,12.67-111.638,36.64
	c-0.741,0.547-1.618,0.836-2.535,0.836c-1.379,0-2.639-0.635-3.454-1.741c-0.68-0.921-0.96-2.052-0.789-3.183
	c0.172-1.132,0.772-2.129,1.694-2.809c33.986-25.064,74.348-38.313,116.722-38.313s82.735,13.248,116.723,38.313
	c0.921,0.679,1.522,1.676,1.693,2.807c0.171,1.132-0.109,2.263-0.789,3.184C353.912,354.866,352.652,355.5,351.272,355.501z
	 M408.589,388.644c-1.15,2.5-3.475,4.162-6.22,4.446c-2.774,0.295-5.43-0.88-7.093-3.124c-9.425-12.741-20.363-24.286-32.515-34.396
	c0.744-1.952,0.986-4.069,0.666-6.19c-0.49-3.244-2.215-6.104-4.855-8.051c-35.372-26.086-77.376-39.874-121.471-39.874
	s-86.099,13.788-121.47,39.874c-2.641,1.947-4.365,4.807-4.855,8.051c-0.321,2.122-0.079,4.239,0.665,6.191
	c-12.152,10.109-23.089,21.654-32.514,34.395c-1.659,2.243-4.308,3.404-7.083,3.123c-2.754-0.285-5.086-1.954-6.238-4.463
	c-5.208-11.35-9.224-23.062-12.062-35.057c20.205-4.194,35.436-22.131,35.436-43.561c0-21.435-15.238-39.375-35.449-43.564
	c4.614-19.606,12.343-38.27,22.94-55.397c7.19,4.741,15.608,7.292,24.419,7.292c11.883,0,23.055-4.628,31.458-13.031
	c8.403-8.402,13.03-19.574,13.03-31.458c0-8.817-2.553-17.24-7.3-24.433c17.128-10.607,35.792-18.343,55.398-22.964
	c4.174,20.23,22.125,35.487,43.573,35.487c21.443,0,39.391-15.25,43.57-35.474c19.572,4.636,38.217,12.399,55.346,23.038
	c-4.711,7.174-7.245,15.564-7.245,24.346c0,11.884,4.627,23.056,13.03,31.458c8.403,8.403,19.575,13.031,31.459,13.031
	c8.785,0,17.178-2.536,24.354-7.25c10.652,17.136,18.42,35.782,23.064,55.342c-20.241,4.165-35.51,22.122-35.51,43.578
	c0,21.466,15.282,39.43,35.538,43.584C417.815,365.596,413.798,377.307,408.589,388.644z M430.343,346.479
	c0.58-3.096,1.093-6.207,1.523-9.336c13.964-1.153,24.976-12.878,24.976-27.134c0-14.263-11.023-25.992-24.996-27.136
	c-0.434-3.13-0.943-6.242-1.526-9.335c19.791,0.383,35.775,16.591,35.775,36.471C466.096,329.882,450.123,346.084,430.343,346.479z"
	/>
<g>
</g>
<g>
</g>
<g>
</g>
<g>
</g>
<g>
</g>
<g>
</g>
<g>
</g>
<g>
</g>
<g>
</g>
<g>
</g>
<g>
</g>
<g>
</g>
<g>
</g>
<g>
</g>
<g>
</g>
</svg>
