<?xml version="1.0" encoding="iso-8859-1"?>
<!-- Generator: Adobe Illustrator 18.0.0, SVG Export Plug-In . SVG Version: 6.00 Build 0)  -->
<!DOCTYPE svg PUBLIC "-//W3C//DTD SVG 1.1//EN" "http://www.w3.org/Graphics/SVG/1.1/DTD/svg11.dtd">
<svg version="1.1" id="Capa_1" xmlns="http://www.w3.org/2000/svg" xmlns:xlink="http://www.w3.org/1999/xlink" x="0px" y="0px"
	 viewBox="0 0 453.122 453.122" style="enable-background:new 0 0 453.122 453.122;" xml:space="preserve">
<path d="M381.833,238.556L279.404,61.117c-8.47-14.676-23.156-23.854-39.815-25.122V4c0-2.209-1.791-4-4-4s-4,1.791-4,4v31.999
	c-16.642,1.28-31.311,10.455-39.773,25.117l-114.21,197.81c-9.138,15.829-9.136,34.731,0.005,50.564
	c9.142,15.833,25.512,25.286,43.79,25.286h27.797l-63.852,108.18l17.224,10.166l69.852-118.346h159.188c2.209,0,4-1.791,4-4v-27
	c0-2.209-1.791-4-4-4h-138.53l24.457-41.436c1.069,0.392,2.197,0.615,3.341,0.615c3.434,0,6.651-1.835,8.395-4.79l48.042-81.396
	c2.73-4.626,1.188-10.611-3.438-13.342l-14.197-8.38c-1.5-0.885-3.21-1.353-4.945-1.353c-3.434,0-6.651,1.836-8.396,4.791
	l-48.042,81.395c-1.323,2.241-1.694,4.863-1.045,7.384c0.5,1.943,1.566,3.64,3.052,4.924l-30.449,51.588h-45.706
	c-6.2,0-11.752-3.207-14.854-8.578s-3.102-11.783-0.002-17.152L220.754,80.995c3.1-5.374,8.653-8.582,14.855-8.582
	s11.755,3.208,14.856,8.583l101.57,175.91c0.543,0.941,1.446,1.62,2.5,1.882c1.054,0.262,2.17,0.083,3.09-0.494l22.87-14.35
	C382.318,242.8,382.909,240.42,381.833,238.556z M99.745,442.167l-3.444-2.033L207.11,252.396l3.445,2.033L99.745,442.167z
	 M327.609,307.776v19H177.143l11.214-19H327.609z M205.186,239.948l48.042-81.395c0.317-0.537,0.88-0.858,1.507-0.858
	c0.311,0,0.607,0.082,0.879,0.242l14.196,8.379c0.828,0.488,1.104,1.56,0.615,2.387l-48.042,81.396
	c-0.474,0.803-1.562,1.101-2.386,0.614l-14.197-8.38c-0.54-0.318-0.733-0.804-0.801-1.064S204.867,240.489,205.186,239.948z
	 M356.888,249.313L257.394,76.997c-4.545-7.88-12.689-12.584-21.785-12.584s-17.239,4.704-21.784,12.583l-111.46,193.05
	c-4.545,7.874-4.545,17.276,0.002,25.152s12.69,12.578,21.782,12.578h40.984l-11.214,19h-32.519
	c-15.386,0-29.166-7.957-36.861-21.286c-7.695-13.328-7.697-29.24-0.005-42.564l114.21-197.811
	c7.015-12.155,19.099-19.821,32.845-21.081v8.957c0,2.209,1.791,4,4,4s4-1.791,4-4V44.03c13.763,1.248,25.864,8.917,32.887,21.086
	l100.502,174.101L356.888,249.313z"/>
<g>
</g>
<g>
</g>
<g>
</g>
<g>
</g>
<g>
</g>
<g>
</g>
<g>
</g>
<g>
</g>
<g>
</g>
<g>
</g>
<g>
</g>
<g>
</g>
<g>
</g>
<g>
</g>
<g>
</g>
</svg>
