<?xml version="1.0" encoding="iso-8859-1"?>
<!-- Generator: Adobe Illustrator 18.0.0, SVG Export Plug-In . SVG Version: 6.00 Build 0)  -->
<!DOCTYPE svg PUBLIC "-//W3C//DTD SVG 1.1//EN" "http://www.w3.org/Graphics/SVG/1.1/DTD/svg11.dtd">
<svg version="1.1" id="Capa_1" xmlns="http://www.w3.org/2000/svg" xmlns:xlink="http://www.w3.org/1999/xlink" x="0px" y="0px"
	 viewBox="0 0 458.09 458.09" style="enable-background:new 0 0 458.09 458.09;" xml:space="preserve">
<g>
	<path d="M165.097,258.512c-9.21,0-17.87,3.587-24.382,10.1c-6.513,6.513-10.1,15.172-10.1,24.383s3.587,17.87,10.1,24.382
		c6.513,6.513,15.172,10.1,24.383,10.1s17.87-3.587,24.382-10.1c6.513-6.513,10.1-15.172,10.1-24.383s-3.587-17.87-10.1-24.382
		C182.967,262.099,174.307,258.512,165.097,258.512z M183.822,311.721c-5.001,5.001-11.652,7.756-18.726,7.756
		s-13.724-2.755-18.726-7.757c-5.001-5.001-7.756-11.652-7.756-18.726s2.755-13.724,7.757-18.726
		c5.001-5.001,11.652-7.756,18.726-7.756s13.724,2.755,18.726,7.757c5.001,5.001,7.756,11.652,7.756,18.726
		S188.824,306.719,183.822,311.721z"/>
	<path d="M65.524,339.696l52.871,52.871l19.256-19.256l-52.871-52.871L65.524,339.696z M118.395,381.253l-41.558-41.558l7.943-7.943
		l41.558,41.558L118.395,381.253z"/>
	<path d="M457.779,45.052c-8.516-20.334-24.405-36.223-44.74-44.74c-1.552-0.65-3.342-0.26-4.483,0.975l-8.637,9.347l-3.013-3.013
		l-5.657,5.657l3.236,3.236l-22.103,23.919l-2.99-2.99l-5.657,5.657l3.213,3.213l-22.103,23.919l-2.774-2.774l-5.657,5.657
		l2.997,2.997l-8.74,9.458c-0.509,0.551-0.853,1.233-0.992,1.969l-1.884,9.932L203.905,213.314
		c-25.746-15.761-50.373-15.766-66.282,0.143c-6.705,6.705-13.354,17.685-18.722,30.917c-5.225,12.881-16.472,22.264-30.087,25.1
		c-29.482,6.137-59.021,19.991-73.504,34.474C1.396,317.861-3.154,336.835,2.152,358.819c4.829,20.007,17.895,41.432,36.79,60.328
		c18.895,18.895,40.32,31.961,60.327,36.79c5.959,1.438,11.695,2.152,17.17,2.152c14.726,0,27.56-5.167,37.702-15.31
		c14.482-14.483,28.336-44.022,34.474-73.504c2.836-13.616,12.219-24.863,25.098-30.087c13.215-5.35,24.196-12,30.918-18.723
		c15.908-15.908,15.903-40.533,0.144-66.279l115.842-123.89l9.932-1.885c0.736-0.14,1.418-0.483,1.969-0.992l9.458-8.74l2.966,2.966
		l5.657-5.657l-2.742-2.742l23.92-22.104l3.182,3.182l5.657-5.657l-2.958-2.958l23.919-22.103l3.205,3.205l5.657-5.657l-2.982-2.982
		l9.346-8.637C458.039,48.394,458.429,46.603,457.779,45.052z M331.387,105.066l21.639,21.639l-139.94,149.661
		c-1.565-7.652-5.329-14.674-11.007-20.353c-5.655-5.655-12.696-9.427-20.361-11L331.387,105.066z M238.974,314.809
		c-5.895,5.896-16.197,12.079-28.266,16.965c-15.357,6.229-26.544,19.638-29.925,35.87c-5.755,27.646-19.037,56.216-32.299,69.478
		c-14.956,14.958-33.997,14.259-47.338,11.038c-18.597-4.488-38.679-16.801-56.547-34.67c-17.869-17.869-30.182-37.951-34.67-56.547
		c-3.22-13.34-3.919-32.382,11.038-47.338c13.262-13.262,41.832-26.544,69.479-32.299c16.231-3.381,29.64-14.568,35.869-29.925
		c4.903-12.085,11.087-22.388,16.966-28.267c12.729-12.729,32.881-12.682,54.541-0.112l-28.098,26.273
		c-1.215,1.136-1.6,2.905-0.968,4.443c0.632,1.538,2.129,2.513,3.813,2.478c8.985-0.251,17.517,3.138,23.853,9.474
		c6.365,6.365,9.73,14.836,9.474,23.853c-0.047,1.662,0.939,3.18,2.478,3.813c0.492,0.203,1.008,0.301,1.52,0.301
		c1.086,0,2.15-0.442,2.923-1.268l26.273-28.098C251.657,281.929,251.704,302.08,238.974,314.809z M367.932,120.767l-8.01,1.52
		l-24.118-24.118l1.52-8.01l75.171-81.347c16.326,7.541,29.244,20.458,36.784,36.784L367.932,120.767z"/>
	<path d="M417.286,22.616c-1.616-1.507-4.147-1.418-5.653,0.197L347.74,91.326c-1.507,1.616-1.418,4.147,0.197,5.653
		c0.771,0.719,1.75,1.075,2.727,1.075c1.071,0,2.139-0.427,2.926-1.272l63.893-68.512C418.991,26.654,418.902,24.123,417.286,22.616
		z"/>
	<path d="M429.822,40.607l-68.512,63.894c-1.616,1.507-1.704,4.038-0.197,5.653c0.788,0.845,1.855,1.272,2.926,1.272
		c0.977,0,1.957-0.356,2.727-1.075l68.512-63.894c1.616-1.507,1.704-4.038,0.197-5.653
		C433.969,39.189,431.437,39.101,429.822,40.607z"/>
</g>
<g>
</g>
<g>
</g>
<g>
</g>
<g>
</g>
<g>
</g>
<g>
</g>
<g>
</g>
<g>
</g>
<g>
</g>
<g>
</g>
<g>
</g>
<g>
</g>
<g>
</g>
<g>
</g>
<g>
</g>
</svg>
