<?xml version="1.0" encoding="iso-8859-1"?>
<!-- Generator: Adobe Illustrator 18.0.0, SVG Export Plug-In . SVG Version: 6.00 Build 0)  -->
<!DOCTYPE svg PUBLIC "-//W3C//DTD SVG 1.1//EN" "http://www.w3.org/Graphics/SVG/1.1/DTD/svg11.dtd">
<svg version="1.1" id="Capa_1" xmlns="http://www.w3.org/2000/svg" xmlns:xlink="http://www.w3.org/1999/xlink" x="0px" y="0px"
	 viewBox="0 0 445.744 445.744" style="enable-background:new 0 0 445.744 445.744;" xml:space="preserve">
<g>
	<path d="M444.006,17.919L427.825,1.739C426.703,0.617,425.212,0,423.626,0c-1.587,0-3.078,0.618-4.2,1.739l-6.446,6.446
		l-2.49-2.495c-1.561-1.564-4.093-1.565-5.657-0.005c-1.563,1.561-1.566,4.093-0.005,5.657l2.496,2.5l-6.443,6.443
		c-2.234,2.234-2.291,5.808-0.214,8.139l-9.092,8.5l-3.164-3.164c-1.563-1.562-4.095-1.562-5.657,0
		c-1.562,1.563-1.562,4.095,0,5.657l2.974,2.974l-5.399,5.048l-3.297-3.297c-1.563-1.562-4.095-1.562-5.657,0
		c-1.562,1.563-1.562,4.095,0,5.657l3.106,3.106l-93.614,87.519c-30.703-22.017-66.828-23.665-86.897-3.595
		c-8.368,8.368-14.115,16.231-18.073,24.729c-1.83,3.128-6.021,8.67-13.979,11.765c-2.963,1.161-4.906,3.968-4.95,7.153
		c-0.044,3.199,1.831,6.074,4.774,7.322c0.081,0.035,1.074,0.514,1.074,0.514c1.148,0.474,1.995,1.124,2.578,1.975
		c1.677,2.462,0.944,6.944-1.961,11.991c-3.505,6.088-9.58,12.263-17.106,17.39c-7.518,5.126-15.483,8.519-22.43,9.553
		c-5.846,0.871-10.178-0.066-11.88-2.563c-0.066-0.1-0.712-1.134-2.977-6.408c-1.148-2.659-3.744-4.342-6.655-4.312
		c-2.89,0.039-5.45,1.798-6.523,4.48c-1.424,3.556-3.501,6.714-6.174,9.387c-2.998,2.998-6.682,5.267-10.65,6.562
		c-15.705,5.1-28.661,12.451-37.468,21.256c-14.608,14.609-19.667,35.753-14.244,59.54c4.75,20.832,17.036,42.314,34.726,60.876
		L1.173,438.916c-1.562,1.563-1.562,4.095,0,5.657c0.781,0.781,1.805,1.171,2.829,1.171s2.047-0.391,2.829-1.171l60.876-60.876
		c18.559,17.69,40.041,29.975,60.874,34.724c6.225,1.419,12.268,2.12,18.062,2.12c16.343,0,30.691-5.58,41.477-16.365
		c8.798-8.798,16.151-21.75,21.266-37.457c2.482-7.637,8.292-13.774,15.922-16.829c0.928-0.367,1.747-0.901,2.435-1.589
		c1.661-1.661,2.386-4.049,1.94-6.388c-0.442-2.318-2.008-4.265-4.197-5.211c-5.172-2.222-6.233-2.863-6.396-2.971
		c-2.461-1.676-3.418-6.116-2.561-11.876c1.034-6.947,4.425-14.917,9.547-22.438c5.126-7.526,11.301-13.601,17.389-17.104
		c5.123-2.948,9.496-3.66,11.993-1.958c0.853,0.583,1.502,1.432,1.986,2.593l0.499,1.052c1.25,2.946,4.117,4.831,7.323,4.777
		c3.185-0.044,5.992-1.987,7.155-4.955c3.118-7.99,8.652-12.155,11.769-13.963c8.502-3.973,16.363-9.724,24.724-18.083
		c20.066-20.066,18.414-56.186-3.601-86.885l92.329-98.758l3.273,3.273c0.781,0.781,1.805,1.172,2.829,1.172
		c1.023,0,2.047-0.391,2.828-1.171c1.563-1.562,1.563-4.095,0-5.657l-3.464-3.464l5.048-5.4l3.141,3.141
		c0.781,0.781,1.805,1.171,2.829,1.171s2.047-0.391,2.829-1.171c1.562-1.563,1.562-4.095,0-5.657l-3.331-3.331l3.688-3.945
		c1.09,0.975,2.477,1.513,3.95,1.513c1.587,0,3.078-0.618,4.2-1.739l6.44-6.44l2.499,2.499c0.781,0.781,1.805,1.171,2.829,1.171
		s2.047-0.391,2.829-1.171c1.562-1.563,1.562-4.095,0-5.657l-2.499-2.499l6.449-6.449C446.321,24.004,446.321,20.236,444.006,17.919
		z M405.786,34.589l5.371,5.371l-27.728,29.659l-7.302-7.302L405.786,34.589z M377.962,75.466L221.513,242.811l-18.578-18.578
		L370.28,67.784L377.962,75.466z M108.209,343.424l-5.888-5.888l22.759-34.274l17.403,17.403L108.209,343.424z M97.178,343.708
		l4.86,4.86l-29.08,29.08c-0.825-0.79-1.65-1.578-2.463-2.39c-0.815-0.815-1.605-1.643-2.397-2.47L97.178,343.708z M314.665,210.109
		c1.632,18.7-5.304,29.903-11.409,36.008c-7.729,7.729-14.91,12.991-22.596,16.56l-0.3,0.154c-3.95,2.256-11.13,7.531-15.223,17.655
		c-0.15-0.342-0.287-0.646-0.443-0.927c-1.08-2.45-2.667-4.402-4.725-5.811c-5.214-3.554-12.492-2.975-20.495,1.63
		c-7.112,4.093-14.219,11.03-20.011,19.534c-12.929,18.987-15.026,38.517-4.886,45.424c0.658,0.451,1.902,1.156,5.919,2.92
		c-8.941,4.164-15.708,11.717-18.72,20.987c-4.658,14.304-11.518,26.477-19.315,34.274c-8.908,8.909-25.179,18.241-52.103,12.102
		c-17.387-3.963-35.341-13.642-51.475-27.584l31.358-31.358l44.813-29.757l-31.229-31.229l-29.757,44.813L62.71,366.862
		c-13.943-16.136-23.623-34.091-27.587-51.477c-6.139-26.924,3.192-43.195,12.101-52.104c7.805-7.804,19.979-14.66,34.287-19.306
		c5.165-1.685,9.948-4.628,13.832-8.512c2.97-2.97,5.367-6.4,7.143-10.218c2.026,4.608,2.637,5.504,2.916,5.914
		c3.554,5.213,10.541,7.335,19.673,5.976c8.116-1.208,17.264-5.064,25.757-10.855c8.501-5.791,15.439-12.896,19.534-20.009
		c4.607-8.001,5.189-15.276,1.633-20.498c-1.415-2.062-3.367-3.647-5.808-4.717c-0.273-0.152-0.577-0.292-0.933-0.45
		c10.081-4.062,15.382-11.246,17.658-15.202l0.164-0.316c3.552-7.682,8.81-14.864,16.547-22.6
		c11.067-11.068,25.692-12.315,36.018-11.417c13.122,1.145,26.897,6.42,39.244,14.944l-83.459,78.026l30.278,30.278l78.016-83.449
		C308.245,183.213,313.52,196.986,314.665,210.109z M421.26,37.752l-13.267-13.267l15.632-15.632l13.267,13.267L421.26,37.752z"/>
	<path d="M172.841,232.982c-2.164-2.164-5.041-3.356-8.101-3.356c-3.061,0-5.938,1.192-8.101,3.355l-28.646,28.646
		c-1.347,1.348-3.541,1.348-4.887,0c-1.344-1.343-1.344-3.53,0-4.873l1.575-1.575c1.562-1.562,1.562-4.094,0-5.657l-1.479-1.479
		c-1.562-1.562-4.094-1.563-5.657-0.001c-1.095,1.095-1.423,2.668-0.982,4.049c-3.554,4.489-3.259,11.048,0.886,15.193
		c2.233,2.233,5.167,3.35,8.101,3.35c2.934,0,5.868-1.116,8.101-3.35l28.646-28.647c1.305-1.306,3.581-1.307,4.887,0
		c0.651,0.65,1.009,1.516,1.009,2.436c0,0.92-0.358,1.786-1.009,2.436l-1.575,1.575c-0.75,0.75-1.172,1.768-1.172,2.829
		s0.421,2.079,1.171,2.829l1.479,1.479c1.563,1.562,4.095,1.562,5.657,0c1.095-1.095,1.422-2.668,0.982-4.048
		C177.281,243.686,176.985,237.127,172.841,232.982z"/>
	<path d="M197.571,272.019c-1.381-0.442-2.953-0.113-4.048,0.982c-1.562,1.563-1.562,4.095,0,5.657l1.479,1.479
		c0.75,0.75,1.768,1.171,2.829,1.171s2.078-0.422,2.829-1.172l1.574-1.575c1.344-1.344,3.529-1.343,4.873,0
		c1.348,1.348,1.348,3.541,0,4.888l-28.647,28.647c-4.466,4.467-4.466,11.735,0,16.201c2.231,2.231,5.163,3.347,8.093,3.347
		c2.513,0,5.027-0.82,7.099-2.461c1.38,0.441,2.953,0.113,4.049-0.981c1.562-1.563,1.562-4.095,0-5.657l-1.479-1.479
		c-1.563-1.562-4.095-1.562-5.657,0l-1.575,1.575c-1.343,1.344-3.53,1.344-4.873,0c-1.348-1.347-1.348-3.54,0-4.887l28.647-28.646
		c4.466-4.466,4.466-11.734,0-16.202C208.619,268.761,202.062,268.466,197.571,272.019z"/>
</g>
<g>
</g>
<g>
</g>
<g>
</g>
<g>
</g>
<g>
</g>
<g>
</g>
<g>
</g>
<g>
</g>
<g>
</g>
<g>
</g>
<g>
</g>
<g>
</g>
<g>
</g>
<g>
</g>
<g>
</g>
</svg>
