<?xml version="1.0" encoding="iso-8859-1"?>
<!-- Generator: Adobe Illustrator 18.0.0, SVG Export Plug-In . SVG Version: 6.00 Build 0)  -->
<!DOCTYPE svg PUBLIC "-//W3C//DTD SVG 1.1//EN" "http://www.w3.org/Graphics/SVG/1.1/DTD/svg11.dtd">
<svg version="1.1" id="Capa_1" xmlns="http://www.w3.org/2000/svg" xmlns:xlink="http://www.w3.org/1999/xlink" x="0px" y="0px"
	 viewBox="0 0 465.422 465.422" style="enable-background:new 0 0 465.422 465.422;" xml:space="preserve">
<path d="M465.311,366.025c-16.543-68.933-49.549-133.925-95.449-187.95l-3.873-4.559c-1.132-1.333-2.999-1.775-4.608-1.094
	c-1.61,0.682-2.59,2.33-2.422,4.07c5.426,55.924-28.472,117.103-82.434,148.776c-3.867,2.27-18.347,9.153-33.163,16.024
	c26.604-26.024,43.146-62.295,43.146-102.362c0-78.99-64.264-143.254-143.254-143.254c-47.95,0-90.469,23.684-116.484,59.964v-70.36
	l7.544-24.547c0.373-1.213,0.147-2.531-0.606-3.552c-0.754-1.021-1.948-1.623-3.217-1.623h-15.44c-1.269,0-2.463,0.603-3.217,1.623
	c-0.754,1.021-0.979,2.339-0.606,3.552l7.544,24.547v82.825C6.831,189.007,0,213.185,0,238.931c0,2.151,0.19,7.291,0.208,7.628
	c0.377,7.15,1.276,14.163,2.67,21c0.764,3.746,4.733,25.461,10.692,41.998c3.745,10.39,9.149,22.409,16.883,34.494
	c12.224,19.1,27.747,34.328,46.137,45.26c22.938,13.638,50.358,20.552,81.496,20.552c38.498,0,88.87-5.964,170.584-50.197
	c39.335-21.287,89.344-17.222,130.511,10.607c1.368,0.924,3.162,0.915,4.519-0.026C465.056,369.307,465.696,367.63,465.311,366.025z
	 M51.78,148.763c23.071-16.967,55.557-26.312,91.474-26.312c64.23,0,116.485,52.255,116.485,116.485
	c0,40.886-21.181,76.913-53.145,97.702v-41.532h13.157c11.723,0,21.26-9.538,21.26-21.261s-9.537-21.26-21.26-21.26h-13.157v-26.68
	h13.157c11.723,0,21.26-9.537,21.26-21.26s-9.537-21.26-21.26-21.26h-13.157v-1.831c0-11.217-4.365-21.76-12.292-29.687
	c-7.927-7.926-18.469-12.292-29.686-12.292c-23.147,0-41.978,18.831-41.978,41.978v1.831h-39.81
	c-1.834-6.735-7.988-11.709-15.296-11.709c-8.75,0-15.868,7.119-15.868,15.868s7.119,15.868,15.868,15.868
	c7.423,0,13.654-5.131,15.378-12.027h39.727v26.521h-39.81c-1.835-6.735-7.988-11.708-15.296-11.708
	c-8.75,0-15.868,7.119-15.868,15.868s7.119,15.868,15.868,15.868c7.423,0,13.654-5.131,15.379-12.027h39.727v26.68H82.87
	c-1.78-6.816-7.972-11.868-15.337-11.868c-8.75,0-15.868,7.119-15.868,15.868c0,8.75,7.119,15.868,15.868,15.868
	c7.366,0,13.557-5.052,15.337-11.868h39.769v26.521H82.87c-1.78-6.816-7.972-11.868-15.337-11.868
	c-8.75,0-15.868,7.119-15.868,15.868s7.119,15.868,15.868,15.868c7.366,0,13.557-5.052,15.337-11.868h39.769v30.139
	c-11.069,2.193-19.764,11.048-21.729,22.196c-43.307-16.955-74.073-59.117-74.141-108.341l0-64.073
	C33.369,164.936,41.711,156.168,51.78,148.763z M198.594,183.385h-67.956v-1.831c0-18.735,15.243-33.978,33.978-33.978
	c9.08,0,17.614,3.533,24.029,9.949c6.416,6.415,9.949,14.949,9.949,24.029V183.385z M198.594,191.385v26.521h-67.956v-26.521
	H198.594z M206.594,191.385h13.157c7.312,0,13.26,5.949,13.26,13.26s-5.949,13.26-13.26,13.26h-13.157V191.385z M198.594,225.906
	v26.68h-67.956v-26.68H198.594z M198.594,260.586v26.521h-67.956v-26.521H198.594z M206.594,260.586h13.157
	c7.312,0,13.26,5.949,13.26,13.261c0,7.312-5.949,13.26-13.26,13.26h-13.157V260.586z M198.594,295.107v29.612h-67.956v-29.612
	H198.594z M122.639,353.583c-4.787-0.858-9.473-2.01-14.039-3.436c0.85-7.974,6.525-14.512,14.039-16.663V353.583z M130.639,332.719
	h67.956v8.685c-16.471,8.93-35.324,14.006-55.34,14.006c-4.262,0-8.47-0.237-12.615-0.685V332.719z M75.401,187.545
	c0,4.338-3.53,7.868-7.868,7.868s-7.868-3.53-7.868-7.868s3.53-7.868,7.868-7.868S75.401,183.206,75.401,187.545z M75.401,222.066
	c0,4.338-3.53,7.868-7.868,7.868s-7.868-3.529-7.868-7.868s3.53-7.868,7.868-7.868S75.401,217.727,75.401,222.066z M75.401,256.586
	c0,4.338-3.53,7.868-7.868,7.868s-7.868-3.53-7.868-7.868c0-4.338,3.53-7.868,7.868-7.868S75.401,252.248,75.401,256.586z
	 M75.401,291.107c0,4.338-3.53,7.868-7.868,7.868s-7.868-3.53-7.868-7.868s3.53-7.868,7.868-7.868S75.401,286.769,75.401,291.107z
	 M25.076,63.559l-2.306,7.504l-2.306-7.504H25.076z M8.151,245.226c0.036-20.998,3.589-39.509,10.618-55.428l0,49.139
	c0,68.635,55.844,124.473,124.485,124.473s124.485-55.838,124.485-124.473c0-68.641-55.844-124.485-124.485-124.485
	c-34.531,0-66.155,8.348-90.014,23.622c23.928-21.379,55.477-34.397,90.014-34.397c74.58,0,135.254,60.675,135.254,135.254
	c0,74.58-60.675,135.254-135.254,135.254C70.785,374.185,11.452,316.894,8.151,245.226z M324.862,352.63
	c-80.145,43.384-129.281,49.233-166.776,49.233c-29.607,0-55.598-6.505-77.25-19.335c-17.296-10.249-31.926-24.561-43.483-42.54
	c-3.184-4.953-5.954-9.918-8.37-14.768c26.177,34.58,67.657,56.965,114.272,56.965c24.165,0,46.95-6.016,66.94-16.626
	c1.387-0.736,6.878-3.479,8.521-4.216c16.696-7.481,54.677-24.958,61.861-29.175c27.214-15.974,50.749-40.07,66.266-67.849
	c13.81-24.721,20.871-50.952,20.701-76.558c41.015,49.608,71.124,108.257,87.56,170.49
	C413.2,333.708,364.123,331.384,324.862,352.63z"/>
<g>
</g>
<g>
</g>
<g>
</g>
<g>
</g>
<g>
</g>
<g>
</g>
<g>
</g>
<g>
</g>
<g>
</g>
<g>
</g>
<g>
</g>
<g>
</g>
<g>
</g>
<g>
</g>
<g>
</g>
</svg>
