<?xml version="1.0" encoding="iso-8859-1"?>
<!-- Generator: Adobe Illustrator 18.0.0, SVG Export Plug-In . SVG Version: 6.00 Build 0)  -->
<!DOCTYPE svg PUBLIC "-//W3C//DTD SVG 1.1//EN" "http://www.w3.org/Graphics/SVG/1.1/DTD/svg11.dtd">
<svg version="1.1" id="Capa_1" xmlns="http://www.w3.org/2000/svg" xmlns:xlink="http://www.w3.org/1999/xlink" x="0px" y="0px"
	 viewBox="0 0 472.4 472.4" style="enable-background:new 0 0 472.4 472.4;" xml:space="preserve">
<g>
	<path d="M42.598,183.627c-6.412,0-11.627,5.216-11.627,11.628c0,6.411,5.216,11.627,11.627,11.627
		c6.411,0,11.627-5.216,11.627-11.627C54.225,188.843,49.009,183.627,42.598,183.627z M42.598,198.882c-2,0-3.627-1.627-3.627-3.627
		s1.627-3.628,3.627-3.628s3.627,1.628,3.627,3.628S44.598,198.882,42.598,198.882z"/>
	<path d="M42.598,265.518c-6.412,0-11.627,5.216-11.627,11.627s5.216,11.627,11.627,11.627c6.411,0,11.627-5.216,11.627-11.627
		S49.009,265.518,42.598,265.518z M42.598,280.772c-2,0-3.627-1.627-3.627-3.627s1.627-3.627,3.627-3.627s3.627,1.627,3.627,3.627
		S44.598,280.772,42.598,280.772z"/>
	<path d="M153.228,183.627c-6.412,0-11.627,5.216-11.627,11.628c0,6.411,5.216,11.627,11.627,11.627
		c6.411,0,11.627-5.216,11.627-11.627C164.854,188.843,159.639,183.627,153.228,183.627z M153.228,198.882
		c-2,0-3.627-1.627-3.627-3.627s1.627-3.628,3.627-3.628s3.627,1.628,3.627,3.628S155.228,198.882,153.228,198.882z"/>
	<path d="M153.228,265.518c-6.412,0-11.627,5.216-11.627,11.627s5.216,11.627,11.627,11.627c6.411,0,11.627-5.216,11.627-11.627
		S159.639,265.518,153.228,265.518z M153.228,280.772c-2,0-3.627-1.627-3.627-3.627s1.627-3.627,3.627-3.627
		s3.627,1.627,3.627,3.627S155.228,280.772,153.228,280.772z"/>
	<path d="M97.913,183.627c-6.412,0-11.627,5.216-11.627,11.628c0,6.411,5.216,11.627,11.627,11.627
		c6.411,0,11.627-5.216,11.627-11.627C109.54,188.843,104.324,183.627,97.913,183.627z M97.913,198.882
		c-2,0-3.627-1.627-3.627-3.627s1.627-3.628,3.627-3.628s3.627,1.628,3.627,3.628S99.913,198.882,97.913,198.882z"/>
	<path d="M97.913,265.518c-6.412,0-11.627,5.216-11.627,11.627s5.216,11.627,11.627,11.627c6.411,0,11.627-5.216,11.627-11.627
		S104.324,265.518,97.913,265.518z M97.913,280.772c-2,0-3.627-1.627-3.627-3.627s1.627-3.627,3.627-3.627s3.627,1.627,3.627,3.627
		S99.913,280.772,97.913,280.772z"/>
	<path d="M208.542,183.627c-6.411,0-11.627,5.216-11.627,11.628c0,6.411,5.216,11.627,11.627,11.627
		c6.412,0,11.627-5.216,11.627-11.627C220.169,188.843,214.954,183.627,208.542,183.627z M208.542,198.882
		c-2,0-3.627-1.627-3.627-3.627s1.627-3.628,3.627-3.628s3.627,1.628,3.627,3.628S210.542,198.882,208.542,198.882z"/>
	<path d="M208.542,265.518c-6.411,0-11.627,5.216-11.627,11.627s5.216,11.627,11.627,11.627c6.412,0,11.627-5.216,11.627-11.627
		S214.954,265.518,208.542,265.518z M208.542,280.772c-2,0-3.627-1.627-3.627-3.627s1.627-3.627,3.627-3.627
		s3.627,1.627,3.627,3.627S210.542,280.772,208.542,280.772z"/>
	<path d="M263.857,183.627c-6.411,0-11.627,5.216-11.627,11.628c0,6.411,5.216,11.627,11.627,11.627s11.627-5.216,11.627-11.627
		C275.484,188.843,270.269,183.627,263.857,183.627z M263.857,198.882c-2,0-3.627-1.627-3.627-3.627s1.627-3.628,3.627-3.628
		s3.627,1.628,3.627,3.628S265.857,198.882,263.857,198.882z"/>
	<path d="M263.857,265.518c-6.411,0-11.627,5.216-11.627,11.627s5.216,11.627,11.627,11.627s11.627-5.216,11.627-11.627
		S270.269,265.518,263.857,265.518z M263.857,280.772c-2,0-3.627-1.627-3.627-3.627s1.627-3.627,3.627-3.627
		s3.627,1.627,3.627,3.627S265.857,280.772,263.857,280.772z"/>
	<path d="M319.172,183.627c-6.411,0-11.627,5.216-11.627,11.628c0,6.411,5.216,11.627,11.627,11.627s11.627-5.216,11.627-11.627
		C330.799,188.843,325.583,183.627,319.172,183.627z M319.172,198.882c-2,0-3.627-1.627-3.627-3.627s1.627-3.628,3.627-3.628
		s3.627,1.628,3.627,3.628S321.172,198.882,319.172,198.882z"/>
	<path d="M319.172,265.518c-6.411,0-11.627,5.216-11.627,11.627s5.216,11.627,11.627,11.627s11.627-5.216,11.627-11.627
		S325.583,265.518,319.172,265.518z M319.172,280.772c-2,0-3.627-1.627-3.627-3.627s1.627-3.627,3.627-3.627
		s3.627,1.627,3.627,3.627S321.172,280.772,319.172,280.772z"/>
	<path d="M374.487,183.627c-6.412,0-11.628,5.216-11.628,11.628c0,6.411,5.216,11.627,11.628,11.627
		c6.411,0,11.627-5.216,11.627-11.627C386.114,188.843,380.898,183.627,374.487,183.627z M374.487,198.882
		c-2,0-3.628-1.627-3.628-3.627s1.628-3.628,3.628-3.628s3.627,1.628,3.627,3.628S376.487,198.882,374.487,198.882z"/>
	<path d="M374.487,265.518c-6.412,0-11.628,5.216-11.628,11.627s5.216,11.627,11.628,11.627c6.411,0,11.627-5.216,11.627-11.627
		S380.898,265.518,374.487,265.518z M374.487,280.772c-2,0-3.628-1.627-3.628-3.627s1.628-3.627,3.628-3.627
		s3.627,1.627,3.627,3.627S376.487,280.772,374.487,280.772z"/>
	<path d="M429.607,183.627c-6.411,0-11.627,5.216-11.627,11.628c0,6.411,5.216,11.627,11.627,11.627
		c6.412,0,11.628-5.216,11.628-11.627C441.235,188.843,436.02,183.627,429.607,183.627z M429.607,198.882
		c-2,0-3.627-1.627-3.627-3.627s1.627-3.628,3.627-3.628s3.628,1.628,3.628,3.628S431.607,198.882,429.607,198.882z"/>
	<path d="M429.607,265.518c-6.411,0-11.627,5.216-11.627,11.627s5.216,11.627,11.627,11.627c6.412,0,11.628-5.216,11.628-11.627
		S436.02,265.518,429.607,265.518z M429.607,280.772c-2,0-3.627-1.627-3.627-3.627s1.627-3.627,3.627-3.627s3.628,1.627,3.628,3.627
		S431.607,280.772,429.607,280.772z"/>
	<path d="M465.51,217.056c3.8,0,6.891-3.096,6.891-6.9v-29.8c0-3.805-3.091-6.9-6.891-6.9h-11.714v-16.758
		c0-5.818-4.733-10.553-10.552-10.553h-27.272c-5.818,0-10.552,4.734-10.552,10.553v16.758h-6.745v-21.13
		c0-5.818-4.733-10.552-10.552-10.552h-27.272c-5.818,0-10.552,4.733-10.552,10.552v21.13h-6.938v-23.589
		c0-5.818-4.733-10.552-10.552-10.552h-27.272c-5.818,0-10.553,4.733-10.553,10.552v23.589h-6.938V146.94
		c0-5.818-4.733-10.553-10.552-10.553h-27.272c-5.818,0-10.552,4.734-10.552,10.553v26.516h-6.938v-30.657
		c0-5.818-4.733-10.552-10.552-10.552h-27.273c-5.818,0-10.552,4.733-10.552,10.552v30.657h-6.938V139.75
		c0-5.818-4.733-10.552-10.552-10.552h-27.273c-5.818,0-10.552,4.733-10.552,10.552v33.706h-6.938v-37.463
		c0-5.818-4.733-10.552-10.552-10.552H84.276c-5.818,0-10.552,4.733-10.552,10.552v37.463h-6.938v-42.135
		c0-5.818-4.733-10.552-10.552-10.552H28.961c-5.818,0-10.552,4.733-10.552,10.552v42.135H6.89c-3.799,0-6.89,3.096-6.89,6.9v29.8
		c0,3.805,3.091,6.9,6.89,6.9h11.519v38.289H6.89c-3.799,0-6.89,3.096-6.89,6.9v29.8c0,3.805,3.091,6.899,6.89,6.899h11.519v42.134
		c0,5.818,4.734,10.553,10.552,10.553h27.272c5.818,0,10.552-4.734,10.552-10.553v-42.134h6.938v37.463
		c0,5.818,4.733,10.552,10.552,10.552h27.273c5.818,0,10.552-4.733,10.552-10.552v-37.463h6.938v33.706
		c0,5.818,4.733,10.552,10.552,10.552h27.273c5.818,0,10.552-4.733,10.552-10.552v-33.706h6.938v30.657
		c0,5.818,4.733,10.552,10.552,10.552h27.273c5.818,0,10.552-4.733,10.552-10.552v-30.657h6.938v26.516
		c0,5.818,4.733,10.552,10.552,10.552h27.272c5.818,0,10.552-4.733,10.552-10.552v-26.516h6.938v23.589
		c0,5.818,4.734,10.552,10.553,10.552h27.272c5.818,0,10.552-4.733,10.552-10.552v-23.589h6.938v21.13
		c0,5.818,4.733,10.552,10.552,10.552h27.272c5.818,0,10.552-4.733,10.552-10.552v-21.13h6.745v16.758
		c0,5.818,4.733,10.552,10.552,10.552h27.272c5.818,0,10.552-4.733,10.552-10.552v-16.758h11.714c3.8,0,6.891-3.095,6.891-6.899
		v-29.8c0-3.805-3.091-6.9-6.891-6.9h-11.714v-38.289H465.51z M464.4,181.456v27.601h-10.604v-27.601H464.4z M405.42,181.456v27.601
		h-6.745v-27.601H405.42z M405.42,217.056v38.289h-6.745v-38.289H405.42z M350.299,181.456v27.601h-6.938v-27.601H350.299z
		 M350.299,217.056v38.289h-6.938v-38.289H350.299z M294.983,181.456v27.601h-6.938v-27.601H294.983z M294.983,217.056v38.289
		h-6.938v-38.289H294.983z M239.669,181.456v27.601h-6.938v-27.601H239.669z M239.669,217.056v38.289h-6.938v-38.289H239.669z
		 M184.354,181.456v27.601h-6.938v-27.601H184.354z M184.354,217.056v38.289h-6.938v-38.289H184.354z M129.039,181.456v27.601
		h-6.938v-27.601H129.039z M129.039,217.056v38.289h-6.938v-38.289H129.039z M73.724,181.456v27.601h-6.938v-27.601H73.724z
		 M73.724,217.056v38.289h-6.938v-38.289H73.724z M8,209.056v-27.601h10.409v27.601H8z M8,290.945v-27.6h10.409v27.6H8z
		 M58.786,341.079c0,1.407-1.145,2.553-2.552,2.553H28.961c-1.407,0-2.552-1.146-2.552-2.553V131.321
		c0-1.407,1.145-2.552,2.552-2.552h27.272c1.407,0,2.552,1.145,2.552,2.552V341.079z M66.786,290.945v-27.6h6.938v27.6H66.786z
		 M114.101,336.408c0,1.407-1.145,2.552-2.552,2.552H84.276c-1.407,0-2.552-1.145-2.552-2.552V135.993
		c0-1.407,1.145-2.552,2.552-2.552h27.273c1.407,0,2.552,1.145,2.552,2.552V336.408z M122.101,290.945v-27.6h6.938v27.6H122.101z
		 M169.416,332.651c0,1.407-1.145,2.552-2.552,2.552h-27.273c-1.407,0-2.552-1.145-2.552-2.552V139.75
		c0-1.407,1.145-2.552,2.552-2.552h27.273c1.407,0,2.552,1.145,2.552,2.552V332.651z M177.416,290.945v-27.6h6.938v27.6H177.416z
		 M224.73,329.602c0,1.407-1.145,2.552-2.552,2.552h-27.273c-1.407,0-2.552-1.145-2.552-2.552V142.798
		c0-1.407,1.145-2.552,2.552-2.552h27.273c1.407,0,2.552,1.145,2.552,2.552V329.602z M232.73,290.945v-27.6h6.938v27.6H232.73z
		 M280.045,325.46c0,1.407-1.145,2.552-2.552,2.552h-27.272c-1.407,0-2.552-1.145-2.552-2.552V146.94
		c0-1.407,1.145-2.553,2.552-2.553h27.272c1.407,0,2.552,1.146,2.552,2.553V325.46z M288.045,290.945v-27.6h6.938v27.6H288.045z
		 M335.36,322.534c0,1.407-1.145,2.552-2.552,2.552h-27.272c-1.407,0-2.553-1.145-2.553-2.552V149.867
		c0-1.407,1.146-2.552,2.553-2.552h27.272c1.407,0,2.552,1.145,2.552,2.552V322.534z M343.36,290.945v-27.6h6.938v27.6H343.36z
		 M390.675,320.075c0,1.407-1.145,2.552-2.552,2.552h-27.272c-1.407,0-2.552-1.145-2.552-2.552V152.326
		c0-1.407,1.145-2.552,2.552-2.552h27.272c1.407,0,2.552,1.145,2.552,2.552V320.075z M398.675,290.945v-27.6h6.745v27.6H398.675z
		 M445.796,315.703c0,1.407-1.145,2.552-2.552,2.552h-27.272c-1.407,0-2.552-1.145-2.552-2.552V156.698
		c0-1.407,1.145-2.553,2.552-2.553h27.272c1.407,0,2.552,1.146,2.552,2.553V315.703z M464.4,263.345v27.6h-10.604v-27.6H464.4z"/>
</g>
<g>
</g>
<g>
</g>
<g>
</g>
<g>
</g>
<g>
</g>
<g>
</g>
<g>
</g>
<g>
</g>
<g>
</g>
<g>
</g>
<g>
</g>
<g>
</g>
<g>
</g>
<g>
</g>
<g>
</g>
</svg>
